<svg width="224" height="40" viewBox="0 0 224 40" fill="none" xmlns="http://www.w3.org/2000/svg">
<path d="M18.1553 4.4044C18.8407 2.76793 21.1593 2.76792 21.8447 4.4044L24.8443 11.566C25.1326 12.2545 25.7804 12.7251 26.5242 12.7866L34.2622 13.4263C36.0304 13.5724 36.7469 15.7776 35.4023 16.9351L29.5182 22.0009C28.9525 22.4879 28.7051 23.2494 28.8765 23.9758L30.6593 31.5328C31.0667 33.2596 29.1909 34.6225 27.6744 33.7014L21.0383 29.6706C20.4003 29.2832 19.5997 29.2832 18.9617 29.6706L12.3256 33.7014C10.8091 34.6225 8.93334 33.2596 9.34072 31.5328L11.1235 23.9758C11.2949 23.2494 11.0475 22.4879 10.4818 22.0009L4.59765 16.9351C3.25308 15.7776 3.96957 13.5724 5.73776 13.4263L13.4758 12.7866C14.2196 12.7251 14.8674 12.2545 15.1557 11.566L18.1553 4.4044Z" fill="#FFD155"/>
<path d="M64.1553 4.4044C64.8407 2.76793 67.1593 2.76792 67.8447 4.4044L70.8443 11.566C71.1326 12.2545 71.7804 12.7251 72.5242 12.7866L80.2622 13.4263C82.0304 13.5724 82.7469 15.7776 81.4023 16.9351L75.5182 22.0009C74.9525 22.4879 74.7051 23.2494 74.8765 23.9758L76.6593 31.5328C77.0667 33.2596 75.1909 34.6225 73.6744 33.7014L67.0383 29.6706C66.4003 29.2832 65.5997 29.2832 64.9617 29.6706L58.3256 33.7014C56.8091 34.6225 54.9333 33.2596 55.3407 31.5328L57.1235 23.9758C57.2949 23.2494 57.0475 22.4879 56.4818 22.0009L50.5977 16.9351C49.2531 15.7776 49.9696 13.5724 51.7378 13.4263L59.4758 12.7866C60.2196 12.7251 60.8674 12.2545 61.1557 11.566L64.1553 4.4044Z" fill="#FFD155"/>
<path d="M110.155 4.4044C110.841 2.76793 113.159 2.76792 113.845 4.4044L116.844 11.566C117.133 12.2545 117.78 12.7251 118.524 12.7866L126.262 13.4263C128.03 13.5724 128.747 15.7776 127.402 16.9351L121.518 22.0009C120.953 22.4879 120.705 23.2494 120.876 23.9758L122.659 31.5328C123.067 33.2596 121.191 34.6225 119.674 33.7014L113.038 29.6706C112.4 29.2832 111.6 29.2832 110.962 29.6706L104.326 33.7014C102.809 34.6225 100.933 33.2596 101.341 31.5328L103.124 23.9758C103.295 23.2494 103.047 22.4879 102.482 22.0009L96.5977 16.9351C95.2531 15.7776 95.9696 13.5724 97.7378 13.4263L105.476 12.7866C106.22 12.7251 106.867 12.2545 107.156 11.566L110.155 4.4044Z" fill="#FFD155"/>
<path d="M156.155 4.4044C156.841 2.76793 159.159 2.76792 159.845 4.4044L162.844 11.566C163.133 12.2545 163.78 12.7251 164.524 12.7866L172.262 13.4263C174.03 13.5724 174.747 15.7776 173.402 16.9351L167.518 22.0009C166.953 22.4879 166.705 23.2494 166.876 23.9758L168.659 31.5328C169.067 33.2596 167.191 34.6225 165.674 33.7014L159.038 29.6706C158.4 29.2832 157.6 29.2832 156.962 29.6706L150.326 33.7014C148.809 34.6225 146.933 33.2596 147.341 31.5328L149.124 23.9758C149.295 23.2494 149.047 22.4879 148.482 22.0009L142.598 16.9351C141.253 15.7776 141.97 13.5724 143.738 13.4263L151.476 12.7866C152.22 12.7251 152.867 12.2545 153.156 11.566L156.155 4.4044Z" fill="#FFD155"/>
<path d="M202.155 4.4044C202.841 2.76793 205.159 2.76792 205.845 4.4044L208.844 11.566C209.133 12.2545 209.78 12.7251 210.524 12.7866L218.262 13.4263C220.03 13.5724 220.747 15.7776 219.402 16.9351L213.518 22.0009C212.953 22.4879 212.705 23.2494 212.876 23.9758L214.659 31.5328C215.067 33.2596 213.191 34.6225 211.674 33.7014L205.038 29.6706C204.4 29.2832 203.6 29.2832 202.962 29.6706L196.326 33.7014C194.809 34.6225 192.933 33.2596 193.341 31.5328L195.124 23.9758C195.295 23.2494 195.047 22.4879 194.482 22.0009L188.598 16.9351C187.253 15.7776 187.97 13.5724 189.738 13.4263L197.476 12.7866C198.22 12.7251 198.867 12.2545 199.156 11.566L202.155 4.4044Z" fill="#FFD155"/>
</svg>
