<svg width="122" height="120" viewBox="0 0 122 120" fill="none" xmlns="http://www.w3.org/2000/svg">
<path fill-rule="evenodd" clip-rule="evenodd" d="M46.3135 10.5872L56.2172 19.5423H48.3518C47.3551 19.5423 46.3135 18.8448 46.3135 17.796V10.5872ZM100.636 66.0483C101.442 66.0483 102.115 66.71 102.115 67.5032V98.5961L91.22 87.8799C90.7454 87.4131 89.977 87.4131 89.5027 87.8799L77.0382 100.141L70.1091 93.326C69.6352 92.8599 68.8644 92.8599 68.3906 93.326L52.2022 109.249V67.5034C52.2022 66.7097 52.8744 66.0485 53.6813 66.0485H100.636V66.0483ZM63.8049 72.0653C60.1905 72.0653 57.25 74.9576 57.25 78.5129C57.25 82.0676 60.1912 84.9603 63.8049 84.9603C67.4197 84.9603 70.3624 82.069 70.3624 78.5129C70.3626 74.9559 67.4204 72.0653 63.8049 72.0653Z" fill="#BADEFF"/>
<path fill-rule="evenodd" clip-rule="evenodd" d="M36.6142 85.3802C35.9393 84.7727 34.8913 84.8183 34.2735 85.4807C33.6545 86.1431 33.6996 87.1727 34.3731 87.7831L39.2216 92.1602H21.0668V71.1786C21.0668 70.2796 20.3255 69.5493 19.4102 69.5493C18.4962 69.5493 17.7537 70.2796 17.7537 71.1786V93.7895C17.7537 94.6886 18.4962 95.4189 19.4102 95.4189H39.2218L34.3733 99.796C33.2609 100.8 33.9949 102.623 35.4945 102.623C35.8944 102.623 36.2967 102.482 36.6142 102.196L44.5952 94.989C45.3113 94.3434 45.3096 93.2327 44.5952 92.5888L36.6142 85.3802ZM29.1273 45.2176H48.8764C49.789 45.2176 50.5315 44.4885 50.5315 43.5882C50.5315 42.6892 49.789 41.9589 48.8764 41.9589H29.1273C28.2133 41.9589 27.4708 42.6892 27.4708 43.5882C27.471 44.4885 28.2135 45.2176 29.1273 45.2176ZM101.673 67.503C101.673 66.9491 101.198 66.4826 100.636 66.4826H53.6813C53.1181 66.4826 52.6438 66.9491 52.6438 67.503V108.2L68.0782 93.0187C68.7251 92.3824 69.7745 92.3848 70.4214 93.0187L77.0382 99.5267L89.1903 87.5726C89.835 86.9356 90.8861 86.9344 91.5322 87.5726L101.673 97.5472V67.503ZM101.673 102.154V109.484C101.673 110.044 101.189 110.505 100.636 110.505H88.1965L79.3788 101.832L90.362 91.0286L101.673 102.154ZM83.5127 110.505H54.9871L69.2487 96.4744L83.5127 110.505ZM104.986 67.503V109.484C104.986 111.872 103 113.764 100.636 113.764H53.6813C51.3435 113.764 49.3307 111.89 49.3307 109.484V67.503C49.3307 65.1446 51.2835 63.2239 53.6813 63.2239H100.636C103.033 63.2239 104.986 65.1446 104.986 67.503ZM67.4912 78.5126C67.4912 80.5103 65.8373 82.1358 63.8048 82.1358C61.7738 82.1358 60.1212 80.5103 60.1212 78.5126C60.1212 76.5134 61.7738 74.8893 63.8048 74.8893C65.8373 74.8893 67.4912 76.5136 67.4912 78.5126ZM70.8042 78.5126C70.8042 82.307 67.6654 85.3943 63.8051 85.3943C59.9474 85.3943 56.8086 82.3067 56.8086 78.5126C56.8086 74.717 59.9477 71.6306 63.8051 71.6306C67.6651 71.6306 70.8042 74.717 70.8042 78.5126ZM20.3269 52.204V10.8081C20.3269 10.096 21.0602 9.49481 21.9264 9.49481H43.4435V17.7959C43.4435 20.315 45.6446 22.3665 48.3518 22.3665H57.677V52.2042C57.677 52.9163 56.9438 53.5161 56.0776 53.5161H21.9264C21.0602 53.5158 20.3269 52.9161 20.3269 52.204ZM46.7551 17.7959C46.7551 18.508 47.4856 19.1078 48.3518 19.1078H55.084L46.7551 11.5766V17.7959ZM17.0139 52.204V10.8081C17.0139 8.28761 19.2177 6.23633 21.9264 6.23633H45.1C45.5143 6.23633 45.9143 6.39041 46.2212 6.66617L60.4523 19.5376C60.7951 19.846 60.9888 20.2823 60.9888 20.7371V52.2042C60.9888 54.7247 58.785 56.7748 56.0778 56.7748H21.9264C19.2177 56.7746 17.0139 54.7245 17.0139 52.204ZM73.1952 24.0165H91.6518V52.4771L87.2017 47.7081C86.5827 47.0457 85.5333 47.0013 84.8598 47.6102C84.1864 48.2176 84.1425 49.2472 84.7615 49.9098L92.0888 57.7626C92.7457 58.4678 93.8756 58.4642 94.5291 57.7626L101.854 49.9098C102.473 49.2474 102.429 48.2178 101.755 47.6102C101.082 47.0013 100.032 47.0457 99.4134 47.7081L94.9634 52.4771V22.3874C94.9634 21.4857 94.2221 20.7592 93.3081 20.7592H73.1952C72.2785 20.7592 71.5386 21.4857 71.5386 22.3874C71.5386 23.2876 72.2787 24.0165 73.1952 24.0165ZM29.1273 36.8135H48.8764C49.789 36.8135 50.5315 36.0844 50.5315 35.1842C50.5315 34.2827 49.789 33.5548 48.8764 33.5548H29.1273C28.2133 33.5548 27.4708 34.2827 27.4708 35.1842C27.471 36.0844 28.2135 36.8135 29.1273 36.8135ZM27.471 26.7774C27.471 27.6777 28.2135 28.4068 29.1275 28.4068H35.4601C36.3753 28.4068 37.1154 27.6777 37.1154 26.7774C37.1154 25.8784 36.3753 25.1481 35.4601 25.1481H29.1275C28.2135 25.1481 27.471 25.8784 27.471 26.7774Z" fill="#184463"/>
</svg>
