<svg width="21" height="22" viewBox="0 0 21 22" fill="none" xmlns="http://www.w3.org/2000/svg">
<mask id="path-1-outside-1_2024_66" maskUnits="userSpaceOnUse" x="-0.710938" y="-0.0268555" width="22" height="22" fill="black">
<rect fill="white" x="-0.710938" y="-0.0268555" width="22" height="22"/>
<path d="M18.3399 1.04285C18.0274 1.08582 17.5938 1.31629 17.3829 1.55066C16.7969 2.203 16.8047 3.16004 17.4024 3.79285C17.5899 3.98816 17.9961 4.24207 18.129 4.24207C18.168 4.24207 18.1797 4.42566 18.1797 5.1991V6.15613L18.0665 6.28113L17.9532 6.41004L17.0001 6.42175L16.043 6.43347L15.8946 6.20691C15.6758 5.87097 15.1954 5.42175 14.8438 5.22254C14.336 4.93347 13.9454 4.82019 13.3711 4.79675L12.8751 4.77722L12.6485 4.54285C12.1836 4.07019 11.6485 3.7655 11.0079 3.61316C10.7149 3.54285 10.5782 3.53504 10.1329 3.54675C9.67193 3.56238 9.55865 3.58191 9.23443 3.69129C8.73834 3.85925 8.31256 4.12097 7.94146 4.48425L7.63677 4.78504H7.25396C6.98834 4.78504 6.77349 4.81238 6.55865 4.87097C6.38677 4.91785 6.20709 4.96082 6.16021 4.97254L6.07037 4.99207V4.13269C6.07037 3.12488 6.03521 2.96863 5.74224 2.66394C5.41021 2.3241 5.12505 2.24988 4.14849 2.24988H3.53912L3.41412 1.98425C3.2149 1.55457 2.86724 1.24988 2.4024 1.09754C2.07037 0.988161 1.55474 1.03113 1.2188 1.19129C0.89068 1.34754 0.54693 1.71082 0.410211 2.04285C0.160211 2.65222 0.304742 3.36316 0.773492 3.83191C1.58209 4.6405 2.93365 4.39441 3.41802 3.35144L3.55084 3.07019H4.22662C4.75005 3.07019 4.93365 3.08191 5.0313 3.12879C5.26568 3.24207 5.26959 3.2616 5.2813 4.41785L5.29302 5.47254L5.0313 5.72644C4.4024 6.34363 4.03912 7.203 4.03912 8.078V8.3905L3.78521 8.64441C3.35162 9.0741 3.03521 9.61707 2.88287 10.1991C2.7813 10.5819 2.7813 11.4218 2.87896 11.8007C3.04302 12.4178 3.49224 13.1366 3.94927 13.5038C4.10552 13.6288 4.10943 13.6444 4.08599 13.7928C4.07037 13.8788 4.05865 14.1288 4.05865 14.3436V14.7421L3.2774 14.7577C2.53521 14.7733 2.48443 14.7772 2.2774 14.8749C2.00787 14.9999 1.7813 15.2186 1.6524 15.4764C1.56255 15.66 1.55865 15.6991 1.54693 16.6952L1.53521 17.7264L1.39068 17.7811C1.11724 17.8905 0.98443 17.9725 0.800836 18.1483C0.574274 18.3671 0.425836 18.621 0.347711 18.9139C0.199274 19.4882 0.335992 20.0116 0.750055 20.4569C1.5313 21.3007 2.91021 21.078 3.42584 20.0233C3.54302 19.785 3.55084 19.7421 3.55084 19.3397C3.55084 18.9374 3.54302 18.8944 3.42584 18.6444C3.22662 18.2303 2.8438 17.8944 2.38677 17.7421C2.32037 17.7225 2.31646 17.66 2.32818 16.7928C2.3438 15.5116 2.28912 15.5702 3.4688 15.5702H4.27349L4.39068 15.8007C4.88287 16.7811 5.7774 17.4335 6.86334 17.6053C7.05474 17.6327 7.32818 17.6444 7.5938 17.6288L8.01959 17.6053L8.18365 17.7421C8.44927 17.9647 8.8399 18.1757 9.23443 18.3124C9.5938 18.4335 9.62896 18.4374 10.2305 18.4413C10.711 18.4413 10.9141 18.4257 11.1094 18.371C11.4571 18.2772 11.9376 18.0389 12.2422 17.8124L12.4961 17.621H13.1016C13.8633 17.6171 14.2227 17.5311 14.7813 17.2225C15.3633 16.9022 15.8711 16.3632 16.1446 15.7733L16.2422 15.5663L17.0977 15.578L17.9532 15.5897L18.0665 15.7186L18.1797 15.8436V16.8007C18.1797 17.5741 18.168 17.7577 18.129 17.7577C17.9961 17.7577 17.5899 18.0116 17.4024 18.2069C16.6446 19.0077 16.8672 20.3046 17.8438 20.785C18.3477 21.035 18.8321 21.035 19.336 20.785C20.3165 20.3007 20.5391 19.0116 19.7774 18.2069C19.5938 18.0116 19.1836 17.7577 19.0547 17.7577C19.0196 17.7577 19.004 17.5194 18.9922 16.7303C18.9766 15.5663 18.9571 15.4803 18.6368 15.1483C18.3165 14.8163 18.0547 14.7499 17.0938 14.7499H16.4532L16.4805 14.5038C16.4922 14.371 16.4844 14.1249 16.4649 13.953L16.4297 13.6483L16.6836 13.41C17.4454 12.6952 17.8399 11.6327 17.7149 10.6366C17.6094 9.83191 17.3516 9.28113 16.8047 8.71472C16.504 8.39441 16.5001 8.39441 16.5001 8.18347C16.4961 7.96082 16.4376 7.43738 16.3985 7.32019C16.379 7.25379 16.4219 7.24988 17.0547 7.24988C18.0586 7.24988 18.3126 7.18738 18.6368 6.85144C18.9571 6.51941 18.9766 6.43347 18.9922 5.2655C19.004 4.48035 19.0196 4.24207 19.0547 4.24207C19.1836 4.24207 19.5938 3.98816 19.7774 3.79285C20.254 3.28894 20.3672 2.578 20.0704 1.953C19.7696 1.31629 19.0547 0.941286 18.3399 1.04285ZM2.32037 1.93738C2.5938 2.078 2.75787 2.35925 2.75787 2.68347C2.75005 3.55847 1.55474 3.80847 1.18365 3.0116C0.855524 2.30457 1.61724 1.58582 2.32037 1.93738ZM19.0235 1.95691C19.4649 2.21472 19.5626 2.828 19.2227 3.21082C18.8086 3.68347 18.0508 3.56238 17.8126 2.98425C17.7188 2.76941 17.7344 2.53113 17.8516 2.29675C18.0743 1.85144 18.5899 1.703 19.0235 1.95691ZM11.1954 4.51941C11.504 4.6405 11.9102 4.92566 12.1172 5.16785C12.2188 5.28894 12.3477 5.43738 12.4063 5.49597L12.5079 5.60925L13.0313 5.60144C13.6251 5.59363 13.8907 5.64832 14.3086 5.86316C15.0313 6.23035 15.5391 6.9491 15.6563 7.76941C15.6719 7.90222 15.668 7.91785 15.6094 7.89441C15.3946 7.81238 14.9571 7.71472 14.7149 7.69129L14.4297 7.66785V8.08582V8.49988H14.543C14.7735 8.49988 15.2344 8.62097 15.5118 8.75769C15.9961 8.98816 16.4141 9.39441 16.6524 9.85925C16.836 10.2186 16.9063 10.5272 16.9063 10.9803C16.9102 11.4491 16.8555 11.6835 16.6563 12.1093C16.5547 12.3202 16.2305 12.7577 16.1485 12.7889C16.1329 12.7968 16.0626 12.7069 15.9961 12.5897C15.8477 12.328 15.4219 11.8632 15.1524 11.6639C14.6602 11.3007 14.1094 11.0975 13.4063 11.0194L13.1797 10.996V11.4061V11.8163L13.3282 11.8397C13.8008 11.9061 13.9727 11.9569 14.254 12.0936C15.293 12.5975 15.8555 13.7303 15.6211 14.8475C15.4297 15.7694 14.6641 16.5468 13.7461 16.7655C13.4805 16.828 13.0665 16.8241 12.4571 16.7577C12.2618 16.7343 12.2579 16.7382 11.9571 16.9882C11.6055 17.2811 11.2266 17.4921 10.9063 17.5741L10.6797 17.6327V10.9999V4.36707L10.8321 4.40222C10.918 4.42175 11.0821 4.47254 11.1954 4.51941ZM9.85943 11.0194V17.6405L9.75396 17.6171C9.30474 17.5116 8.92974 17.3163 8.58209 17.0077C8.43755 16.8827 8.2774 16.7694 8.22662 16.7538C8.17193 16.7421 8.01177 16.7538 7.87505 16.7811C6.4063 17.0741 5.04693 16.1014 4.85943 14.6249C4.81646 14.2772 4.8438 14.0702 4.93365 14.1053C5.0938 14.1678 5.56646 14.2772 5.80865 14.3007L6.07037 14.328V13.9139V13.4999H5.92193C5.69146 13.4999 5.19537 13.3593 4.94146 13.2264C4.32037 12.8944 3.85943 12.3124 3.66802 11.6249C3.58599 11.3202 3.57427 10.7616 3.64459 10.453C3.71099 10.1639 3.96099 9.64832 4.12896 9.45691L4.26177 9.30066L4.39068 9.55457C4.66802 10.1053 5.07427 10.5663 5.55865 10.8749C6.00005 11.1561 6.72662 11.3905 7.16021 11.3905H7.31255L7.3399 11.0194C7.35552 10.8202 7.35552 10.6327 7.3399 10.6093C7.32818 10.5897 7.24224 10.5702 7.1524 10.5702C6.62505 10.5663 6.07818 10.3046 5.59771 9.828C5.08209 9.32019 4.86334 8.78504 4.85943 8.06238C4.85943 7.64441 4.91802 7.40613 5.11334 6.99597C5.31255 6.58582 5.54693 6.30457 5.89849 6.05457C6.38677 5.70691 6.93365 5.56238 7.63677 5.59754L8.00787 5.62097L8.14459 5.46863C8.47662 5.09363 8.80084 4.79675 9.00787 4.67957C9.26959 4.52722 9.60162 4.40613 9.75396 4.40222L9.85943 4.39832V11.0194ZM2.27349 18.5585C2.9649 18.8475 2.92193 19.8671 2.20709 20.121C2.00396 20.1913 1.89068 20.1952 1.69146 20.1366C0.98443 19.9218 0.89068 18.91 1.54693 18.5819C1.75005 18.4843 2.06255 18.4725 2.27349 18.5585ZM18.9454 18.5741C19.211 18.6952 19.4297 19.0311 19.4297 19.3241C19.4297 19.6796 19.1211 20.0624 18.7813 20.1327C18.4766 20.1991 18.2501 20.1327 18.0235 19.91C17.7383 19.6327 17.6797 19.3358 17.8438 18.9843C17.9336 18.785 18.1094 18.6171 18.2969 18.5428C18.4532 18.4803 18.7735 18.496 18.9454 18.5741Z"/>
</mask>
<path d="M18.3399 1.04285C18.0274 1.08582 17.5938 1.31629 17.3829 1.55066C16.7969 2.203 16.8047 3.16004 17.4024 3.79285C17.5899 3.98816 17.9961 4.24207 18.129 4.24207C18.168 4.24207 18.1797 4.42566 18.1797 5.1991V6.15613L18.0665 6.28113L17.9532 6.41004L17.0001 6.42175L16.043 6.43347L15.8946 6.20691C15.6758 5.87097 15.1954 5.42175 14.8438 5.22254C14.336 4.93347 13.9454 4.82019 13.3711 4.79675L12.8751 4.77722L12.6485 4.54285C12.1836 4.07019 11.6485 3.7655 11.0079 3.61316C10.7149 3.54285 10.5782 3.53504 10.1329 3.54675C9.67193 3.56238 9.55865 3.58191 9.23443 3.69129C8.73834 3.85925 8.31256 4.12097 7.94146 4.48425L7.63677 4.78504H7.25396C6.98834 4.78504 6.77349 4.81238 6.55865 4.87097C6.38677 4.91785 6.20709 4.96082 6.16021 4.97254L6.07037 4.99207V4.13269C6.07037 3.12488 6.03521 2.96863 5.74224 2.66394C5.41021 2.3241 5.12505 2.24988 4.14849 2.24988H3.53912L3.41412 1.98425C3.2149 1.55457 2.86724 1.24988 2.4024 1.09754C2.07037 0.988161 1.55474 1.03113 1.2188 1.19129C0.89068 1.34754 0.54693 1.71082 0.410211 2.04285C0.160211 2.65222 0.304742 3.36316 0.773492 3.83191C1.58209 4.6405 2.93365 4.39441 3.41802 3.35144L3.55084 3.07019H4.22662C4.75005 3.07019 4.93365 3.08191 5.0313 3.12879C5.26568 3.24207 5.26959 3.2616 5.2813 4.41785L5.29302 5.47254L5.0313 5.72644C4.4024 6.34363 4.03912 7.203 4.03912 8.078V8.3905L3.78521 8.64441C3.35162 9.0741 3.03521 9.61707 2.88287 10.1991C2.7813 10.5819 2.7813 11.4218 2.87896 11.8007C3.04302 12.4178 3.49224 13.1366 3.94927 13.5038C4.10552 13.6288 4.10943 13.6444 4.08599 13.7928C4.07037 13.8788 4.05865 14.1288 4.05865 14.3436V14.7421L3.2774 14.7577C2.53521 14.7733 2.48443 14.7772 2.2774 14.8749C2.00787 14.9999 1.7813 15.2186 1.6524 15.4764C1.56255 15.66 1.55865 15.6991 1.54693 16.6952L1.53521 17.7264L1.39068 17.7811C1.11724 17.8905 0.98443 17.9725 0.800836 18.1483C0.574274 18.3671 0.425836 18.621 0.347711 18.9139C0.199274 19.4882 0.335992 20.0116 0.750055 20.4569C1.5313 21.3007 2.91021 21.078 3.42584 20.0233C3.54302 19.785 3.55084 19.7421 3.55084 19.3397C3.55084 18.9374 3.54302 18.8944 3.42584 18.6444C3.22662 18.2303 2.8438 17.8944 2.38677 17.7421C2.32037 17.7225 2.31646 17.66 2.32818 16.7928C2.3438 15.5116 2.28912 15.5702 3.4688 15.5702H4.27349L4.39068 15.8007C4.88287 16.7811 5.7774 17.4335 6.86334 17.6053C7.05474 17.6327 7.32818 17.6444 7.5938 17.6288L8.01959 17.6053L8.18365 17.7421C8.44927 17.9647 8.8399 18.1757 9.23443 18.3124C9.5938 18.4335 9.62896 18.4374 10.2305 18.4413C10.711 18.4413 10.9141 18.4257 11.1094 18.371C11.4571 18.2772 11.9376 18.0389 12.2422 17.8124L12.4961 17.621H13.1016C13.8633 17.6171 14.2227 17.5311 14.7813 17.2225C15.3633 16.9022 15.8711 16.3632 16.1446 15.7733L16.2422 15.5663L17.0977 15.578L17.9532 15.5897L18.0665 15.7186L18.1797 15.8436V16.8007C18.1797 17.5741 18.168 17.7577 18.129 17.7577C17.9961 17.7577 17.5899 18.0116 17.4024 18.2069C16.6446 19.0077 16.8672 20.3046 17.8438 20.785C18.3477 21.035 18.8321 21.035 19.336 20.785C20.3165 20.3007 20.5391 19.0116 19.7774 18.2069C19.5938 18.0116 19.1836 17.7577 19.0547 17.7577C19.0196 17.7577 19.004 17.5194 18.9922 16.7303C18.9766 15.5663 18.9571 15.4803 18.6368 15.1483C18.3165 14.8163 18.0547 14.7499 17.0938 14.7499H16.4532L16.4805 14.5038C16.4922 14.371 16.4844 14.1249 16.4649 13.953L16.4297 13.6483L16.6836 13.41C17.4454 12.6952 17.8399 11.6327 17.7149 10.6366C17.6094 9.83191 17.3516 9.28113 16.8047 8.71472C16.504 8.39441 16.5001 8.39441 16.5001 8.18347C16.4961 7.96082 16.4376 7.43738 16.3985 7.32019C16.379 7.25379 16.4219 7.24988 17.0547 7.24988C18.0586 7.24988 18.3126 7.18738 18.6368 6.85144C18.9571 6.51941 18.9766 6.43347 18.9922 5.2655C19.004 4.48035 19.0196 4.24207 19.0547 4.24207C19.1836 4.24207 19.5938 3.98816 19.7774 3.79285C20.254 3.28894 20.3672 2.578 20.0704 1.953C19.7696 1.31629 19.0547 0.941286 18.3399 1.04285ZM2.32037 1.93738C2.5938 2.078 2.75787 2.35925 2.75787 2.68347C2.75005 3.55847 1.55474 3.80847 1.18365 3.0116C0.855524 2.30457 1.61724 1.58582 2.32037 1.93738ZM19.0235 1.95691C19.4649 2.21472 19.5626 2.828 19.2227 3.21082C18.8086 3.68347 18.0508 3.56238 17.8126 2.98425C17.7188 2.76941 17.7344 2.53113 17.8516 2.29675C18.0743 1.85144 18.5899 1.703 19.0235 1.95691ZM11.1954 4.51941C11.504 4.6405 11.9102 4.92566 12.1172 5.16785C12.2188 5.28894 12.3477 5.43738 12.4063 5.49597L12.5079 5.60925L13.0313 5.60144C13.6251 5.59363 13.8907 5.64832 14.3086 5.86316C15.0313 6.23035 15.5391 6.9491 15.6563 7.76941C15.6719 7.90222 15.668 7.91785 15.6094 7.89441C15.3946 7.81238 14.9571 7.71472 14.7149 7.69129L14.4297 7.66785V8.08582V8.49988H14.543C14.7735 8.49988 15.2344 8.62097 15.5118 8.75769C15.9961 8.98816 16.4141 9.39441 16.6524 9.85925C16.836 10.2186 16.9063 10.5272 16.9063 10.9803C16.9102 11.4491 16.8555 11.6835 16.6563 12.1093C16.5547 12.3202 16.2305 12.7577 16.1485 12.7889C16.1329 12.7968 16.0626 12.7069 15.9961 12.5897C15.8477 12.328 15.4219 11.8632 15.1524 11.6639C14.6602 11.3007 14.1094 11.0975 13.4063 11.0194L13.1797 10.996V11.4061V11.8163L13.3282 11.8397C13.8008 11.9061 13.9727 11.9569 14.254 12.0936C15.293 12.5975 15.8555 13.7303 15.6211 14.8475C15.4297 15.7694 14.6641 16.5468 13.7461 16.7655C13.4805 16.828 13.0665 16.8241 12.4571 16.7577C12.2618 16.7343 12.2579 16.7382 11.9571 16.9882C11.6055 17.2811 11.2266 17.4921 10.9063 17.5741L10.6797 17.6327V10.9999V4.36707L10.8321 4.40222C10.918 4.42175 11.0821 4.47254 11.1954 4.51941ZM9.85943 11.0194V17.6405L9.75396 17.6171C9.30474 17.5116 8.92974 17.3163 8.58209 17.0077C8.43755 16.8827 8.2774 16.7694 8.22662 16.7538C8.17193 16.7421 8.01177 16.7538 7.87505 16.7811C6.4063 17.0741 5.04693 16.1014 4.85943 14.6249C4.81646 14.2772 4.8438 14.0702 4.93365 14.1053C5.0938 14.1678 5.56646 14.2772 5.80865 14.3007L6.07037 14.328V13.9139V13.4999H5.92193C5.69146 13.4999 5.19537 13.3593 4.94146 13.2264C4.32037 12.8944 3.85943 12.3124 3.66802 11.6249C3.58599 11.3202 3.57427 10.7616 3.64459 10.453C3.71099 10.1639 3.96099 9.64832 4.12896 9.45691L4.26177 9.30066L4.39068 9.55457C4.66802 10.1053 5.07427 10.5663 5.55865 10.8749C6.00005 11.1561 6.72662 11.3905 7.16021 11.3905H7.31255L7.3399 11.0194C7.35552 10.8202 7.35552 10.6327 7.3399 10.6093C7.32818 10.5897 7.24224 10.5702 7.1524 10.5702C6.62505 10.5663 6.07818 10.3046 5.59771 9.828C5.08209 9.32019 4.86334 8.78504 4.85943 8.06238C4.85943 7.64441 4.91802 7.40613 5.11334 6.99597C5.31255 6.58582 5.54693 6.30457 5.89849 6.05457C6.38677 5.70691 6.93365 5.56238 7.63677 5.59754L8.00787 5.62097L8.14459 5.46863C8.47662 5.09363 8.80084 4.79675 9.00787 4.67957C9.26959 4.52722 9.60162 4.40613 9.75396 4.40222L9.85943 4.39832V11.0194ZM2.27349 18.5585C2.9649 18.8475 2.92193 19.8671 2.20709 20.121C2.00396 20.1913 1.89068 20.1952 1.69146 20.1366C0.98443 19.9218 0.89068 18.91 1.54693 18.5819C1.75005 18.4843 2.06255 18.4725 2.27349 18.5585ZM18.9454 18.5741C19.211 18.6952 19.4297 19.0311 19.4297 19.3241C19.4297 19.6796 19.1211 20.0624 18.7813 20.1327C18.4766 20.1991 18.2501 20.1327 18.0235 19.91C17.7383 19.6327 17.6797 19.3358 17.8438 18.9843C17.9336 18.785 18.1094 18.6171 18.2969 18.5428C18.4532 18.4803 18.7735 18.496 18.9454 18.5741Z" fill="#184463"/>
<path d="M18.3399 1.04285C18.0274 1.08582 17.5938 1.31629 17.3829 1.55066C16.7969 2.203 16.8047 3.16004 17.4024 3.79285C17.5899 3.98816 17.9961 4.24207 18.129 4.24207C18.168 4.24207 18.1797 4.42566 18.1797 5.1991V6.15613L18.0665 6.28113L17.9532 6.41004L17.0001 6.42175L16.043 6.43347L15.8946 6.20691C15.6758 5.87097 15.1954 5.42175 14.8438 5.22254C14.336 4.93347 13.9454 4.82019 13.3711 4.79675L12.8751 4.77722L12.6485 4.54285C12.1836 4.07019 11.6485 3.7655 11.0079 3.61316C10.7149 3.54285 10.5782 3.53504 10.1329 3.54675C9.67193 3.56238 9.55865 3.58191 9.23443 3.69129C8.73834 3.85925 8.31256 4.12097 7.94146 4.48425L7.63677 4.78504H7.25396C6.98834 4.78504 6.77349 4.81238 6.55865 4.87097C6.38677 4.91785 6.20709 4.96082 6.16021 4.97254L6.07037 4.99207V4.13269C6.07037 3.12488 6.03521 2.96863 5.74224 2.66394C5.41021 2.3241 5.12505 2.24988 4.14849 2.24988H3.53912L3.41412 1.98425C3.2149 1.55457 2.86724 1.24988 2.4024 1.09754C2.07037 0.988161 1.55474 1.03113 1.2188 1.19129C0.89068 1.34754 0.54693 1.71082 0.410211 2.04285C0.160211 2.65222 0.304742 3.36316 0.773492 3.83191C1.58209 4.6405 2.93365 4.39441 3.41802 3.35144L3.55084 3.07019H4.22662C4.75005 3.07019 4.93365 3.08191 5.0313 3.12879C5.26568 3.24207 5.26959 3.2616 5.2813 4.41785L5.29302 5.47254L5.0313 5.72644C4.4024 6.34363 4.03912 7.203 4.03912 8.078V8.3905L3.78521 8.64441C3.35162 9.0741 3.03521 9.61707 2.88287 10.1991C2.7813 10.5819 2.7813 11.4218 2.87896 11.8007C3.04302 12.4178 3.49224 13.1366 3.94927 13.5038C4.10552 13.6288 4.10943 13.6444 4.08599 13.7928C4.07037 13.8788 4.05865 14.1288 4.05865 14.3436V14.7421L3.2774 14.7577C2.53521 14.7733 2.48443 14.7772 2.2774 14.8749C2.00787 14.9999 1.7813 15.2186 1.6524 15.4764C1.56255 15.66 1.55865 15.6991 1.54693 16.6952L1.53521 17.7264L1.39068 17.7811C1.11724 17.8905 0.98443 17.9725 0.800836 18.1483C0.574274 18.3671 0.425836 18.621 0.347711 18.9139C0.199274 19.4882 0.335992 20.0116 0.750055 20.4569C1.5313 21.3007 2.91021 21.078 3.42584 20.0233C3.54302 19.785 3.55084 19.7421 3.55084 19.3397C3.55084 18.9374 3.54302 18.8944 3.42584 18.6444C3.22662 18.2303 2.8438 17.8944 2.38677 17.7421C2.32037 17.7225 2.31646 17.66 2.32818 16.7928C2.3438 15.5116 2.28912 15.5702 3.4688 15.5702H4.27349L4.39068 15.8007C4.88287 16.7811 5.7774 17.4335 6.86334 17.6053C7.05474 17.6327 7.32818 17.6444 7.5938 17.6288L8.01959 17.6053L8.18365 17.7421C8.44927 17.9647 8.8399 18.1757 9.23443 18.3124C9.5938 18.4335 9.62896 18.4374 10.2305 18.4413C10.711 18.4413 10.9141 18.4257 11.1094 18.371C11.4571 18.2772 11.9376 18.0389 12.2422 17.8124L12.4961 17.621H13.1016C13.8633 17.6171 14.2227 17.5311 14.7813 17.2225C15.3633 16.9022 15.8711 16.3632 16.1446 15.7733L16.2422 15.5663L17.0977 15.578L17.9532 15.5897L18.0665 15.7186L18.1797 15.8436V16.8007C18.1797 17.5741 18.168 17.7577 18.129 17.7577C17.9961 17.7577 17.5899 18.0116 17.4024 18.2069C16.6446 19.0077 16.8672 20.3046 17.8438 20.785C18.3477 21.035 18.8321 21.035 19.336 20.785C20.3165 20.3007 20.5391 19.0116 19.7774 18.2069C19.5938 18.0116 19.1836 17.7577 19.0547 17.7577C19.0196 17.7577 19.004 17.5194 18.9922 16.7303C18.9766 15.5663 18.9571 15.4803 18.6368 15.1483C18.3165 14.8163 18.0547 14.7499 17.0938 14.7499H16.4532L16.4805 14.5038C16.4922 14.371 16.4844 14.1249 16.4649 13.953L16.4297 13.6483L16.6836 13.41C17.4454 12.6952 17.8399 11.6327 17.7149 10.6366C17.6094 9.83191 17.3516 9.28113 16.8047 8.71472C16.504 8.39441 16.5001 8.39441 16.5001 8.18347C16.4961 7.96082 16.4376 7.43738 16.3985 7.32019C16.379 7.25379 16.4219 7.24988 17.0547 7.24988C18.0586 7.24988 18.3126 7.18738 18.6368 6.85144C18.9571 6.51941 18.9766 6.43347 18.9922 5.2655C19.004 4.48035 19.0196 4.24207 19.0547 4.24207C19.1836 4.24207 19.5938 3.98816 19.7774 3.79285C20.254 3.28894 20.3672 2.578 20.0704 1.953C19.7696 1.31629 19.0547 0.941286 18.3399 1.04285ZM2.32037 1.93738C2.5938 2.078 2.75787 2.35925 2.75787 2.68347C2.75005 3.55847 1.55474 3.80847 1.18365 3.0116C0.855524 2.30457 1.61724 1.58582 2.32037 1.93738ZM19.0235 1.95691C19.4649 2.21472 19.5626 2.828 19.2227 3.21082C18.8086 3.68347 18.0508 3.56238 17.8126 2.98425C17.7188 2.76941 17.7344 2.53113 17.8516 2.29675C18.0743 1.85144 18.5899 1.703 19.0235 1.95691ZM11.1954 4.51941C11.504 4.6405 11.9102 4.92566 12.1172 5.16785C12.2188 5.28894 12.3477 5.43738 12.4063 5.49597L12.5079 5.60925L13.0313 5.60144C13.6251 5.59363 13.8907 5.64832 14.3086 5.86316C15.0313 6.23035 15.5391 6.9491 15.6563 7.76941C15.6719 7.90222 15.668 7.91785 15.6094 7.89441C15.3946 7.81238 14.9571 7.71472 14.7149 7.69129L14.4297 7.66785V8.08582V8.49988H14.543C14.7735 8.49988 15.2344 8.62097 15.5118 8.75769C15.9961 8.98816 16.4141 9.39441 16.6524 9.85925C16.836 10.2186 16.9063 10.5272 16.9063 10.9803C16.9102 11.4491 16.8555 11.6835 16.6563 12.1093C16.5547 12.3202 16.2305 12.7577 16.1485 12.7889C16.1329 12.7968 16.0626 12.7069 15.9961 12.5897C15.8477 12.328 15.4219 11.8632 15.1524 11.6639C14.6602 11.3007 14.1094 11.0975 13.4063 11.0194L13.1797 10.996V11.4061V11.8163L13.3282 11.8397C13.8008 11.9061 13.9727 11.9569 14.254 12.0936C15.293 12.5975 15.8555 13.7303 15.6211 14.8475C15.4297 15.7694 14.6641 16.5468 13.7461 16.7655C13.4805 16.828 13.0665 16.8241 12.4571 16.7577C12.2618 16.7343 12.2579 16.7382 11.9571 16.9882C11.6055 17.2811 11.2266 17.4921 10.9063 17.5741L10.6797 17.6327V10.9999V4.36707L10.8321 4.40222C10.918 4.42175 11.0821 4.47254 11.1954 4.51941ZM9.85943 11.0194V17.6405L9.75396 17.6171C9.30474 17.5116 8.92974 17.3163 8.58209 17.0077C8.43755 16.8827 8.2774 16.7694 8.22662 16.7538C8.17193 16.7421 8.01177 16.7538 7.87505 16.7811C6.4063 17.0741 5.04693 16.1014 4.85943 14.6249C4.81646 14.2772 4.8438 14.0702 4.93365 14.1053C5.0938 14.1678 5.56646 14.2772 5.80865 14.3007L6.07037 14.328V13.9139V13.4999H5.92193C5.69146 13.4999 5.19537 13.3593 4.94146 13.2264C4.32037 12.8944 3.85943 12.3124 3.66802 11.6249C3.58599 11.3202 3.57427 10.7616 3.64459 10.453C3.71099 10.1639 3.96099 9.64832 4.12896 9.45691L4.26177 9.30066L4.39068 9.55457C4.66802 10.1053 5.07427 10.5663 5.55865 10.8749C6.00005 11.1561 6.72662 11.3905 7.16021 11.3905H7.31255L7.3399 11.0194C7.35552 10.8202 7.35552 10.6327 7.3399 10.6093C7.32818 10.5897 7.24224 10.5702 7.1524 10.5702C6.62505 10.5663 6.07818 10.3046 5.59771 9.828C5.08209 9.32019 4.86334 8.78504 4.85943 8.06238C4.85943 7.64441 4.91802 7.40613 5.11334 6.99597C5.31255 6.58582 5.54693 6.30457 5.89849 6.05457C6.38677 5.70691 6.93365 5.56238 7.63677 5.59754L8.00787 5.62097L8.14459 5.46863C8.47662 5.09363 8.80084 4.79675 9.00787 4.67957C9.26959 4.52722 9.60162 4.40613 9.75396 4.40222L9.85943 4.39832V11.0194ZM2.27349 18.5585C2.9649 18.8475 2.92193 19.8671 2.20709 20.121C2.00396 20.1913 1.89068 20.1952 1.69146 20.1366C0.98443 19.9218 0.89068 18.91 1.54693 18.5819C1.75005 18.4843 2.06255 18.4725 2.27349 18.5585ZM18.9454 18.5741C19.211 18.6952 19.4297 19.0311 19.4297 19.3241C19.4297 19.6796 19.1211 20.0624 18.7813 20.1327C18.4766 20.1991 18.2501 20.1327 18.0235 19.91C17.7383 19.6327 17.6797 19.3358 17.8438 18.9843C17.9336 18.785 18.1094 18.6171 18.2969 18.5428C18.4532 18.4803 18.7735 18.496 18.9454 18.5741Z" stroke="#184463" stroke-width="0.4" mask="url(#path-1-outside-1_2024_66)"/>
<path d="M12.75 8.55H12.7V8.5V8.08984V7.67969V7.62969H12.75H13.1602H13.5703H13.6203V7.67969V8.08984V8.5V8.55H13.5703H13.1602H12.75Z" fill="#184463" stroke="#184463" stroke-width="0.1"/>
<path d="M8.17969 11.4406H8.12969V11.3906V10.9805V10.5703V10.5203H8.17969H8.58984H9H9.05V10.5703V10.9805V11.3906V11.4406H9H8.58984H8.17969Z" fill="#184463" stroke="#184463" stroke-width="0.1"/>
</svg>
