<svg width="21" height="20" viewBox="0 0 21 20" fill="none" xmlns="http://www.w3.org/2000/svg">
<g clip-path="url(#clip0_2024_82)">
<mask id="path-1-outside-1_2024_82" maskUnits="userSpaceOnUse" x="0.0571289" y="0.347656" width="20" height="20" fill="black">
<rect fill="white" x="0.0571289" y="0.347656" width="20" height="20"/>
<path d="M2.26517 0.883888C2.20923 0.941858 2.18125 1.23896 2.18125 1.75345V2.53606H1.70573C1.42601 2.53606 1.19524 2.57229 1.14629 2.62302C1.02741 2.74621 1.02741 15.6593 1.14629 15.7824C1.20923 15.8477 2.01342 15.8694 4.32111 15.8694H7.41202L7.20223 16.739L6.99244 17.6085H6.57286C6.23021 17.6085 6.1323 17.6375 5.99244 17.7897C5.8386 17.9419 5.81762 18.0288 5.81762 18.4781C5.81762 18.9274 5.8386 19.0143 5.99244 19.1665L6.16028 19.3477H10.0134H13.8666L14.0344 19.1665C14.1882 19.0143 14.2092 18.9274 14.2092 18.4781C14.2092 18.0288 14.1882 17.9419 14.0344 17.7897C13.8945 17.6375 13.7966 17.6085 13.454 17.6085H13.0344L12.8246 16.739L12.6148 15.8694H15.7057C18.0134 15.8694 18.8176 15.8477 18.8806 15.7824C18.9994 15.6593 18.9994 2.74621 18.8806 2.62302C18.8316 2.57229 18.6008 2.53606 18.3211 2.53606H17.8456V1.75345C17.8456 1.23896 17.8176 0.941858 17.7617 0.883888C17.6987 0.81867 17.2162 0.796932 16.0274 0.796932H14.3841L13.5938 1.61577L12.8106 2.42737V3.93461V5.43461H10.8526H8.89454V4.27519V3.11577H10.5729H12.2512V2.82592V2.53606H10.5729H8.89454V1.75345C8.89454 1.23896 8.86657 0.941858 8.81062 0.883888C8.69174 0.7607 2.38405 0.7607 2.26517 0.883888ZM8.3351 3.69548V6.01432H7.91552H7.49594V4.8549V3.69548H7.21622H6.9365V4.8549V6.01432H6.65678H6.37706V3.98534V1.95635H6.09734H5.81762V3.98534V6.01432H5.5379H5.25818V4.42012V2.82592H4.97846H4.69874V4.42012V6.01432H4.41902H4.1393V5.14476V4.27519H3.85958H3.57986V5.14476V6.01432H3.16028H2.7407V3.69548V1.37664H5.5379H8.3351V3.69548ZM17.2861 4.27519V7.17374H15.3281H13.3701V4.99983V2.82592H13.9854C14.3701 2.82592 14.6288 2.79693 14.6848 2.73896C14.7407 2.68099 14.7687 2.41287 14.7687 2.01432V1.37664H16.0274H17.2861V4.27519ZM14.2092 2.02882C14.2092 2.22447 14.1882 2.24621 13.9854 2.24621H13.7617L13.9645 2.02882C14.0764 1.90563 14.1743 1.81142 14.1882 1.81142C14.2022 1.81142 14.2092 1.90563 14.2092 2.02882ZM2.18125 5.34766C2.18125 6.98534 2.20223 7.60128 2.26517 7.6665C2.31412 7.71722 2.50293 7.75345 2.68475 7.75345H3.02042V10.652V13.5506H2.32111H1.62181V8.33316V3.11577H1.90153H2.18125V5.34766ZM18.405 8.33316V13.5506H17.7057H17.0064V10.652V7.75345H17.3421C17.5239 7.75345 17.7127 7.71722 17.7617 7.6665C17.8246 7.60128 17.8456 6.98534 17.8456 5.34766V3.11577H18.1253H18.405V8.33316ZM12.8106 6.30418V6.59403H10.8526H8.89454V6.30418V6.01432H10.8526H12.8106V6.30418ZM8.3351 6.88389V7.17374H5.5379H2.7407V6.88389V6.59403H5.5379H8.3351V6.88389ZM12.8106 7.37664C12.8106 7.74621 12.8456 7.75345 14.7127 7.75345H16.447V10.652V13.5506H10.0134H3.57986V10.652V7.75345H6.15328C8.06237 7.75345 8.74769 7.73171 8.81062 7.6665C8.85958 7.61577 8.89454 7.48534 8.89454 7.37664V7.17374H10.8526H12.8106V7.37664ZM18.405 14.71V15.2897H10.0134H1.62181V14.71V14.1303H10.0134H18.405V14.71ZM12.2372 16.739L12.447 17.6085H10.0134H7.57986L7.78965 16.739L7.99944 15.8694H10.0134H12.0274L12.2372 16.739ZM13.6498 18.4781V18.7679H10.0134H6.37706V18.4781V18.1882H10.0134H13.6498V18.4781Z"/>
</mask>
<path d="M2.26517 0.883888C2.20923 0.941858 2.18125 1.23896 2.18125 1.75345V2.53606H1.70573C1.42601 2.53606 1.19524 2.57229 1.14629 2.62302C1.02741 2.74621 1.02741 15.6593 1.14629 15.7824C1.20923 15.8477 2.01342 15.8694 4.32111 15.8694H7.41202L7.20223 16.739L6.99244 17.6085H6.57286C6.23021 17.6085 6.1323 17.6375 5.99244 17.7897C5.8386 17.9419 5.81762 18.0288 5.81762 18.4781C5.81762 18.9274 5.8386 19.0143 5.99244 19.1665L6.16028 19.3477H10.0134H13.8666L14.0344 19.1665C14.1882 19.0143 14.2092 18.9274 14.2092 18.4781C14.2092 18.0288 14.1882 17.9419 14.0344 17.7897C13.8945 17.6375 13.7966 17.6085 13.454 17.6085H13.0344L12.8246 16.739L12.6148 15.8694H15.7057C18.0134 15.8694 18.8176 15.8477 18.8806 15.7824C18.9994 15.6593 18.9994 2.74621 18.8806 2.62302C18.8316 2.57229 18.6008 2.53606 18.3211 2.53606H17.8456V1.75345C17.8456 1.23896 17.8176 0.941858 17.7617 0.883888C17.6987 0.81867 17.2162 0.796932 16.0274 0.796932H14.3841L13.5938 1.61577L12.8106 2.42737V3.93461V5.43461H10.8526H8.89454V4.27519V3.11577H10.5729H12.2512V2.82592V2.53606H10.5729H8.89454V1.75345C8.89454 1.23896 8.86657 0.941858 8.81062 0.883888C8.69174 0.7607 2.38405 0.7607 2.26517 0.883888ZM8.3351 3.69548V6.01432H7.91552H7.49594V4.8549V3.69548H7.21622H6.9365V4.8549V6.01432H6.65678H6.37706V3.98534V1.95635H6.09734H5.81762V3.98534V6.01432H5.5379H5.25818V4.42012V2.82592H4.97846H4.69874V4.42012V6.01432H4.41902H4.1393V5.14476V4.27519H3.85958H3.57986V5.14476V6.01432H3.16028H2.7407V3.69548V1.37664H5.5379H8.3351V3.69548ZM17.2861 4.27519V7.17374H15.3281H13.3701V4.99983V2.82592H13.9854C14.3701 2.82592 14.6288 2.79693 14.6848 2.73896C14.7407 2.68099 14.7687 2.41287 14.7687 2.01432V1.37664H16.0274H17.2861V4.27519ZM14.2092 2.02882C14.2092 2.22447 14.1882 2.24621 13.9854 2.24621H13.7617L13.9645 2.02882C14.0764 1.90563 14.1743 1.81142 14.1882 1.81142C14.2022 1.81142 14.2092 1.90563 14.2092 2.02882ZM2.18125 5.34766C2.18125 6.98534 2.20223 7.60128 2.26517 7.6665C2.31412 7.71722 2.50293 7.75345 2.68475 7.75345H3.02042V10.652V13.5506H2.32111H1.62181V8.33316V3.11577H1.90153H2.18125V5.34766ZM18.405 8.33316V13.5506H17.7057H17.0064V10.652V7.75345H17.3421C17.5239 7.75345 17.7127 7.71722 17.7617 7.6665C17.8246 7.60128 17.8456 6.98534 17.8456 5.34766V3.11577H18.1253H18.405V8.33316ZM12.8106 6.30418V6.59403H10.8526H8.89454V6.30418V6.01432H10.8526H12.8106V6.30418ZM8.3351 6.88389V7.17374H5.5379H2.7407V6.88389V6.59403H5.5379H8.3351V6.88389ZM12.8106 7.37664C12.8106 7.74621 12.8456 7.75345 14.7127 7.75345H16.447V10.652V13.5506H10.0134H3.57986V10.652V7.75345H6.15328C8.06237 7.75345 8.74769 7.73171 8.81062 7.6665C8.85958 7.61577 8.89454 7.48534 8.89454 7.37664V7.17374H10.8526H12.8106V7.37664ZM18.405 14.71V15.2897H10.0134H1.62181V14.71V14.1303H10.0134H18.405V14.71ZM12.2372 16.739L12.447 17.6085H10.0134H7.57986L7.78965 16.739L7.99944 15.8694H10.0134H12.0274L12.2372 16.739ZM13.6498 18.4781V18.7679H10.0134H6.37706V18.4781V18.1882H10.0134H13.6498V18.4781Z" fill="#184463"/>
<path d="M2.26517 0.883888C2.20923 0.941858 2.18125 1.23896 2.18125 1.75345V2.53606H1.70573C1.42601 2.53606 1.19524 2.57229 1.14629 2.62302C1.02741 2.74621 1.02741 15.6593 1.14629 15.7824C1.20923 15.8477 2.01342 15.8694 4.32111 15.8694H7.41202L7.20223 16.739L6.99244 17.6085H6.57286C6.23021 17.6085 6.1323 17.6375 5.99244 17.7897C5.8386 17.9419 5.81762 18.0288 5.81762 18.4781C5.81762 18.9274 5.8386 19.0143 5.99244 19.1665L6.16028 19.3477H10.0134H13.8666L14.0344 19.1665C14.1882 19.0143 14.2092 18.9274 14.2092 18.4781C14.2092 18.0288 14.1882 17.9419 14.0344 17.7897C13.8945 17.6375 13.7966 17.6085 13.454 17.6085H13.0344L12.8246 16.739L12.6148 15.8694H15.7057C18.0134 15.8694 18.8176 15.8477 18.8806 15.7824C18.9994 15.6593 18.9994 2.74621 18.8806 2.62302C18.8316 2.57229 18.6008 2.53606 18.3211 2.53606H17.8456V1.75345C17.8456 1.23896 17.8176 0.941858 17.7617 0.883888C17.6987 0.81867 17.2162 0.796932 16.0274 0.796932H14.3841L13.5938 1.61577L12.8106 2.42737V3.93461V5.43461H10.8526H8.89454V4.27519V3.11577H10.5729H12.2512V2.82592V2.53606H10.5729H8.89454V1.75345C8.89454 1.23896 8.86657 0.941858 8.81062 0.883888C8.69174 0.7607 2.38405 0.7607 2.26517 0.883888ZM8.3351 3.69548V6.01432H7.91552H7.49594V4.8549V3.69548H7.21622H6.9365V4.8549V6.01432H6.65678H6.37706V3.98534V1.95635H6.09734H5.81762V3.98534V6.01432H5.5379H5.25818V4.42012V2.82592H4.97846H4.69874V4.42012V6.01432H4.41902H4.1393V5.14476V4.27519H3.85958H3.57986V5.14476V6.01432H3.16028H2.7407V3.69548V1.37664H5.5379H8.3351V3.69548ZM17.2861 4.27519V7.17374H15.3281H13.3701V4.99983V2.82592H13.9854C14.3701 2.82592 14.6288 2.79693 14.6848 2.73896C14.7407 2.68099 14.7687 2.41287 14.7687 2.01432V1.37664H16.0274H17.2861V4.27519ZM14.2092 2.02882C14.2092 2.22447 14.1882 2.24621 13.9854 2.24621H13.7617L13.9645 2.02882C14.0764 1.90563 14.1743 1.81142 14.1882 1.81142C14.2022 1.81142 14.2092 1.90563 14.2092 2.02882ZM2.18125 5.34766C2.18125 6.98534 2.20223 7.60128 2.26517 7.6665C2.31412 7.71722 2.50293 7.75345 2.68475 7.75345H3.02042V10.652V13.5506H2.32111H1.62181V8.33316V3.11577H1.90153H2.18125V5.34766ZM18.405 8.33316V13.5506H17.7057H17.0064V10.652V7.75345H17.3421C17.5239 7.75345 17.7127 7.71722 17.7617 7.6665C17.8246 7.60128 17.8456 6.98534 17.8456 5.34766V3.11577H18.1253H18.405V8.33316ZM12.8106 6.30418V6.59403H10.8526H8.89454V6.30418V6.01432H10.8526H12.8106V6.30418ZM8.3351 6.88389V7.17374H5.5379H2.7407V6.88389V6.59403H5.5379H8.3351V6.88389ZM12.8106 7.37664C12.8106 7.74621 12.8456 7.75345 14.7127 7.75345H16.447V10.652V13.5506H10.0134H3.57986V10.652V7.75345H6.15328C8.06237 7.75345 8.74769 7.73171 8.81062 7.6665C8.85958 7.61577 8.89454 7.48534 8.89454 7.37664V7.17374H10.8526H12.8106V7.37664ZM18.405 14.71V15.2897H10.0134H1.62181V14.71V14.1303H10.0134H18.405V14.71ZM12.2372 16.739L12.447 17.6085H10.0134H7.57986L7.78965 16.739L7.99944 15.8694H10.0134H12.0274L12.2372 16.739ZM13.6498 18.4781V18.7679H10.0134H6.37706V18.4781V18.1882H10.0134H13.6498V18.4781Z" stroke="#184463" stroke-width="0.2" mask="url(#path-1-outside-1_2024_82)"/>
<path d="M15.012 4.99095L14.9983 4.97648V4.95652V4.36232C14.9983 4.18676 14.9934 4.05485 14.9803 3.96181C14.9738 3.91527 14.9654 3.88078 14.9557 3.85634C14.9459 3.83151 14.9365 3.82177 14.9309 3.81814C14.9272 3.81569 14.921 3.81314 14.9066 3.81658C14.8907 3.8204 14.8682 3.83094 14.8379 3.85206C14.7773 3.89426 14.6982 3.96923 14.5951 4.07789L14.5948 4.0782C14.1897 4.4979 14.2007 5.05564 14.4476 5.45847C14.6942 5.86093 15.1717 6.10241 15.7011 5.89558L15.8281 5.84387L15.4459 5.44776L15.4459 5.44776L15.4456 5.44747L15.012 4.99095ZM13.6417 4.85507C13.6417 4.44015 13.7526 4.07627 13.9659 3.78223C14.179 3.48833 14.4923 3.26715 14.8922 3.13387C15.0362 3.08298 15.2604 3.07874 15.4817 3.10524C15.7044 3.1319 15.9348 3.19097 16.0927 3.27464C16.8557 3.67749 17.2144 4.55724 16.9705 5.40497C16.9112 5.61604 16.7314 5.87317 16.5222 6.08997C16.3131 6.30666 16.0646 6.49343 15.8599 6.55512L15.8455 6.50724L15.8602 6.55503C14.7212 6.90612 13.6417 6.07505 13.6417 4.85507ZM15.993 5.07361L16.2817 5.36662L16.3302 5.24322C16.4901 4.80054 16.3365 4.27987 15.9614 3.98129C15.8755 3.91409 15.8124 3.86924 15.7656 3.84613C15.7165 3.82195 15.7055 3.83114 15.7036 3.83278L15.7035 3.83281C15.6999 3.83586 15.6932 3.84394 15.6863 3.86375C15.6795 3.88327 15.6737 3.91042 15.6693 3.94702C15.6604 4.02032 15.6577 4.12307 15.6577 4.26087V4.73313L15.993 5.0736L15.993 5.07361Z" fill="#184463" stroke="#184463" stroke-width="0.1"/>
<path d="M10.9156 8.68844C10.6079 9.00004 10.517 9.37685 10.6288 9.81888M10.9156 8.68844L10.8793 8.654C10.8794 8.65389 10.8795 8.65377 10.8796 8.65366M10.9156 8.68844C11.3631 8.21743 11.9855 8.21743 12.454 8.68119L10.9156 8.68844ZM10.6288 9.81888L10.2302 12.616M10.6288 9.81888C10.6603 9.93744 10.6789 10.0075 10.6674 10.0722C10.6508 10.1657 10.5713 10.248 10.3771 10.4493L10.0484 10.7899L10.6288 9.81888ZM10.8796 8.65366C10.5589 8.97871 10.4646 9.37383 10.5804 9.83115L10.5805 9.8317C10.6204 9.98201 10.6327 10.0363 10.6086 10.0965C10.596 10.1282 10.5719 10.1641 10.528 10.2153C10.4841 10.2664 10.4237 10.329 10.3411 10.4146L10.0334 10.7335L9.76162 10.6549L9.76027 10.6545L9.76027 10.6545C9.64574 10.6249 9.54849 10.6094 9.4483 10.6104C9.3482 10.6113 9.24757 10.6287 9.12618 10.6619C9.12616 10.6619 9.12613 10.662 9.12611 10.662L8.83036 10.7419L8.32606 10.3029L8.32601 10.3029L7.81132 9.85378L7.80471 9.47019L7.8047 9.46941L7.80469 9.46941C7.79755 9.25111 7.76172 9.07295 7.68128 8.91486C7.60084 8.75678 7.47785 8.62278 7.30277 8.48945C7.17627 8.39031 6.96755 8.33101 6.76002 8.31255C6.55227 8.29407 6.33237 8.31533 6.18092 8.3896C5.66018 8.62567 5.39332 9.24577 5.54549 9.83145L5.54555 9.8317L5.61529 10.0945L5.0612 10.6757C5.06119 10.6757 5.06119 10.6757 5.06119 10.6757C4.91261 10.8314 4.79825 10.9549 4.71565 11.0555C4.63382 11.1551 4.5793 11.2367 4.55522 11.3084C4.54288 11.3452 4.538 11.3808 4.54242 11.4157C4.54686 11.4509 4.56033 11.4824 4.58039 11.5112C4.619 11.5666 4.68416 11.6147 4.76259 11.6652L4.78968 11.6232M10.8796 8.65366C11.1116 8.40972 11.3915 8.28523 11.6768 8.28428C11.962 8.28332 12.2469 8.40587 12.4892 8.64566L12.4892 8.64568C12.6553 8.81027 12.7654 8.98993 12.8179 9.18834C12.8704 9.38667 12.8643 9.60035 12.8031 9.83167L12.803 9.8317C12.7632 9.98192 12.7509 10.0361 12.7757 10.0972C12.7888 10.1294 12.8135 10.1661 12.8585 10.2183C12.9034 10.2704 12.9651 10.3344 13.0494 10.4218L13.0498 10.4222L13.3637 10.7542L13.6202 10.6699L13.6202 10.6699L13.6213 10.6696C13.7419 10.6328 13.8348 10.6131 13.9287 10.6131C14.0226 10.6131 14.1139 10.6329 14.2312 10.6697L14.2315 10.6698L14.4956 10.7545L14.7817 10.4581L14.7822 10.4576C14.9036 10.3353 14.9906 10.2557 15.0607 10.2164C15.0968 10.1961 15.1324 10.1841 15.1689 10.185C15.2057 10.1858 15.2372 10.1996 15.2654 10.2196C15.4041 10.3095 15.4966 10.3996 15.4909 10.5232C15.4881 10.5825 15.4626 10.6423 15.4217 10.705C15.3807 10.7679 15.3215 10.838 15.2457 10.9184C15.1736 10.9948 15.1208 11.0514 15.0823 11.0984C15.0439 11.1453 15.0226 11.1794 15.0115 11.21C14.99 11.2694 15.0012 11.3271 15.0407 11.4724L15.041 11.4733C15.1567 11.9307 15.0624 12.3259 14.7415 12.6509C14.5059 12.895 14.2189 13.0192 13.9295 13.0192C13.6402 13.0192 13.3532 12.895 13.1175 12.6509C12.7967 12.3258 12.7024 11.9307 12.8181 11.4733L12.8183 11.4727C12.8582 11.3224 12.8705 11.2681 12.8464 11.2079C12.8338 11.1763 12.8097 11.1403 12.7657 11.0891C12.7219 11.038 12.6615 10.9754 12.5789 10.8898L12.2711 10.5709M10.8796 8.65366L12.2862 10.5145M4.78968 11.6232L4.76196 11.6648C4.79696 11.6881 4.83664 11.6979 4.88346 11.6873C4.92641 11.6775 4.97239 11.6513 5.02518 11.6115C5.1311 11.5318 5.28428 11.382 5.52471 11.1365L5.52474 11.1364C5.803 10.8517 5.94712 10.7082 6.044 10.643C6.09073 10.6115 6.12123 10.6021 6.14669 10.6012C6.1735 10.6002 6.20172 10.6083 6.2467 10.6262L6.24785 10.6267L6.24786 10.6266C6.55549 10.7405 6.8919 10.7172 7.20451 10.5516C7.31801 10.4928 7.382 10.4647 7.42725 10.458C7.4478 10.455 7.46268 10.4567 7.47599 10.4616C7.49008 10.4667 7.50569 10.4764 7.52595 10.4942L7.52634 10.4945L7.52634 10.4945C7.59614 10.5544 7.66051 10.6095 7.71986 10.6604C7.86896 10.7881 7.98639 10.8886 8.0786 10.97C8.2082 11.0845 8.28457 11.1582 8.3281 11.2138C8.36982 11.2672 8.37719 11.2985 8.37537 11.33C8.37431 11.3482 8.36996 11.3687 8.36258 11.3963C8.3601 11.4055 8.35715 11.416 8.35394 11.4274C8.34824 11.4477 8.34174 11.4708 8.33561 11.495L8.33558 11.4952C8.22658 11.9319 8.32895 12.3265 8.64182 12.6507C8.87749 12.8949 9.16457 13.0192 9.45402 13.0192C9.74339 13.0192 10.0304 12.895 10.266 12.6509M4.78968 11.6232C4.88759 11.6884 5.00647 11.5942 5.48899 11.1015L5.09738 10.7102C4.50297 11.3334 4.475 11.4203 4.78968 11.6232ZM10.266 12.6509C10.2661 12.6508 10.2662 12.6508 10.2662 12.6507L10.2302 12.616M10.266 12.6509C10.266 12.651 10.2659 12.651 10.2658 12.6511L10.2302 12.616M10.266 12.6509C10.5869 12.3258 10.6812 11.9307 10.5654 11.4733L10.5653 11.4727C10.5254 11.3224 10.5131 11.2681 10.5372 11.2079C10.5498 11.1763 10.5739 11.1403 10.6178 11.0891C10.6617 11.038 10.7221 10.9754 10.8047 10.8898L11.1123 10.5711M10.2302 12.616C10.5379 12.3044 10.6288 11.9276 10.517 11.4855C10.4855 11.367 10.4669 11.2969 10.4784 11.2322C10.495 11.1387 10.5745 11.0564 10.7687 10.8551L11.0974 10.5145M11.1123 10.5711L11.0832 10.5625L11.0974 10.5145M11.1123 10.5711L11.1334 10.5492L11.0974 10.5145M11.1123 10.5711L11.3769 10.6494L11.3789 10.65L11.3789 10.65C11.4966 10.6795 11.5936 10.695 11.6909 10.695C11.7883 10.695 11.8836 10.6795 11.998 10.6499L11.9994 10.6495L11.9994 10.6495L12.2711 10.5709M11.0974 10.5145L11.3911 10.6015C11.6219 10.6595 11.7617 10.6595 11.9855 10.6015L12.2862 10.5145M12.2711 10.5709L12.2502 10.5492L12.2862 10.5145M12.2711 10.5709L12.3001 10.5626L12.2862 10.5145M7.18129 10.5073C7.40507 10.3913 7.46801 10.3768 7.55892 10.4566L6.26521 10.5797C6.55892 10.6884 6.88059 10.6667 7.18129 10.5073ZM7.00659 9.1301L7.00652 9.13018L7.00436 9.12778C6.90812 9.02142 6.77438 8.96308 6.65682 8.96308C6.53925 8.96308 6.40551 9.02142 6.30928 9.12778L6.30936 9.12785L6.30704 9.1301C6.20445 9.22977 6.14738 9.36917 6.14738 9.49279C6.14738 9.61641 6.20445 9.75581 6.30704 9.85548L6.30711 9.8554L6.30928 9.8578C6.40551 9.96416 6.53925 10.0225 6.65682 10.0225C6.77438 10.0225 6.90812 9.96416 7.00436 9.8578L7.00428 9.85773L7.00659 9.85548C7.10919 9.75581 7.16626 9.61641 7.16626 9.49279C7.16626 9.36917 7.10919 9.22977 7.00659 9.1301ZM12.1014 9.75342L12.1014 9.75342L12.1017 9.7528C12.1738 9.61058 12.2018 9.50877 12.1927 9.41899C12.1838 9.33018 12.1376 9.24389 12.0393 9.13499C11.9346 9.01979 11.8214 8.96308 11.6918 8.96308C11.5872 8.96308 11.4591 9.02822 11.3545 9.1262C11.2493 9.22475 11.1823 9.34285 11.1823 9.43482C11.1823 9.71238 11.3575 9.90817 11.5608 9.97617C11.7629 10.0438 11.9883 9.98466 12.1014 9.75342ZM9.19847 12.258L9.19861 12.2582C9.32133 12.3567 9.48467 12.365 9.62967 12.3044C9.77474 12.2438 9.89488 12.1165 9.92955 11.9536C9.9513 11.847 9.9282 11.7036 9.87624 11.576C9.85052 11.5127 9.81855 11.4555 9.78363 11.4106C9.7484 11.3652 9.71259 11.3354 9.68001 11.3217C9.38468 11.2055 9.1416 11.3389 9.03163 11.5511C8.92115 11.7643 8.94581 12.0566 9.19847 12.258ZM13.674 12.258L13.6741 12.2582C13.7969 12.3567 13.9602 12.365 14.1052 12.3044C14.2503 12.2438 14.3704 12.1166 14.4051 11.9536C14.4268 11.847 14.4037 11.7036 14.3518 11.576C14.326 11.5127 14.2941 11.4555 14.2592 11.4106C14.2239 11.3652 14.1881 11.3354 14.1555 11.3217C13.8602 11.2055 13.6171 11.3389 13.5072 11.5511C13.3967 11.7643 13.4213 12.0566 13.674 12.258Z" fill="#184463" stroke="#184463" stroke-width="0.1"/>
</g>
<defs>
<clipPath id="clip0_2024_82">
<rect width="20" height="20" fill="white" transform="translate(0.083252)"/>
</clipPath>
</defs>
</svg>
