<svg width="120" height="120" viewBox="0 0 120 120" fill="none" xmlns="http://www.w3.org/2000/svg">
<path d="M13.5328 107.302H20.5641C15.1617 107.302 10.7812 102.921 10.7812 97.5188V22.0735C10.7812 16.8961 14.9789 12.6985 20.1562 12.6985H13.125C7.94766 12.6985 3.75 16.8961 3.75 22.0735V97.5188C3.75 102.921 8.13047 107.302 13.5328 107.302Z" fill="#BADEFF"/>
<path d="M106.875 11.5271H13.125C7.30945 11.5271 2.57812 16.2584 2.57812 22.074V97.5186C2.57812 103.559 7.49227 108.473 13.5326 108.473H106.467C112.508 108.473 117.422 103.559 117.422 97.5186V22.074C117.422 16.2584 112.691 11.5271 106.875 11.5271ZM4.92188 22.074C4.92188 17.5508 8.6018 13.8708 13.125 13.8708H39.652V22.5326C39.652 24.9882 37.6545 26.9858 35.1989 26.9858H4.92188V22.074ZM115.078 97.5186C115.078 102.267 111.215 106.129 106.467 106.129H13.5326C8.78461 106.129 4.92188 102.267 4.92188 97.5186V29.3295H115.078V97.5186ZM115.078 26.986H40.327C41.3651 25.7921 41.9958 24.2351 41.9958 22.5326V13.8708H106.875C111.398 13.8708 115.078 17.5508 115.078 22.074V26.986Z" fill="#184463"/>
<path d="M14.6166 17.616C13.0657 17.616 11.8041 18.8776 11.8041 20.4285C11.8041 21.9793 13.0657 23.241 14.6166 23.241C16.1674 23.241 17.4291 21.9793 17.4291 20.4285C17.4291 18.8776 16.1674 17.616 14.6166 17.616ZM14.6166 20.8972C14.3581 20.8972 14.1478 20.687 14.1478 20.4285C14.1478 20.17 14.3581 19.9597 14.6166 19.9597C14.8751 19.9597 15.0853 20.17 15.0853 20.4285C15.0853 20.687 14.8751 20.8972 14.6166 20.8972Z" fill="#184463"/>
<path d="M22.2867 17.616C20.7359 17.616 19.4742 18.8776 19.4742 20.4285C19.4742 21.9793 20.7359 23.241 22.2867 23.241C23.8376 23.241 25.0992 21.9793 25.0992 20.4285C25.0992 18.8776 23.8376 17.616 22.2867 17.616ZM22.2867 20.8972C22.0282 20.8972 21.818 20.687 21.818 20.4285C21.818 20.17 22.0282 19.9597 22.2867 19.9597C22.5453 19.9597 22.7555 20.17 22.7555 20.4285C22.7555 20.687 22.5453 20.8972 22.2867 20.8972Z" fill="#184463"/>
<path d="M29.9573 17.616C28.4065 17.616 27.1448 18.8776 27.1448 20.4285C27.1448 21.9793 28.4065 23.241 29.9573 23.241C31.5082 23.241 32.7698 21.9793 32.7698 20.4285C32.7698 18.8776 31.5082 17.616 29.9573 17.616ZM29.9573 20.8972C29.6988 20.8972 29.4886 20.687 29.4886 20.4285C29.4886 20.17 29.6988 19.9597 29.9573 19.9597C30.2159 19.9597 30.4261 20.17 30.4261 20.4285C30.4261 20.687 30.2159 20.8972 29.9573 20.8972Z" fill="#184463"/>
<path d="M9.91803 37.9066C10.5651 37.9066 11.0899 37.3819 11.0899 36.7348V34.6287C11.0899 33.9816 10.5651 33.4568 9.91803 33.4568C9.27092 33.4568 8.74615 33.9816 8.74615 34.6287V36.7348C8.74615 37.3819 9.27092 37.9066 9.91803 37.9066Z" fill="#184463"/>
<path d="M9.91803 60.6512C10.5651 60.6512 11.0899 60.1264 11.0899 59.4793V42.0718C11.0899 41.4247 10.5651 40.8999 9.91803 40.8999C9.27092 40.8999 8.74615 41.4247 8.74615 42.0718V59.4793C8.74615 60.1264 9.27092 60.6512 9.91803 60.6512Z" fill="#184463"/>
<path d="M30.3699 94.6659H89.6302C90.2773 94.6659 90.8021 94.1411 90.8021 93.494V89.613C90.8021 88.9659 90.2773 88.4411 89.6302 88.4411H87.3516V64.7863C87.3516 64.1392 86.8268 63.6145 86.1797 63.6145H78.1833C77.5362 63.6145 77.0114 64.1392 77.0114 64.7863V88.4411H72.5639V79.0059C72.5639 78.3588 72.0392 77.834 71.3921 77.834H63.3956C62.7485 77.834 62.2238 78.3588 62.2238 79.0059V88.4411H57.776V72.7455C57.776 72.0984 57.2513 71.5736 56.6042 71.5736H48.608C47.9609 71.5736 47.4361 72.0984 47.4361 72.7455V88.4411H42.9884V60.5432C42.9884 59.8961 42.4636 59.3713 41.8165 59.3713H33.8203C33.1732 59.3713 32.6485 59.8961 32.6485 60.5432V88.4411H30.3699C29.7228 88.4411 29.198 88.9659 29.198 89.613V93.494C29.198 94.1411 29.7228 94.6659 30.3699 94.6659ZM79.3552 65.9584H85.0078V69.1921H79.3552V65.9584ZM79.3552 71.5359H85.0078V88.4411H79.3552V71.5359ZM64.5675 80.178H70.2202V83.4119H64.5675V80.178ZM64.5675 85.7556H70.2202V88.4413H64.5675V85.7556ZM49.7799 73.9176H55.4323V77.1513H49.7799V73.9176ZM49.7799 79.495H55.4323V88.4413H49.7799V79.495ZM34.9922 61.7153H40.6446V64.949H34.9922V61.7153ZM34.9922 67.2927H40.6446V88.4413H34.9922V67.2927ZM31.5417 90.7851H88.4583V92.3224H31.5417V90.7851Z" fill="#184463"/>
<path d="M60 70.4167C68.176 70.4167 74.8278 63.7649 74.8278 55.589C74.8278 47.413 68.176 40.7612 60 40.7612C51.8241 40.7612 45.1723 47.413 45.1723 55.589C45.1723 63.7649 51.8241 70.4167 60 70.4167ZM72.4416 54.6051H62.6412L69.6132 47.6333C71.2085 49.5578 72.2351 51.9681 72.4416 54.6051ZM60 43.105C63.0209 43.105 65.794 44.1838 67.9557 45.9761L60.0675 53.8642L53.8857 44.7112C55.6941 43.6905 57.7793 43.1052 60 43.1052V43.105ZM51.9607 46.0485L58.9742 56.433C59.1921 56.7555 59.5559 56.949 59.9454 56.949H72.4085C71.7286 63.1951 66.424 68.0732 60 68.0732C53.1162 68.0732 47.5161 62.4728 47.5161 55.5892C47.5161 51.7658 49.2453 48.3405 51.9607 46.0487V46.0485Z" fill="#184463"/>
</svg>
