<svg width="20" height="20" viewBox="0 0 20 20" fill="none" xmlns="http://www.w3.org/2000/svg">
<g clip-path="url(#clip0_2271_2214)">
<path fill-rule="evenodd" clip-rule="evenodd" d="M10.6016 12.9382C10.4529 13.0869 10.2512 13.1704 10.041 13.1704C9.8307 13.1704 9.62905 13.0869 9.48036 12.9382L4.99476 8.45263C4.91902 8.37948 4.85862 8.29199 4.81706 8.19525C4.7755 8.09851 4.75363 7.99446 4.75272 7.88917C4.7518 7.78389 4.77186 7.67948 4.81173 7.58203C4.8516 7.48458 4.91048 7.39605 4.98493 7.3216C5.05938 7.24715 5.14791 7.18827 5.24536 7.1484C5.34281 7.10853 5.44722 7.08847 5.5525 7.08939C5.65779 7.0903 5.76184 7.11217 5.85858 7.15373C5.95532 7.19529 6.04281 7.25569 6.11596 7.33143L10.041 11.2564L13.966 7.33143C14.1155 7.18699 14.3158 7.10707 14.5237 7.10887C14.7316 7.11068 14.9305 7.19407 15.0775 7.34109C15.2245 7.4881 15.3079 7.68698 15.3097 7.89488C15.3115 8.10279 15.2316 8.30308 15.0872 8.45263L10.6016 12.9382Z" fill="#FF7919"/>
</g>
<defs>
<clipPath id="clip0_2271_2214">
<rect width="19.0303" height="19.0303" fill="white" transform="translate(0.525146 0.484863)"/>
</clipPath>
</defs>
</svg>
