<svg width="121" height="120" viewBox="0 0 121 120" fill="none" xmlns="http://www.w3.org/2000/svg">
<path d="M107 25.4997V94.4994C107 101.127 101.627 106.499 94.9997 106.499H25.9998C19.3725 106.499 13.9999 101.127 13.9999 94.4994V25.4997C13.9999 18.8724 19.3725 13.4998 25.9998 13.4998H94.9996C101.627 13.4998 107 18.8724 107 25.4997Z" fill="white"/>
<path d="M31.2002 27.5902C31.2002 29.4573 29.6872 30.9782 27.8202 30.9782C25.9452 30.9782 24.4322 29.4571 24.4322 27.5902C24.4322 25.7232 25.9452 24.2021 27.8202 24.2021C29.6872 24.2021 31.2002 25.7232 31.2002 27.5902Z" fill="#BADEFF"/>
<path d="M43.2236 27.5902C43.2236 29.4573 41.7106 30.9782 39.8437 30.9782C37.9687 30.9782 36.4557 29.4571 36.4557 27.5902C36.4557 25.7232 37.9687 24.2021 39.8437 24.2021C41.7108 24.2021 43.2236 25.7232 43.2236 27.5902Z" fill="#BADEFF"/>
<path d="M55.2473 27.5902C55.2473 29.4573 53.7343 30.9782 51.8674 30.9782C49.9923 30.9782 48.4793 29.4571 48.4793 27.5902C48.4793 25.7232 49.9923 24.2021 51.8674 24.2021C53.7343 24.2021 55.2473 25.7232 55.2473 27.5902Z" fill="#BADEFF"/>
<path d="M93.6588 59.9997C93.6588 67.3851 87.6717 73.3722 80.2863 73.3722H40.7133C33.3278 73.3722 27.3408 67.3851 27.3408 59.9997C27.3408 52.6143 33.3278 46.6272 40.7133 46.6272H80.2863C87.6717 46.6272 93.6588 52.6143 93.6588 59.9997Z" fill="#BADEFF"/>
<path d="M94.9998 12H25.9999C18.5556 12 12.5 18.0556 12.5 25.4999V94.4996C12.5 101.944 18.5556 108 25.9999 108H94.9996C102.444 108 108.5 101.944 108.5 94.4996V25.4999C108.5 18.0558 102.444 12 94.9998 12ZM105.5 94.4998C105.5 100.289 100.789 105 94.9998 105H25.9999C20.2109 105 15.5 100.289 15.5 94.4998V25.4999C15.5 19.7109 20.2109 15 25.9999 15H94.9996C100.789 15 105.5 19.7109 105.5 25.4999L105.5 94.4998Z" fill="#184463"/>
<path d="M32.7002 27.5904C32.7002 24.8951 30.5117 22.7021 27.8208 22.7021C25.1256 22.7021 22.9326 24.8949 22.9326 27.5904C22.9326 30.2858 25.1254 32.4786 27.8208 32.4786C30.5117 32.4786 32.7002 30.2856 32.7002 27.5904ZM25.9326 27.5904C25.9326 26.5489 26.7794 25.7022 27.8208 25.7022C28.8564 25.7022 29.7002 26.5489 29.7002 27.5904C29.7002 28.6318 28.8564 29.4786 27.8208 29.4786C26.7794 29.4786 25.9326 28.6318 25.9326 27.5904Z" fill="#184463"/>
<path d="M39.8443 32.4786C42.5352 32.4786 44.7237 30.2858 44.7237 27.5904C44.7237 24.8949 42.5352 22.7021 39.8443 22.7021C37.149 22.7021 34.9561 24.8949 34.9561 27.5904C34.9561 30.2858 37.149 32.4786 39.8443 32.4786ZM39.8443 25.7022C40.8799 25.7022 41.7236 26.5489 41.7236 27.5904C41.7236 28.6318 40.8799 29.4786 39.8443 29.4786C38.8029 29.4786 37.9561 28.6318 37.9561 27.5904C37.9561 26.5489 38.8029 25.7022 39.8443 25.7022Z" fill="#184463"/>
<path d="M51.8677 32.4786C54.5587 32.4786 56.7471 30.2858 56.7471 27.5904C56.7471 24.8949 54.5587 22.7021 51.8677 22.7021C49.1725 22.7021 46.9795 24.8949 46.9795 27.5904C46.9795 30.2858 49.1723 32.4786 51.8677 32.4786ZM51.8677 25.7022C52.9033 25.7022 53.7471 26.5489 53.7471 27.5904C53.7471 28.6318 52.9033 29.4786 51.8677 29.4786C50.8263 29.4786 49.9796 28.6318 49.9796 27.5904C49.9796 26.5489 50.8261 25.7022 51.8677 25.7022Z" fill="#184463"/>
<path d="M80.2871 45.1274H40.7129C32.5127 45.1274 25.8404 51.7998 25.8404 59.9999C25.8404 68.2001 32.5127 74.8725 40.7129 74.8725H80.2871C88.4873 74.8725 95.1596 68.2001 95.1596 59.9999C95.1596 51.7998 88.4873 45.1274 80.2871 45.1274ZM80.2871 71.8724H40.7129C34.1665 71.8724 28.8404 66.5463 28.8404 59.9999C28.8404 53.4536 34.1665 48.1275 40.7129 48.1275H80.2871C86.8335 48.1275 92.1596 53.4536 92.1596 59.9999C92.1596 66.5463 86.8335 71.8724 80.2871 71.8724Z" fill="#184463"/>
<path d="M49.0317 54.1418C48.2026 54.1418 47.5317 54.8128 47.5317 55.6419V61.7283C47.5317 62.3509 47.0249 62.8577 46.4008 62.8577C45.7783 62.8577 45.2715 62.3509 45.2715 61.7283V59.6688C45.2715 58.8397 44.6005 58.1688 43.7715 58.1688C42.9424 58.1688 42.2714 58.8397 42.2714 59.6688V61.7283C42.2714 62.3509 41.7647 62.8577 41.1406 62.8577C40.518 62.8577 40.0113 62.3509 40.0113 61.7283V55.6419C40.0113 54.8128 39.3403 54.1418 38.5112 54.1418C37.6822 54.1418 37.0112 54.8128 37.0112 55.6419V61.7283C37.0112 64.0047 38.8642 65.8577 41.1406 65.8577C42.1397 65.8577 43.0567 65.5017 43.7715 64.91C44.4863 65.5019 45.4033 65.8577 46.4008 65.8577C48.6787 65.8577 50.5317 64.0047 50.5317 61.7283V55.6419C50.5317 54.8128 49.8609 54.1418 49.0317 54.1418Z" fill="#184463"/>
<path d="M65.7602 54.1418C64.9311 54.1418 64.2602 54.8128 64.2602 55.6419V61.7283C64.2602 62.3509 63.7534 62.8577 63.1293 62.8577C62.5068 62.8577 62 62.3509 62 61.7283V59.6688C62 58.8397 61.3291 58.1688 60.5 58.1688C59.6709 58.1688 59 58.8397 59 59.6688V61.7283C59 62.3509 58.4932 62.8577 57.8691 62.8577C57.2466 62.8577 56.7398 62.3509 56.7398 61.7283V55.6419C56.7398 54.8128 56.0688 54.1418 55.2398 54.1418C54.4107 54.1418 53.7397 54.8128 53.7397 55.6419V61.7283C53.7397 64.0047 55.5927 65.8577 57.8691 65.8577C58.8682 65.8577 59.7852 65.5017 60.5 64.91C61.2148 65.5019 62.1318 65.8577 63.1293 65.8577C65.4072 65.8577 67.2602 64.0047 67.2602 61.7283V55.6419C67.2602 54.8128 66.5893 54.1418 65.7602 54.1418Z" fill="#184463"/>
<path d="M82.4887 54.1418C81.6596 54.1418 80.9887 54.8128 80.9887 55.6419V61.7283C80.9887 62.3509 80.4819 62.8577 79.8578 62.8577C79.2353 62.8577 78.7285 62.3509 78.7285 61.7283V59.6688C78.7285 58.8397 78.0575 58.1688 77.2285 58.1688C76.3994 58.1688 75.7285 58.8397 75.7285 59.6688V61.7283C75.7285 62.3509 75.2217 62.8577 74.5991 62.8577C73.975 62.8577 73.4683 62.3509 73.4683 61.7283V55.6419C73.4683 54.8128 72.7973 54.1418 71.9682 54.1418C71.1392 54.1418 70.4682 54.8128 70.4682 55.6419V61.7283C70.4682 64.0047 72.3212 65.8577 74.5991 65.8577C75.5967 65.8577 76.5137 65.5017 77.2285 64.91C77.9433 65.5019 78.8603 65.8577 79.8578 65.8577C82.1357 65.8577 83.9887 64.0047 83.9887 61.7283V55.6419C83.9887 54.8128 83.3178 54.1418 82.4887 54.1418Z" fill="#184463"/>
<path d="M78.2963 83.7478H42.7037C41.8746 83.7478 41.2037 84.4187 41.2037 85.2478C41.2037 86.0769 41.8746 86.7478 42.7037 86.7478H78.2963C79.1253 86.7478 79.7963 86.0769 79.7963 85.2478C79.7963 84.4187 79.1253 83.7478 78.2963 83.7478Z" fill="#184463"/>
<path d="M70.9003 91.7488H50.0982C49.2691 91.7488 48.5981 92.4197 48.5981 93.2488C48.5981 94.0779 49.2691 94.7488 50.0982 94.7488H70.9003C71.7294 94.7488 72.4003 94.0779 72.4003 93.2488C72.4003 92.4195 71.7294 91.7488 70.9003 91.7488Z" fill="#184463"/>
</svg>
