<svg width="120" height="120" viewBox="0 0 120 120" fill="none" xmlns="http://www.w3.org/2000/svg">
<path d="M5.65868 30V88.125C5.65868 93.3026 9.85603 97.5 15.0337 97.5H97.5337C102.711 97.5 106.909 93.3026 106.909 88.125V30H5.65868Z" fill="white"/>
<path d="M107.2 24.7C107.2 19.4533 102.988 15.2 97.7926 15.2H15.0074C9.81186 15.2 5.6 19.4533 5.6 24.7V30.4H107.2V24.7Z" fill="#BADEFF" stroke="#184463" stroke-width="4"/>
<path d="M95.8165 13.125H16.7508C9.58926 13.125 3.78368 18.9306 3.78368 26.0921V86.4079C3.78368 93.5694 9.58926 99.375 16.7508 99.375H62.1563C64.4316 99.3669 64.4242 95.6305 62.1511 95.625H16.7508C11.6603 95.625 7.53369 91.4984 7.53369 86.4079V26.0921C7.53369 21.0017 11.6603 16.875 16.7508 16.875H95.8165C100.907 16.875 105.034 21.0017 105.034 26.0921V83.1836C105.041 85.5994 108.772 85.5911 108.784 83.1847C108.784 83.1848 108.784 26.0921 108.784 26.0921C108.784 18.9306 102.978 13.125 95.8165 13.125Z" fill="#184463"/>
<path d="M18.7837 25.45H15.0337C12.5701 25.409 12.5685 21.741 15.0337 21.7H18.7837C21.2472 21.7409 21.2489 25.4089 18.7837 25.45Z" fill="#184463"/>
<path d="M28.1587 25.45H24.4087C21.9451 25.409 21.9435 21.741 24.4087 21.7H28.1587C30.6222 21.7409 30.6239 25.4089 28.1587 25.45Z" fill="#184463"/>
<path d="M37.5337 25.45H33.7837C31.3201 25.409 31.3185 21.741 33.7837 21.7H37.5337C39.9972 21.7409 39.9989 25.4089 37.5337 25.45Z" fill="#184463"/>
<path d="M49.2562 62.9439C49.9998 67.2896 55.8395 69.6539 59.5759 67.3136C63.3124 64.9733 63.9361 59.0813 61.0231 55.7718C56.6664 50.8286 58.1514 41.9266 63.9469 38.7478C51.5314 34.3295 37.0813 41.831 33.2423 53.9774C39.9002 50.9359 48.113 55.8862 49.2562 62.9439Z" fill="white"/>
<path d="M56.2287 70.1166C52.2659 70.2082 47.9523 67.1379 47.4077 63.261C46.3984 57.3765 39.6115 53.1297 33.9512 55.7136C32.5279 56.3482 30.9111 54.8312 31.4693 53.3697C35.8721 39.9432 51.1886 32.3364 64.5364 36.9674C66.1571 37.4539 66.2399 39.8799 64.6597 40.4864C60.1983 42.8896 58.9079 50.8229 62.4307 54.5325C67.2963 59.8213 63.984 70.326 56.2287 70.1166ZM51.1045 62.6276C52.4806 67.7571 60.3 67.6434 60.9078 61.8603C61.1726 60.0439 60.6892 58.2312 59.6162 57.0117C55.4668 52.567 55.7741 44.2037 59.8808 39.6698C50.4734 38.0596 40.8287 42.9469 36.4689 51.2494C43.3205 50.5586 49.972 55.8981 51.1045 62.6276Z" fill="#184463"/>
<path d="M68.2524 63.1414C65.8507 66.9389 65.9838 72.1795 68.5752 75.8502C69.7147 77.4642 70.5851 79.2609 71.1683 81.1476C77.9258 76.0591 81.9036 66.8332 80.3229 58.0076C75.7467 57.2048 70.7526 59.1436 68.2524 63.1414Z" fill="white"/>
<path d="M71.1683 83.0219C70.3631 83.0289 69.6073 82.475 69.3767 81.7017C68.8429 79.9732 68.0583 78.3691 67.043 76.9299C60.3063 67.3224 68.6244 54.1687 80.1936 56.1383C82.982 56.1188 82.3155 60.1606 82.5339 61.8749C82.5337 70.0433 78.8093 77.6092 72.3155 82.63C71.9822 82.8882 71.5785 83.0219 71.1683 83.0219ZM78.0137 59.6997C70.341 59.5826 65.6599 68.5236 70.1074 74.7676C70.8195 75.7782 71.4393 76.8549 71.9612 77.9846C76.8326 73.2848 79.3728 66.5362 78.6628 59.7235C78.4468 59.7089 78.2298 59.6997 78.0137 59.6997Z" fill="#184463"/>
<path d="M63.9469 38.7478C58.1513 41.9267 56.6664 50.8286 61.0231 55.7718C63.9361 59.0813 63.3124 64.9733 59.5759 67.3137C55.8395 69.654 49.9998 67.2896 49.2562 62.9439C48.1138 55.8856 39.8992 50.9364 33.2422 53.9774C25.4551 76.7952 52.2235 95.8016 71.1683 81.1477C70.5851 79.261 69.7147 77.4643 68.5752 75.8503C62.6827 67.2892 70.187 56.1256 80.3229 58.0077C78.8756 48.953 72.4631 41.5691 63.9469 38.7478Z" fill="#BADEFF"/>
<path d="M56.2837 88.125C41.8092 88.125 30.0337 76.3495 30.0337 61.875C30.0337 59.0075 30.5161 56.1456 31.4692 53.3697C31.645 52.857 32.0332 52.4469 32.534 52.2418C34.5673 51.4123 36.6136 51.0681 38.6231 51.2292C44.7096 51.7108 50.0755 56.6125 51.1045 62.6275C52.4454 67.7746 60.3463 67.5971 60.9078 61.8601C61.1726 60.0439 60.6892 58.2312 59.6162 57.0117C57.1827 54.2468 56.161 50.3723 56.8128 46.3824C57.4875 42.3094 59.7511 38.8872 63.0814 37.0843C63.5474 36.8096 64.0217 36.795 64.5362 36.9671C73.8645 40.0579 80.6229 48.0066 82.1739 57.7111C82.4292 59.2075 80.8934 60.2019 79.5352 59.8296C71.2808 58.384 65.2518 67.9419 70.1074 74.7676C71.3496 76.5307 72.309 78.49 72.96 80.592C73.1907 81.3391 72.9344 82.1521 72.3155 82.63C67.6701 86.2243 62.1256 88.125 56.2837 88.125ZM34.7468 55.4223C28.5879 75.4864 51.7102 92.3892 68.939 80.4528C68.4437 79.1967 67.8092 78.0157 67.0429 76.9299C60.8982 68.1822 67.2601 55.9245 77.9679 55.957C76.0847 48.9898 70.9834 43.3557 64.1572 40.8087C60.0808 43.4832 59.0586 50.9624 62.4307 54.5324C64.2222 56.5685 65.0398 59.5092 64.6186 62.4023C63.3909 72.3605 49.5148 72.5803 47.4074 63.2609C46.4602 57.7099 40.2366 53.4617 34.7468 55.4223Z" fill="#184463"/>
<path d="M108.784 91.875H101.017C100.179 88.649 97.2681 86.25 93.7837 86.25H75.0337C65.1251 86.5629 65.1215 100.936 75.0338 101.25H82.7999C83.6384 104.476 86.5493 106.875 90.0337 106.875H108.784C118.692 106.563 118.696 92.1884 108.784 91.875ZM108.784 103.125H90.0337C88.6518 103.125 87.4559 102.365 86.8054 101.25H93.7837C96.2445 101.208 96.2516 97.5423 93.7836 97.5H75.0337C70.0959 97.3736 70.0842 90.1298 75.0338 90H93.7837C95.1656 90 96.3615 90.7598 97.0119 91.875H90.0337C87.574 91.9154 87.565 95.583 90.0338 95.625H108.784C113.722 95.751 113.733 102.996 108.784 103.125Z" fill="#184463"/>
<path d="M90.0337 63.75H86.2837C83.8201 63.7091 83.8185 60.041 86.2837 60H90.0337C92.4972 60.0409 92.4989 63.709 90.0337 63.75Z" fill="#BADEFF"/>
<path d="M84.4746 53.4887C82.4353 53.5244 81.8759 50.5353 83.8338 49.8522C83.8337 49.8522 87.3576 48.5704 87.3576 48.5704C89.6831 47.7651 90.944 51.2111 88.6392 52.0934C88.1822 52.2173 84.8923 53.5711 84.4746 53.4887Z" fill="#BADEFF"/>
<path d="M87.9985 75.2929C87.5976 75.38 84.2737 74.0156 83.8337 73.8977C81.5309 73.0145 82.787 69.5751 85.1155 70.3747L88.6393 71.6564C90.5957 72.3393 90.0391 75.329 87.9985 75.2929Z" fill="#BADEFF"/>
<path d="M26.2837 63.75H22.5337C20.0701 63.7091 20.0685 60.041 22.5337 60H26.2837C28.7472 60.0409 28.7489 63.709 26.2837 63.75Z" fill="#BADEFF"/>
<path d="M28.0927 53.4888C27.6919 53.5758 24.368 52.2115 23.928 52.0935C21.6263 51.2112 22.8797 47.7706 25.2098 48.5706C25.2098 48.5705 28.7336 49.8523 28.7336 49.8523C30.69 50.5352 30.1334 53.5249 28.0927 53.4888Z" fill="#BADEFF"/>
<path d="M24.5689 75.2929C22.5296 75.3286 21.9702 72.3395 23.9281 71.6564C23.928 71.6564 27.4519 70.3746 27.4519 70.3746C29.7786 69.5693 31.0375 73.0159 28.7335 73.8976C28.2765 74.0215 24.9866 75.3753 24.5689 75.2929Z" fill="#BADEFF"/>
</svg>
