<svg width="28" height="28" viewBox="0 0 28 28" fill="none" xmlns="http://www.w3.org/2000/svg">
<path d="M24.3863 3.87012C24.501 4.11862 24.6943 4.31463 24.9498 4.42575L26.013 4.88688C26.0836 4.91777 26.1436 4.96857 26.1858 5.03306C26.228 5.09755 26.2504 5.17294 26.2504 5.25C26.2504 5.32706 26.228 5.40245 26.1858 5.46694C26.1436 5.53143 26.0836 5.58223 26.013 5.61312L24.9586 6.07425C24.7068 6.18061 24.5055 6.37947 24.396 6.62988L23.5612 8.526C23.4125 8.82438 22.9636 8.82438 22.814 8.526L21.9792 6.62988C21.8671 6.38128 21.6666 6.18324 21.4166 6.07425L20.3622 5.61312C20.2916 5.58223 20.2316 5.53143 20.1894 5.46694C20.1472 5.40245 20.1247 5.32706 20.1247 5.25C20.1247 5.17294 20.1472 5.09755 20.1894 5.03306C20.2316 4.96857 20.2916 4.91777 20.3622 4.88688L21.4166 4.42575C21.6683 4.31939 21.8697 4.12053 21.9792 3.87012L22.814 1.974C22.9627 1.67563 23.4116 1.67563 23.5612 1.974L24.3863 3.87012ZM13.9852 4.51937C14.0672 4.69197 14.2099 4.82837 14.386 4.90263L15.142 5.21762C15.3695 5.32 15.3695 5.6175 15.142 5.71988L14.386 6.03487C14.2079 6.10603 14.0642 6.24339 13.9852 6.41813L13.3937 7.72187C13.2843 7.92575 12.965 7.92575 12.8565 7.72187L12.265 6.41813C12.1833 6.24529 12.0405 6.10878 11.8642 6.03487L11.1082 5.71988C11.058 5.69984 11.0149 5.66519 10.9846 5.62043C10.9542 5.57566 10.938 5.52283 10.938 5.46875C10.938 5.41467 10.9542 5.36184 10.9846 5.31707C11.0149 5.27231 11.058 5.23766 11.1082 5.21762L11.8642 4.90263C12.0423 4.83147 12.1859 4.69411 12.265 4.51937L12.8565 3.21562C12.9658 3.01175 13.2852 3.01175 13.3937 3.21562L13.9852 4.51937ZM3.50008 22.75L2.04583 24.1736C1.95215 24.2668 1.87781 24.3776 1.82709 24.4996C1.77636 24.6216 1.75024 24.7524 1.75024 24.8846C1.75024 25.0167 1.77636 25.1475 1.82709 25.2695C1.87781 25.3915 1.95215 25.5023 2.04583 25.5955L2.40458 25.9543C2.78958 26.3498 3.42833 26.3498 3.81333 25.9455L5.25008 24.5061L5.24746 24.5035L17.5001 12.25L18.9648 10.7914C19.3455 10.402 19.3455 9.70638 18.9648 9.32575L18.6761 9.03612C18.2876 8.65375 17.5001 8.75 17.0626 9.1875L3.50008 22.75ZM22.7063 14.2607C22.5259 14.1739 22.3829 14.0247 22.3038 13.8407L21.7045 12.4215C21.5925 12.1931 21.274 12.1931 21.1707 12.4215L20.5713 13.8416C20.4922 14.0253 20.3492 14.1742 20.1688 14.2607L19.419 14.6038C19.1941 14.7175 19.1941 15.0412 19.419 15.1462L20.168 15.4893C20.3484 15.5761 20.4914 15.7253 20.5705 15.9092L21.1707 17.3285C21.2827 17.5569 21.6012 17.5569 21.7045 17.3285L22.3038 15.9092C22.3828 15.7252 22.5258 15.576 22.7063 15.4893L23.4562 15.1462C23.6811 15.0325 23.6811 14.7088 23.4562 14.6038L22.7063 14.2607ZM10.5001 12.25C10.7321 12.25 10.9547 12.1578 11.1188 11.9937C11.2829 11.8296 11.3751 11.6071 11.3751 11.375C11.3751 11.1429 11.2829 10.9204 11.1188 10.7563C10.9547 10.5922 10.7321 10.5 10.5001 10.5C10.268 10.5 10.0455 10.5922 9.88136 10.7563C9.71727 10.9204 9.62508 11.1429 9.62508 11.375C9.62508 11.6071 9.71727 11.8296 9.88136 11.9937C10.0455 12.1578 10.268 12.25 10.5001 12.25ZM26.2501 11.375C26.2501 11.6071 26.1579 11.8296 25.9938 11.9937C25.8297 12.1578 25.6071 12.25 25.3751 12.25C25.143 12.25 24.9205 12.1578 24.7564 11.9937C24.5923 11.8296 24.5001 11.6071 24.5001 11.375C24.5001 11.1429 24.5923 10.9204 24.7564 10.7563C24.9205 10.5922 25.143 10.5 25.3751 10.5C25.6071 10.5 25.8297 10.5922 25.9938 10.7563C26.1579 10.9204 26.2501 11.1429 26.2501 11.375ZM16.6251 3.5C16.8571 3.5 17.0797 3.40781 17.2438 3.24372C17.4079 3.07962 17.5001 2.85706 17.5001 2.625C17.5001 2.39294 17.4079 2.17038 17.2438 2.00628C17.0797 1.84219 16.8571 1.75 16.6251 1.75C16.393 1.75 16.1705 1.84219 16.0064 2.00628C15.8423 2.17038 15.7501 2.39294 15.7501 2.625C15.7501 2.85706 15.8423 3.07962 16.0064 3.24372C16.1705 3.40781 16.393 3.5 16.6251 3.5ZM17.5001 18.375C17.5001 18.6071 17.4079 18.8296 17.2438 18.9937C17.0797 19.1578 16.8571 19.25 16.6251 19.25C16.393 19.25 16.1705 19.1578 16.0064 18.9937C15.8423 18.8296 15.7501 18.6071 15.7501 18.375C15.7501 18.1429 15.8423 17.9204 16.0064 17.7563C16.1705 17.5922 16.393 17.5 16.6251 17.5C16.8571 17.5 17.0797 17.5922 17.2438 17.7563C17.4079 17.9204 17.5001 18.1429 17.5001 18.375Z" fill="#FF7919"/>
</svg>
