<svg width="29" height="28" viewBox="0 0 29 28" fill="none" xmlns="http://www.w3.org/2000/svg">
<g clip-path="url(#clip0_2271_2263)">
<path fill-rule="evenodd" clip-rule="evenodd" d="M3.08447 6.65664C3.08447 5.07435 4.36781 3.79102 5.9501 3.79102H10.0436C11.6259 3.79102 12.9093 5.07435 12.9093 6.65664V7.47477C12.9093 9.05852 11.6259 10.3404 10.0436 10.3404H5.9501C5.19009 10.3404 4.4612 10.0385 3.92379 9.50107C3.38639 8.96366 3.08447 8.23478 3.08447 7.47477V6.65664ZM5.9501 6.24831C5.89647 6.24831 5.84338 6.25887 5.79384 6.27939C5.74429 6.29991 5.69928 6.32999 5.66136 6.36791C5.62345 6.40582 5.59337 6.45084 5.57285 6.50038C5.55233 6.54992 5.54176 6.60302 5.54176 6.65664V7.47477C5.54157 7.52851 5.55199 7.58177 5.57243 7.63148C5.59286 7.68119 5.62291 7.72637 5.66085 7.76444C5.69878 7.80252 5.74386 7.83272 5.7935 7.85334C5.84313 7.87395 5.89635 7.88456 5.9501 7.88456H10.0436C10.0973 7.88456 10.1504 7.874 10.1999 7.85347C10.2494 7.83295 10.2945 7.80288 10.3324 7.76496C10.3703 7.72704 10.4004 7.68203 10.4209 7.63249C10.4414 7.58295 10.452 7.52985 10.452 7.47622V6.65664C10.452 6.60302 10.4414 6.54992 10.4209 6.50038C10.4004 6.45084 10.3703 6.40582 10.3324 6.36791C10.2945 6.32999 10.2494 6.29991 10.1999 6.27939C10.1504 6.25887 10.0973 6.24831 10.0436 6.24831H5.9501ZM14.9553 7.06643C14.9553 6.38831 15.5051 5.83852 16.1832 5.83852H25.1899C25.5156 5.83852 25.8279 5.96789 26.0582 6.19816C26.2884 6.42844 26.4178 6.74077 26.4178 7.06643C26.4178 7.3921 26.2884 7.70442 26.0582 7.9347C25.8279 8.16498 25.5156 8.29435 25.1899 8.29435H16.1832C15.8576 8.29435 15.5452 8.16498 15.315 7.9347C15.0847 7.70442 14.9553 7.3921 14.9553 7.06643ZM3.49281 14.4339C3.49281 13.7558 4.04406 13.206 4.72218 13.206H20.2782C20.4395 13.206 20.5991 13.2378 20.7481 13.2995C20.8971 13.3612 21.0325 13.4516 21.1465 13.5657C21.2605 13.6797 21.351 13.8151 21.4127 13.964C21.4744 14.113 21.5061 14.2727 21.5061 14.4339C21.5061 14.5952 21.4744 14.7549 21.4127 14.9038C21.351 15.0528 21.2605 15.1882 21.1465 15.3022C21.0325 15.4162 20.8971 15.5067 20.7481 15.5684C20.5991 15.6301 20.4395 15.6618 20.2782 15.6618H4.72218C4.56093 15.6618 4.40126 15.6301 4.25228 15.5684C4.1033 15.5067 3.96794 15.4162 3.85391 15.3022C3.73989 15.1882 3.64944 15.0528 3.58773 14.9038C3.52603 14.7549 3.49281 14.5952 3.49281 14.4339ZM3.49281 21.8014C3.49281 21.1248 4.04406 20.575 4.72218 20.575H24.3718C24.533 20.575 24.6927 20.6067 24.8417 20.6684C24.9906 20.7302 25.126 20.8206 25.24 20.9346C25.3541 21.0486 25.4445 21.184 25.5062 21.333C25.5679 21.482 25.5997 21.6416 25.5997 21.8029C25.5997 21.9641 25.5679 22.1238 25.5062 22.2728C25.4445 22.4218 25.3541 22.5571 25.24 22.6712C25.126 22.7852 24.9906 22.8756 24.8417 22.9373C24.6927 22.999 24.533 23.0308 24.3718 23.0308H4.72218C4.39652 23.0308 4.08419 22.9014 3.85391 22.6712C3.62363 22.4409 3.49426 22.1286 3.49426 21.8029" fill="#FF7919"/>
<path d="M24.7792 15.6619C24.9404 15.6619 25.1001 15.6301 25.2491 15.5684C25.3981 15.5067 25.5334 15.4163 25.6475 15.3022C25.7615 15.1882 25.8519 15.0529 25.9136 14.9039C25.9753 14.7549 26.0071 14.5952 26.0071 14.434C26.0071 14.2727 25.9753 14.113 25.9136 13.9641C25.8519 13.8151 25.7615 13.6797 25.6475 13.5657C25.5334 13.4517 25.3981 13.3612 25.2491 13.2995C25.1001 13.2378 24.9404 13.2061 24.7792 13.2061C24.4535 13.2061 24.1412 13.3354 23.9109 13.5657C23.6806 13.796 23.5513 14.1083 23.5513 14.434C23.5513 14.7596 23.6806 15.072 23.9109 15.3022C24.1412 15.5325 24.4535 15.6619 24.7792 15.6619Z" fill="#FF7919"/>
</g>
<defs>
<clipPath id="clip0_2271_2263">
<rect width="23.3333" height="23.3333" fill="white" transform="translate(3.08325 2.33301)"/>
</clipPath>
</defs>
</svg>
