<svg width="24" height="24" viewBox="0 0 24 24" fill="none" xmlns="http://www.w3.org/2000/svg">
<path d="M5.75 10.0016C5.75 8.08168 5.75925 7.29955 5.95802 6.6877C6.37844 5.39355 7.39288 4.37899 8.68671 3.95853C9.2984 3.75974 10.0803 3.75049 12 3.75049C13.9197 3.75049 14.7016 3.75974 15.3133 3.95853C16.6071 4.37899 17.6216 5.39355 18.042 6.6877C18.2407 7.29955 18.25 8.08168 18.25 10.0016V17.3902C18.25 18.3618 18.2494 19.0456 18.2096 19.5518C18.1685 20.0734 18.092 20.2714 18.0362 20.354C17.7751 20.7412 17.3201 20.9505 16.8563 20.8968C16.7574 20.8854 16.5574 20.8146 16.1347 20.5064C15.7245 20.2072 15.2051 19.7627 14.4674 19.1304C14.4339 19.1016 14.4008 19.0732 14.3682 19.0452C13.8261 18.5796 13.4034 18.2165 12.9162 18.0443C12.3234 17.8348 11.6766 17.8348 11.0838 18.0443C10.5966 18.2165 10.1739 18.5796 9.63177 19.0452C9.59914 19.0732 9.56608 19.1016 9.53255 19.1304C8.79494 19.7627 8.27553 20.2072 7.8653 20.5064C7.44264 20.8146 7.24257 20.8854 7.14365 20.8968C6.67991 20.9505 6.22487 20.7412 5.96375 20.354C5.90803 20.2714 5.83151 20.0734 5.79043 19.5518C5.75056 19.0456 5.75 18.3618 5.75 17.3902V10.0016Z" stroke="white" stroke-width="1.5" stroke-linecap="round"/>
</svg>
