<svg width="23" height="23" viewBox="0 0 23 23" fill="none" xmlns="http://www.w3.org/2000/svg">
<path d="M4.8502 20.1715L5.29108 19.5648L4.8502 20.1715ZM3.79013 19.1113L4.39692 18.6705L3.79013 19.1113ZM19.2099 19.1113L18.6031 18.6705L19.2099 19.1113ZM18.1498 20.1715L18.5907 20.7782L18.1498 20.1715ZM18.1498 4.74925L18.5907 4.14252L18.1498 4.74925ZM19.2099 5.80949L18.6031 6.25028L19.2099 5.80949ZM4.8502 4.74925L5.29108 5.35598L4.8502 4.74925ZM3.79013 5.80949L4.39692 6.25028L3.79013 5.80949ZM18.4171 15.3949L18.2997 14.6541L18.4171 15.3949ZM14.434 19.3786L13.6932 19.2613L14.434 19.3786ZM8.625 12.6689C8.21079 12.6689 7.875 13.0047 7.875 13.4189C7.875 13.8331 8.21079 14.1689 8.625 14.1689V12.6689ZM14.375 14.1689C14.7892 14.1689 15.125 13.8331 15.125 13.4189C15.125 13.0047 14.7892 12.6689 14.375 12.6689V14.1689ZM13.625 4.79246C13.625 5.20667 13.9608 5.54246 14.375 5.54246C14.7892 5.54246 15.125 5.20667 15.125 4.79246H13.625ZM15.125 1.91699C15.125 1.50278 14.7892 1.16699 14.375 1.16699C13.9608 1.16699 13.625 1.50278 13.625 1.91699H15.125ZM7.875 4.79246C7.875 5.20667 8.21079 5.54246 8.625 5.54246C9.03921 5.54246 9.375 5.20667 9.375 4.79246H7.875ZM9.375 1.91699C9.375 1.50278 9.03921 1.16699 8.625 1.16699C8.21079 1.16699 7.875 1.50278 7.875 1.91699H9.375ZM20.0973 15.3358L20.8468 15.3615L20.0973 15.3358ZM2.90272 9.58491L2.15316 9.55923L2.90272 9.58491ZM20.0973 9.58491L20.8468 9.55923L20.0973 9.58491ZM11.5 20.3368C9.68654 20.3368 8.38671 20.3358 7.38067 20.2267C6.38868 20.1192 5.7717 19.914 5.29108 19.5648L4.40931 20.7782C5.18826 21.3443 6.09943 21.5967 7.21908 21.718C8.32468 21.8378 9.71996 21.8368 11.5 21.8368V20.3368ZM2.125 12.4604C2.125 14.2407 2.12397 15.6362 2.24375 16.742C2.36505 17.8618 2.61742 18.773 3.18333 19.5521L4.39692 18.6705C4.04771 18.1897 3.84251 17.5726 3.73503 16.5804C3.62603 15.5742 3.625 14.2741 3.625 12.4604H2.125ZM5.29108 19.5648C4.94797 19.3155 4.64622 19.0137 4.39692 18.6705L3.18333 19.5521C3.52513 20.0226 3.93885 20.4364 4.40931 20.7782L5.29108 19.5648ZM18.6031 18.6705C18.3538 19.0137 18.052 19.3155 17.7089 19.5648L18.5907 20.7782C19.0611 20.4364 19.4749 20.0226 19.8167 19.5521L18.6031 18.6705ZM17.7089 5.35598C18.052 5.60531 18.3538 5.9071 18.6031 6.25028L19.8167 5.3687C19.4749 4.89817 19.0611 4.48438 18.5907 4.14252L17.7089 5.35598ZM4.40931 4.14252C3.93885 4.48438 3.52513 4.89817 3.18333 5.3687L4.39692 6.25028C4.64622 5.9071 4.94797 5.60531 5.29108 5.35598L4.40931 4.14252ZM18.2997 14.6541C15.9284 15.0297 14.0688 16.8898 13.6932 19.2613L15.1748 19.4959C15.4487 17.7661 16.8051 16.4096 18.5344 16.1356L18.2997 14.6541ZM8.625 14.1689H14.375V12.6689H8.625V14.1689ZM20.0973 14.5858C19.2529 14.5859 18.7411 14.5842 18.2997 14.6541L18.5344 16.1356C18.8303 16.0888 19.1979 16.0859 20.0973 16.0858L20.0973 14.5858ZM19.375 12.4604C19.375 13.5849 19.3749 14.5165 19.3477 15.3102L20.8468 15.3615C20.8751 14.5367 20.875 13.5766 20.875 12.4604H19.375ZM19.3477 15.3102C19.2868 17.0877 19.0883 18.0025 18.6031 18.6705L19.8167 19.5521C20.5911 18.486 20.7853 17.1576 20.8468 15.3615L19.3477 15.3102ZM15.125 21.0591C15.125 20.1596 15.1279 19.7918 15.1748 19.4959L13.6932 19.2613C13.6233 19.7027 13.625 20.2145 13.625 21.0591L15.125 21.0591ZM11.5 21.8368C12.6161 21.8368 13.5759 21.8369 14.4007 21.8086L14.3493 20.3095C13.5557 20.3367 12.6244 20.3368 11.5 20.3368V21.8368ZM14.4007 21.8086C16.1965 21.7471 17.5247 21.5528 18.5907 20.7782L17.7089 19.5648C17.0411 20.0501 16.1266 20.2486 14.3493 20.3095L14.4007 21.8086ZM3.625 12.4604C3.625 11.3358 3.62509 10.4043 3.65228 9.61059L2.15316 9.55923C2.12491 10.3841 2.125 11.3441 2.125 12.4604H3.625ZM3.65228 9.61059C3.71317 7.83303 3.91167 6.91829 4.39692 6.25028L3.18333 5.3687C2.40889 6.4348 2.21469 7.76318 2.15316 9.55923L3.65228 9.61059ZM2.90272 10.3349H20.0973V8.83491H2.90272V10.3349ZM20.875 12.4604C20.875 11.3441 20.8751 10.3841 20.8468 9.55923L19.3477 9.61059C19.3749 10.4043 19.375 11.3358 19.375 12.4604H20.875ZM20.8468 9.55923C20.7853 7.76318 20.5911 6.4348 19.8167 5.3687L18.6031 6.25028C19.0883 6.91829 19.2868 7.83303 19.3477 9.61059L20.8468 9.55923ZM15.125 4.79246V3.8617H13.625V4.79246H15.125ZM15.125 3.8617V1.91699H13.625V3.8617H15.125ZM11.5 4.58397C12.6244 4.58397 13.5557 4.58407 14.3493 4.61126L14.4007 3.11214C13.5759 3.08388 12.6161 3.08397 11.5 3.08397V4.58397ZM14.3493 4.61126C16.1266 4.67216 17.0411 4.87068 17.7089 5.35598L18.5907 4.14252C17.5247 3.36791 16.1965 3.17368 14.4007 3.11214L14.3493 4.61126ZM9.375 4.79246V3.8617H7.875V4.79246H9.375ZM9.375 3.8617V1.91699H7.875V3.8617H9.375ZM11.5 3.08397C10.3839 3.08397 9.42406 3.08388 8.59931 3.11214L8.65068 4.61126C9.44427 4.58407 10.3756 4.58397 11.5 4.58397V3.08397ZM8.59931 3.11214C6.80353 3.17368 5.47529 3.36791 4.40931 4.14252L5.29108 5.35598C5.95893 4.87068 6.87344 4.67216 8.65068 4.61126L8.59931 3.11214Z" fill="#09090B"/>
</svg>
