<svg width="121" height="120" viewBox="0 0 121 120" fill="none" xmlns="http://www.w3.org/2000/svg">
<g clip-path="url(#clip0_88_287)">
<path d="M118.549 47.5535V87.0638H91.2784L75.359 98.5367V87.0638H65.4047V47.5535H118.549ZM104.259 77.2638V58.2394C104.259 57.4201 103.292 57.0685 102.356 57.0685C101.39 57.0685 100.453 57.4201 100.453 58.2394V77.2638C100.453 78.0537 101.39 78.4633 102.356 78.4633C103.292 78.4633 104.259 78.0537 104.259 77.2638ZM95.5076 76.8827C95.499 76.7837 95.48 76.6855 95.4486 76.5902L89.7997 58.1804C89.5368 57.3029 88.4535 56.8932 87.3417 56.8932C86.2584 56.8932 85.1761 57.3029 84.9122 58.1804L79.2633 76.5902C79.2357 76.6865 79.2157 76.7837 79.2052 76.8827C79.2052 77.8193 80.58 78.4633 81.6052 78.4633C82.2492 78.4633 82.7466 78.2585 82.8923 77.7021L84.0051 73.8101H90.7077L91.8196 77.7021C91.9663 78.2585 92.4636 78.4633 93.1077 78.4633C94.1319 78.4633 95.5076 77.7907 95.5076 76.8827Z" fill="#BADEFF"/>
<path d="M113.671 87.0732V98.649C113.671 103.093 110.237 106.695 106 106.695H10.1218C5.88491 106.695 2.45122 103.093 2.45122 98.649V37.1389H113.671V47.5534H65.4047V87.0637H75.359V98.5366L91.2784 87.0637H113.671V87.0732Z" fill="white"/>
<path d="M113.671 21.3511V37.139H2.45122V21.3511C2.45122 16.9075 5.88491 13.3052 10.1218 13.3052H106C110.237 13.3052 113.671 16.9075 113.671 21.3511ZM52.3074 25.3755C52.3074 22.4125 50.0198 20.0096 47.1949 20.0096C44.371 20.0096 42.0806 22.4125 42.0806 25.3755C42.0806 28.3395 44.371 30.7394 47.1949 30.7394C50.0198 30.7394 52.3074 28.3366 52.3074 25.3755ZM35.6905 25.3755C35.6905 22.4125 33.4002 20.0096 30.5753 20.0096C27.7513 20.0096 25.4609 22.4125 25.4609 25.3755C25.4609 28.3395 27.7513 30.7394 30.5753 30.7394C33.4002 30.7394 35.6905 28.3366 35.6905 25.3755ZM19.0709 25.3755C19.0709 22.4125 16.7805 20.0096 13.9566 20.0096C11.1317 20.0096 8.84413 22.4125 8.84413 25.3755C8.84413 28.3395 11.1317 30.7394 13.9566 30.7394C16.7805 30.7394 19.0709 28.3366 19.0709 25.3755Z" fill="#BADEFF"/>
<path d="M87.3417 61.8389L89.8874 70.8242H84.795L87.3417 61.8389Z" fill="#BADEFF"/>
<path d="M47.1949 20.0095C50.0198 20.0095 52.3074 22.4123 52.3074 25.3754C52.3074 28.3394 50.0198 30.7393 47.1949 30.7393C44.371 30.7393 42.0806 28.3365 42.0806 25.3754C42.0806 22.4142 44.371 20.0095 47.1949 20.0095Z" fill="#BADEFF"/>
<path d="M30.5753 20.0095C33.4002 20.0095 35.6905 22.4123 35.6905 25.3754C35.6905 28.3394 33.4002 30.7393 30.5753 30.7393C27.7513 30.7393 25.4609 28.3365 25.4609 25.3754C25.4609 22.4142 27.7513 20.0095 30.5753 20.0095Z" fill="#BADEFF"/>
<path d="M13.9566 20.0095C16.7805 20.0095 19.0709 22.4123 19.0709 25.3754C19.0709 28.3394 16.7805 30.7393 13.9566 30.7393C11.1317 30.7393 8.84413 28.3365 8.84413 25.3754C8.84413 22.4142 11.1317 20.0095 13.9566 20.0095Z" fill="#BADEFF"/>
<path d="M30.5753 18.0583C26.6795 18.0583 23.5097 21.3406 23.5097 25.3754C23.5097 29.4103 26.6805 32.6906 30.5753 32.6906C34.471 32.6906 37.6418 29.4093 37.6418 25.3754C37.6418 21.3425 34.472 18.0583 30.5753 18.0583ZM30.5753 28.7882C28.8308 28.7882 27.4122 27.2571 27.4122 25.3754C27.4122 23.4938 28.8308 21.9608 30.5753 21.9608C32.3197 21.9608 33.7393 23.4928 33.7393 25.3754C33.7393 27.259 32.3197 28.7882 30.5753 28.7882Z" fill="#184463"/>
<path d="M47.1949 18.0583C43.2992 18.0583 40.1294 21.3406 40.1294 25.3754C40.1294 29.4103 43.3001 32.6906 47.1949 32.6906C51.0907 32.6906 54.2586 29.4093 54.2586 25.3754C54.2586 21.3425 51.0897 18.0583 47.1949 18.0583ZM47.1949 28.7882C45.4505 28.7882 44.0318 27.2571 44.0318 25.3754C44.0318 23.4938 45.4505 21.9608 47.1949 21.9608C48.9394 21.9608 50.3561 23.4928 50.3561 25.3754C50.3561 27.259 48.9394 28.7882 47.1949 28.7882Z" fill="#184463"/>
<path d="M13.9566 18.0583C10.0608 18.0583 6.89291 21.3406 6.89291 25.3754C6.89291 29.4103 10.0608 32.6906 13.9566 32.6906C17.8514 32.6906 21.0221 29.4093 21.0221 25.3754C21.0221 21.3425 17.8523 18.0583 13.9566 18.0583ZM13.9566 28.7882C12.213 28.7882 10.7954 27.2571 10.7954 25.3754C10.7954 23.4938 12.213 21.9608 13.9566 21.9608C15.6991 21.9608 17.1197 23.4928 17.1197 25.3754C17.1197 27.259 15.7001 28.7882 13.9566 28.7882Z" fill="#184463"/>
<path d="M81.6052 78.585C82.5808 78.585 82.9085 78.1077 83.0095 77.7209L84.0966 73.9023H90.6153L91.7014 77.719C91.8043 78.1077 92.1311 78.5784 93.1077 78.5784C94.1109 78.5784 95.6296 77.9029 95.6296 76.8787C95.6258 76.7939 95.6105 76.7091 95.5848 76.6272L95.5658 76.5538L89.9169 58.1458C89.613 57.1331 88.3868 56.772 87.3417 56.772C86.3575 56.772 85.0999 57.1312 84.7959 58.1458L79.1443 76.5605C79.1128 76.6653 79.0928 76.7729 79.0833 76.8815C79.0833 77.9219 80.5762 78.585 81.6052 78.585ZM87.3417 62.315L89.7264 70.7316H84.956L87.3417 62.315Z" fill="#184463"/>
<path d="M102.329 78.5853C103.335 78.5853 104.402 78.1317 104.402 77.2638V58.2394C104.402 57.3457 103.337 56.9465 102.329 56.9465C101.396 56.9465 100.256 57.2848 100.256 58.2394V77.2638C100.256 78.1708 101.354 78.5853 102.329 78.5853Z" fill="#184463"/>
<path d="M118.549 45.6097H115.622V21.351C115.622 15.8384 111.305 11.4634 106 11.4634H10.1218C4.81688 11.4634 0.5 15.8384 0.5 21.351V98.649C0.5 104.162 4.81688 108.537 10.1218 108.537H106C111.305 108.537 115.622 104.162 115.622 98.649V89.0244H118.549C119.628 89.0196 120.501 88.1431 120.5 87.0636V47.5533C120.5 47.0369 120.294 46.5415 119.927 46.1766C119.562 45.8117 119.065 45.6078 118.549 45.6097ZM4.40244 21.351C4.40244 17.9906 6.96818 15.3658 10.1218 15.3658H106C109.154 15.3658 111.72 17.9906 111.72 21.351V35.1219H4.40244V21.351ZM111.72 98.649C111.72 102.009 109.154 104.634 106 104.634H10.1218C6.96818 104.634 4.40244 102.009 4.40244 98.649V39.0244H111.72V45.6097H65.4047C64.3234 45.604 63.4402 46.472 63.4268 47.5533V87.0636C63.4383 88.1478 64.3205 89.0215 65.4047 89.0244H73.4268V98.5366C73.424 99.2664 73.8298 99.9361 74.4787 100.271C75.1265 100.606 75.9087 100.55 76.5013 100.125L91.9082 89.0244H111.72V98.649ZM116.598 85.1219H91.2784C90.8716 85.12 90.4762 85.2477 90.1465 85.4849L77.3293 94.7246V87.0636C77.3188 85.9842 76.4385 85.1162 75.359 85.1219H67.3293V49.5122H116.598V85.1219Z" fill="#184463"/>
</g>
<defs>
<clipPath id="clip0_88_287">
<rect width="120" height="120" fill="white" transform="translate(0.5)"/>
</clipPath>
</defs>
</svg>
