<svg width="29" height="28" viewBox="0 0 29 28" fill="none" xmlns="http://www.w3.org/2000/svg">
<path d="M4.91675 6.41699C4.91675 5.95286 5.10112 5.50774 5.42931 5.17956C5.7575 4.85137 6.20262 4.66699 6.66675 4.66699H20.6667C21.1309 4.66699 21.576 4.85137 21.9042 5.17956C22.2324 5.50774 22.4167 5.95286 22.4167 6.41699V9.91699C22.4167 10.3811 22.2324 10.8262 21.9042 11.1544C21.576 11.4826 21.1309 11.667 20.6667 11.667C20.2026 11.667 19.7575 11.4826 19.4293 11.1544C19.1011 10.8262 18.9167 10.3811 18.9167 9.91699V8.16699H15.4167V19.8337H16.0001C16.4642 19.8337 16.9093 20.018 17.2375 20.3462C17.5657 20.6744 17.7501 21.1195 17.7501 21.5837C17.7501 22.0478 17.5657 22.4929 17.2375 22.8211C16.9093 23.1493 16.4642 23.3337 16.0001 23.3337H11.3334C10.8693 23.3337 10.4242 23.1493 10.096 22.8211C9.76779 22.4929 9.58341 22.0478 9.58341 21.5837C9.58341 21.1195 9.76779 20.6744 10.096 20.3462C10.4242 20.018 10.8693 19.8337 11.3334 19.8337H11.9167V8.16699H8.41675V9.91699C8.41675 10.3811 8.23237 10.8262 7.90419 11.1544C7.576 11.4826 7.13088 11.667 6.66675 11.667C6.20262 11.667 5.7575 11.4826 5.42931 11.1544C5.10112 10.8262 4.91675 10.3811 4.91675 9.91699V6.41699Z" fill="#FF7919"/>
</svg>
