<svg width="20" height="20" viewBox="0 0 20 20" fill="none" xmlns="http://www.w3.org/2000/svg">
<path d="M15 15.8333H5.00004C4.337 15.8333 3.70111 15.5699 3.23227 15.1011C2.76343 14.6323 2.50004 13.9964 2.50004 13.3333V6.66667C2.50004 6.44565 2.41224 6.23369 2.25596 6.07741C2.09968 5.92113 1.88772 5.83333 1.66671 5.83333C1.44569 5.83333 1.23373 5.92113 1.07745 6.07741C0.921171 6.23369 0.833374 6.44565 0.833374 6.66667V13.3333C0.833374 14.4384 1.27236 15.4982 2.05376 16.2796C2.44067 16.6665 2.9 16.9734 3.40553 17.1828C3.91105 17.3922 4.45287 17.5 5.00004 17.5H15C15.2211 17.5 15.433 17.4122 15.5893 17.2559C15.7456 17.0996 15.8334 16.8877 15.8334 16.6667C15.8334 16.4457 15.7456 16.2337 15.5893 16.0774C15.433 15.9211 15.2211 15.8333 15 15.8333ZM19.1667 8.28333C19.158 8.20678 19.1413 8.13136 19.1167 8.05833V7.98333C19.0766 7.89765 19.0232 7.81889 18.9584 7.75V7.75L13.9584 2.75C13.8895 2.68518 13.8107 2.63173 13.725 2.59167H13.65L13.3834 2.5H6.66671C6.00367 2.5 5.36778 2.76339 4.89894 3.23223C4.4301 3.70107 4.16671 4.33696 4.16671 5V11.6667C4.16671 12.3297 4.4301 12.9656 4.89894 13.4344C5.36778 13.9033 6.00367 14.1667 6.66671 14.1667H16.6667C17.3297 14.1667 17.9656 13.9033 18.4345 13.4344C18.9033 12.9656 19.1667 12.3297 19.1667 11.6667V8.33333C19.1667 8.33333 19.1667 8.33333 19.1667 8.28333ZM14.1667 5.34167L16.325 7.5H15C14.779 7.5 14.5671 7.4122 14.4108 7.25592C14.2545 7.09964 14.1667 6.88768 14.1667 6.66667V5.34167ZM17.5 11.6667C17.5 11.8877 17.4122 12.0996 17.256 12.2559C17.0997 12.4122 16.8877 12.5 16.6667 12.5H6.66671C6.44569 12.5 6.23373 12.4122 6.07745 12.2559C5.92117 12.0996 5.83337 11.8877 5.83337 11.6667V5C5.83337 4.77899 5.92117 4.56702 6.07745 4.41074C6.23373 4.25446 6.44569 4.16667 6.66671 4.16667H12.5V6.66667C12.5 7.32971 12.7634 7.96559 13.2323 8.43443C13.7011 8.90327 14.337 9.16667 15 9.16667H17.5V11.6667Z" fill="#184463"/>
</svg>
