<svg width="24" height="24" viewBox="0 0 24 24" fill="none" xmlns="http://www.w3.org/2000/svg">
<path d="M10.5 15C10.2167 15 9.97933 14.904 9.788 14.712C9.59667 14.52 9.50067 14.2827 9.5 14V13H11V13.5H13V12.5H10.5C10.2167 12.5 9.97933 12.404 9.788 12.212C9.59667 12.02 9.50067 11.7827 9.5 11.5V10C9.5 9.71667 9.596 9.47933 9.788 9.288C9.98 9.09667 10.2173 9.00067 10.5 9H13.5C13.7833 9 14.021 9.096 14.213 9.288C14.405 9.48 14.5007 9.71733 14.5 10V11H13V10.5H11V11.5H13.5C13.7833 11.5 14.021 11.596 14.213 11.788C14.405 11.98 14.5007 12.2173 14.5 12.5V14C14.5 14.2833 14.404 14.521 14.212 14.713C14.02 14.905 13.7827 15.0007 13.5 15H10.5ZM17 15C16.7167 15 16.4793 14.904 16.288 14.712C16.0967 14.52 16.0007 14.2827 16 14V13H17.5V13.5H19.5V12.5H17C16.7167 12.5 16.4793 12.404 16.288 12.212C16.0967 12.02 16.0007 11.7827 16 11.5V10C16 9.71667 16.096 9.47933 16.288 9.288C16.48 9.09667 16.7173 9.00067 17 9H20C20.2833 9 20.521 9.096 20.713 9.288C20.905 9.48 21.0007 9.71733 21 10V11H19.5V10.5H17.5V11.5H20C20.2833 11.5 20.521 11.596 20.713 11.788C20.905 11.98 21.0007 12.2173 21 12.5V14C21 14.2833 20.904 14.521 20.712 14.713C20.52 14.905 20.2827 15.0007 20 15H17ZM4 15C3.71667 15 3.47933 14.904 3.288 14.712C3.09667 14.52 3.00067 14.2827 3 14V10C3 9.71667 3.096 9.47933 3.288 9.288C3.48 9.09667 3.71733 9.00067 4 9H7C7.28333 9 7.521 9.096 7.713 9.288C7.905 9.48 8.00067 9.71733 8 10V11H6.5V10.5H4.5V13.5H6.5V13H8V14C8 14.2833 7.904 14.521 7.712 14.713C7.52 14.905 7.28267 15.0007 7 15H4Z" fill="#0FAF62"/>
</svg>
