<svg width="121" height="120" viewBox="0 0 121 120" fill="none" xmlns="http://www.w3.org/2000/svg">
<path fill-rule="evenodd" clip-rule="evenodd" d="M56.0556 78.5229H64.9334C65.4561 78.5229 65.8735 78.1078 65.8735 77.5849C65.8735 77.0623 65.4554 76.6481 64.9334 76.6481H56.0556C55.5392 76.6481 55.1155 77.0677 55.1155 77.5849C55.1155 78.1027 55.5385 78.5229 56.0556 78.5229ZM86.7922 106.218C88.9874 106.218 90.7707 108.002 90.7707 110.197C90.7707 112.392 88.9878 114.176 86.7922 114.176H34.1968C32.0054 114.176 30.2293 112.385 30.2293 110.197C30.2293 108.008 32.0061 106.218 34.1968 106.218H86.7922ZM12.3273 84.6804C8.39025 84.6804 5.18353 81.4802 5.18353 77.542V70.4897H73.4917L73.6876 70.8727C76.4047 76.1836 81.9212 79.552 87.8841 79.552C89.2717 79.552 90.6629 79.3673 92.0028 79.0071C93.5302 78.5965 94.9923 77.9641 96.3364 77.13L96.8113 76.8352L99.369 79.4049L99.3231 79.7484C99.2042 80.6356 99.4897 81.5449 100.126 82.1805L102.631 84.6804H12.3273ZM106.444 75.8707L113.449 82.8834L113.946 82.339C115.141 81.0279 115.805 79.3165 115.805 77.542V70.4897H102.244L102.051 70.8863C101.937 71.122 101.813 71.3527 101.68 71.5788C101.588 71.7363 101.495 71.8929 101.393 72.0445L101.073 72.5248L103.67 75.1148L104.017 75.0663C104.149 75.0478 104.282 75.0345 104.416 75.0345C105.184 75.0347 105.9 75.3267 106.444 75.8707ZM75.373 44.4795C75.5335 45.0788 75.4484 45.7123 75.1395 46.2417C74.8407 46.7813 74.3307 47.1729 73.7279 47.3337C72.4885 47.6641 71.2035 46.9259 70.8713 45.6858L63.9345 19.7855C63.774 19.1864 63.8593 18.5529 64.1715 18.0169C64.4813 17.4851 64.982 17.0927 65.5761 16.9312C65.7767 16.8766 65.983 16.8516 66.1906 16.8516C67.243 16.8516 68.1737 17.5627 68.4367 18.5824L75.373 44.4795ZM47.9394 44.2388L42.7166 45.6396C41.1559 46.0582 39.5117 45.832 38.1134 45.0246C36.7119 44.2153 35.7015 42.908 35.2824 41.3445C34.8641 39.7838 35.0877 38.1403 35.8923 36.7404C36.6992 35.336 38.0089 34.3242 39.5731 33.9047L44.7962 32.5038L47.9394 44.2388ZM48.5267 46.0233L45.4372 46.8532L50.4835 59.5001L53.2934 58.0552L48.5267 46.0233Z" fill="#BADEFF"/>
<path fill-rule="evenodd" clip-rule="evenodd" d="M36.5019 37.0903C37.2188 35.843 38.3766 34.9519 39.7552 34.5834L44.2991 33.3647L47.0783 43.7414L42.5345 44.9602C41.1559 45.3286 39.7112 45.1355 38.465 44.4152C37.2188 43.6962 36.3254 42.5405 35.9614 41.1619C35.5864 39.7835 35.7849 38.3377 36.5019 37.0903ZM62.386 23.9587L67.4481 42.8517C62.397 41.7059 56.3975 41.5437 50.1221 42.405L47.5965 33.003C53.4638 30.6145 58.5812 27.4755 62.386 23.9587ZM64.7792 18.3705C64.5587 18.7488 64.5036 19.1866 64.6138 19.6036L71.5508 45.5041C71.7824 46.3709 72.6758 46.8872 73.547 46.6544C73.966 46.5431 74.319 46.2729 74.5285 45.8946C74.7491 45.5163 74.8042 45.0785 74.694 44.6616L67.7567 18.761C67.5692 18.0342 66.9076 17.5545 66.1906 17.5545C66.0472 17.5545 65.904 17.572 65.7606 17.6095C65.3525 17.722 64.9998 17.9911 64.7792 18.3705ZM75.6753 30.5173C75.9069 31.3807 75.5762 32.2641 74.9143 32.7769L73.8887 28.9467C74.7158 29.0562 75.4438 29.655 75.6753 30.5173ZM50.8501 58.5211L46.3834 47.3271L48.1039 46.8649L52.4052 57.7214L50.8501 58.5211ZM36.8218 47.2577C38.1674 48.0307 39.6451 48.4256 41.1451 48.4256C41.8288 48.4256 42.5127 48.3396 43.1853 48.1765L47.9167 60.0112C48.2253 60.7943 48.8542 61.4142 49.6482 61.7107C49.9902 61.8387 50.3541 61.9015 50.7179 61.9015C51.192 61.9015 51.6664 61.789 52.1075 61.5652L54.1147 60.5351C55.5043 59.8181 56.1109 58.1737 55.5374 56.7103L51.1259 45.5857C57.5445 44.7651 63.5992 45.0785 68.4299 46.4911C69.0585 48.603 71.0106 49.9926 73.1279 49.9926C73.547 49.9926 73.9771 49.9376 74.3961 49.8239C75.6643 49.4864 76.7122 48.6726 77.3738 47.5355C78.0245 46.3973 78.201 45.075 77.87 43.8122L75.7857 36.0438C78.201 34.9873 79.5575 32.2908 78.8516 29.6681C78.1459 27.0466 75.6313 25.3868 73.0065 25.6802L70.9332 17.9116C70.2273 15.2967 67.5254 13.7395 64.9117 14.441C63.6545 14.7785 62.5956 15.5913 61.9339 16.7295C61.3053 17.8247 61.1288 19.0917 61.4155 20.3116C57.8312 24.0614 52.5486 27.4472 46.3393 29.9737C46.3173 29.9606 46.3063 29.9461 46.2842 29.9351C45.8982 29.7178 45.4571 29.6583 45.0381 29.7708L38.9061 31.414C36.6784 32.0095 34.8144 33.4432 33.6566 35.4492C32.4985 37.4552 32.1899 39.7856 32.7854 42.0112C33.3807 44.2357 34.8144 46.0997 36.8218 47.2577ZM87.5312 38.104C87.3437 38.8373 86.671 39.3204 85.9541 39.3204C85.8106 39.3204 85.6674 39.3016 85.524 39.2641L80.7486 37.9849C79.8774 37.7501 79.359 36.8501 79.5906 35.9754C79.8221 35.0998 80.7266 34.5792 81.5977 34.8152L86.3731 36.0944C87.2443 36.3284 87.7738 37.2281 87.5312 38.104ZM76.337 23.8373C75.6974 23.1966 75.6974 22.1576 76.337 21.5168L79.8331 18.0209C80.4727 17.3812 81.5094 17.3812 82.1492 18.0209C82.7888 18.6616 82.7888 19.7006 82.1492 20.3412L78.6531 23.8373C78.3442 24.1573 77.9141 24.3171 77.495 24.3171C77.076 24.3171 76.6569 24.1573 76.337 23.8373ZM81.9064 27.1502L86.4392 25.9371C87.3104 25.7034 88.2149 26.2216 88.4464 27.0973C88.678 27.9729 88.1598 28.8729 87.2884 29.1066L82.7556 30.3197C82.6121 30.3572 82.4689 30.3759 82.3365 30.3759C81.6085 30.3759 80.9469 29.8929 80.7484 29.1595C80.5168 28.2851 81.0353 27.3853 81.9064 27.1502ZM66.5769 77.5851C66.5769 78.4917 65.8489 79.2262 64.9337 79.2262H56.0558C55.1513 79.2262 54.4126 78.4917 54.4126 77.5851C54.4126 76.6798 55.1516 75.9452 56.0558 75.9452H64.9337C65.8489 75.9452 66.5769 76.6795 66.5769 77.5851ZM106.941 75.3738C106.269 74.7012 105.375 74.3316 104.416 74.3316C104.25 74.3316 104.085 74.347 103.919 74.3702L101.978 72.4348C102.088 72.2693 102.188 72.1038 102.287 71.9339C102.43 71.689 102.563 71.4431 102.684 71.1928H115.102V77.542C115.102 79.1522 114.496 80.6918 113.426 81.8653L106.941 75.3738ZM115.025 88.5C115.091 88.4339 115.102 88.3544 115.102 88.3003C115.102 88.2462 115.091 88.1667 115.025 88.1006L104.614 77.693C104.548 77.6269 104.471 77.6123 104.416 77.6123C104.361 77.6123 104.283 77.6266 104.217 77.693L101.957 79.9582C101.846 80.0641 101.846 80.2516 101.957 80.3585L112.356 90.765C112.434 90.8311 112.511 90.8456 112.566 90.8456C112.621 90.8456 112.698 90.8313 112.764 90.765L115.025 88.5ZM12.3273 83.9773H100.931L99.6292 82.6781C98.8131 81.8555 98.4821 80.7272 98.6256 79.6551L96.7065 77.7274C95.3169 78.5899 93.7949 79.2527 92.1847 79.6861C90.751 80.0709 89.2953 80.2551 87.8835 80.2551C81.6744 80.2551 75.9064 76.7548 73.0611 71.193H5.88665V77.5423C5.88665 81.09 8.77602 83.9773 12.3273 83.9773ZM76.4033 103.64H44.5527C46.3503 99.0677 47.4974 92.8664 47.5634 87.2583H73.1827C73.2931 92.798 74.5173 99.0026 76.4033 103.64ZM90.0676 110.197C90.0676 112.003 88.6009 113.473 86.7922 113.473H34.1968C32.3991 113.473 30.9324 112.003 30.9324 110.197C30.9324 108.391 32.3991 106.921 34.1968 106.921H86.7922C88.6009 106.921 90.0676 108.391 90.0676 110.197ZM84.421 50.7138C85.5791 50.404 86.7371 50.2561 87.8731 50.2561C93.7733 50.2561 99.1773 54.1978 100.777 60.1587C101.703 63.604 101.229 67.2037 99.4421 70.2928C97.6555 73.383 94.7771 75.5932 91.3363 76.5162C90.1782 76.826 89.0202 76.9727 87.8734 76.9727C81.984 76.9727 76.569 73.0322 74.9809 67.0723C74.0544 63.6258 74.5288 60.0262 76.3044 56.936C78.0906 53.8472 80.9689 51.637 84.421 50.7138ZM101.085 76.1833L100.445 76.8274L99.3205 75.7012C99.541 75.4929 99.7506 75.2766 99.9601 75.0548L101.085 76.1833ZM12.3273 6.52687C8.77602 6.52687 5.88665 9.41414 5.88665 12.9633V67.912H71.8044C70.6574 63.622 71.2419 59.1422 73.4696 55.2966C75.6863 51.4477 79.2817 48.6949 83.5719 47.5446C92.4277 45.169 101.57 50.4473 103.942 59.3088C104.714 62.1741 104.703 65.1232 103.953 67.9123H115.103V10.8204C115.103 8.45367 113.184 6.52687 110.813 6.52687H12.3273ZM118.389 10.8204C118.389 6.64383 114.992 3.24609 110.812 3.24609H12.3273C6.96735 3.24609 2.61102 7.6057 2.61102 12.9633V77.5423C2.61102 82.8989 6.96735 87.2585 12.3273 87.2585H44.277C44.2109 93.5393 42.6889 99.8951 40.9906 103.64H34.197C30.5907 103.64 27.646 106.583 27.646 110.197C27.646 113.813 30.5907 116.754 34.197 116.754H86.7922C90.4095 116.754 93.3542 113.813 93.3542 110.197C93.3542 106.583 90.4095 103.64 86.7922 103.64H79.9876C78.212 99.8278 76.5908 93.45 76.4694 87.2585H104.217L110.04 93.0848C110.713 93.7575 111.606 94.1271 112.566 94.1271C113.514 94.1271 114.408 93.7577 115.081 93.0848L117.341 90.8208C118.014 90.1491 118.389 89.2547 118.389 88.3008C118.389 87.3478 118.014 86.4522 117.341 85.7808L115.753 84.1873C117.429 82.4018 118.389 80.0283 118.389 77.5425V10.8204Z" fill="#184463"/>
</svg>
