<svg width="24" height="24" viewBox="0 0 24 24" fill="none" xmlns="http://www.w3.org/2000/svg">
<path d="M4 19V5C4 4.46957 4.21071 3.96086 4.58579 3.58579C4.96086 3.21071 5.46957 3 6 3H19.4C19.5591 3 19.7117 3.06321 19.8243 3.17574C19.9368 3.28826 20 3.44087 20 3.6V16.714" stroke="#FF7919" stroke-width="1.5" stroke-linecap="round"/>
<path d="M14 10H14.4C14.5591 10 14.7117 10.0632 14.8243 10.1757C14.9368 10.2883 15 10.4409 15 10.6V13.4C15 13.5591 14.9368 13.7117 14.8243 13.8243C14.7117 13.9368 14.5591 14 14.4 14H9.6C9.44087 14 9.28826 13.9368 9.17574 13.8243C9.06321 13.7117 9 13.5591 9 13.4V10.6C9 10.4409 9.06321 10.2883 9.17574 10.1757C9.28826 10.0632 9.44087 10 9.6 10H10M14 10V8C14 7.333 13.6 6 12 6C10.4 6 10 7.333 10 8V10M14 10H10" stroke="#FF7919" stroke-width="1.5" stroke-linecap="round" stroke-linejoin="round"/>
<path d="M6 17H20M6 21H20" stroke="#FF7919" stroke-width="1.5" stroke-linecap="round"/>
<path d="M6 21C5.46957 21 4.96086 20.7893 4.58579 20.4142C4.21071 20.0391 4 19.5304 4 19C4 18.4696 4.21071 17.9609 4.58579 17.5858C4.96086 17.2107 5.46957 17 6 17" stroke="#FF7919" stroke-width="1.5" stroke-linecap="round" stroke-linejoin="round"/>
</svg>
