<svg width="24" height="24" viewBox="0 0 24 24" fill="none" xmlns="http://www.w3.org/2000/svg">
<path d="M13.0213 19.9298V21.9498C15.0313 21.7498 16.8612 20.9498 18.3412 19.7398L16.9213 18.3098C15.7913 19.1919 14.4436 19.7517 13.0213 19.9298ZM4.03125 11.9998C4.03125 7.9498 7.06125 4.5898 10.9812 4.0698V2.0498C5.95125 2.5798 2.03125 6.8398 2.03125 11.9998C2.03125 17.1598 5.95125 21.4198 10.9812 21.9498V19.9298C7.06125 19.4098 4.03125 16.0498 4.03125 11.9998ZM19.9513 10.9998H21.9712C21.7712 8.9898 20.9712 7.1598 19.7612 5.6798L18.3312 7.10981C19.1912 8.20981 19.7712 9.5398 19.9513 10.9998ZM18.3412 4.2598C16.8237 3.01627 14.9733 2.24758 13.0213 2.0498V4.0698C14.4813 4.2498 15.8113 4.8298 16.9213 5.6898L18.3412 4.2598ZM18.3312 16.8998L19.7612 18.3198C21.0064 16.8032 21.7753 14.9523 21.9712 12.9998H19.9513C19.7732 14.4222 19.2134 15.7699 18.3312 16.8998Z" fill="#FF7919"/>
<path d="M16 11.1C16 8.61 14.1 7 12 7C9.9 7 8 8.61 8 11.1C8 12.76 9.33 14.73 12 17C14.67 14.73 16 12.76 16 11.1ZM12 12C11.7242 11.9881 11.4637 11.8701 11.2728 11.6708C11.0818 11.4714 10.9753 11.206 10.9753 10.93C10.9753 10.654 11.0818 10.3886 11.2728 10.1892C11.4637 9.98987 11.7242 9.87193 12 9.86C12.2758 9.87193 12.5363 9.98987 12.7272 10.1892C12.9182 10.3886 13.0247 10.654 13.0247 10.93C13.0247 11.206 12.9182 11.4714 12.7272 11.6708C12.5363 11.8701 12.2758 11.9881 12 12Z" fill="#FF7919"/>
</svg>
