<svg width="168" height="167" viewBox="0 0 168 167" fill="none" xmlns="http://www.w3.org/2000/svg">
<g clip-path="url(#clip0_2287_2842)">
<path d="M21.375 20.875H42.25V41.75H21.375V20.875Z" fill="#09090B"/>
<path d="M63.125 0V62.625H0.5V0H63.125ZM52.6875 10.4375H10.9375V52.1875H52.6875V10.4375ZM42.25 125.25H21.375V146.125H42.25V125.25Z" fill="#09090B"/>
<path d="M63.125 104.375V167H0.5V104.375H63.125ZM10.9375 114.812V156.562H52.6875V114.812H10.9375ZM125.75 20.875H146.625V41.75H125.75V20.875Z" fill="#09090B"/>
<path d="M104.875 0V62.625H167.5V0H104.875ZM157.062 10.4375V52.1875H115.312V10.4375H157.062ZM84 10.4375V0H94.4375V20.875H84V41.75H73.5625V10.4375H84ZM84 62.625V41.75H94.4375V62.625H84ZM63.125 83.5V73.0625H73.5625V62.625H84V83.5H94.4375V73.0625H146.625V83.5H104.875V93.9375H73.5625V83.5H63.125ZM63.125 83.5V93.9375H21.375V83.5H10.9375V93.9375H0.5V73.0625H31.8125V83.5H63.125ZM167.5 93.9375H157.062V73.0625H167.5V93.9375ZM157.062 93.9375H146.625V114.812H167.5V104.375H157.062V93.9375ZM115.312 93.9375H136.188V104.375H125.75V114.812H115.312V93.9375ZM136.188 125.25V114.812H125.75V125.25H115.312V135.688H94.4375V146.125H125.75V125.25H136.188ZM136.188 125.25H167.5V135.688H146.625V146.125H136.188V125.25ZM94.4375 114.812V125.25H104.875V104.375H73.5625V114.812H94.4375Z" fill="#09090B"/>
<path d="M73.5625 125.25H84V156.562H125.75V167H73.5625V125.25ZM167.5 146.125V167H136.188V156.562H157.062V146.125H167.5Z" fill="#09090B"/>
</g>
<defs>
<clipPath id="clip0_2287_2842">
<rect width="167" height="167" fill="white" transform="translate(0.5)"/>
</clipPath>
</defs>
</svg>
