<svg width="29" height="28" viewBox="0 0 29 28" fill="none" xmlns="http://www.w3.org/2000/svg">
<path d="M23.8333 4.66699H5.16659C3.88325 4.66699 2.84492 5.71699 2.84492 7.00033L2.83325 21.0003C2.83325 22.2837 3.88325 23.3337 5.16659 23.3337H23.8333C25.1166 23.3337 26.1666 22.2837 26.1666 21.0003V7.00033C26.1666 5.71699 25.1166 4.66699 23.8333 4.66699ZM23.3666 9.62533L15.1183 14.782C14.7449 15.0153 14.2549 15.0153 13.8816 14.782L5.63325 9.62533C5.51627 9.55965 5.41382 9.47093 5.33212 9.36452C5.25042 9.25811 5.19116 9.13623 5.15792 9.00626C5.12469 8.87628 5.11817 8.74092 5.13877 8.60835C5.15936 8.47578 5.20664 8.34877 5.27775 8.23501C5.34885 8.12125 5.4423 8.02309 5.55243 7.94649C5.66257 7.86988 5.7871 7.81642 5.9185 7.78934C6.04989 7.76226 6.18542 7.76212 6.31687 7.78893C6.44832 7.81574 6.57296 7.86895 6.68325 7.94533L14.4999 12.8337L22.3166 7.94533C22.4269 7.86895 22.5515 7.81574 22.683 7.78893C22.8144 7.76212 22.9499 7.76226 23.0813 7.78934C23.2127 7.81642 23.3373 7.86988 23.4474 7.94649C23.5575 8.02309 23.651 8.12125 23.7221 8.23501C23.7932 8.34877 23.8405 8.47578 23.8611 8.60835C23.8817 8.74092 23.8751 8.87628 23.8419 9.00626C23.8087 9.13623 23.7494 9.25811 23.6677 9.36452C23.586 9.47093 23.4836 9.55965 23.3666 9.62533Z" fill="#FF7919"/>
</svg>
