<svg width="131" height="120" viewBox="0 0 131 120" fill="none" xmlns="http://www.w3.org/2000/svg">
<g clip-path="url(#clip0_88_402)">
<path d="M85.8871 2.20739L85.887 2.20714C85.7424 1.84886 85.3129 1.51294 84.7189 1.51294C84.1248 1.51294 83.6953 1.84886 83.5507 2.20714L83.5506 2.20739L76.9844 18.4693L76.7268 19.1074L76.0752 19.3283L58.33 25.345L58.3289 25.3453C57.8004 25.5241 57.565 25.933 57.565 26.2699C57.565 26.6069 57.8004 27.0158 58.3289 27.1946L58.33 27.1949L76.0752 33.2116L76.7268 33.4325L76.9844 34.0705L83.5506 50.3325L83.5507 50.3327C83.6953 50.691 84.1248 51.0269 84.7189 51.0269C85.3129 51.0269 85.7424 50.691 85.887 50.3327L85.8871 50.3325L92.4533 34.0705L92.7109 33.4325L93.3625 33.2116L111.108 27.1949L111.109 27.1946C111.637 27.0158 111.873 26.6069 111.873 26.2699C111.873 25.933 111.637 25.5241 111.109 25.3453L111.108 25.345L93.3625 19.3283L92.7109 19.1074L92.4533 18.4693L85.8871 2.20739Z" fill="#BADEFF" stroke="#184463" stroke-width="3"/>
<path d="M104.926 42.7569L104.668 43.3951L104.016 43.6161L95.2363 46.5942C95.2361 46.5942 95.236 46.5942 95.2359 46.5943C94.7087 46.7734 94.473 47.1825 94.473 47.52C94.473 47.8574 94.7087 48.2665 95.2359 48.4456C95.236 48.4457 95.2361 48.4457 95.2363 48.4457L104.016 51.4238L104.668 51.6448L104.926 52.283L108.174 60.3321C108.174 60.3323 108.174 60.3324 108.174 60.3325C108.319 60.6918 108.75 61.0275 109.341 61.0275C109.933 61.0275 110.364 60.6918 110.509 60.3325C110.509 60.3324 110.509 60.3323 110.509 60.3321L113.757 52.283L114.015 51.6448L114.667 51.4238L123.447 48.4457C123.447 48.4457 123.447 48.4457 123.447 48.4456C123.974 48.2665 124.21 47.8574 124.21 47.52C124.21 47.1825 123.974 46.7734 123.447 46.5943C123.447 46.5942 123.447 46.5942 123.447 46.5942L114.667 43.6161L114.015 43.3951L113.757 42.7569L110.509 34.7078C110.509 34.7077 110.509 34.7076 110.509 34.7075C110.364 34.3482 109.933 34.0125 109.341 34.0125C108.75 34.0125 108.319 34.3482 108.174 34.7075C108.174 34.7076 108.174 34.7077 108.174 34.7078L104.926 42.7569Z" fill="#BADEFF" stroke="#184463" stroke-width="3"/>
<path d="M106.437 10.25H107.937V8.75V6.25C107.937 5.82141 108.365 5.25 109.167 5.25C109.968 5.25 110.396 5.82141 110.396 6.25V8.75V10.25H111.896H114.625C115.426 10.25 115.854 10.8214 115.854 11.25C115.854 11.6786 115.426 12.25 114.625 12.25H111.896H110.396V13.75V16.25C110.396 16.6786 109.968 17.25 109.167 17.25C108.365 17.25 107.937 16.6786 107.937 16.25V13.75V12.25H106.437H103.708C102.907 12.25 102.479 11.6786 102.479 11.25C102.479 10.8214 102.907 10.25 103.708 10.25H106.437Z" fill="#BADEFF" stroke="#184463" stroke-width="3"/>
<path fill-rule="evenodd" clip-rule="evenodd" d="M67.0075 7.5H13.7635C11.5906 7.5 9.50762 8.29 7.97149 9.69625C6.43535 11.1038 5.57227 13.0113 5.57227 15V112.5C5.57227 116.643 9.23927 120 13.7635 120H95.6762C100.2 120 103.867 116.643 103.867 112.5C103.867 99.8363 103.867 67.5 103.867 67.5C103.867 66.12 102.645 65 101.138 65C99.6304 65 98.4076 66.12 98.4076 67.5V112.5C98.4076 113.881 97.1848 115 95.6762 115H13.7635C12.255 115 11.0322 113.881 11.0322 112.5C11.0322 94.485 11.0322 33.015 11.0322 15C11.0322 14.3375 11.3208 13.7012 11.8329 13.2325C12.3449 12.7637 13.0383 12.5 13.7635 12.5H67.0075C68.5132 12.5 69.7374 11.38 69.7374 10C69.7374 8.62 68.5132 7.5 67.0075 7.5Z" fill="#184463"/>
<path fill-rule="evenodd" clip-rule="evenodd" d="M55.2659 66.25H82.5573C84.0635 66.25 85.2865 65.13 85.2865 63.75C85.2865 62.37 84.0635 61.25 82.5573 61.25H55.2659C53.7598 61.25 52.5368 62.37 52.5368 63.75C52.5368 65.13 53.7598 66.25 55.2659 66.25Z" fill="#184463"/>
<path fill-rule="evenodd" clip-rule="evenodd" d="M26.6093 78.75H82.5572C84.0634 78.75 85.2864 77.63 85.2864 76.25C85.2864 74.87 84.0634 73.75 82.5572 73.75H26.6093C25.1032 73.75 23.8802 74.87 23.8802 76.25C23.8802 77.63 25.1032 78.75 26.6093 78.75Z" fill="#184463"/>
<path fill-rule="evenodd" clip-rule="evenodd" d="M26.6093 92.5H82.5572C84.0634 92.5 85.2864 91.38 85.2864 90C85.2864 88.62 84.0634 87.5 82.5572 87.5H26.6093C25.1032 87.5 23.8802 88.62 23.8802 90C23.8802 91.38 25.1032 92.5 26.6093 92.5Z" fill="#184463"/>
<path fill-rule="evenodd" clip-rule="evenodd" d="M62.7558 53.75H73.6656C75.171 53.75 76.3931 52.63 76.3931 51.25C76.3931 49.87 75.171 48.75 73.6656 48.75H62.7558C61.2504 48.75 60.0283 49.87 60.0283 51.25C60.0283 52.63 61.2504 53.75 62.7558 53.75Z" fill="#184463"/>
<path fill-rule="evenodd" clip-rule="evenodd" d="M62.7709 41.25H68.2292C69.7355 41.25 70.9584 40.13 70.9584 38.75C70.9584 37.37 69.7355 36.25 68.2292 36.25H62.7709C61.2646 36.25 60.0417 37.37 60.0417 38.75C60.0417 40.13 61.2646 41.25 62.7709 41.25Z" fill="#184463"/>
<path fill-rule="evenodd" clip-rule="evenodd" d="M51.8542 36.25H27.2917C25.7906 36.25 24.5625 37.37 24.5625 38.75C24.5625 40.13 25.7906 41.25 27.2917 41.25H36.8437V66.25C36.8437 67.63 38.0719 68.75 39.5729 68.75C41.074 68.75 42.3021 67.63 42.3021 66.25V41.25H51.8542C53.3552 41.25 54.5833 40.13 54.5833 38.75C54.5833 37.37 53.3552 36.25 51.8542 36.25Z" fill="#BADEFF"/>
</g>
<defs>
<clipPath id="clip0_88_402">
<rect width="131" height="120" fill="white"/>
</clipPath>
</defs>
</svg>
