<svg width="1440" height="505" viewBox="0 0 1440 505" fill="none" xmlns="http://www.w3.org/2000/svg">
<path opacity="0.1" d="M39.8987 18.3847C280.44 -34.3053 400.742 55.2759 570.49 54.9939C738.117 54.7155 764.414 5.32454 932 8.38468C1079.39 11.0761 1117.34 79.6713 1263.61 64.7221C1351.72 55.7165 1397.41 34.5011 1484 50.5003C1649.66 81.1081 1480.15 361 1480.15 361H39.8987C39.8987 361 -124.123 54.3133 39.8987 18.3847Z" fill="#45A3FE"/>
<path d="M-222.5 86C18.0767 33.3363 -10.2457 49.7062 159.527 49.4244C327.18 49.1461 402.048 9.50127 569.658 12.5599C708.202 15.0881 867.507 83.811 1013.8 68.8693C1101.93 59.8682 1157.99 9.96185 1303.39 27.5485C1766 83.5001 1230.37 365 1230.37 365H-210.091C-210.091 365 -386.546 121.911 -222.5 86Z" fill="url(#paint0_linear_2022_16)"/>
<path opacity="0.1" d="M-231.5 43.5C9.07669 -9.02103 -10.2457 37.5606 159.527 37.2796C327.18 37.002 402.048 -2.53533 569.658 0.514995C708.202 3.03635 867.507 71.5731 1013.8 56.6718C1101.93 47.6951 1158.2 -3.45484 1303.39 15.463C1756.5 74.5001 1230.37 352 1230.37 352H-210.091C-210.091 352 -395.546 79.3134 -231.5 43.5Z" fill="url(#paint1_linear_2022_16)"/>
<path d="M-8.65495 32.1613C231.886 -20.6315 352.188 69.1441 521.936 68.8616C689.564 68.5827 726.914 9.34825 894.5 12.4144C1041.89 15.111 1094.73 83.84 1241 68.8616C1329.12 59.8385 1450 10.1674 1515 53C1655.68 145.7 1438.59 504.747 1438.59 504.747H-1.65397C-1.65397 504.747 -172.677 68.1601 -8.65495 32.1613Z" fill="url(#paint2_linear_2022_16)"/>
<defs>
<linearGradient id="paint0_linear_2022_16" x1="-283" y1="180.5" x2="1423" y2="180.5" gradientUnits="userSpaceOnUse">
<stop stop-color="#F9A468"/>
<stop offset="1" stop-color="#FF7919"/>
</linearGradient>
<linearGradient id="paint1_linear_2022_16" x1="-283" y1="168" x2="1423" y2="168" gradientUnits="userSpaceOnUse">
<stop stop-color="#F9A468"/>
<stop offset="1" stop-color="#FF7919"/>
</linearGradient>
<linearGradient id="paint2_linear_2022_16" x1="723" y1="-3" x2="723" y2="365.719" gradientUnits="userSpaceOnUse">
<stop stop-color="#45A3FE"/>
<stop offset="1" stop-color="#4195E6"/>
</linearGradient>
</defs>
</svg>
