<svg width="33" height="34" viewBox="0 0 33 34" fill="none" xmlns="http://www.w3.org/2000/svg">
<path d="M29.8507 14.4035H28.7632V14.3475H16.6114V19.7483H24.242C23.1288 22.8922 20.1374 25.1491 16.6114 25.1491C12.1375 25.1491 8.51017 21.5218 8.51017 17.0479C8.51017 12.574 12.1375 8.9467 16.6114 8.9467C18.6765 8.9467 20.5553 9.72576 21.9858 10.9983L25.8049 7.17929C23.3934 4.93188 20.1678 3.5459 16.6114 3.5459C9.15489 3.5459 3.10938 9.59142 3.10938 17.0479C3.10938 24.5044 9.15489 30.5499 16.6114 30.5499C24.0678 30.5499 30.1134 24.5044 30.1134 17.0479C30.1134 16.1426 30.0202 15.2589 29.8507 14.4035Z" fill="#FFC107"/>
<path d="M4.66602 10.7634L9.1021 14.0167C10.3024 11.0449 13.2094 8.9467 16.6112 8.9467C18.6764 8.9467 20.5552 9.72576 21.9857 10.9983L25.8047 7.17929C23.3933 4.93188 20.1677 3.5459 16.6112 3.5459C11.4251 3.5459 6.9276 6.47381 4.66602 10.7634Z" fill="#FF3D00"/>
<path d="M16.61 30.5503C20.0976 30.5503 23.2665 29.2156 25.6624 27.0452L21.4835 23.509C20.0824 24.5746 18.3703 25.1509 16.61 25.1495C13.0981 25.1495 10.1162 22.9102 8.99284 19.7852L4.58984 23.1775C6.82442 27.5502 11.3624 30.5503 16.61 30.5503Z" fill="#4CAF50"/>
<path d="M29.8507 14.4037H28.7631V14.3477H16.6113V19.7485H24.242C23.7095 21.2448 22.7503 22.5523 21.4828 23.5094L21.4849 23.5081L25.6637 27.0443C25.368 27.3129 30.1133 23.7991 30.1133 17.0481C30.1133 16.1427 30.0202 15.259 29.8507 14.4037Z" fill="#1976D2"/>
</svg>
