<svg width="20" height="20" viewBox="0 0 20 20" fill="none" xmlns="http://www.w3.org/2000/svg">
<path d="M14.45 4.55C14.2522 4.55 14.0588 4.60865 13.8944 4.71853C13.7299 4.82841 13.6018 4.98459 13.5261 5.16732C13.4504 5.35004 13.4306 5.55111 13.4692 5.74509C13.5078 5.93907 13.603 6.11725 13.7429 6.25711C13.8827 6.39696 14.0609 6.4922 14.2549 6.53078C14.4489 6.56937 14.6499 6.54957 14.8326 6.47388C15.0154 6.39819 15.1715 6.27002 15.2814 6.10557C15.3913 5.94112 15.45 5.74778 15.45 5.55C15.45 5.28478 15.3446 5.03043 15.1571 4.84289C14.9695 4.65536 14.7152 4.55 14.45 4.55V4.55ZM18.2833 6.56667C18.2671 5.87525 18.1376 5.19117 17.9 4.54167C17.6881 3.98594 17.3583 3.48273 16.9333 3.06667C16.5206 2.63952 16.0163 2.31181 15.4583 2.10833C14.8105 1.86347 14.1257 1.73101 13.4333 1.71667C12.55 1.66667 12.2666 1.66667 9.99996 1.66667C7.73329 1.66667 7.44996 1.66667 6.56663 1.71667C5.87425 1.73101 5.18941 1.86347 4.54163 2.10833C3.98469 2.31387 3.48074 2.6413 3.06663 3.06667C2.63948 3.47931 2.31177 3.9837 2.10829 4.54167C1.86343 5.18945 1.73097 5.87429 1.71663 6.56667C1.66663 7.45 1.66663 7.73333 1.66663 10C1.66663 12.2667 1.66663 12.55 1.71663 13.4333C1.73097 14.1257 1.86343 14.8105 2.10829 15.4583C2.31177 16.0163 2.63948 16.5207 3.06663 16.9333C3.48074 17.3587 3.98469 17.6861 4.54163 17.8917C5.18941 18.1365 5.87425 18.269 6.56663 18.2833C7.44996 18.3333 7.73329 18.3333 9.99996 18.3333C12.2666 18.3333 12.55 18.3333 13.4333 18.2833C14.1257 18.269 14.8105 18.1365 15.4583 17.8917C16.0163 17.6882 16.5206 17.3605 16.9333 16.9333C17.3602 16.5188 17.6902 16.0152 17.9 15.4583C18.1376 14.8088 18.2671 14.1248 18.2833 13.4333C18.2833 12.55 18.3333 12.2667 18.3333 10C18.3333 7.73333 18.3333 7.45 18.2833 6.56667V6.56667ZM16.7833 13.3333C16.7772 13.8623 16.6814 14.3864 16.5 14.8833C16.3669 15.246 16.1532 15.5737 15.875 15.8417C15.6047 16.1171 15.2776 16.3304 14.9166 16.4667C14.4197 16.6481 13.8956 16.7439 13.3666 16.75C12.5333 16.7917 12.225 16.8 10.0333 16.8C7.84163 16.8 7.53329 16.8 6.69996 16.75C6.1507 16.7603 5.60379 16.6757 5.08329 16.5C4.73811 16.3567 4.42609 16.144 4.16663 15.875C3.89003 15.6073 3.679 15.2793 3.54996 14.9167C3.34651 14.4126 3.23366 13.8766 3.21663 13.3333C3.21663 12.5 3.16663 12.1917 3.16663 10C3.16663 7.80833 3.16663 7.5 3.21663 6.66667C3.22036 6.12588 3.31908 5.58995 3.50829 5.08333C3.655 4.73159 3.88018 4.41805 4.16663 4.16667C4.4198 3.88014 4.7327 3.65258 5.08329 3.5C5.59125 3.3167 6.12662 3.2209 6.66663 3.21667C7.49996 3.21667 7.80829 3.16667 9.99996 3.16667C12.1916 3.16667 12.5 3.16667 13.3333 3.21667C13.8623 3.22273 14.3864 3.31854 14.8833 3.5C15.262 3.64054 15.6019 3.86904 15.875 4.16667C16.148 4.42265 16.3614 4.73561 16.5 5.08333C16.6852 5.59078 16.781 6.12648 16.7833 6.66667C16.825 7.5 16.8333 7.80833 16.8333 10C16.8333 12.1917 16.825 12.5 16.7833 13.3333ZM9.99996 5.725C9.1548 5.72665 8.32909 5.97877 7.62717 6.44951C6.92525 6.92026 6.37861 7.5885 6.05632 8.36979C5.73403 9.15109 5.65056 10.0104 5.81645 10.8391C5.98235 11.6678 6.39016 12.4288 6.98836 13.0258C7.58656 13.6229 8.3483 14.0292 9.17734 14.1935C10.0064 14.3577 10.8655 14.2726 11.6462 13.9488C12.4269 13.625 13.094 13.077 13.5634 12.3742C14.0328 11.6714 14.2833 10.8452 14.2833 10C14.2844 9.43759 14.1743 8.88051 13.9593 8.3608C13.7444 7.84109 13.4288 7.36901 13.0307 6.97171C12.6326 6.57441 12.1599 6.25973 11.6398 6.04577C11.1197 5.83182 10.5624 5.7228 9.99996 5.725V5.725ZM9.99996 12.775C9.45112 12.775 8.9146 12.6122 8.45825 12.3073C8.00191 12.0024 7.64623 11.569 7.43619 11.0619C7.22616 10.5549 7.17121 9.99692 7.27828 9.45862C7.38535 8.92033 7.64965 8.42587 8.03774 8.03778C8.42583 7.64969 8.92029 7.38539 9.45858 7.27832C9.99688 7.17125 10.5548 7.2262 11.0619 7.43623C11.569 7.64627 12.0024 8.00195 12.3073 8.45829C12.6122 8.91464 12.775 9.45116 12.775 10C12.775 10.3644 12.7032 10.7253 12.5637 11.0619C12.4243 11.3986 12.2199 11.7045 11.9622 11.9622C11.7045 12.2199 11.3986 12.4243 11.0619 12.5638C10.7252 12.7032 10.3644 12.775 9.99996 12.775V12.775Z" fill="#184463"/>
</svg>
