<svg width="16" height="16" viewBox="0 0 16 16" fill="none" xmlns="http://www.w3.org/2000/svg">
<path d="M10.77 7.3001H10.772C11.817 7.6931 13.251 8.2301 13.251 9.7501C13.249 10.1021 13.1727 10.4497 13.027 10.7701C12.8845 11.0911 12.6759 11.3785 12.4149 11.6135C12.1538 11.8486 11.8462 12.0259 11.512 12.1341C11.1789 12.2447 10.8263 12.2838 10.477 12.2491C10.4059 12.2569 10.3345 12.2609 10.263 12.2611C9.64411 12.259 9.048 12.0274 8.59001 11.6111C8.32852 11.3767 8.11889 11.0903 7.97458 10.7701C7.83027 10.45 7.75446 10.1032 7.75201 9.7521C7.75201 9.5501 7.83001 9.3621 7.97201 9.2201C8.11508 9.08435 8.30479 9.00867 8.50201 9.00867C8.69924 9.00867 8.88894 9.08435 9.03201 9.2201C9.1023 9.28926 9.15807 9.37177 9.19602 9.46279C9.23397 9.5538 9.25335 9.65149 9.25301 9.7501C9.25301 10.7021 10.294 10.7501 10.503 10.7501C10.712 10.7501 11.753 10.7021 11.753 9.7501C11.753 9.3371 11.306 9.1021 10.239 8.7021H10.236C9.19001 8.3071 7.75301 7.7701 7.75301 6.2501C7.75635 5.8921 7.83101 5.5521 7.97701 5.2301C8.12026 4.90942 8.32947 4.62252 8.59101 4.3881C8.85127 4.15362 9.15789 3.97646 9.49101 3.8681C10.1506 3.66897 10.8544 3.66897 11.514 3.8681C12.017 4.03228 12.4555 4.3506 12.7675 4.77796C13.0794 5.20531 13.2489 5.72001 13.252 6.2491C13.252 6.4501 13.174 6.6391 13.032 6.7801C12.8889 6.91614 12.699 6.992 12.5015 6.992C12.304 6.992 12.1141 6.91614 11.971 6.7801C11.9009 6.71085 11.8453 6.6283 11.8075 6.53729C11.7698 6.44628 11.7505 6.34864 11.751 6.2501C11.751 5.2981 10.71 5.2501 10.501 5.2501C10.292 5.2501 9.25101 5.2981 9.25101 6.2501C9.25101 6.6631 9.69801 6.8981 10.765 7.2981L10.77 7.3001ZM5.75101 4.5001C5.75101 4.3001 5.82901 4.1121 5.97101 3.9701C6.11408 3.83435 6.30379 3.75867 6.50101 3.75867C6.69824 3.75867 6.88794 3.83435 7.03101 3.9701C7.17301 4.1111 7.25101 4.3001 7.25101 4.5001V9.5001C7.25119 10.0441 7.09001 10.576 6.78784 11.0284C6.48568 11.4808 6.05612 11.8334 5.55352 12.0416C5.05091 12.2498 4.49783 12.3043 3.96426 12.1981C3.43069 12.0919 2.94061 11.8299 2.55601 11.4451C2.29961 11.1904 2.09633 10.8873 1.95797 10.5534C1.81961 10.2195 1.74893 9.86151 1.75001 9.5001V9.0001C1.75001 8.8001 1.82801 8.6121 1.97001 8.4701C2.11313 8.33405 2.30305 8.25819 2.50051 8.25819C2.69798 8.25819 2.88789 8.33405 3.03101 8.4701C3.17301 8.6111 3.25101 8.8001 3.25101 9.0001V9.5001C3.25101 9.8301 3.38501 10.1521 3.61701 10.3841C4.08201 10.8491 4.92001 10.8491 5.38501 10.3841C5.61701 10.1511 5.75101 9.8291 5.75101 9.5001V4.5001Z" fill="#0FAF62"/>
</svg>
