<?xml version="1.0" encoding="UTF-8"?>
<!DOCTYPE svg PUBLIC "-//W3C//DTD SVG 1.1//EN" "http://www.w3.org/Graphics/SVG/1.1/DTD/svg11.dtd">
<svg xmlns="http://www.w3.org/2000/svg" version="1.1" width="176px" height="175px" style="shape-rendering:geometricPrecision; text-rendering:geometricPrecision; image-rendering:optimizeQuality; fill-rule:evenodd; clip-rule:evenodd" xmlns:xlink="http://www.w3.org/1999/xlink">
<g><path style="opacity:0.955" fill="#174362" d="M 6.5,-0.5 C 60.5,-0.5 114.5,-0.5 168.5,-0.5C 171.576,1.57257 173.91,4.23924 175.5,7.5C 175.5,60.5 175.5,113.5 175.5,166.5C 173.91,169.761 171.576,172.427 168.5,174.5C 114.5,174.5 60.5,174.5 6.5,174.5C 3.83333,172.5 1.5,170.167 -0.5,167.5C -0.5,114.167 -0.5,60.8333 -0.5,7.5C 1.09021,4.23924 3.42355,1.57257 6.5,-0.5 Z M 9.5,7.5 C 61.5011,7.33334 113.501,7.50001 165.5,8C 167.082,17.0488 167.749,26.2154 167.5,35.5C 127.832,35.6667 88.1653,35.5 48.5,35C 45.1667,31.6667 41.8333,28.3333 38.5,25C 29.8333,24.3333 21.1667,24.3333 12.5,25C 11,26.5 9.5,28 8,29.5C 7.33333,22.8333 7.33333,16.1667 8,9.5C 8.71719,8.9558 9.21719,8.28913 9.5,7.5 Z M 16.5,32.5 C 22.5092,32.3338 28.5092,32.5005 34.5,33C 37.8675,36.7026 41.5342,40.036 45.5,43C 86.1653,43.5 126.832,43.6667 167.5,43.5C 167.667,80.5015 167.5,117.502 167,154.5C 166.797,158.421 166.297,162.255 165.5,166C 113.168,166.5 60.8344,166.667 8.5,166.5C 7.36133,124.852 7.19466,83.1851 8,41.5C 11.0379,38.6306 13.8712,35.6306 16.5,32.5 Z M 107.5,61.5 C 108.662,80.6623 108.829,99.9956 108,119.5C 98.2465,114.04 88.4132,108.706 78.5,103.5C 77.1847,94.9408 77.1847,86.4408 78.5,78C 88.5544,72.9788 98.2211,67.4788 107.5,61.5 Z M 47.5,80.5 C 54.5,80.5 61.5,80.5 68.5,80.5C 68.5,87.5 68.5,94.5 68.5,101.5C 61.5,101.5 54.5,101.5 47.5,101.5C 47.5,94.5 47.5,87.5 47.5,80.5 Z M 33.5,87.5 C 35.5,87.5 37.5,87.5 39.5,87.5C 39.5,89.5 39.5,91.5 39.5,93.5C 37.5,93.5 35.5,93.5 33.5,93.5C 33.5,91.5 33.5,89.5 33.5,87.5 Z M 55.5,109.5 C 57.5,109.5 59.5,109.5 61.5,109.5C 61.5,113.833 61.5,118.167 61.5,122.5C 59.5,122.5 57.5,122.5 55.5,122.5C 55.5,118.167 55.5,113.833 55.5,109.5 Z"/></g>
<g><path style="opacity:0.839" fill="#174362" d="M 152.5,16.5 C 155.167,16.5 157.833,16.5 160.5,16.5C 160.5,19.5 160.5,22.5 160.5,25.5C 157.833,25.5 155.167,25.5 152.5,25.5C 152.5,22.5 152.5,19.5 152.5,16.5 Z"/></g>
<g><path style="opacity:0.883" fill="#174362" d="M 137.5,17.5 C 140.5,17.5 143.5,17.5 146.5,17.5C 146.5,20.1667 146.5,22.8333 146.5,25.5C 143.5,25.5 140.5,25.5 137.5,25.5C 137.5,22.8333 137.5,20.1667 137.5,17.5 Z"/></g>
<g><path style="opacity:0.934" fill="#174362" d="M 110.5,50.5 C 112.467,50.2606 114.301,50.5939 116,51.5C 117.953,77.5059 117.953,103.506 116,129.5C 114.122,131.698 111.955,131.864 109.5,130C 96.5401,122.354 83.2068,115.52 69.5,109.5C 69.6663,116.175 69.4996,122.842 69,129.5C 68.5,130 68,130.5 67.5,131C 61.5,131.667 55.5,131.667 49.5,131C 48.572,130.612 47.9054,129.945 47.5,129C 46.5582,122.547 46.2249,116.047 46.5,109.5C 41.1667,110.167 38.8333,107.833 39.5,102.5C 35.0848,102.695 30.7514,102.195 26.5,101C 24.1591,94.0312 24.1591,87.0312 26.5,80C 30.8206,79.501 35.1539,79.3343 39.5,79.5C 39.3184,77.4086 39.6518,75.4086 40.5,73.5C 50.8173,72.6677 61.1506,72.1677 71.5,72C 84.5621,64.8053 97.5621,57.6387 110.5,50.5 Z M 107.5,61.5 C 98.2211,67.4788 88.5544,72.9788 78.5,78C 77.1847,86.4408 77.1847,94.9408 78.5,103.5C 88.4132,108.706 98.2465,114.04 108,119.5C 108.829,99.9956 108.662,80.6623 107.5,61.5 Z M 47.5,80.5 C 47.5,87.5 47.5,94.5 47.5,101.5C 54.5,101.5 61.5,101.5 68.5,101.5C 68.5,94.5 68.5,87.5 68.5,80.5C 61.5,80.5 54.5,80.5 47.5,80.5 Z M 33.5,87.5 C 33.5,89.5 33.5,91.5 33.5,93.5C 35.5,93.5 37.5,93.5 39.5,93.5C 39.5,91.5 39.5,89.5 39.5,87.5C 37.5,87.5 35.5,87.5 33.5,87.5 Z M 55.5,109.5 C 55.5,113.833 55.5,118.167 55.5,122.5C 57.5,122.5 59.5,122.5 61.5,122.5C 61.5,118.167 61.5,113.833 61.5,109.5C 59.5,109.5 57.5,109.5 55.5,109.5 Z"/></g>
<g><path style="opacity:0.934" fill="#174362" d="M 123.5,60.5 C 141.856,62.1891 151.856,72.1891 153.5,90.5C 151.846,108.821 141.846,118.821 123.5,120.5C 123.336,117.813 123.503,115.146 124,112.5C 141.33,108.833 147.663,98.4999 143,81.5C 138.924,73.5951 132.424,69.5951 123.5,69.5C 123.5,66.5 123.5,63.5 123.5,60.5 Z"/></g>
<g><path style="opacity:0.941" fill="#174363" d="M 123.5,75.5 C 132.843,76.1768 137.843,81.1768 138.5,90.5C 137.827,99.84 132.827,104.84 123.5,105.5C 123.187,102.753 123.52,100.086 124.5,97.5C 130.38,95.5699 131.88,91.9033 129,86.5C 127.559,85.13 125.892,84.13 124,83.5C 123.503,80.854 123.336,78.1873 123.5,75.5 Z"/></g>
<g><path style="opacity:0.819" fill="#174362" d="M 53.5,86.5 C 56.5,86.5 59.5,86.5 62.5,86.5C 62.5,89.1667 62.5,91.8333 62.5,94.5C 59.5,94.5 56.5,94.5 53.5,94.5C 53.5,91.8333 53.5,89.1667 53.5,86.5 Z"/></g>
<g><path style="opacity:0.954" fill="#174362" d="M 124.5,137.5 C 135.988,138.495 147.655,138.828 159.5,138.5C 159.205,140.735 159.539,142.735 160.5,144.5C 148.345,145.495 136.011,145.829 123.5,145.5C 123.194,142.615 123.527,139.948 124.5,137.5 Z"/></g>
<g><path style="opacity:0.446" fill="#174560" d="M 124.5,137.5 C 136.5,137.5 148.5,137.5 160.5,137.5C 160.5,139.833 160.5,142.167 160.5,144.5C 159.539,142.735 159.205,140.735 159.5,138.5C 147.655,138.828 135.988,138.495 124.5,137.5 Z"/></g>
<g><path style="opacity:0.834" fill="#174362" d="M 130.5,151.5 C 140.5,151.5 150.5,151.5 160.5,151.5C 160.5,154.5 160.5,157.5 160.5,160.5C 150.5,160.5 140.5,160.5 130.5,160.5C 130.5,157.5 130.5,154.5 130.5,151.5 Z"/></g>
</svg>
