<svg width="33" height="34" viewBox="0 0 33 34" fill="none" xmlns="http://www.w3.org/2000/svg">
<g opacity="0.95" clip-path="url(#clip0_2143_1566)">
<path d="M15.8795 15.8814C15.8795 16.4337 15.4318 16.8814 14.8795 16.8814H4.99805C4.44576 16.8814 3.99805 16.4337 3.99805 15.8814V6C3.99805 5.44772 4.44576 5 4.99805 5H14.8795C15.4318 5 15.8795 5.44772 15.8795 6V15.8814Z" fill="#F1511B"/>
<path d="M28.9985 15.8814C28.9985 16.4337 28.5508 16.8814 27.9985 16.8814H18.1172C17.5649 16.8814 17.1172 16.4337 17.1172 15.8814V6C17.1172 5.44772 17.5649 5 18.1172 5H27.9985C28.5508 5 28.9985 5.44772 28.9985 6V15.8814Z" fill="#80CC28"/>
<path d="M15.8792 29.0006C15.8792 29.5529 15.4315 30.0006 14.8792 30.0006H4.99805C4.44576 30.0006 3.99805 29.5529 3.99805 29.0006V19.1191C3.99805 18.5669 4.44576 18.1191 4.99805 18.1191H14.8792C15.4315 18.1191 15.8792 18.5669 15.8792 19.1191V29.0006Z" fill="#00ADEF"/>
<path d="M28.9985 29.0006C28.9985 29.5529 28.5508 30.0006 27.9985 30.0006H18.1172C17.5649 30.0006 17.1172 29.5529 17.1172 29.0006V19.1191C17.1172 18.5669 17.5649 18.1191 18.1172 18.1191H27.9985C28.5508 18.1191 28.9985 18.5669 28.9985 19.1191V29.0006Z" fill="#FBBC09"/>
</g>
<defs>
<clipPath id="clip0_2143_1566">
<rect width="25" height="25" fill="white" transform="translate(3.99805 5)"/>
</clipPath>
</defs>
</svg>
