<svg width="20" height="20" viewBox="0 0 20 20" fill="none" xmlns="http://www.w3.org/2000/svg">
<g clip-path="url(#clip0_2024_99)">
<path d="M7.03131 4.28082C7.83267 4.06822 9.55551 3.61189 11.5033 3.09738C12.8237 2.74859 14.0321 2.42469 14.914 2.18442C15.3549 2.06429 15.7144 1.96501 15.9655 1.89396C16.0911 1.85845 16.1898 1.8299 16.2583 1.80928C16.2924 1.799 16.3195 1.79052 16.3389 1.78404C16.3485 1.78084 16.357 1.77784 16.3638 1.77516C16.3671 1.77386 16.3711 1.77221 16.375 1.77032L16.3752 1.77027C16.3763 1.76976 16.384 1.76622 16.3922 1.75959C16.4109 1.74468 16.4208 1.72563 16.4264 1.71124C16.4322 1.69624 16.4354 1.68046 16.4372 1.66571C16.441 1.63621 16.4403 1.60175 16.4369 1.56584C16.4301 1.4938 16.4111 1.40504 16.3814 1.31557L16.2892 1.00361L16.2685 0.93363L16.198 0.952384L9.8279 2.64633C9.82789 2.64633 9.82788 2.64633 9.82788 2.64633C6.74553 3.46497 5.14882 3.88637 4.2407 4.10407C3.33454 4.3213 3.11979 4.33429 2.80042 4.33777C2.80031 4.33777 2.80019 4.33777 2.80007 4.33777L2.80089 4.41277C1.9895 4.41277 1.57669 4.57647 1.34181 4.98216L7.03131 4.28082ZM7.03131 4.28082C7.27788 4.28658 7.6096 4.2926 8.00931 4.29863C8.95301 4.31286 10.2749 4.32709 11.7481 4.33777M7.03131 4.28082L11.7481 4.33777M1.28869 15.2546C1.26981 15.2294 1.24967 15.202 1.23202 15.1654C1.21423 15.1284 1.20029 15.085 1.18891 15.0267C1.16656 14.9121 1.15251 14.7309 1.14318 14.4105C1.12446 13.768 1.12446 12.5449 1.12446 10.1246V10.121V10.1177C1.12446 7.73268 1.12446 6.50784 1.14228 5.84935C1.15118 5.52063 1.16458 5.3289 1.18554 5.20325C1.20729 5.07286 1.23768 5.01129 1.27705 4.94433L1.34893 15.2099M1.28869 15.2546C1.28877 15.2547 1.28885 15.2548 1.28893 15.2549L1.34893 15.2099M1.28869 15.2546C1.28861 15.2545 1.28853 15.2544 1.28845 15.2543L1.34893 15.2099M1.28869 15.2546C1.3733 15.3698 1.55762 15.5386 1.68936 15.6337L1.69164 15.6354L1.69167 15.6353L1.92654 15.7919L1.94544 15.8045H1.96815H5.33469H8.70836H8.78336V15.7295V15.4092V15.096V15.0215L8.70885 15.021L5.42771 14.9997L2.18255 14.9786M1.34893 15.2099C1.42722 15.3167 1.60516 15.4804 1.73327 15.5729L1.96815 15.7295H5.33469H8.63336H8.70836V15.6545V15.4092V15.096L5.42722 15.0747L2.14608 15.0533M2.18255 14.9786L2.20489 15.0068L2.14608 15.0533M2.18255 14.9786L2.14657 14.9783L2.14608 15.0533M2.18255 14.9786L2.06965 14.836L2.06891 14.835L2.0689 14.835C2.05564 14.8188 2.04589 14.8047 2.03704 14.7844C2.02776 14.763 2.01831 14.732 2.00958 14.6814C1.99191 14.5789 1.97906 14.4081 1.97016 14.0992C1.95241 13.4832 1.95062 12.3351 1.95062 10.1281C1.95062 7.83149 1.95242 6.6347 1.98345 5.9929C1.99903 5.67059 2.02178 5.49574 2.05254 5.39343C2.06749 5.34369 2.08339 5.31455 2.0988 5.2949C2.11156 5.27863 2.12616 5.26602 2.14579 5.25266M2.14608 15.0533L2.01085 14.8825M2.01085 14.8825L17.3435 4.53734C17.3436 4.53743 17.3437 4.53751 17.3438 4.5376M2.01085 14.8825C1.88274 14.7259 1.87562 14.5409 1.87562 10.1281C1.87562 5.53732 1.88274 5.33092 2.11761 5.18145L2.01085 14.8825ZM2.14579 5.25266C2.14347 5.25288 2.14148 5.25308 2.13978 5.25328C2.13679 5.25363 2.13596 5.25381 2.13651 5.2537C2.13674 5.25365 2.13847 5.25331 2.14101 5.25254L2.14113 5.25251C2.14253 5.25208 2.14965 5.24994 2.15788 5.24472M2.14579 5.25266C2.14962 5.25005 2.15364 5.24742 2.15788 5.24472M2.14579 5.25266C2.15134 5.25214 2.15873 5.25157 2.16816 5.25096C2.19464 5.24926 2.23353 5.24753 2.28462 5.24578C2.38661 5.2423 2.53486 5.23886 2.72458 5.23553C3.1039 5.22886 3.64766 5.22264 4.31572 5.2173C5.65178 5.20663 7.48431 5.19951 9.49128 5.19951C12.7371 5.19951 14.5656 5.20307 15.6004 5.21907C16.1182 5.22708 16.4356 5.23818 16.6319 5.25333C16.7301 5.26092 16.7959 5.26937 16.8403 5.27839C16.8858 5.28763 16.9022 5.29625 16.9073 5.29983L16.9081 5.30036L17.0319 5.38479V8.08536V10.8185V10.8935H17.1069H17.4628H17.8187H17.8937V10.8185V8.01419V8.00815C17.8937 6.6221 17.8937 5.92153 17.874 5.53881C17.8642 5.34744 17.8492 5.22963 17.8248 5.14324C17.7994 5.05344 17.7644 5.00033 17.7245 4.94056L17.7229 4.93822L17.7229 4.93825C17.6278 4.80653 17.459 4.62222 17.3438 4.5376M2.15788 5.24472C2.15832 5.24444 2.15877 5.24415 2.15922 5.24385L2.15788 5.24472ZM17.3438 4.5376C17.3182 4.51837 17.2902 4.4981 17.2517 4.48031C17.2132 4.46257 17.1673 4.44864 17.1049 4.4371C16.982 4.41437 16.7847 4.39918 16.4341 4.38763C15.7353 4.3646 14.4079 4.35567 11.7969 4.3381L11.7481 4.33777M17.3438 4.5376L11.7481 4.33777" fill="#184463" stroke="#184463" stroke-width="0.15"/>
<path d="M2.72239 7.21534L2.72239 7.21534C2.66438 7.39325 2.65286 7.67024 2.67355 7.93744C2.69425 8.20479 2.74852 8.47912 2.83291 8.65197C3.27742 9.58494 4.43865 10.0075 5.35917 9.57705C5.70733 9.41577 5.97841 9.19776 6.16869 8.92074C6.35899 8.64368 6.46565 8.31171 6.49131 7.92689L2.72239 7.21534ZM2.72239 7.21534L2.72267 7.21451M2.72239 7.21534L2.72267 7.21451M2.72267 7.21451C2.87142 6.77571 3.28357 6.30476 3.70702 6.09666M2.72267 7.21451L3.70702 6.09666M3.70702 6.09666C3.85283 6.02377 3.97796 5.9749 4.11473 5.94471C4.25114 5.91461 4.39594 5.90381 4.58018 5.90381C5.2065 5.90381 5.74186 6.15514 6.09889 6.62371L3.70702 6.09666ZM6.43313 7.23386C6.37092 7.02744 6.26223 6.83788 6.09891 6.62374L6.43313 7.23386ZM6.43313 7.23386C6.49533 7.44028 6.50945 7.65823 6.49131 7.92686L6.43313 7.23386ZM5.62315 7.71021L5.62299 7.70869C5.59002 7.37899 5.43433 7.13413 5.10785 6.90946C4.95818 6.81206 4.79512 6.76555 4.58018 6.76555C3.5719 6.76555 3.14416 8.05383 3.95629 8.66625L3.9563 8.66625L3.95705 8.66683C4.06467 8.75015 4.13991 8.79541 4.2251 8.82174C4.31163 8.84849 4.41426 8.85754 4.58018 8.85754C4.74609 8.85754 4.84872 8.84849 4.93525 8.82174C5.02044 8.79541 5.09568 8.75015 5.2033 8.66683L5.2033 8.66683L5.20422 8.66614C5.52528 8.42534 5.66964 8.09535 5.62315 7.71021Z" fill="#184463" stroke="#184463" stroke-width="0.15"/>
<path d="M15.6168 9.36357L15.6372 9.3476L15.8998 9.14178C15.8999 9.14169 15.9 9.1416 15.9001 9.14151C16.1037 8.98597 16.2361 8.82864 16.3106 8.60401C16.3837 8.38398 16.399 8.1055 16.3847 7.71316C16.374 7.35028 16.3457 7.10701 16.2578 6.91486C16.1684 6.71916 16.0213 6.58512 15.7973 6.42979L15.7962 6.42901L15.7962 6.42902L15.5613 6.27243L15.5424 6.25984H15.5197H11.8115C10.1785 6.25984 9.24303 6.26339 8.69001 6.28034C8.41373 6.2888 8.23046 6.30067 8.10244 6.31753C7.97451 6.33438 7.89699 6.35677 7.83471 6.38886C7.60848 6.50021 7.45516 6.62662 7.36033 6.84198C7.26839 7.05076 7.23478 7.33638 7.2241 7.7562M15.6168 9.36357L7.29907 7.75832M15.6168 9.36357H15.5909H11.7973H11.7928C9.92846 9.36357 8.97918 9.36357 8.47157 9.34484C8.21842 9.3355 8.06951 9.32138 7.97016 9.29862C7.86485 9.2745 7.81434 9.24029 7.75972 9.19934C7.64456 9.11477 7.47579 8.93054 7.37988 8.79053M15.6168 9.36357L7.44142 8.74765M7.2241 7.7562C7.2241 7.75627 7.2241 7.75635 7.2241 7.75642L7.29907 7.75832M7.2241 7.7562C7.2241 7.75613 7.22411 7.75606 7.22411 7.75598L7.29907 7.75832M7.2241 7.7562C7.21351 8.09506 7.20947 8.2947 7.22923 8.43681C7.25012 8.58699 7.29778 8.67477 7.37988 8.79053M7.29907 7.75832C7.27772 8.4416 7.28484 8.52701 7.44142 8.74765M7.37988 8.79053C7.37976 8.79035 7.37964 8.79018 7.37952 8.79L7.44142 8.74765M7.37988 8.79053C7.38001 8.79071 7.38013 8.79088 7.38026 8.79105L7.44142 8.74765M9.06037 8.53742V7.8295V7.12158H8.67985C8.52312 7.12158 8.40858 7.12618 8.32289 7.1425C8.23861 7.15855 8.19113 7.18436 8.16002 7.22026C8.12764 7.25762 8.10384 7.31632 8.08952 7.41742C8.07523 7.51831 8.07158 7.65134 8.07158 7.8295C8.07158 7.99975 8.07744 8.12852 8.0948 8.22707C8.11209 8.32525 8.13957 8.38581 8.17702 8.42619C8.21388 8.46593 8.26824 8.49453 8.35693 8.5127C8.44677 8.53109 8.56488 8.53742 8.72256 8.53742H9.06037ZM15.5372 7.80815C15.5372 7.61591 15.5299 7.4973 15.5107 7.41398C15.4926 7.33559 15.4642 7.28929 15.4169 7.24196C15.3895 7.21465 15.3686 7.1971 15.3148 7.18177C15.2545 7.16462 15.1552 7.15127 14.9714 7.14195C14.6055 7.12339 13.9301 7.12158 12.6229 7.12158H9.99329V7.8295V8.53742H12.5589C13.8664 8.53742 14.5744 8.53202 14.9745 8.49941C15.1751 8.48306 15.2908 8.46031 15.3639 8.43154C15.4303 8.40539 15.4618 8.37424 15.4916 8.33073C15.492 8.32971 15.4929 8.32733 15.4942 8.32311C15.4967 8.31494 15.4996 8.3033 15.5026 8.28797C15.5087 8.2574 15.5147 8.21625 15.5199 8.16684C15.5302 8.06825 15.5372 7.94099 15.5372 7.80815Z" fill="#184463" stroke="#184463" stroke-width="0.15"/>
<path d="M3.08569 11.2493H3.01069V11.1743V10.854V10.5337V10.4587H3.08569H9.70491H16.3241H16.3991V10.5337V10.854V11.1743V11.2493H16.3241H9.70491H3.08569Z" fill="#184463" stroke="#184463" stroke-width="0.15"/>
<path d="M17.2291 11.6672L17.229 11.6671L17.2334 11.6645C17.2521 11.6538 17.2769 11.6486 17.294 11.6453C17.315 11.6413 17.3412 11.6376 17.3714 11.6342C17.4318 11.6273 17.5121 11.621 17.6062 11.6156C17.7947 11.6048 18.0417 11.5977 18.3027 11.5977H19.2422H19.2919L19.3113 11.6435L19.3895 11.8285L19.3897 11.8285L19.3912 11.8328C19.4003 11.8586 19.4057 11.9029 19.4102 11.9532C19.415 12.0075 19.4193 12.0798 19.4232 12.1691C19.431 12.3478 19.4373 12.597 19.4417 12.9109C19.4506 13.5389 19.4524 14.4274 19.4453 15.5308L19.4453 15.5309C19.4346 17.0286 19.4257 17.9018 19.4079 18.4075C19.399 18.6598 19.3878 18.8238 19.3725 18.9292C19.3648 18.9816 19.3557 19.0233 19.3436 19.0554C19.3318 19.0868 19.3137 19.1189 19.2815 19.1387V19.1387L19.2813 19.1388C19.2617 19.1508 19.2367 19.1575 19.2166 19.1619C19.1938 19.167 19.1662 19.1715 19.1353 19.1755C19.0733 19.1835 18.9931 19.1903 18.9017 19.1959C18.7186 19.2072 18.4861 19.2139 18.2543 19.2157C18.0226 19.2174 17.7905 19.2143 17.6082 19.2058C17.5172 19.2015 17.4375 19.1959 17.3761 19.1886C17.3454 19.185 17.318 19.1808 17.2955 19.176C17.2759 19.1717 17.25 19.165 17.2299 19.152L17.2299 19.152L17.2291 19.1515C17.2082 19.1376 17.1907 19.118 17.1767 19.0993C17.162 19.0798 17.1479 19.0569 17.135 19.0326C17.1092 18.984 17.0858 18.9253 17.0701 18.8664L17.07 18.866C17.0614 18.8333 17.0502 18.8089 17.0299 18.7848C17.0084 18.7593 16.9738 18.7306 16.913 18.6945C16.7897 18.6214 16.5784 18.5293 16.2031 18.3756C15.1375 17.9422 14.3286 17.6513 13.3568 17.3676C13.278 17.3455 13.2015 17.3239 13.1291 17.3035C13.015 17.2714 12.9112 17.2422 12.8253 17.2182C12.7563 17.199 12.6993 17.1834 12.6579 17.1724C12.6536 17.203 12.649 17.2425 12.6442 17.2896C12.6319 17.4116 12.6196 17.5809 12.6125 17.768L12.6125 17.768L12.6124 17.7693C12.5842 18.2917 12.5422 18.5148 12.4199 18.6781C12.1544 19.0372 11.7858 19.221 11.413 19.221C11.0404 19.221 10.672 19.0374 10.4065 18.6788C10.3374 18.5891 10.2962 18.4935 10.2689 18.3397C10.2421 18.1891 10.2277 17.9777 10.2135 17.6546L10.1812 16.9434H9.99663C9.91978 16.9434 9.83918 16.9339 9.77009 16.9173C9.73552 16.9091 9.70249 16.8987 9.67359 16.8862C9.64571 16.8741 9.61685 16.858 9.59484 16.836C9.58106 16.8223 9.57287 16.8059 9.56792 16.7943C9.56245 16.7815 9.55794 16.7673 9.5541 16.7527C9.5464 16.7236 9.53977 16.6871 9.53391 16.6457C9.52215 16.5624 9.51256 16.4518 9.50495 16.3242C9.48971 16.0684 9.48213 15.7385 9.48213 15.4093C9.48213 15.0801 9.48971 14.7503 9.50495 14.4945C9.51256 14.3668 9.52215 14.2563 9.53391 14.173C9.53977 14.1316 9.5464 14.0951 9.5541 14.066C9.55794 14.0514 9.56245 14.0372 9.56792 14.0244C9.57287 14.0128 9.58106 13.9964 9.59484 13.9826C9.62471 13.9528 9.6712 13.9365 9.714 13.9256C9.7609 13.9137 9.82029 13.9043 9.89008 13.897C10.03 13.8824 10.2198 13.8753 10.4521 13.8753C11.3512 13.8753 12.2129 13.7761 12.8886 13.6001C13.6958 13.3877 15.1587 12.8765 16.1675 12.4645C16.5567 12.3038 16.7771 12.2063 16.9057 12.1296C16.9694 12.0917 17.0059 12.0615 17.0286 12.0348C17.0501 12.0097 17.0616 11.9849 17.07 11.9527L17.0701 11.9523C17.0858 11.8934 17.1092 11.8347 17.135 11.7861C17.1479 11.7618 17.162 11.7389 17.1767 11.7194C17.1907 11.7007 17.2082 11.6811 17.2291 11.6672ZM17.2707 11.7296C17.2279 11.7581 17.171 11.8649 17.1425 11.9716L17.2707 11.7296ZM17.032 17.7537V16.2634V14.662V14.587H17.107H17.4628H17.8187H17.8931L17.8937 14.6614L17.9079 16.5615L17.9079 16.5618L17.9284 18.3948H18.2457H18.5622V15.4093V12.4195L18.2768 12.4024L18.276 12.4023C18.1794 12.3954 18.0869 12.3955 18.0162 12.4005C17.9807 12.4031 17.9523 12.4067 17.9324 12.4109C17.9309 12.4112 17.9296 12.4115 17.9283 12.4118C17.9266 12.4204 17.9249 12.4313 17.923 12.4446C17.9174 12.4856 17.9122 12.5433 17.9078 12.6142C17.899 12.7555 17.8937 12.9443 17.8937 13.146V13.8791V13.9541H17.8187H17.4628H17.1141H17.0425L17.0392 13.8826L17.0178 13.4271L17.0178 13.4271L17.0014 13.0831L15.9528 13.4934L15.9527 13.4934C14.6198 14.0138 13.4125 14.3927 12.4742 14.5789C12.4741 14.579 12.474 14.579 12.4739 14.579L11.8795 14.7018V15.4093V16.1165L12.4591 16.2325C12.4592 16.2325 12.4593 16.2325 12.4594 16.2325C13.5486 16.4404 14.8423 16.8697 16.7649 17.6458L16.7649 17.6458L17.032 17.7537ZM10.3492 15.4093V16.1556L10.6471 16.1387L10.6472 16.1387L10.9465 16.1215V15.4093V14.6972L10.6472 14.68L10.6471 14.6799L10.3492 14.6631V15.4093ZM11.413 18.3593C11.4869 18.3593 11.5339 18.352 11.5664 18.3371C11.5948 18.324 11.6176 18.3026 11.6368 18.2579C11.6573 18.21 11.6723 18.138 11.6816 18.0286C11.6907 17.9201 11.6939 17.7809 11.6939 17.6015V17.0146H11.413H11.1321V17.6015C11.1321 17.7809 11.1353 17.9201 11.1444 18.0286C11.1537 18.138 11.1687 18.21 11.1892 18.2579C11.2084 18.3026 11.2312 18.324 11.2596 18.3371C11.2921 18.352 11.3391 18.3593 11.413 18.3593Z" fill="#184463" stroke="#184463" stroke-width="0.15"/>
<path d="M3.08569 13.1712H3.01069V13.0962V12.7403V12.3844V12.3094H3.08569H8.17466H13.2636H13.3386V12.3844V12.7403V13.0962V13.1712H13.2636H8.17466H3.08569Z" fill="#184463" stroke="#184463" stroke-width="0.15"/>
</g>
<defs>
<clipPath id="clip0_2024_99">
<rect width="18.9324" height="20" fill="white" transform="translate(0.950439)"/>
</clipPath>
</defs>
</svg>
