<svg width="118" height="44" viewBox="0 0 118 44" fill="none" xmlns="http://www.w3.org/2000/svg">
<path fill-rule="evenodd" clip-rule="evenodd" d="M103.626 20.675L96.1806 33.9884L89.8286 34.0146L103.626 8.95567L117.371 34.0146H110.918L103.626 20.675ZM83.5785 28.2189H90.6927L87.3897 34.0146H78.117L78.1422 26.9576V9.10973H83.6049L83.5785 28.2189ZM64.0672 9.11104C70.8506 9.13715 76.3385 14.6991 76.3133 21.5745C76.2882 28.4252 70.8003 33.9884 64.0156 33.9884C57.2573 33.9623 51.7695 28.4004 51.7695 21.5236C51.7946 14.673 57.2825 9.11104 64.0672 9.11104ZM64.042 28.1941C67.6746 28.1941 70.5953 25.2316 70.5953 21.5745C70.6217 17.9188 67.6746 14.9302 64.0672 14.9302C60.4585 14.9041 57.5114 17.8927 57.5114 21.5497C57.4863 25.2055 60.4346 28.1941 64.042 28.1941ZM41.6579 19.5965C41.5824 18.5651 41.327 17.2007 40.9459 15.8885C40.1617 13.1782 38.7983 10.6866 36.9574 8.59923C35.9914 7.51817 34.8996 6.51284 33.272 5.32864C32.0312 4.69306 30.8113 4.01462 29.6142 3.29447C28.8268 2.83098 27.886 2.26303 26.642 1.85176C25.167 1.49036 23.6593 1.29211 22.144 1.26031C20.6724 1.20808 19.197 1.33865 17.7744 1.62066C16.275 1.87787 15.0298 2.28914 13.3783 2.70172C9.64257 4.37553 6.74706 6.89931 4.25658 10.2482C-4.43244 22.841 3.41887 40.4826 17.9266 42.5677C20.3152 42.9033 22.7038 42.774 24.9641 42.2335L26.5653 41.7961C26.6156 41.77 26.6923 41.7439 26.7426 41.7439L28.5728 41.0232C28.6734 40.9709 28.7501 40.9448 28.852 40.8939L29.6142 40.5335C31.0767 39.7843 32.4496 38.8597 33.7047 37.7787C32.5622 38.8562 31.3197 39.8135 29.9953 40.6367L30.0708 40.6889C30.3262 40.6106 30.5538 40.5335 30.8079 40.4826C30.8079 40.4826 30.8079 40.8939 30.7576 40.8169C30.3513 41.1263 30.9865 40.843 31.7991 40.4043C32.6129 39.9669 33.4003 39.4251 34.1109 38.8075C35.1537 37.9066 36.0681 36.9274 37.3637 35.3319C38.6844 32.9361 40.3371 30.8497 41.0994 28.0426C41.3535 27.2958 41.5811 26.421 41.7346 25.5188C41.8855 24.618 41.9887 23.691 41.9887 22.7379C41.9635 21.7848 41.8616 20.8055 41.6579 19.5965ZM22.856 40.7659C27.3024 40.0439 31.0368 37.4953 34.0858 34.0185C34.9247 32.7559 35.5851 31.5965 36.3977 30.3353C37.414 27.7593 37.3385 25.4679 37.668 23.8463C38.0756 20.9087 37.1096 18.5403 36.297 16.0165C35.0518 13.0801 33.4003 10.8919 30.5035 9.19199C23.1855 4.50479 13.2261 5.81694 8.47531 12.8229C8.45015 12.8229 8.32185 13.0031 8.06777 13.3635C8.39858 11.9221 9.23755 11.0721 10.0753 10.2469C12.5657 8.13573 15.4625 6.46062 18.7655 5.63807C22.5013 5.22549 26.2093 5.63807 29.5375 7.31188C34.5185 10.2469 37.8215 14.8584 38.6592 20.3159V25.3648C37.6177 33.632 30.7576 39.916 22.856 40.7659ZM41.1245 21.9649C40.9459 9.86177 29.335 1.69769 18.0285 3.3467C14.7254 4.19536 11.1167 5.89528 8.55078 8.26499C7.30554 9.11365 6.72191 10.6856 5.47667 11.9469C0.495699 19.4934 1.36108 29.1511 7.55962 35.0238C8.35472 35.8398 9.20372 36.5971 10.1004 37.2904C4.91819 34.0694 2.57991 29.2007 1.76736 23.2797C1.76736 21.1672 2.17363 19.0808 2.60506 16.9696C5.50308 7.72316 14.6235 1.00179 24.5591 2.70172C26.2106 3.1143 27.8621 3.55168 29.54 3.96426C31.623 4.81292 33.6808 6.07546 35.3323 7.75058C36.9838 9.42308 38.229 11.5356 39.4743 13.6207C40.312 15.2958 40.7195 17.407 41.1258 19.0808C41.2013 20.0339 41.2013 21.0131 41.1258 21.9662L41.1245 21.9649Z" fill="black"/>
<path fill-rule="evenodd" clip-rule="evenodd" d="M30.8073 22.145C30.8073 27.348 26.5898 31.5717 21.3812 31.5717C16.1738 31.5717 11.9551 27.348 11.9551 22.145C11.9551 16.9434 16.1725 12.7197 21.3812 12.7197C26.5898 12.7197 30.8073 16.9434 30.8073 22.1463V22.145Z" fill="white"/>
<path fill-rule="evenodd" clip-rule="evenodd" d="M30.8591 20.548C30.7321 19.8273 30.5283 19.2607 30.3258 18.4629C29.512 16.7108 28.3183 15.3464 26.7423 14.187C20.8481 10.1448 12.7427 14.0329 11.8798 20.9358C11.5503 23.6658 12.4899 26.2928 14.1666 28.3021C13.6584 27.7603 13.0999 27.195 12.7188 26.55L12.6685 26.6022C12.7188 26.7563 12.9226 26.8594 12.9729 27.0135C12.9729 27.0135 12.7691 27.0135 12.8207 26.9874C12.6685 26.8085 12.7955 27.0918 13.0232 27.477C13.227 27.8634 13.4811 28.2251 13.7854 28.5593C14.2181 29.0489 14.6747 29.4863 15.437 30.0791C16.5564 30.6705 17.5463 31.4435 18.8419 31.8038C19.1978 31.9083 19.6041 32.0101 20.0117 32.0871C20.4431 32.1655 20.8494 32.1916 21.3072 32.1916C21.7386 32.1916 22.1965 32.1394 22.755 32.0349C23.3309 31.9645 23.9001 31.8444 24.4568 31.6759C25.7003 31.2873 26.8457 30.6186 27.8114 29.7174C28.2944 29.2552 28.9812 28.6625 29.5132 27.8895C29.9459 27.0148 29.9962 26.5761 30.2 26.1896C30.4025 25.8032 30.6566 25.3658 30.8352 24.773C30.9808 24.0698 31.0658 23.3546 31.0893 22.6357C31.0641 21.915 31.0138 21.2191 30.8604 20.5493L30.8591 20.548ZM24.8115 15.759C25.6756 16.2734 25.8027 16.3504 25.3448 16.0162C26.0064 16.1702 26.4127 16.5567 26.819 16.9432C27.8101 18.1026 28.6227 19.4669 29.029 21.0376C29.2579 22.8146 29.0793 24.5915 28.3435 26.1635C27.0227 28.558 24.9134 30.1548 22.3977 30.5922C22.1185 30.5922 21.8141 30.5922 21.5336 30.6183C22.2455 30.489 22.7034 30.0255 23.9989 29.5359C25.3951 29.0215 26.9712 26.627 27.7347 25.2352C29.9698 21.4489 27.3271 17.9472 24.8115 15.759ZM20.0356 30.6431C16.174 30.2318 13.2006 26.9612 12.7943 23.1749C13.149 25.2874 14.3691 26.909 16.0206 28.3517C16.6055 28.7382 17.4683 29.2787 18.0532 29.6652C19.0444 30.0517 19.628 30.4642 20.594 30.6444L20.0356 30.6431ZM30.4264 23.7677C30.2503 24.5667 30.0717 25.3384 29.8931 26.1374C29.512 27.1166 28.9535 28.1206 28.1913 28.9184C27.429 29.7174 26.463 30.335 25.4983 30.9277C24.736 31.339 23.77 31.5453 22.9826 31.7503C22.5248 31.8025 21.9915 31.5962 21.5336 31.5714C27.1749 31.416 31.0364 25.9833 30.1987 20.6002C29.7912 19.0296 28.9787 17.6639 27.9875 16.2995C27.5812 15.7067 26.7926 15.3464 26.2089 14.7536C22.677 12.4623 18.0029 12.9258 15.3351 15.9391C14.961 16.3351 14.6126 16.7565 14.2923 17.2004C15.7162 15.037 18.0029 13.5185 20.7462 13.0798C21.7122 13.0537 22.7034 13.2352 23.6681 13.4154C27.9372 14.7536 31.1132 19.0296 30.4264 23.769V23.7677Z" fill="#D7DF23"/>
</svg>
