<svg width="168" height="342" viewBox="0 0 168 342" fill="none" xmlns="http://www.w3.org/2000/svg">
<path fill-rule="evenodd" clip-rule="evenodd" d="M86.7421 270.614C78.1603 261.967 75.5156 253.446 75.5419 245.367C75.5881 229.445 85.4791 215.171 82.0583 204.959C75.766 186.178 65.4703 176.018 60.1684 163.33C56.9344 155.591 55.6248 146.888 58.3372 134.578C60.6938 123.864 66.3075 117.516 73.3718 112.944C84.4303 105.784 98.977 102.88 110.478 94.7973C126.704 83.3937 136.002 58.9462 153.669 50.0462C160.842 46.4319 169.425 45.4505 180.485 49.0701C182.953 49.8745 185.347 51.0011 187.65 52.3334C189.972 53.6767 192.194 55.2369 194.305 56.9131C205.584 65.8814 213.836 77.5868 224.066 87.355C228.461 91.5531 233.215 95.4006 238.7 98.537C251.669 105.951 266.036 110.591 278.72 118.05C287.006 122.924 294.566 129.015 300.504 137.953C301.884 140.036 303.075 142.202 304.091 144.431C305.104 146.663 305.935 148.966 306.598 151.31C307.171 153.332 307.619 155.336 307.91 157.335C308.204 159.327 308.339 161.319 308.282 163.332C308.056 171.641 305.113 177.447 300.668 181.874C289.847 192.654 270.399 195.475 258.971 205.664C254.832 209.356 251.837 213.944 249.424 218.946C245.871 226.31 243.576 234.574 240.64 242.126C237.374 250.536 233.216 258.706 227.812 265.73C222.43 272.727 215.812 278.577 207.589 282.369C199.048 286.314 189.402 288.31 179.454 288.682C169.486 289.051 159.215 287.788 149.429 285.205C143.944 283.753 138.124 280.421 132.408 278.359C129.776 277.405 127.166 276.721 124.617 276.57C115.22 276.01 105.209 276.655 97.2709 275.269C92.9706 274.514 89.2934 273.179 86.7421 270.614ZM85.5379 271.864C88.3698 274.713 92.428 276.288 97.2119 277.121C105.211 278.52 115.296 277.888 124.767 278.452C127.135 278.594 129.563 279.242 132.016 280.128C137.782 282.207 143.666 285.56 149.202 287.021C159.166 289.656 169.623 290.944 179.774 290.566C189.943 290.185 199.804 288.136 208.535 284.107C216.984 280.209 223.795 274.2 229.326 267.014C234.818 259.876 239.048 251.571 242.373 243.021C245.293 235.511 247.567 227.284 251.103 219.957C253.433 215.136 256.306 210.711 260.291 207.155C271.74 196.948 291.212 194.107 302.051 183.303C306.765 178.61 309.886 172.452 310.132 163.64C310.187 161.523 310.046 159.419 309.736 157.315C309.434 155.224 308.964 153.134 308.369 151.027C307.678 148.577 306.804 146.176 305.748 143.845C304.686 141.502 303.435 139.235 301.985 137.05C295.851 127.805 288.038 121.491 279.465 116.449C266.773 108.985 252.4 104.342 239.425 96.9207C234.098 93.8737 229.487 90.1417 225.224 86.0678C214.95 76.2488 206.642 64.4989 195.311 55.4867C193.117 53.7441 190.799 52.1216 188.387 50.727C185.956 49.3156 183.425 48.1332 180.819 47.2828C169.213 43.4803 160.207 44.5374 152.676 48.332C134.947 57.2658 125.576 81.7557 109.295 93.2C95.7757 102.703 78.0565 105.066 66.722 115.558C61.9883 119.936 58.3446 125.705 56.5336 133.931C53.7082 146.744 55.1156 155.803 58.4835 163.859C63.7675 176.498 74.0471 186.62 80.3214 205.338C83.6904 215.398 73.7355 229.411 73.6877 245.1C73.6647 253.662 76.447 262.703 85.5379 271.864Z" fill="#184463"/>
<path fill-rule="evenodd" clip-rule="evenodd" d="M98.3212 263.068C73.8199 243.055 97.407 216.09 92.2204 202.535C82.0095 175.857 62.4563 171.847 68.4495 140.413C73.5299 113.79 99.0803 110.361 116.531 95.066C137.647 76.5563 145.239 35.9267 181.585 41.7571C186.358 42.5201 190.884 44.5167 194.981 47.035C210.281 56.4321 219.989 71.9099 237.23 78.7843C257.667 86.9399 281.564 87.3612 296.181 106.172C298.921 109.694 300.941 113.652 302.314 117.891C303.496 121.541 304.211 125.207 304.198 129.051C304.105 155.895 273.735 160.496 258.868 176.44C249.602 186.374 247.032 200.347 242.749 212.747C236.972 229.495 227.813 245.894 212.431 255.574C196.488 265.601 176.195 269.038 157.642 267.215C150.169 266.48 141.947 262.212 134.453 262.996C120.609 264.446 105.408 268.865 98.3212 263.068Z" fill="#FFB681"/>
<mask id="mask0_2304_1651" style="mask-type:alpha" maskUnits="userSpaceOnUse" x="71" y="32" width="183" height="236">
<mask id="mask1_2304_1651" style="mask-type:luminance" maskUnits="userSpaceOnUse" x="71" y="32" width="183" height="236">
<path d="M71 32.0635H254V267.324H71V32.0635Z" fill="white"/>
</mask>
<g mask="url(#mask1_2304_1651)">
<path d="M86.7294 47.8226C85.6855 43.5506 81.717 39.4516 78.6307 39.4516C76.5911 39.4516 73.709 43.5931 73.709 46.5234C73.709 47.712 76.7471 53.8194 78.1201 55.3909C79.9044 57.439 85.2033 56.4688 86.8259 53.8023C87.6769 52.3982 87.6684 51.655 86.7294 47.8226ZM88.3406 55.7199C86.8798 57.4588 85.1863 58.3637 82.4006 58.8885C79.1753 59.5012 76.9712 58.3666 74.8097 54.9909C72.4382 51.289 71.0057 48.0666 71 46.4241C70.9943 44.6001 73.3006 40.0132 75.0792 38.3055C79.042 34.5044 86.1649 39.1339 88.647 47.122C89.915 51.1954 89.8157 53.9669 88.3406 55.7199ZM89.0356 235.577C88.5165 234.593 87.8527 232.99 87.5577 232.017C87.2655 231.047 86.5195 229.884 85.9011 229.433C84.2189 228.202 80.7468 227.407 79.3001 227.924C76.3046 228.993 75.2777 233.344 77.3201 236.326C80.1143 240.399 82.6928 242.161 85.8529 242.149C87.8357 242.149 88.2754 241.871 89.2143 240.118C90.176 238.32 90.1504 237.702 89.0356 235.577ZM91.2794 240.799C90.5618 242.601 88.5874 244.382 86.9705 244.688C84.4317 245.162 79.5299 243.386 77.6577 241.31C73.3488 236.539 72.4127 232.454 74.7246 228.511C76.7471 225.053 80.5823 224.301 84.931 226.508C86.8826 227.495 89.5264 230.074 89.5264 230.987C89.5264 231.143 90.0341 232.383 90.6554 233.742C91.8269 236.309 92.051 238.85 91.2794 240.799ZM98.2066 112.397C94.6438 108.735 90.3206 107.906 87.6059 110.36C86.2642 111.574 84.9338 114.476 85.0926 115.841C85.3763 118.297 92.59 121.806 96.0281 121.159C97.2677 120.924 98.0251 120.382 99.0293 118.995C100.955 116.328 100.799 115.063 98.2066 112.397ZM100.987 119.84C99.2505 122.518 97.8918 123.156 93.9317 123.156C91.0951 123.156 90.159 122.944 87.901 121.8C84.3324 119.985 83.3538 119.154 82.5793 117.276C82.0262 115.934 82.0177 115.424 82.5283 113.94C83.263 111.804 85.2572 109.254 87.2627 107.887C90.8398 105.45 97.1542 107.245 100.482 111.642C102.643 114.499 102.802 117.04 100.989 119.84H100.987ZM102.192 169.295C101.134 167.179 101.055 167.094 97.2365 163.993C94.4934 161.769 92.7999 161.531 89.9632 162.981C87.9407 164.016 85.4671 167.806 85.4614 169.882C85.4472 173.153 92.5474 177.938 97.5797 178.052C100.524 178.126 101.543 177.561 103.103 175.031C103.993 173.584 103.832 172.583 102.192 169.295ZM104.839 175.99C103.142 179.419 99.9994 180.937 95.5345 180.48C90.159 179.93 83.9892 175.453 82.7098 171.179C82.1992 169.465 82.2475 169.079 83.2346 166.926C85.6231 161.747 90.1079 159.049 94.4111 160.203C98.5697 161.315 102.428 164.949 104.41 169.624C106.053 173.493 106.056 173.527 104.839 175.99ZM129.648 53.6804C128.851 52.4464 127.983 51.0394 127.719 50.5458C126.979 49.153 122.562 47.1532 120.872 47.4397C117.678 47.99 117.675 52.9003 120.869 58.168C123.013 61.7053 126.999 62.735 129.711 60.4515C131.626 58.8374 131.606 56.6958 129.646 53.6804H129.648ZM132.46 60.6075C131.115 62.8173 129.056 63.8811 126.122 63.8811C122.809 63.8811 120.869 62.7975 118.835 59.7962C117.212 57.4049 115.737 53.2123 115.737 51.0054C115.737 49.0169 117.13 46.2426 118.48 45.5419C122.883 43.2641 128.281 46.461 131.901 53.4875C133.583 56.7525 133.722 58.5339 132.46 60.6075ZM130.84 134.509C130.326 133.229 129.731 132.585 128.738 132.237C126.945 131.613 120.684 131.613 119.042 132.237C116.994 133.017 113.099 136.18 112.313 137.7C111.647 138.991 111.647 139.26 112.328 141.036C113.181 143.28 113.723 143.504 118.222 143.507C122.846 143.507 127.983 141.703 130.485 139.201C131.739 137.944 131.816 136.948 130.84 134.509ZM133.492 138.316C133.191 139.569 130.777 142.032 128.616 143.291C122.625 146.78 113.372 147.206 110.872 144.105C107.993 140.54 108.751 136.616 112.96 133.298C116.617 130.418 119.397 129.491 124.384 129.491C129.759 129.491 131.288 130.191 132.735 133.303C133.784 135.556 133.923 136.5 133.492 138.316ZM138.896 191.603C138.181 189.861 137.852 189.594 135.418 188.769C132.258 187.699 131.393 187.668 127.476 188.499C120.094 190.065 119.224 190.624 116.971 195.231C115.533 198.172 115.434 200.05 116.585 202.564C117.53 204.626 118.588 205.687 120.361 206.365C121.379 206.756 122.494 206.535 126.738 205.131C134.899 202.427 138.286 199.914 139.256 195.841C139.758 193.736 139.753 193.682 138.896 191.6V191.603ZM141.443 196.612C140.255 201.727 135.413 205.04 123.51 208.875C119.428 210.191 115.034 207.403 113.261 202.365C111.962 198.68 112.745 195.415 115.978 191.004C118.1 188.111 119.147 187.518 123.998 186.454C130.196 185.092 133.041 185.195 136.397 186.885C139.96 188.687 140.876 189.946 141.713 194.19C141.787 194.561 141.662 195.653 141.443 196.609V196.612ZM142.825 90.4636C142.059 87.6978 140.822 87.1986 134.746 87.1958C129.56 87.1958 129.495 87.1958 126.293 88.9176C122.157 91.1246 121.116 92.2536 120.823 94.8434C120.528 97.456 121.331 98.741 124.097 100.083C125.918 100.965 126.724 101.067 130.559 100.908C134.488 100.744 135.237 100.565 137.784 99.2006C139.347 98.3609 141.225 96.988 141.962 96.1483C143.403 94.5087 143.596 93.2351 142.825 90.4636ZM144.595 96.415C142.947 98.9141 137.52 102.162 133.489 103.058C130.236 103.785 129.847 103.782 126.761 103.056C121.745 101.87 119.768 100.696 118.503 98.1425C117.445 96.0008 117.442 95.9498 118.225 93.8932C118.662 92.75 119.782 91.048 120.719 90.1147C122.812 88.0156 128.224 85.3065 131.552 84.6853C134.414 84.1492 139.948 84.7761 142.218 85.888C143.965 86.7447 145.06 88.98 145.369 92.3131C145.568 94.4577 145.443 95.1243 144.595 96.4121V96.415ZM142.286 245.466C139.446 242.774 137.727 242.521 136.368 244.598C135.991 245.173 134.82 246.643 133.767 247.863C132.715 249.079 131.353 251.164 130.746 252.498C129.776 254.611 129.663 255.385 129.847 258.568C130.034 261.842 130.182 262.324 131.282 263.271C134.003 265.615 137.435 263.961 140.297 258.937C142.83 254.483 143.718 252.021 143.735 249.372C143.752 247.111 143.608 246.717 142.286 245.466ZM145.965 251.882C144.83 257.686 139.16 266.032 135.637 267.09C132.136 268.139 128.378 265.586 127.518 261.567C126.125 255.068 127.702 251.125 134.805 243.324C137.659 240.192 138.987 239.914 141.889 241.835C145.713 244.371 146.876 247.236 145.965 251.882ZM169.047 51.638C168.233 50.1147 166.755 50.6111 164.276 53.235C161.68 55.9837 159.57 60.5083 159.573 63.3222C159.578 66.9929 161.292 70.2182 163.232 70.2182C164.162 70.2182 165.998 68.1418 166.681 66.3206C169.223 59.5353 170.159 53.7201 169.047 51.638ZM170.653 62.6499C168.857 68.4084 167.955 70.0877 165.921 71.4607C163.768 72.9131 161.762 72.7882 159.819 71.0834C157.845 69.3502 157.133 66.9248 157.439 62.9818C157.737 59.0956 159.207 55.4703 161.771 52.2847C164.54 48.8438 166.358 47.7772 168.528 48.3219C172.562 49.3261 173.285 54.208 170.653 62.6528V62.6499ZM172.295 155.832C169.422 152.227 168.497 151.637 164.988 151.149C163.178 150.899 161.206 150.814 160.599 150.97C157.263 151.81 153.755 155.909 154.347 158.272C154.631 159.406 156.483 160.513 161.831 162.745C166.091 164.521 169.056 164.2 172.752 161.565C173.949 160.711 174.096 160.379 173.881 159.049C173.745 158.204 173.03 156.76 172.295 155.835V155.832ZM174.933 162.453C172.485 164.904 169.246 166.328 166.122 166.316C163.952 166.316 162.579 165.939 159.229 164.464C153.973 162.149 152.989 161.5 152.084 159.747C150.668 157.004 152.555 152.981 156.523 150.275C158.682 148.803 158.997 148.723 162.463 148.774C164.477 148.774 166.993 149.064 168.051 149.356C171.725 150.374 175.691 155.009 176.142 158.813C176.377 160.819 176.283 161.1 174.933 162.453ZM173.336 118.842C170.672 113.568 168.426 110.788 165.972 109.733C164.108 108.933 163.43 109.379 162.165 112.238C161.158 114.513 161.382 118.382 162.639 120.41C165.422 124.904 169.382 128.135 172.108 128.135C173.912 128.135 175.841 126.441 175.841 124.856C175.841 124.271 174.712 121.568 173.336 118.842ZM177.574 127.641C175.322 130.932 172.366 131.825 169.036 130.225C166.528 129.023 162.44 125.125 160.951 122.518C159.127 119.327 158.597 114.258 159.76 111.2C160.826 108.406 163.334 106.241 165.096 106.596C169.331 107.441 172.559 110.743 175.909 117.639C178.72 123.437 179.061 125.471 177.574 127.641ZM178.89 202.856C178.022 201.891 176.442 199.645 175.384 197.86C173.189 194.161 172.621 193.742 169.81 193.742C168.105 193.742 167.6 193.963 166.616 195.134C165.972 195.9 165.334 197.072 165.192 197.736C165.053 198.397 164.866 199.31 164.778 199.761C164.281 202.24 168.466 209.318 171.779 211.618C172.735 212.282 174.352 212.934 175.373 213.074C176.913 213.278 177.429 213.144 178.385 212.242C181.256 209.553 181.463 205.707 178.89 202.856ZM182.294 210.257C180.649 214.347 178.136 216.219 174.874 215.78C169.302 215.031 162.148 206.28 162.188 200.257C162.202 197.818 163.873 194.005 165.541 192.601C167.2 191.203 170.644 191.089 173.396 192.337C174.913 193.027 175.62 193.824 177.313 196.763C178.451 198.737 179.733 200.643 180.167 201.003C181.233 201.886 183.069 205.911 183.043 207.312C183.038 207.931 182.697 209.258 182.294 210.254V210.257ZM206.61 79.1396C206.315 78.368 205.601 77.8829 204.16 77.4801C201.136 76.632 197.045 78.0701 194.18 80.9948C189.987 85.2725 189.457 87.0426 191.596 89.624L192.864 91.1558L195.312 90.3643C200.009 88.8467 205.144 85.0682 206.392 82.2089C207.121 80.5522 207.124 80.4983 206.608 79.1396H206.61ZM209.061 82.6003C207.646 86.6511 201.865 91.1728 195.649 93.0961C192.2 94.1655 190.682 93.5669 189.145 90.5317C187.729 87.7319 187.758 86.3221 189.29 83.7322C192.671 78.0077 197.859 74.5243 202.795 74.6718C207.62 74.8136 210.508 78.4673 209.061 82.6003ZM219.015 36.022C218.607 35.3951 217.733 34.6831 217.072 34.4306C214.216 33.3442 209.444 36.9893 208.426 41.0344C207.745 43.7435 207.785 48.2708 208.497 48.8637C209.413 49.6239 214.434 50.0352 215.543 49.4395C217.373 48.458 220.215 41.6188 219.934 38.87C219.838 37.9254 219.424 36.6433 219.015 36.0192V36.022ZM221.56 43.525C219.168 50.7189 216.454 53.0591 211.597 52.123C210.199 51.8535 208.605 51.5387 208.046 51.4195C205.725 50.9174 204.934 45.5249 206.412 40.2458C207.266 37.1992 209.719 34.3257 212.672 32.913C219.185 29.7955 224.155 35.727 221.56 43.525ZM250.275 70.2211C249.044 67.7134 247.688 66.9589 244.84 67.1943C240.54 67.5602 237.527 72.3032 237.567 78.6659C237.581 81.4827 237.749 82.1181 238.824 83.5279C239.89 84.9292 240.313 85.1505 241.927 85.1505C243.57 85.1505 244.043 84.8867 245.859 82.9833C248.537 80.1693 251.316 75.381 251.291 73.6222C251.285 72.8705 250.823 71.3415 250.275 70.2211ZM253.129 77.3496C251.56 80.8104 247.243 85.9873 244.894 87.2241C241.848 88.8268 238.035 87.4652 236.359 84.1662C235.567 82.6173 235.394 81.5508 235.457 78.6318C235.499 76.6433 235.695 74.8023 235.896 74.5413C236.095 74.2775 236.515 73.106 236.832 71.9344C237.485 69.5232 239.87 66.4795 241.958 65.3987C243.856 64.4172 247.773 64.4938 249.626 65.5462C251.447 66.5873 254.028 71.4408 254.011 73.7953C254.006 74.6888 253.611 76.2859 253.129 77.3468V77.3496Z" fill="#BB9D81"/>
</g>
</mask>
<g mask="url(#mask0_2304_1651)">
<path fill-rule="evenodd" clip-rule="evenodd" d="M98.3212 262.714C73.8199 242.701 97.407 215.736 92.2204 202.181C82.0095 175.503 62.4563 171.493 68.4495 140.059C73.5299 113.437 99.0803 110.007 116.531 94.7125C137.647 76.2028 145.239 35.5731 181.585 41.4036C186.358 42.1665 190.884 44.1632 194.981 46.6815C210.281 56.0786 219.989 71.5564 237.23 78.4308C257.667 86.5864 281.564 87.0077 296.181 105.818C298.921 109.34 300.941 113.299 302.314 117.538C303.496 121.187 304.211 124.854 304.198 128.698C304.105 155.541 273.735 160.142 258.868 176.086C249.602 186.021 247.032 199.994 242.749 212.393C236.972 229.142 227.813 245.541 212.431 255.22C196.488 265.248 176.195 268.684 157.642 266.862C150.169 266.126 141.947 261.859 134.453 262.642C120.609 264.093 105.408 268.512 98.3212 262.714Z" fill="#184463"/>
</g>
</svg>
