<svg width="92" height="117" viewBox="0 0 92 117" fill="none" xmlns="http://www.w3.org/2000/svg">
<path d="M58.6662 0.867422C79.0341 7.01012 94.2186 26.2616 90.8119 48.115C88.3464 63.9365 74.8021 76.8587 59.3566 78.1506C49.3679 94.1804 29.9241 102.498 11.3358 106.47L18.12 109.57C22.0612 111.36 19.3414 117.538 15.4066 115.72C11.139 113.767 6.88607 111.853 2.64228 109.803C2.19106 109.592 1.79294 109.283 1.4772 108.897C1.16147 108.512 0.936173 108.061 0.817893 107.577C0.69962 107.092 0.691378 106.588 0.79378 106.1C0.896175 105.611 1.10661 105.153 1.40959 104.756C4.5861 100.008 7.70746 95.0272 11.4991 90.7343C11.7983 90.3735 12.2168 90.132 12.6786 90.0537C13.1403 89.9753 13.6146 90.0653 14.0154 90.3073C14.4161 90.5492 14.7167 90.9271 14.8625 91.3723C15.0084 91.8175 14.9898 92.3004 14.8101 92.7334C13.5268 95.901 12.0492 98.9864 10.3858 101.972C26.8469 98.6076 44.0094 92.1773 53.9701 78.1173C51.5065 77.8817 49.0806 77.3494 46.745 76.5319C30.5975 70.8579 17.4578 45.8399 33.133 32.3886C40.7712 25.8282 52.1132 28.432 58.4697 35.3973C65.3623 42.9538 67.1642 54.078 65.0928 63.8607C64.364 67.3224 63.2243 70.6849 61.698 73.8765C73.9119 71.7668 84.5022 61.3539 87.0707 48.8393C91.3065 28.0167 76.8345 9.47222 57.6052 3.18587C56.0251 2.71041 57.1085 0.427185 58.6662 0.867422ZM61.1421 51.4718C59.7596 42.4072 53.044 32.1993 42.7231 33.0288C32.854 33.8234 29.4504 44.9055 31.1881 53.3226C32.1352 57.4492 34.0324 61.2964 36.7287 64.5575C39.425 67.8186 42.8458 70.4034 46.7184 72.106C49.7827 73.4548 53.0806 74.1936 56.4282 74.281C60.2759 67.41 62.331 59.3554 61.1345 51.4748L61.1421 51.4718Z" fill="#FF7919"/>
</svg>
