<svg width="201" height="484" viewBox="0 0 201 484" fill="none" xmlns="http://www.w3.org/2000/svg">
<path d="M46.1945 149.154L46.1986 149.159C55.6624 159.714 60.5666 174.473 66.0757 191.052L66.2541 191.588C66.2542 191.589 66.2543 191.589 66.2544 191.59C66.6353 192.761 67.0207 193.941 67.4098 195.131C72.5393 210.83 78.2863 228.419 82.153 254.093L82.1539 254.099C86.6312 281.754 88.8621 318.314 73.8278 344.621C66.245 357.847 54.343 368.524 41.2007 374.204C28.0613 379.882 13.7181 380.552 1.19799 373.838L1.19483 373.836C-11.4376 367.177 -22.3385 353.101 -33.5063 337.606C-34.7947 335.818 -36.0864 334.012 -37.3844 332.197C-47.3047 318.325 -57.5918 303.941 -69.5818 293.374L-69.584 293.372C-83.226 281.492 -99.0274 274.588 -112.911 268.595L-113.528 268.329C-120.245 265.43 -126.485 262.737 -131.82 259.778C-137.317 256.729 -141.81 253.419 -144.852 249.355C-150.863 241.154 -151.183 229.858 -149.293 216.829C-148.349 210.326 -146.862 203.427 -145.282 196.308C-145.122 195.583 -144.96 194.856 -144.798 194.126C-143.368 187.701 -141.903 181.116 -140.739 174.523C-138.82 163.663 -137.733 152.797 -136.643 141.892C-136.26 138.058 -135.876 134.219 -135.455 130.374C-133.837 115.579 -131.671 100.662 -126.896 85.4516L-126.895 85.4484C-122.202 70.1533 -114.902 54.5857 -105.771 43.6253C-96.6328 32.6562 -85.7624 26.4093 -73.8819 29.4309C-67.9447 30.9897 -61.6825 34.9082 -55.2731 40.3548C-48.8682 45.7974 -42.351 52.7355 -35.9032 60.286C-29.4563 67.8355 -23.0889 75.9849 -16.9804 83.8476C-16.5498 84.4018 -16.1204 84.9547 -15.6924 85.5059C-10.0521 92.7688 -4.64448 99.7322 0.374882 105.667C11.1979 118.6 20.254 126.723 27.8137 132.996C29.5783 134.46 31.2573 135.821 32.8556 137.116C38.12 141.382 42.5082 144.938 46.1945 149.154Z" stroke="#184463"/>
<path d="M-78.7583 36.9465C-54.5829 43.2901 -25.8111 87.8433 -4.24335 113.344C17.3553 139.154 31.8901 145.753 41.5709 156.825C51.2209 167.588 56.1569 182.666 61.7296 199.434C67.1313 216.051 73.4805 234.35 77.6475 262.019C82.1255 289.679 84.3904 326.398 69.2616 352.87C53.9927 379.501 21.3302 395.884 -4.03833 382.278C-29.5469 368.831 -47.9014 325.554 -74.9124 301.75C-102.063 278.104 -137.84 274.24 -150.254 257.653C-162.529 240.907 -151.41 211.748 -146.231 182.436C-141.052 153.123 -141.953 123.817 -132.373 93.3018C-122.964 62.636 -103.074 30.7618 -78.7583 36.9465Z" fill="#FFB681"/>
<mask id="mask0_13_33" style="mask-type:alpha" maskUnits="userSpaceOnUse" x="-156" y="36" width="237" height="352">
<path d="M-78.7583 36.9465C-54.5829 43.2901 -25.8111 87.8433 -4.24335 113.344C17.3553 139.154 31.8901 145.753 41.5709 156.825C51.2209 167.588 56.1569 182.666 61.7296 199.434C67.1313 216.051 73.4805 234.35 77.6475 262.019C82.1255 289.679 84.3904 326.398 69.2616 352.87C53.9927 379.501 21.3302 395.884 -4.03833 382.278C-29.5469 368.831 -47.9015 325.554 -74.9124 301.75C-102.063 278.104 -137.84 274.24 -150.254 257.653C-162.529 240.907 -151.41 211.748 -146.231 182.436C-141.052 153.123 -141.953 123.817 -132.373 93.3018C-122.964 62.636 -103.074 30.7618 -78.7583 36.9465Z" fill="#DCC075"/>
</mask>
<g mask="url(#mask0_13_33)">
</g>
<path d="M10.7247 245.363C12.2849 242.726 13.8463 240.087 15.4981 237.45C17.6093 233.873 16.4157 229.226 12.9276 227.078C9.34781 224.931 4.66605 226.089 2.55485 229.673C0.994647 232.315 -0.565548 234.956 -2.12691 237.598C-6.44095 244.75 6.41069 252.503 10.7247 245.363Z" fill="#184463"/>
<path d="M28.7668 302.176C29.2261 298.237 29.6855 294.299 30.0532 290.362C30.3281 288.443 29.7771 286.613 28.7668 285.164C27.7576 283.708 26.1962 282.643 24.4527 282.22C22.7081 281.786 20.8729 282 19.3127 282.808C17.6597 283.607 16.3745 284.986 15.7318 286.752C13.9884 291.219 12.2437 295.687 10.4086 300.156C7.47031 307.85 21.2395 313.345 24.2694 305.663C26.1046 301.202 27.8492 296.74 29.5938 292.28C24.8204 291.076 20.047 289.873 15.182 288.669C14.8143 292.605 14.3549 296.54 13.8967 300.475C13.3457 304.612 16.3745 308.348 20.5052 308.818C24.636 309.287 28.3086 306.314 28.7668 302.176Z" fill="#184463"/>
<path d="M52.4945 260.057C52.8622 259.12 53.1383 258.185 53.5049 257.248C54.2391 255.044 53.0455 252.662 50.8427 251.928C48.6398 251.193 46.2537 252.385 45.5183 254.59C45.2433 255.524 44.8768 256.458 44.6007 257.393C43.8664 259.597 45.0589 261.978 47.2629 262.714C49.4657 263.449 51.7602 262.26 52.4945 260.057Z" fill="#184463"/>
<path d="M-5.7004 169.799C-6.2514 171.67 -6.89404 173.54 -7.44504 175.411C-8.73032 179.872 -0.744879 182.292 0.632041 177.834C1.18304 175.964 1.73405 174.094 2.28504 172.224C3.01932 169.991 1.73404 167.637 -0.468796 166.967C-2.76444 166.298 -5.05776 167.565 -5.7004 169.799Z" fill="#184463"/>
<path d="M43.4664 220.855C44.2007 220.419 44.935 219.982 45.6693 219.545C47.4139 218.54 47.1378 215.848 46.3119 214.36C45.3932 212.872 43.1915 211.314 41.5385 212.32C40.7126 212.756 39.9783 213.192 39.244 213.628C37.5922 214.633 37.7754 217.325 38.693 218.814C39.5189 220.304 41.7218 221.86 43.4664 220.855Z" fill="#184463"/>
<path d="M41.0957 345.381C42.9319 345.846 44.7682 346.311 46.6034 346.777C48.7157 347.322 50.7353 345.822 51.2863 343.788C51.9289 341.753 50.8269 339.391 48.8073 338.765C46.9711 338.234 45.2264 337.702 43.3913 337.169C41.1885 336.502 38.8012 337.875 38.1586 340.142C37.5159 342.41 38.8928 344.798 41.0957 345.381Z" fill="#184463"/>
<path d="M38.5408 183.821C41.1114 180.753 42.856 178.804 45.2422 177.201C52.1268 172.477 44.0497 159.949 36.9806 164.448C32.575 167.257 29.6367 170.574 26.9745 173.537C24.0374 176.708 24.4051 181.667 27.6183 184.506C30.8303 187.347 35.787 187.087 38.5408 183.821Z" fill="#184463"/>
<path d="M58.4627 283.631C58.1877 284.75 58.0045 285.87 57.7284 286.989C56.8108 291.1 59.3814 295.182 63.5121 296.096C67.5501 297.012 71.682 294.423 72.5996 290.304C72.7829 289.181 73.0589 288.055 73.2422 286.931C75.0785 278.71 60.2989 275.426 58.4627 283.631Z" fill="#184463"/>
<path d="M6.68955 339.964C6.68955 340.088 6.59792 340.112 6.59792 340.112C6.68956 340.11 6.68955 340.075 6.68955 340.025C6.68955 339.921 6.7812 339.752 6.7812 339.546C6.96448 339.129 7.14892 338.577 7.24056 337.853C7.42384 337.1 7.60711 336.268 7.42383 334.611C7.33219 333.777 7.14891 332.635 6.32183 331.15C5.86363 330.423 5.22099 329.631 4.39508 328.968C3.56916 328.301 2.5588 327.802 1.54844 327.545C0.997441 327.392 0.263157 327.247 -0.746044 327.262C-1.7564 327.279 -3.04052 327.487 -4.3258 328.172C-5.61108 328.836 -6.80472 330.005 -7.44736 331.141C-8.09 332.285 -8.27329 333.321 -8.45657 334.123C-8.63985 335.736 -8.36492 336.606 -8.27328 337.309C-8.09 337.998 -7.90556 338.488 -7.72228 338.922C-7.44736 339.773 -7.07964 340.388 -6.80472 340.904C-6.62028 341.161 -6.5298 341.381 -6.43816 341.589C-6.34536 341.695 -6.25372 341.796 -6.16092 341.924C-6.16092 341.989 -6.07045 342.061 -6.07045 342.166C-5.97881 342.28 -5.886 342.392 -5.61108 342.735C-2.94888 345.949 1.82451 346.359 4.94491 343.653C8.15811 340.946 8.52584 336.147 5.86364 332.933C6.13856 333.266 6.23019 333.361 6.32183 333.454C6.32183 333.538 6.41348 333.582 6.41348 333.615C6.41348 333.679 6.41463 333.695 6.50627 333.699C6.41463 333.695 6.41348 333.649 6.41348 333.587C6.32184 333.525 6.32183 333.451 6.32183 333.398C6.32183 333.372 6.2302 333.351 6.2302 333.341C6.2302 333.337 6.2302 333.337 6.2302 333.337C6.2302 333.337 6.2302 333.344 6.2302 333.355C6.323 333.403 6.32184 333.515 6.41348 333.861C6.50512 334.222 6.68955 334.782 6.50627 336.15C6.41463 336.827 6.2302 337.757 5.58755 338.811C5.03771 339.858 3.93571 340.953 2.74207 341.567C1.54843 342.205 0.354795 342.385 -0.471124 342.399C-1.29704 342.412 -1.84804 342.288 -2.3074 342.186C-3.13332 341.958 -4.14253 341.501 -4.87681 340.894C-5.61109 340.292 -6.25373 339.575 -6.62029 338.937C-7.35457 337.63 -7.44621 336.719 -7.53785 336.152C-7.63065 335.033 -7.53785 334.885 -7.53785 334.832C-7.53785 334.839 -7.53785 334.831 -7.53785 334.848C-7.53785 334.863 -7.53785 334.888 -7.53785 334.919C-7.53785 334.98 -7.539 335.067 -7.63064 335.162C-7.63064 335.258 -7.63064 335.36 -7.72228 335.485C-7.72228 335.621 -7.81393 335.729 -7.90557 336.077C-9.00757 340.108 -6.62144 344.253 -2.58232 345.327C1.4568 346.4 5.58871 344.003 6.68955 339.964Z" fill="#184463"/>
</svg>
