<svg width="156" height="74" viewBox="0 0 156 74" fill="none" xmlns="http://www.w3.org/2000/svg">
<path d="M43.657 59.0849C43.1976 59.6129 42.5798 60.3028 41.7643 61.0501C40.9608 61.8109 39.9646 62.6304 38.7889 63.4178C36.4496 65.0061 33.3046 66.4674 29.7752 66.9126C28.0243 67.1413 26.1853 67.1161 24.3575 66.8152C22.531 66.5093 20.7311 65.9484 19.0488 65.1828C15.6603 63.6605 12.8012 61.2727 10.709 58.8644C8.28428 56.063 6.41014 52.763 5.3064 49.234C4.22473 45.7007 3.85842 41.9496 4.54918 38.3398C5.16234 34.7092 6.6245 31.2168 8.71265 28.1337C10.8153 25.0544 13.536 22.393 16.6172 20.2739C19.6984 18.1552 23.1578 16.5888 26.7757 15.7369C27.2191 15.5985 27.6809 15.549 28.141 15.4678L29.513 15.2317C30.4316 15.1314 31.3575 15.0803 32.2768 15.0172L34.3673 15.0576L34.7156 15.0616L35.0606 15.0965L36.4501 15.2429L37.1455 15.314C37.3773 15.3444 37.6022 15.3997 37.8314 15.4401C45.1903 16.719 52.0781 20.6904 57.1861 26.284C58.8066 28.0202 60.6727 30.63 62.0417 32.8392C62.377 33.3961 62.7011 33.9187 63.0043 34.3831C63.2891 34.8581 63.5328 35.2909 63.7697 35.6325C64.2423 36.3209 64.6341 36.6884 64.8799 36.5493C65.1382 36.4033 65.238 35.9527 65.178 35.2227C65.1457 34.8573 65.0803 34.4196 64.9698 33.9176C64.8715 33.4085 64.6541 32.8779 64.4332 32.2623C63.5304 29.8316 61.6878 26.5298 58.5619 23.3092C54.8131 19.3971 50.2302 16.3006 45.1935 14.2949L43.2847 13.5945C42.6432 13.3806 41.9827 13.2194 41.3297 13.0287C41.0037 12.9413 40.6757 12.8429 40.3484 12.7605L39.3471 12.5657C38.6797 12.4499 38.0201 12.2836 37.3406 12.2117C34.6477 11.8313 31.9109 11.8486 29.1993 12.1403C26.4975 12.5131 23.8612 13.2239 21.334 14.2109C18.838 15.2741 16.4362 16.5515 14.2339 18.1341C13.6697 18.508 13.1664 18.9661 12.6283 19.3783L11.833 20.0105C11.5759 20.23 11.3347 20.4699 11.0858 20.697C10.5957 21.164 10.0887 21.6162 9.61044 22.0971L8.24699 23.6054C7.77247 24.0922 7.39503 24.663 6.9724 25.1901C6.56657 25.7323 6.12904 26.2554 5.78343 26.8451L4.69061 28.5678L3.75059 30.3838C1.98811 33.9636 0.95098 37.932 0.887591 41.9828C0.842617 46.0228 1.768 50.0233 3.40639 53.6589C5.04804 57.3007 7.40006 60.6073 10.3079 63.3391C13.218 66.0611 16.7209 68.2067 20.5697 69.4112C22.4948 70.011 24.4987 70.3747 26.5236 70.4658C28.5579 70.5599 30.6041 70.3576 32.5735 69.8775C36.5207 68.9249 40.1564 66.9544 43.2047 64.3545C46.2557 61.7445 48.7698 58.492 50.4399 54.8088C52.117 51.1378 52.9409 46.9917 52.5116 42.8929C52.4596 42.3855 52.3699 41.8842 52.3007 41.3825C52.2002 40.8832 52.0867 40.3911 51.9749 39.894L49.0347 40.8066C50.1696 44.0237 51.6627 47.1113 53.4604 49.9966C55.2827 52.8679 57.3905 55.5479 59.7403 57.9885C62.1096 60.413 64.7023 62.6089 67.4816 64.5346C70.2712 66.4421 73.239 68.0929 76.3396 69.4434C79.4514 70.7706 82.6873 71.8105 86.0003 72.5044C89.3201 73.1733 92.7151 73.5213 96.1115 73.4763C99.5131 73.4113 102.903 72.9813 106.215 72.1416C109.516 71.2839 112.75 70.0352 115.728 68.2613C116.46 67.8432 117.152 67.362 117.858 66.8897C118.536 66.3838 119.222 65.8854 119.858 65.3209C121.146 64.2121 122.366 63.0274 123.431 61.6594C124.492 60.3064 125.429 58.8515 126.191 57.3132C126.944 55.767 127.55 54.1498 127.992 52.4788C128.825 49.1378 129 45.5636 128.164 42.1273C127.983 41.2653 127.674 40.432 127.382 39.5976C127.02 38.7869 126.681 37.9716 126.199 37.2021C125.276 35.6637 124.136 34.2559 122.778 33.1153C121.432 31.9675 119.943 30.9859 118.334 30.2607C116.715 29.5488 115.003 29.0481 113.23 28.8145C111.453 28.5956 109.621 28.6819 107.839 29.0861C107.399 29.2098 106.944 29.2926 106.514 29.4556L105.227 29.9609C104.405 30.381 103.567 30.8022 102.844 31.3799C101.357 32.4721 100.071 33.8492 99.1157 35.4092C98.1617 36.9642 97.4828 38.6617 97.0536 40.3993C96.6136 42.1393 96.4717 43.9333 96.5493 45.7071C96.6375 47.4784 96.9179 49.2543 97.5127 50.9461C98.0167 52.3934 98.6866 53.8433 99.5525 55.088L99.8626 55.5649L100.205 56.0188C100.438 56.3174 100.663 56.6247 100.902 56.9195C101.409 57.4804 101.899 58.0633 102.457 58.5695C102.985 59.1097 103.576 59.5724 104.151 60.0522C104.444 60.2828 104.751 60.4965 105.053 60.7136L105.508 61.0404L105.98 61.3402C107.225 62.1618 108.557 62.8177 109.911 63.4065C115.342 65.7119 121.421 66.2018 127.124 65.1002C129.996 64.6153 132.745 63.6198 135.373 62.4134L137.316 61.4488L139.178 60.3364C139.809 59.9857 140.382 59.5409 140.973 59.1272C141.556 58.7008 142.166 58.3132 142.703 57.827L144.359 56.4338C144.883 55.9392 145.391 55.4243 145.907 54.9171C146.159 54.6594 146.431 54.4224 146.667 54.1446L148.088 52.4995L148.443 52.0905L148.764 51.6518L150.043 49.895C150.452 49.3014 150.806 48.6613 151.189 48.0499C151.377 47.7381 151.568 47.4326 151.746 47.1182L152.709 45.161C152.869 44.8364 153.038 44.5145 153.157 44.1685C154.237 41.6551 155.088 38.7338 155.558 35.6738C156.009 32.6087 155.919 29.4247 155.477 26.4615C155.37 25.8502 155.25 25.1882 155.123 24.493C154.976 23.7974 154.76 23.0836 154.57 22.3345C154.461 21.964 154.387 21.5769 154.247 21.2035C154.114 20.8266 153.98 20.4496 153.843 20.0664C153.573 19.3014 153.308 18.5217 152.947 17.7847C152.777 17.4084 152.61 17.0383 152.44 16.662C152.268 16.2906 152.114 15.9133 151.904 15.5684C151.513 14.8654 151.127 14.1686 150.754 13.4967C150.344 12.8463 149.923 12.2399 149.532 11.6525C149.334 11.3631 149.156 11.0739 148.949 10.8138C148.741 10.5586 148.541 10.311 148.35 10.0708C148.017 9.66127 147.683 9.25176 147.351 8.83729C147.013 8.42647 146.622 8.05415 146.263 7.66392C145.897 7.27722 145.538 6.88696 145.177 6.5016C144.793 6.14171 144.41 5.78183 144.035 5.42946C143.819 5.22455 143.611 5.02717 143.408 4.83107C143.205 4.63498 143 4.44862 142.783 4.2855C142.361 3.95207 141.955 3.63858 141.572 3.33646C140.82 2.71526 140.071 2.28338 139.42 1.88867C138.14 1.0627 137.073 0.703421 136.404 0.476852C135.034 0.0625542 135.05 0.549626 136.117 1.82226C136.35 2.09994 136.251 2.2361 136.324 2.44988C136.359 2.55368 136.439 2.68028 136.625 2.84538C136.804 3.01406 137.101 3.20915 137.516 3.54618C137.585 3.60131 137.723 3.7067 137.787 3.76053C140.322 5.76241 142.719 7.91091 144.809 10.4027C146.904 12.8797 148.738 15.6491 150.052 18.6834C151.665 22.3959 152.651 26.4024 152.798 30.4466C152.94 34.4894 152.258 38.5319 150.756 42.2706C149.254 46.0092 147.008 49.465 144.187 52.3673C141.365 55.2695 138.027 57.6659 134.382 59.3978C130.741 61.1147 126.788 62.2076 122.79 62.3592C118.803 62.5452 114.774 61.8385 111.131 60.2743C107.49 58.7214 104.276 56.2013 102.206 52.928C100.156 49.7227 99.4597 45.6261 100.205 41.8527L100.394 40.9899C100.461 40.7031 100.566 40.4273 100.646 40.1495C100.793 39.5799 101.058 39.0579 101.271 38.5166C101.389 38.2492 101.543 38.0069 101.675 37.7484C101.812 37.4908 101.942 37.2373 102.119 37.0064L102.603 36.2909C102.781 36.0712 102.973 35.8601 103.157 35.6419L103.432 35.3164L104.368 34.4493L105.054 33.9508C105.171 33.8668 105.283 33.7811 105.398 33.7017L105.769 33.502L106.505 33.0905L107.293 32.7768L107.685 32.6192C107.818 32.5709 107.96 32.546 108.095 32.5088L108.914 32.2926C111.145 31.867 113.537 32.067 115.745 32.837C116.288 33.0506 116.849 33.2325 117.363 33.512C117.625 33.6451 117.897 33.7599 118.149 33.9063L118.897 34.364C119.023 34.4397 119.149 34.5153 119.273 34.5959L120.33 35.3829L120.98 35.9717C121.199 36.1668 121.419 36.3571 121.604 36.58L122.193 37.2257C122.39 37.4414 122.539 37.6859 122.717 37.9172C123.086 38.368 123.35 38.8796 123.646 39.3735C123.806 39.6107 123.903 39.8937 124.03 40.1587C124.146 40.426 124.284 40.6885 124.383 40.9619C124.562 41.519 124.798 42.0599 124.918 42.6431C124.987 42.9291 125.068 43.2132 125.131 43.5029L125.341 44.8194L125.373 45.2634L125.443 46.1531C125.457 47.3434 125.433 48.5442 125.224 49.7322C124.879 52.1115 124.065 54.4288 122.918 56.5466C121.786 58.6889 120.26 60.5526 118.465 62.1921C117.48 63.083 116.431 63.9043 115.306 64.6208C114.196 65.3575 113.015 65.9912 111.798 66.5626C109.368 67.7118 106.781 68.551 104.119 69.2023L104.208 69.1794C98.605 70.3968 92.7667 70.3127 87.1473 69.216C79.3489 67.7091 71.8409 64.0283 65.7076 58.8369C59.5593 53.662 54.7925 46.9315 52.2532 39.6534L48.6229 40.7855C49.3488 43.6046 49.3177 46.483 48.7377 49.1933C48.1414 51.9046 46.9986 54.4378 45.5145 56.7066C45.2996 57.0425 45.0031 57.4091 44.6997 57.8212C44.3897 58.2002 44.0551 58.6509 43.657 59.0849Z" fill="#FF7919"/>
</svg>
