<svg width="124" height="275" viewBox="0 0 124 275" fill="none" xmlns="http://www.w3.org/2000/svg">
<g clip-path="url(#clip0_16_425)">
<path d="M173.255 241.481C169.573 243.738 166.306 245.357 163.345 246.388C160.388 247.418 157.723 247.873 155.265 247.674C152.817 247.484 150.583 246.559 148.864 245.042C147.139 243.529 145.931 241.525 145.081 239.251C143.392 234.686 142.968 228.897 143.133 222.133C143.309 215.378 144.13 207.663 145.194 199.452C147.324 183.038 150.428 164.619 151.43 148.404C151.933 140.303 151.908 132.757 151.018 126.365C150.139 119.966 148.369 114.766 145.657 111.25C144.973 110.359 144.226 109.569 143.413 108.876C141.822 107.516 140.342 106.54 138.992 105.881C137.642 105.226 136.432 104.887 135.325 104.775C134.219 104.667 133.203 104.778 132.184 105.082C131.168 105.391 130.143 105.912 129.098 106.662C127.004 108.152 124.852 110.595 122.76 113.767C120.663 116.936 118.618 120.808 116.604 125.089C112.572 133.658 108.673 143.838 104.342 153.442C99.9919 163.049 95.2537 172.091 89.1965 178.54C87.1769 180.687 84.9977 182.548 82.6019 184.003C80.2076 185.455 77.5793 186.494 74.766 186.93C71.9568 187.376 68.988 187.205 65.9818 186.393C62.9715 185.583 59.9245 184.146 56.8063 182.082C51.861 178.823 48.407 174.09 46.323 168.635C44.2311 163.167 43.4156 156.966 43.519 150.326C43.7449 137.055 47.6343 121.933 53.5502 107.206C59.4764 92.4892 67.4463 78.2007 76.0569 66.7805C80.3672 61.0681 84.8358 56.0742 89.352 52.0933C93.8742 48.1198 98.4303 45.1297 103.102 43.5603C114.059 39.9121 124.253 38.8564 133.587 40.0495C142.916 41.2354 151.343 44.673 158.73 49.7834C166.126 54.8959 172.496 61.6549 177.917 69.5277C183.336 77.4025 187.812 86.3954 191.409 96.052C198.593 115.366 202.282 137.341 202.681 158.448C202.879 168.999 202.247 179.334 200.8 189.014C200.073 193.856 199.142 198.533 198.006 202.993C196.861 207.451 195.533 211.702 193.944 215.667C191.247 222.395 187.845 228.301 183.795 233.081C183.223 233.761 182.511 234.456 181.653 235.249C180.799 236.035 179.824 236.88 178.828 237.706C177.832 238.533 176.819 239.337 175.897 240.031C174.967 240.727 174.155 241.3 173.413 241.734C173.362 241.649 173.306 241.566 173.255 241.481ZM170.339 236.718C170.656 236.506 171.346 235.966 172.118 235.301C172.9 234.632 173.795 233.825 174.67 232.997C175.548 232.173 176.406 231.326 177.117 230.589C177.821 229.861 178.399 229.206 178.606 228.914C181.864 224.593 184.661 219.188 187.037 212.96C188.433 209.295 189.7 205.346 190.761 201.149C191.824 196.953 192.702 192.52 193.387 187.909C194.754 178.685 195.349 168.754 195.148 158.591C194.746 138.271 191.14 117.039 184.291 98.7048C180.87 89.5393 176.642 81.0994 171.642 73.8505C166.643 66.5977 160.88 60.5404 154.391 56.0644C147.898 51.5857 140.695 48.6661 132.62 47.6324C124.546 46.6095 115.56 47.4839 105.524 50.8247C102.275 51.8963 98.4201 54.3029 94.4165 57.8405C90.4093 61.3724 86.2398 66.0056 82.1806 71.3956C74.0457 82.1759 66.3389 95.9708 60.6683 110.07C54.9899 124.161 51.3693 138.591 51.1913 150.45C51.094 156.376 51.8552 161.637 53.4915 165.881C55.1399 170.14 57.5697 173.37 61.0406 175.681C63.608 177.379 65.9164 178.425 67.9775 178.982C70.0442 179.535 71.8576 179.614 73.5792 179.348C75.2991 179.075 76.951 178.448 78.6209 177.436C80.2887 176.429 81.9601 175.031 83.6076 173.278C88.5799 168.017 93.2519 159.599 97.6753 150.343C102.118 141.08 106.36 131 110.815 122.253C113.044 117.875 115.329 113.83 117.772 110.358C120.221 106.889 122.818 103.972 125.806 101.932C127.302 100.914 128.903 100.12 130.611 99.6442C132.316 99.1627 134.122 99.0096 135.948 99.2308C137.777 99.4469 139.615 100.031 141.445 100.955C143.276 101.879 145.105 103.143 146.962 104.752C148.071 105.71 149.067 106.788 149.96 107.959C153.499 112.617 155.39 118.698 156.347 125.631C157.296 132.573 157.288 140.423 156.76 148.74C155.705 165.36 152.561 183.856 150.447 200.134C149.389 208.265 148.589 215.836 148.423 222.271C148.24 228.699 148.745 234.002 150.032 237.398C150.67 239.098 151.464 240.291 152.347 241.061C153.24 241.825 154.224 242.267 155.701 242.402C157.166 242.527 159.13 242.261 161.606 241.395C164.077 240.537 167.043 239.086 170.492 236.971C170.441 236.887 170.39 236.802 170.339 236.718Z" fill="#FF7919"/>
<path d="M138.424 45.3382C123.09 63.2647 116.571 87.5591 120.359 110.455C120.442 110.946 119.563 111.102 119.471 110.612C115.184 87.5314 121.244 62.6401 136.662 43.8627C137.065 43.3734 137.795 43.3121 138.282 43.7198C138.768 44.1271 138.836 44.8577 138.424 45.3382Z" fill="#FF7919"/>
<path d="M103.792 143.874C98.6088 140.605 94.4329 136.157 91.1088 130.991C87.7862 125.823 85.3068 119.937 83.5008 113.724C81.23 105.952 80.1474 97.6379 79.8234 89.5996C79.5 81.5546 79.9242 73.7784 80.6585 67.0017C80.6643 66.9271 80.7923 66.9343 80.7898 67.0074C80.7232 73.8193 81.075 81.5514 82.0163 89.4237C82.9584 97.3002 84.4788 105.31 86.7573 112.75C88.5879 118.696 90.9908 124.259 94.1034 129.057C97.2178 133.857 101.032 137.89 105.707 140.842C106.546 141.369 106.795 142.478 106.265 143.315C105.735 144.153 104.63 144.404 103.792 143.874Z" fill="#FF7919"/>
<path d="M89.1731 168.803C79.2182 166.602 70.7052 160.145 64.3036 151.687C57.902 143.218 53.6034 132.703 52.1682 122.205C52.1466 122.043 52.4348 121.995 52.4631 122.158C54.333 132.531 59.0423 142.701 65.6101 150.653C72.174 158.614 80.5798 164.312 89.7492 165.915C90.5474 166.055 91.065 166.848 90.9044 167.645C90.7456 168.443 89.9678 168.979 89.1731 168.803Z" fill="#FF7919"/>
</g>
<defs>
<clipPath id="clip0_16_425">
<rect width="200" height="200" fill="white" transform="matrix(-0.853127 -0.521704 -0.521704 0.853127 274.966 104.341)"/>
</clipPath>
</defs>
</svg>
