<svg width="121" height="120" viewBox="0 0 121 120" fill="none" xmlns="http://www.w3.org/2000/svg">
<g clip-path="url(#clip0_88_230)">
<path fill-rule="evenodd" clip-rule="evenodd" d="M81.8916 49.6002L89.701 57.4091L83.6968 63.4147C83.4753 63.6363 83.3341 63.9253 83.2953 64.2362C83.2566 64.547 83.3225 64.8619 83.4828 65.1311C84.8001 67.3393 85.7901 69.727 86.4218 72.2195C86.4989 72.5232 86.675 72.7925 86.9223 72.9848C87.1696 73.1771 87.474 73.2815 87.7873 73.2814H96.2759V84.325H87.7866C87.4735 84.3244 87.1692 84.4283 86.9219 84.6202C86.6745 84.8122 86.4983 85.0812 86.4211 85.3846C85.7905 87.8781 84.8007 90.2667 83.4828 92.4754C83.3228 92.7441 83.257 93.0585 83.2958 93.3688C83.3345 93.6792 83.4756 93.9677 83.6968 94.1889L89.701 100.195L81.8916 108.004L75.8855 101.999C75.6642 101.778 75.3755 101.637 75.0651 101.599C74.7548 101.56 74.4404 101.626 74.1718 101.786C71.9636 103.103 69.5762 104.093 67.084 104.726C66.7804 104.802 66.5111 104.978 66.3188 105.225C66.1264 105.473 66.0221 105.777 66.0223 106.09V114.579H54.9776V106.089C54.9778 105.776 54.8735 105.472 54.6813 105.225C54.489 104.977 54.2197 104.801 53.9161 104.725C51.4239 104.093 49.0365 103.103 46.8284 101.785C46.5598 101.625 46.2454 101.559 45.935 101.598C45.6246 101.636 45.336 101.777 45.1147 101.998L39.1081 108.003L31.3001 100.195L37.3029 94.1898C37.5241 93.9687 37.6653 93.6802 37.7043 93.3698C37.7433 93.0595 37.6779 92.7451 37.5183 92.4761C36.2001 90.267 35.2097 87.8781 34.5781 85.3843C34.5009 85.0812 34.3249 84.8124 34.0779 84.6206C33.8308 84.4287 33.5268 84.3247 33.214 84.325H24.7247V73.2814H33.2145C33.5276 73.2813 33.8317 73.1768 34.0788 72.9845C34.3259 72.7922 34.5018 72.523 34.5788 72.2195C35.2104 69.7269 36.2006 67.3392 37.5183 65.1311C37.6783 64.8617 37.7439 64.5468 37.7049 64.236C37.6659 63.9251 37.5245 63.6362 37.3029 63.4147L31.3001 57.4091L39.1081 49.6002L45.1147 55.6061C45.3357 55.8273 45.6243 55.9686 45.9347 56.0075C46.2451 56.0464 46.5596 55.9807 46.8284 55.8207C49.0368 54.5038 51.424 53.5131 53.9159 52.8793C54.2191 52.8027 54.4881 52.6272 54.6804 52.3805C54.8727 52.1339 54.9773 51.8301 54.9776 51.5174V43.0283H66.0223V51.5174C66.0225 51.8304 66.127 52.1344 66.3192 52.3814C66.5114 52.6284 66.7804 52.8044 67.0838 52.8814C69.576 53.5135 71.9634 54.5036 74.1715 55.8207C74.4407 55.9808 74.7556 56.0466 75.0664 56.0077C75.3772 55.9688 75.6661 55.8275 75.8876 55.6061L81.8916 49.6002ZM60.5 94.1875C63.5431 94.1878 66.5179 93.2857 69.0483 91.5952C71.5787 89.9048 73.5509 87.5019 74.7157 84.6905C75.8804 81.8791 76.1852 78.7855 75.5916 75.8008C74.998 72.8162 73.5327 70.0746 71.3809 67.9228C69.2291 65.771 66.4876 64.3056 63.5029 63.7119C60.5183 63.1183 57.4246 63.4231 54.6132 64.5878C51.8018 65.7524 49.3989 67.7247 47.7084 70.255C46.0179 72.7854 45.1158 75.7602 45.1161 78.8033C45.1206 82.882 46.7428 86.7924 49.6269 89.6765C52.5109 92.5606 56.4213 94.1829 60.5 94.1875Z" fill="#BADEFF"/>
<path fill-rule="evenodd" clip-rule="evenodd" d="M3.78125 21.8947V12.2195C3.78311 10.4174 4.49981 8.68968 5.77406 7.41542C7.04832 6.14116 8.77605 5.42447 10.5781 5.42261H110.422C112.224 5.42472 113.951 6.14149 115.226 7.4157C116.5 8.6899 117.217 10.4175 117.219 12.2195V21.8947H3.78125Z" fill="#BADEFF"/>
<path fill-rule="evenodd" clip-rule="evenodd" d="M60.5 93.7187C57.5495 93.719 54.6652 92.8445 52.2119 91.2055C49.7585 89.5666 47.8462 87.2369 46.717 84.5111C45.5877 81.7853 45.2921 78.7858 45.8676 75.892C46.4431 72.9982 47.8638 70.3401 49.9501 68.2538C52.0364 66.1675 54.6945 64.7467 57.5883 64.1712C60.4821 63.5956 63.4815 63.8912 66.2073 65.0204C68.9331 66.1496 71.2629 68.0618 72.9018 70.5152C74.5408 72.9685 75.4155 75.8528 75.4152 78.8033C75.4106 82.7577 73.8378 86.5488 71.0416 89.345C68.2455 92.1412 64.4544 93.7141 60.5 93.7187ZM60.5 60.1351C56.808 60.1348 53.1988 61.2293 50.1288 63.2802C47.0589 65.3311 44.666 68.2463 43.2529 71.6572C41.8397 75.068 41.4697 78.8213 42.1897 82.4424C42.9097 86.0636 44.6873 89.3899 47.2978 92.0007C49.9082 94.6115 53.2343 96.3897 56.8553 97.1102C60.4763 97.8307 64.2297 97.4613 67.6407 96.0487C71.0518 94.6361 73.9674 92.2436 76.0187 89.174C78.0701 86.1043 79.1652 82.4953 79.1654 78.8033C79.1605 73.8542 77.1925 69.1091 73.6932 65.6093C70.1939 62.1095 65.4491 60.1407 60.5 60.1351ZM75.2959 13.6585C75.2959 13.1612 75.4934 12.6843 75.845 12.3327C76.1967 11.9811 76.6736 11.7835 77.1709 11.7835H105.413C105.91 11.7835 106.387 11.9811 106.739 12.3327C107.091 12.6843 107.288 13.1612 107.288 13.6585C107.288 14.1558 107.091 14.6327 106.739 14.9844C106.387 15.336 105.91 15.5335 105.413 15.5335H77.1709C76.6736 15.5335 76.1967 15.336 75.845 14.9844C75.4934 14.6327 75.2959 14.1558 75.2959 13.6585ZM36.6617 13.6585C36.6617 13.1612 36.8593 12.6843 37.2109 12.3327C37.5625 11.9811 38.0394 11.7835 38.5367 11.7835C38.9076 11.7835 39.2701 11.8935 39.5784 12.0995C39.8868 12.3055 40.1271 12.5984 40.269 12.941C40.4109 13.2836 40.448 13.6606 40.3757 14.0243C40.3033 14.388 40.1248 14.7221 39.8625 14.9844C39.6003 15.2466 39.2662 15.4252 38.9025 15.4975C38.5388 15.5698 38.1618 15.5327 37.8192 15.3908C37.4766 15.2489 37.1837 15.0086 36.9777 14.7002C36.7717 14.3919 36.6617 14.0294 36.6617 13.6585ZM30.9249 13.6585C30.9249 13.1612 31.1225 12.6843 31.4741 12.3327C31.8257 11.9811 32.3026 11.7835 32.7999 11.7835C33.1708 11.7835 33.5333 11.8935 33.8416 12.0995C34.15 12.3055 34.3903 12.5984 34.5322 12.941C34.6741 13.2836 34.7112 13.6606 34.6389 14.0243C34.5665 14.388 34.388 14.7221 34.1257 14.9844C33.8635 15.2466 33.5294 15.4252 33.1657 15.4975C32.802 15.5698 32.425 15.5327 32.0824 15.3908C31.7398 15.2489 31.4469 15.0086 31.2409 14.7002C31.0349 14.3919 30.9249 14.0294 30.9249 13.6585ZM25.187 13.6585C25.187 13.1612 25.3845 12.6843 25.7361 12.3327C26.0878 11.9811 26.5647 11.7835 27.062 11.7835C27.4328 11.7835 27.7953 11.8935 28.1036 12.0995C28.412 12.3055 28.6523 12.5984 28.7942 12.941C28.9361 13.2836 28.9733 13.6606 28.9009 14.0243C28.8286 14.388 28.65 14.7221 28.3878 14.9844C28.1256 15.2466 27.7915 15.4252 27.4277 15.4975C27.064 15.5698 26.687 15.5327 26.3444 15.3908C26.0018 15.2489 25.709 15.0086 25.5029 14.7002C25.2969 14.3919 25.187 14.0294 25.187 13.6585ZM19.449 13.6585C19.449 13.1612 19.6465 12.6843 19.9982 12.3327C20.3498 11.9811 20.8267 11.7835 21.324 11.7835C21.6948 11.7835 22.0573 11.8935 22.3657 12.0995C22.674 12.3055 22.9143 12.5984 23.0563 12.941C23.1982 13.2836 23.2353 13.6606 23.163 14.0243C23.0906 14.388 22.912 14.7221 22.6498 14.9844C22.3876 15.2466 22.0535 15.4252 21.6898 15.4975C21.3261 15.5698 20.9491 15.5327 20.6065 15.3908C20.2638 15.2489 19.971 15.0086 19.765 14.7002C19.559 14.3919 19.449 14.0294 19.449 13.6585ZM13.7122 13.6585C13.7122 13.1612 13.9097 12.6843 14.2614 12.3327C14.613 11.9811 15.0899 11.7835 15.5872 11.7835H15.5905C15.9612 11.784 16.3235 11.8943 16.6315 12.1007C16.9396 12.307 17.1795 12.6 17.3211 12.9426C17.4626 13.2853 17.4994 13.6622 17.4268 14.0258C17.3542 14.3893 17.1754 14.7232 16.9131 14.9852C16.6508 15.2472 16.3167 15.4255 15.9531 15.4977C15.5894 15.5698 15.2125 15.5326 14.8701 15.3906C14.5276 15.2486 14.2349 15.0083 14.029 14.7C13.823 14.3917 13.7131 14.0293 13.7131 13.6585H13.7122ZM110.422 88.6351C112.1 88.6332 113.708 87.9659 114.894 86.7796C116.081 85.5932 116.748 83.9847 116.75 82.307V25.1757H4.25V82.307C4.25161 83.9848 4.91884 85.5934 6.10525 86.7798C7.29165 87.9662 8.9003 88.6335 10.5781 88.6351H32.1313C32.012 88.2952 31.9002 87.9507 31.794 87.6064H25.1659C24.1791 87.6046 23.2332 87.2117 22.5357 86.5137C21.8381 85.8157 21.4457 84.8697 21.4445 83.8829V73.722C21.4457 72.7354 21.8382 71.7895 22.5358 71.0918C23.2334 70.3941 24.1792 70.0015 25.1659 70.0002H31.7916C32.351 68.1774 33.0832 66.4123 33.9784 64.7288L29.2909 60.0434C28.5941 59.3443 28.2029 58.3974 28.2029 57.4104C28.2029 56.4233 28.5941 55.4765 29.2909 54.7773L36.4766 47.5939C37.1746 46.896 38.1213 46.5039 39.1084 46.5039C40.0955 46.5039 41.0421 46.896 41.7402 47.5939L46.4277 52.2814C48.1095 51.3847 49.874 50.6525 51.6966 50.0949V43.4684C51.6974 42.4817 52.0898 41.5356 52.7875 40.8378C53.4852 40.1401 54.4313 39.7477 55.418 39.7468H65.5806C66.5673 39.7479 67.5133 40.1404 68.2112 40.838C68.909 41.5357 69.3016 42.4817 69.3029 43.4684V50.0947C71.125 50.6528 72.8892 51.385 74.5709 52.2812L79.2584 47.5937C79.9565 46.8957 80.9031 46.5036 81.8902 46.5036C82.8773 46.5036 83.824 46.8957 84.522 47.5937L91.7082 54.777C92.4049 55.4762 92.7962 56.4231 92.7962 57.4101C92.7962 58.3972 92.4049 59.344 91.7082 60.0432L87.0207 64.7286C87.9154 66.4123 88.6476 68.1774 89.2074 69.9999H95.8332C96.82 70.001 97.7661 70.3935 98.4639 71.0912C99.1617 71.789 99.5543 72.735 99.5555 73.7218V83.8841C99.5538 84.8707 99.1611 85.8165 98.4634 86.5142C97.7657 87.2118 96.8199 87.6045 95.8332 87.6062H89.2074C89.1003 87.9505 88.9876 88.295 88.868 88.6348L110.422 88.6351ZM89.0382 100.195L83.3663 94.521C83.0714 94.226 82.8833 93.8413 82.8316 93.4274C82.78 93.0136 82.8678 92.5944 83.0811 92.236C84.3765 90.0667 85.349 87.7203 85.9679 85.2706C86.0706 84.8661 86.3054 84.5074 86.635 84.2514C86.9646 83.9953 87.3702 83.8566 87.7876 83.8571H95.8074V73.7502H87.7866C87.3691 73.7501 86.9635 73.6109 86.634 73.3545C86.3044 73.0981 86.0697 72.7392 85.9669 72.3345C85.3475 69.8856 84.3751 67.5399 83.0802 65.371C82.8667 65.0122 82.7788 64.5925 82.8305 64.1782C82.8821 63.764 83.0704 63.3787 83.3654 63.0833L89.0373 57.4091L81.8907 50.263L76.2188 55.9374C75.9235 56.2325 75.5383 56.4208 75.1241 56.4725C74.7099 56.5243 74.2902 56.4367 73.9313 56.2234C71.7627 54.9284 69.4172 53.9557 66.9685 53.3359C66.5641 53.2331 66.2055 52.9985 65.9492 52.6692C65.693 52.3399 65.5537 51.9346 65.5534 51.5174V43.497H55.4464V51.5174C55.4461 51.9344 55.3068 52.3394 55.0505 52.6684C54.7942 52.9973 54.4355 53.2315 54.0312 53.3338C51.5828 53.9553 49.2375 54.9287 47.0684 56.2234C46.71 56.4367 46.2907 56.5244 45.8768 56.4726C45.4629 56.4208 45.0781 56.2325 44.7833 55.9374L39.1084 50.263L31.963 57.4091L37.6348 63.0833C37.9297 63.3788 38.1179 63.764 38.1697 64.1782C38.2215 64.5924 38.134 65.012 37.921 65.371C36.6254 67.5396 35.6526 69.8855 35.0333 72.3345C34.9306 72.7391 34.6961 73.0978 34.3668 73.3542C34.0374 73.6105 33.6321 73.7499 33.2148 73.7502H25.1935V83.8562H33.2145C33.6317 83.8559 34.037 83.9948 34.3664 84.2508C34.6958 84.5068 34.9304 84.8654 35.033 85.2697C35.6524 87.7194 36.6252 90.0658 37.9208 92.2351C38.1337 92.5936 38.2212 93.0128 38.1694 93.4266C38.1175 93.8404 37.9294 94.2251 37.6346 94.52L31.9627 100.194L39.1081 107.341L44.783 101.667C45.0777 101.371 45.4627 101.183 45.8768 101.132C46.2908 101.08 46.7102 101.169 47.0682 101.383C49.2374 102.677 51.5829 103.65 54.0312 104.27C54.4359 104.373 54.7949 104.607 55.0512 104.937C55.3076 105.266 55.4466 105.672 55.4464 106.089V114.11H65.5536V106.089C65.5536 105.672 65.6927 105.266 65.949 104.937C66.2053 104.607 66.5642 104.373 66.9688 104.27C69.4171 103.65 71.7625 102.677 73.9316 101.383C74.2896 101.169 74.7089 101.08 75.123 101.132C75.537 101.183 75.922 101.371 76.2167 101.667L81.8916 107.341L89.0382 100.194V100.195ZM10.5781 5.89087C8.90035 5.89267 7.29182 6.55996 6.10545 7.74632C4.91909 8.93268 4.2518 10.5412 4.25 12.219V21.4259H116.75V12.2195C116.748 10.5418 116.08 8.93343 114.894 7.74713C113.708 6.56084 112.1 5.89345 110.422 5.89134L10.5781 5.89087ZM110.422 2.14087H10.5781C7.90627 2.14422 5.3448 3.20709 3.45551 5.09638C1.56622 6.98567 0.503349 9.54714 0.5 12.219L0.5 82.3065C0.503163 84.9784 1.56598 87.54 3.45531 89.4293C5.34464 91.3186 7.90621 92.3815 10.5781 92.3846H33.7255C33.8073 92.5487 33.8923 92.7127 33.9786 92.8747L29.2911 97.5622C28.5944 98.261 28.2032 99.2075 28.2032 100.194C28.2032 101.181 28.5944 102.127 29.2911 102.826L36.4766 110.012C37.1754 110.709 38.1218 111.1 39.1084 111.1C40.095 111.1 41.0413 110.709 41.7402 110.012L46.4277 105.325C48.1102 106.22 49.8746 106.951 51.6966 107.509V114.135C51.6973 115.122 52.0894 116.068 52.7871 116.767C53.4848 117.465 54.431 117.858 55.418 117.859H65.5806C66.5678 117.858 67.5142 117.465 68.2121 116.767C68.91 116.069 69.3023 115.122 69.3029 114.135V107.509C71.1247 106.951 72.8888 106.22 74.5709 105.325L79.2584 110.012C79.9573 110.709 80.9036 111.1 81.8902 111.1C82.8768 111.1 83.8232 110.709 84.522 110.012L91.7082 102.827C92.4052 102.128 92.7966 101.182 92.7966 100.195C92.7966 99.2078 92.4052 98.2613 91.7082 97.5627L87.0207 92.8752C87.1079 92.7132 87.192 92.5491 87.2738 92.3851H110.422C113.094 92.3819 115.655 91.3191 117.545 89.4298C119.434 87.5405 120.497 84.9789 120.5 82.307V12.2195C120.497 9.54753 119.434 6.98594 117.545 5.09655C115.655 3.20716 113.094 2.14422 110.422 2.14087Z" fill="#184463"/>
</g>
<defs>
<clipPath id="clip0_88_230">
<rect width="120" height="120" fill="white" transform="translate(0.5)"/>
</clipPath>
</defs>
</svg>
