<svg width="20" height="20" viewBox="0 0 20 20" fill="none" xmlns="http://www.w3.org/2000/svg">
<g clip-path="url(#clip0_88_1188)">
<path d="M7.49996 2.5C7.64936 2.49996 7.79603 2.54008 7.9246 2.61617C8.05318 2.69226 8.15893 2.80152 8.23079 2.9325L8.27329 3.02417L9.93996 7.19083C10.0071 7.35847 10.0179 7.54337 9.9709 7.71771C9.92386 7.89204 9.82147 8.04639 9.67913 8.1575L9.59579 8.21417L8.20079 9.05083L8.25329 9.13667C8.91726 10.1908 9.80913 11.0827 10.8633 11.7467L10.9483 11.7983L11.7858 10.405C11.8786 10.2501 12.0192 10.1295 12.1865 10.0614C12.3538 9.99332 12.5387 9.98142 12.7133 10.0275L12.8091 10.06L16.9758 11.7267C17.1145 11.782 17.2358 11.8736 17.327 11.992C17.4182 12.1103 17.4759 12.2509 17.4941 12.3992L17.5 12.5V15.8333C17.5 17.2142 16.3808 18.3333 14.95 18.3317C7.80079 17.8975 2.10163 12.1983 1.66663 5C1.66659 4.36232 1.91023 3.74874 2.3477 3.28478C2.78516 2.82083 3.38338 2.54158 4.01996 2.50417L4.16663 2.5H7.49996Z" fill="#FF7919"/>
</g>
<defs>
<clipPath id="clip0_88_1188">
<rect width="20" height="20" fill="white"/>
</clipPath>
</defs>
</svg>
