<svg width="92" height="116" viewBox="0 0 92 116" fill="none" xmlns="http://www.w3.org/2000/svg">
<path d="M33.3338 115.673C12.9659 109.531 -2.21859 90.279 1.18812 68.4257C3.65359 52.6041 17.1979 39.682 32.6434 38.3901C42.6321 22.3603 62.0759 14.0422 80.6642 10.0711L73.88 6.97023C69.9388 5.18074 72.6586 -0.99735 76.5934 0.820984C80.861 2.77353 85.1139 4.6879 89.3577 6.73757C89.8089 6.94839 90.2071 7.25785 90.5228 7.64318C90.8385 8.02852 91.0638 8.47988 91.1821 8.9641C91.3004 9.44832 91.3086 9.95306 91.2062 10.4411C91.1038 10.9292 90.8934 11.3881 90.5904 11.7842C87.4139 16.5322 84.2925 21.5135 80.5009 25.8064C80.2017 26.1671 79.7832 26.4086 79.3214 26.487C78.8597 26.5654 78.3854 26.4754 77.9846 26.2334C77.5839 25.9914 77.2833 25.6135 77.1375 25.1684C76.9916 24.7232 77.0102 24.2402 77.1899 23.8072C78.4732 20.6397 79.9508 17.5543 81.6142 14.5687C65.1531 17.933 47.9906 24.3634 38.0299 38.4233C40.4935 38.659 42.9194 39.1913 45.255 40.0088C61.4025 45.6827 74.5422 70.7008 58.867 84.1521C51.2288 90.7124 39.8868 88.1086 33.5303 81.1433C26.6377 73.5869 24.8358 62.4626 26.9072 52.6799C27.636 49.2183 28.7757 45.8558 30.302 42.6642C18.0881 44.7738 7.49775 55.1868 4.9293 67.7014C0.693528 88.524 15.1655 107.068 34.3948 113.355C35.9749 113.83 34.8915 116.113 33.3338 115.673ZM30.8579 65.0689C32.2404 74.1335 38.956 84.3414 49.2769 83.5118C59.146 82.7173 62.5496 71.6351 60.8119 63.2181C59.8648 59.0914 57.9676 55.2442 55.2713 51.9832C52.575 48.7221 49.1542 46.1372 45.2816 44.4347C42.2173 43.0858 38.9194 42.3471 35.5718 42.2596C31.7241 49.1307 29.669 57.1853 30.8655 65.0659L30.8579 65.0689Z" fill="#9393FF"/>
</svg>
