<svg width="128" height="164" viewBox="0 0 128 164" fill="none" xmlns="http://www.w3.org/2000/svg">
<path d="M152.279 25.5158C147.772 19.0857 141.688 13.9228 134.612 10.5232C131.731 9.14198 128.706 8.08436 125.592 7.3701C124.81 7.21746 124.031 7.00895 123.237 6.89492L120.861 6.56452C119.266 6.39985 117.663 6.33309 116.06 6.3648C112.936 6.39733 109.83 6.84263 106.823 7.68933L106.503 7.48861C103.694 5.82397 100.628 4.6374 97.43 3.97713C94.2008 3.37347 90.8873 3.37903 87.6607 3.99327L87.3805 4.05448C87.0442 3.87622 86.7022 3.70479 86.3536 3.54064C81.5434 1.28568 76.1835 0.474537 70.923 1.20545C65.6399 1.88032 60.743 4.3294 57.0338 8.15198C53.476 11.97 51.3633 16.9121 51.0607 22.1242C51.0225 22.3777 51.0276 22.9325 51.0247 23.2055C51.0225 23.6275 51.009 24.0069 51.0259 24.36C51.0425 24.7132 51.0855 25.0146 51.1145 25.3152C51.1435 25.6157 51.1764 25.8602 51.2047 26.0931C51.2328 26.3261 51.3026 26.5282 51.3455 26.7143C51.4243 27.1807 51.5822 27.6302 51.8125 28.0433C52.1766 28.3949 52.4677 28.8151 52.6686 29.2797C53.0327 30.0632 53.4876 30.8012 54.024 31.4784C54.4127 31.943 54.6798 32.1792 54.8362 32.1962C54.9927 32.2132 55.03 32.0075 54.9671 31.5919C54.9042 31.1763 54.6901 30.5583 54.5171 29.6787C53.8562 26.9476 53.7577 24.1108 54.227 21.3409C54.5998 19.1808 55.3013 17.0906 56.3067 15.1433C57.5682 12.7302 59.3139 10.6038 61.4351 8.89703C63.5665 7.25737 66.0061 6.06377 68.6089 5.38701C71.2622 4.70144 74.0148 4.48529 76.7432 4.74804C78.4246 4.90195 80.0855 5.23213 81.6981 5.73332L81.7975 5.76016C80.6818 6.23166 79.5966 6.77255 78.5484 7.37938C75.6925 9.01797 73.1808 11.1938 71.1514 13.7872C69.0766 16.4235 67.6675 19.5215 67.0434 22.8188C66.4591 26.1359 66.7181 29.5471 67.7962 32.7387C68.8645 35.9853 70.8537 38.8514 73.5214 40.9873C74.2054 41.5195 74.9339 41.9918 75.6991 42.3984L76.8869 42.9409C77.0817 43.0379 77.2824 43.123 77.4877 43.1957L78.1098 43.3876C78.3307 43.4456 78.5484 43.5123 78.7658 43.5787C79.3307 49.9014 81.807 55.9029 85.8649 60.7844C86.928 62.0391 88.1042 63.1934 89.3786 64.2327C89.9054 64.6539 90.4541 65.0455 91.0178 65.4243C90.73 66.8237 90.5226 68.2384 90.3965 69.6614C90.2389 71.6425 90.2493 73.6335 90.4285 75.6129C90.7685 79.6256 91.9273 83.5261 93.8334 87.0739C95.7978 90.6373 98.5847 93.6798 101.962 95.9478C103.625 97.0763 105.401 98.0283 107.262 98.7882C109.116 99.5316 111.034 100.105 112.992 100.5C116.897 101.255 120.903 101.328 124.833 100.716C128.755 100.111 132.545 98.8428 136.042 96.9673C139.502 95.0917 142.678 92.736 145.477 89.9698C151.043 84.4522 155.24 77.7069 157.732 70.2744C158.389 68.3421 158.937 66.3742 159.373 64.3801C163.796 72.6974 165.605 82.3309 165.227 91.8137C165.037 96.6015 164.312 101.353 163.067 105.979C162.758 107.139 162.388 108.297 162.042 109.418C161.697 110.539 161.213 111.669 160.802 112.796C160.391 113.924 159.89 115.013 159.393 116.095C158.896 117.176 158.432 118.291 157.839 119.338C148.867 136.6 133.527 149.685 115.07 155.822C113.948 156.244 112.777 156.516 111.623 156.829C110.469 157.142 109.313 157.484 108.132 157.679C106.949 157.875 105.781 158.153 104.599 158.348L101.032 158.802C96.2509 159.272 91.4367 159.294 86.6518 158.866C81.8641 158.375 77.128 157.467 72.4976 156.153C67.8926 154.774 63.4217 152.981 59.1397 150.795C54.3736 148.354 49.905 145.369 45.823 141.902C45.2992 141.439 44.795 141.056 44.2923 140.611L42.8388 139.227L41.3877 137.849C40.8929 137.374 40.4562 136.875 39.9846 136.39C38.359 134.639 36.8497 132.784 35.4662 130.836C36.1781 130.916 36.949 130.958 37.6987 130.982C40.8227 131.074 43.9422 130.689 46.95 129.841C50.0561 128.964 52.9719 127.517 55.549 125.573L57.4152 124.008L58.3015 123.112C58.5907 122.81 58.8482 122.48 59.1246 122.162C60.1648 120.867 61.0466 119.451 61.7508 117.946C63.1037 114.993 63.8378 111.793 63.9071 108.545C64.0007 105.375 63.4877 102.215 62.395 99.2371C61.3183 96.2568 59.5465 93.5763 57.2272 91.4176C56.4024 90.6755 55.5038 90.0197 54.5458 89.4602C54.8188 88.9535 55.0893 88.4412 55.3561 87.9032C57.3141 84.0357 58.7627 79.9308 59.6657 75.6906C60.5418 71.5653 60.8133 67.3344 60.4713 63.1305C60.3419 61.6222 60.1308 60.1217 59.8389 58.6362C59.517 57.1548 59.1194 55.691 58.6472 54.2503C57.6279 51.3718 56.2103 48.6504 54.4354 46.1653C50.8956 41.1645 46.0802 37.2045 40.4915 34.6979C39.0846 34.0725 37.6298 33.5619 36.1409 33.1712C34.6414 32.7563 33.1071 32.4797 31.5571 32.3452C28.4288 32.062 25.2754 32.3874 22.2714 33.303C19.2792 34.2223 16.4805 35.681 14.013 37.6072C13.3864 38.0627 12.8187 38.5958 12.2274 39.1046C11.6365 39.6134 11.1064 40.1718 10.5917 40.751C9.54674 41.8798 8.59016 43.0875 7.73054 44.3635C4.27462 49.4305 2.26278 55.2333 1.15363 61.0847C0.0727971 66.9704 -0.120549 72.9854 0.579991 78.9293C0.965255 82.5227 1.66546 86.0752 2.67259 89.546C2.07393 92.1554 1.84531 94.8361 1.99348 97.5093C2.16645 100.61 2.80325 103.668 3.88273 106.58C6.0503 112.334 9.58763 117.474 14.1882 121.553L15.7105 122.84C16.2441 123.245 16.7385 123.686 17.3243 124.069L19.0413 125.236C19.6179 125.63 20.2427 125.943 20.8411 126.307C23.3561 127.722 26.0311 128.83 28.8091 129.609C29.1178 129.699 29.4367 129.765 29.7546 129.844C29.7833 129.914 29.8145 129.989 29.8432 130.059C30.4077 130.933 30.9304 131.838 31.5424 132.679C33.8985 136.109 36.6232 139.269 39.6676 142.105C40.4272 142.81 41.1461 143.533 41.9454 144.236L44.3427 146.229C44.7438 146.559 45.1356 146.9 45.5517 147.217L46.8137 148.137L49.3515 149.977C52.8353 152.309 56.4959 154.364 60.2997 156.125C75.84 163.39 93.3327 165.349 110.09 161.701C114.272 160.728 118.363 159.397 122.318 157.722C124.321 156.95 126.216 155.931 128.144 154.993C129.109 154.52 130.012 153.943 130.95 153.42C131.888 152.897 132.829 152.38 133.709 151.766C144.605 144.822 153.662 135.347 160.109 124.148L161.622 121.316C161.865 120.835 162.137 120.377 162.387 119.88L163.047 118.419C163.484 117.437 163.934 116.47 164.356 115.487L165.477 112.477C168.402 104.434 169.77 95.9066 169.509 87.3503C169.325 78.2598 166.939 69.349 162.555 61.3821L160.779 58.4741L160.367 57.9037C160.692 54.3667 160.662 50.806 160.279 47.2747C159.464 39.4694 156.714 31.99 152.279 25.5158ZM7.42877 91.6122C7.20842 91.0781 7.02867 90.5273 6.84313 89.9789C7.36809 87.8101 8.17653 85.7198 9.24783 83.7627C10.4798 81.5349 12.0753 79.5291 13.9682 77.8276C14.4321 77.4053 14.9455 77.037 15.4387 76.6365C15.932 76.2359 16.4936 75.9022 17.0498 75.6049C17.606 75.3076 18.1574 74.9984 18.7255 74.7301L20.466 74.012C25.3619 72.5047 30.6358 72.7982 35.3359 74.8397C37.6707 75.8305 39.7933 77.2607 41.5887 79.0528C43.3725 80.8119 44.7241 82.9613 45.5372 85.331C45.7263 85.9235 45.8821 86.526 46.0033 87.1358C44.1312 87.1566 42.2732 87.4649 40.4946 88.0501C38.0204 88.8882 35.7156 90.1614 33.6887 91.8095C30.2878 94.5799 27.6457 98.1686 26.0095 102.24C25.3591 103.865 24.8869 105.556 24.6012 107.284C24.5434 107.654 24.4868 108.01 24.4547 108.377C23.3825 108.085 22.3369 107.703 21.3289 107.235C18.1013 105.728 15.23 103.553 12.905 100.853C10.5784 98.099 8.72772 94.9759 7.42877 91.6122ZM45.5977 95.5638C44.6855 98.9332 42.912 102.006 40.4509 104.481C38.0387 106.949 34.8631 108.53 31.4394 108.966C30.5012 109.078 29.5557 109.114 28.6117 109.073C28.6367 108.805 28.6642 108.542 28.694 108.285C29.0721 105.796 29.9114 103.399 31.1685 101.218C33.6566 96.8495 37.7262 93.2207 42.4369 91.902C43.6811 91.5518 44.9688 91.3819 46.2614 91.3972C46.1889 92.806 45.9665 94.2028 45.5977 95.5638ZM52.7691 93.3315C53.7702 93.9862 54.6764 94.7761 55.4617 95.6783C61.8363 103.082 61.0375 116.597 52.8433 122.355C48.6797 125.341 43.6593 126.893 38.537 126.777C36.5291 126.767 34.5263 126.572 32.5536 126.196C30.7756 122.997 29.5306 119.53 28.868 115.93C28.6969 114.957 28.5836 113.973 28.529 112.986C31.0796 113.116 33.6305 112.738 36.0334 111.874C39.0793 110.733 41.8061 108.877 43.9835 106.46C46.1264 104.103 47.7799 101.342 48.8475 98.3395C48.9614 98.0071 49.0732 97.6689 49.1791 97.3332C49.4393 97.0424 49.7061 96.7353 49.9888 96.3671C50.8459 95.3233 51.6418 94.2309 52.3725 93.0947C52.5039 93.183 52.6538 93.2501 52.7691 93.3315ZM4.05341 69.9556C4.17091 66.2837 4.67218 62.6346 5.54876 59.0673C6.38768 55.5279 7.70362 52.1192 9.46053 48.9348C11.1779 45.7962 13.4949 43.0259 16.28 40.7815C19.038 38.5979 22.2844 37.1164 25.7411 36.4636C29.2075 35.873 32.7656 36.1189 36.1187 37.1815C39.5175 38.2545 42.6844 39.9575 45.4542 42.2015C48.2428 44.4302 50.6247 47.1247 52.4948 50.1657C53.4239 51.6772 54.2097 53.2725 54.8409 54.9311C55.4486 56.6034 55.9175 58.3231 56.2427 60.0725C56.7669 62.8622 56.964 65.7037 56.8304 68.5387C56.7973 69.2319 56.8164 69.9034 56.7171 70.5352L56.509 72.4823C56.4343 73.1245 56.305 73.7486 56.2127 74.3642C56.1206 74.9796 56.0351 75.5788 55.862 76.1798C54.9707 80.3132 53.6525 84.3421 51.9291 88.2028C51.3209 87.9656 50.6977 87.7688 50.0637 87.6139C49.6945 84.808 48.718 82.1161 47.2028 79.7257C45.4645 77.0181 43.1533 74.7249 40.4324 73.0087C37.7583 71.3106 34.7921 70.1251 31.685 69.5122C28.5788 68.8838 25.3822 68.845 22.2626 69.3986C21.4778 69.5298 20.7023 69.7117 19.9409 69.9422C19.1669 70.1504 18.4088 70.4134 17.672 70.7288C16.9216 71.016 16.1948 71.3615 15.498 71.7617C15.1459 71.9615 14.7712 72.1227 14.445 72.3523L13.4547 73.0125C10.8558 74.8232 8.62259 77.1092 6.8725 79.7499C6.20534 80.7385 5.60344 81.7696 5.07073 82.8367C4.95312 82.2061 4.84119 81.5729 4.75773 80.9757C4.1858 77.3354 3.95162 73.6502 4.05821 69.9673L4.05341 69.9556ZM23.5848 123.035C18.9823 120.559 15.0013 117.071 11.9415 112.833C8.83835 108.659 6.87745 103.748 6.25264 98.5848C6.23437 98.4089 6.2244 98.2366 6.21194 98.0583C7.35411 100.149 8.73344 102.101 10.3228 103.875C12.4004 106.203 14.841 108.178 17.5497 109.725C18.9153 110.505 20.3487 111.159 21.8325 111.68C22.5664 111.961 23.3436 112.15 24.1047 112.366L24.2379 112.393C24.3799 115.494 24.9591 118.56 25.9585 121.499C26.3022 122.546 26.6866 123.576 27.1173 124.587C25.912 124.136 24.7327 123.617 23.5848 123.035ZM95.7165 7.44218C96.6215 7.57312 97.517 7.76412 98.3965 8.01432L99.7184 8.45385L100.378 8.67066L101.02 8.94254L101.953 9.34542C100.486 9.94957 99.0606 10.649 97.6849 11.4395C97.2969 11.6675 96.9163 11.9129 96.5366 12.1443C95.2506 10.3165 93.7404 8.65737 92.0412 7.20595C93.2707 7.18296 94.5 7.26203 95.7165 7.44218ZM96.9597 28.4227C96.6164 30.1716 95.9358 31.8367 94.9563 33.3251C94.026 34.6519 92.9202 35.8463 91.669 36.8757C89.1579 38.8842 86.0822 40.0582 82.8713 40.2341C82.905 39.3229 82.9951 38.4143 83.1407 37.5141C83.2011 37.0682 83.3118 36.6285 83.3942 36.1868C83.4767 35.7451 83.6469 35.3014 83.763 34.8595L84.1494 33.5248C84.3017 33.0882 84.4732 32.6646 84.6455 32.2267C86.0107 28.7546 87.9666 25.5455 90.427 22.7421C91.9842 20.9605 93.7133 19.3369 95.5894 17.8948C97.1259 21.1776 97.6047 24.8569 96.9597 28.4227ZM72.6703 34.4163C70.7629 31.1806 70.0384 27.3829 70.6206 23.6728C70.9165 21.8893 71.4983 20.1652 72.3429 18.567C73.1741 17.017 74.2169 15.5899 75.4407 14.327C78.5407 11.2015 82.4452 8.99559 86.7218 7.95372L86.792 7.99275C89.4019 9.61043 91.6625 11.7333 93.4417 14.2364C92.2319 15.1351 91.0691 16.0957 89.9581 17.114C87.6324 19.3278 85.5778 21.8105 83.8377 24.5099L82.5994 26.5765L81.5335 28.7485L81.2691 29.2922L81.0481 29.8592L80.6119 30.9901L80.1813 32.1186L79.8411 33.285C79.3515 34.8453 79.0104 36.4485 78.8228 38.073C78.7688 38.5844 78.7349 39.0944 78.7092 39.6077C78.324 39.4474 77.9416 39.245 77.5696 39.0998C77.3629 39.0108 77.1644 38.9042 76.9764 38.7807C76.7849 38.6627 76.5844 38.555 76.3965 38.4288C74.8816 37.3735 73.611 36.0051 72.6703 34.4163ZM83.0184 44.0456L83.2432 44.0479C86.6148 43.8129 89.867 42.7035 92.6791 40.8283C95.491 38.9535 97.7661 36.3778 99.2797 33.355C99.657 32.5922 99.9674 31.7979 100.208 30.9818C100.325 30.5734 100.485 30.1883 100.556 29.7514L100.786 28.5152C100.868 28.1008 100.921 27.6813 100.947 27.26L101.037 26.0135L101.015 24.7593L101.001 24.1331C100.982 23.9235 100.952 23.7184 100.936 23.5147C100.657 20.8206 99.9006 18.1974 98.7036 15.7676C101.207 14.2218 103.891 12.9911 106.696 12.1031L107.077 12.4011L108.191 13.2591L109.251 14.1807C109.608 14.4852 109.949 14.8098 110.269 15.153L111.254 16.1732C111.587 16.5044 111.867 16.8852 112.176 17.2397C112.485 17.5944 112.797 17.955 113.07 18.3379L113.911 19.486C116.103 22.5891 117.804 26.0116 118.953 29.6333C119.531 31.4385 119.981 33.2823 120.299 35.1507C120.478 36.3359 120.59 37.5305 120.635 38.7282C119.654 38.8201 118.684 38.9355 117.715 39.1044C113.382 39.8358 109.232 41.398 105.492 43.7056C101.763 46.0644 98.5909 49.2043 96.1935 52.9091C95.0943 54.567 94.1481 56.3217 93.3666 58.1513C92.9461 59.1398 92.5587 60.1422 92.2144 61.1675C89.6307 59.0617 87.5104 56.444 85.9872 53.479C84.4305 50.5394 83.4238 47.3405 83.0159 44.0396L83.0184 44.0456ZM120.487 42.9601C120.211 45.9703 119.511 48.9261 118.407 51.7394C117.734 53.4644 116.877 55.1116 115.851 56.6523C114.863 58.1718 113.673 59.5495 112.313 60.7477C109.68 63.1229 106.322 64.5392 102.784 64.768C100.355 64.8897 97.9341 64.412 95.7329 63.3768C96.8584 59.5722 98.7118 56.0228 101.19 52.926C102.543 51.2507 104.096 49.7479 105.814 48.4507C107.549 47.1664 109.431 46.0937 111.42 45.2545C114.311 44.0437 117.367 43.2703 120.487 42.9601ZM152.361 72.66C150.623 76.7336 148.303 80.5328 145.474 83.9388C142.686 87.3351 139.345 90.2365 135.592 92.5199C131.878 94.7787 127.735 96.2404 123.426 96.8128C119.129 97.3701 114.761 96.9865 110.626 95.6881C108.591 95.0271 106.647 94.1159 104.836 92.9754C103.033 91.8468 101.405 90.4582 100.006 88.8544C97.2383 85.5858 95.4208 81.6191 94.7525 77.3882C94.2046 74.0808 94.2114 70.7054 94.773 67.4008C97.5256 68.5296 100.507 68.9875 103.471 68.7371C106.844 68.4393 110.081 67.2717 112.868 65.349C115.578 63.438 117.868 60.9905 119.595 58.1576C122.401 53.477 124.052 48.1942 124.411 42.7473L125.024 42.7525C129.73 42.914 134.369 43.9119 138.725 45.6995C143.098 47.47 147.136 49.9765 150.663 53.1103C152.419 54.6678 154.021 56.3911 155.447 58.2556C155.636 58.5311 155.82 58.781 156.027 59.0692C155.991 59.3425 155.966 59.6109 155.929 59.8842C155.331 64.2866 154.13 68.5853 152.361 72.66ZM155.985 46.7093C156.255 48.771 156.39 50.848 156.392 52.9271C155.67 52.1427 154.918 51.3888 154.135 50.6654C150.841 47.634 147.12 45.1024 143.091 43.1506C139.183 41.2194 135.012 39.871 130.713 39.1483C128.66 38.8192 126.586 38.6422 124.507 38.6182C124.457 37.3848 124.337 36.1549 124.148 34.9349C123.893 33.3553 123.551 31.7911 123.124 30.2489C122.263 27.1732 121.057 24.2047 119.528 21.4004C117.421 17.494 114.65 13.9846 111.338 11.0301C114.962 10.4705 118.651 10.4794 122.273 11.0563C126.587 11.7572 130.75 13.1891 134.583 15.2904C136.516 16.3297 138.366 17.5145 140.119 18.8347C140.954 19.543 141.824 20.1694 142.64 20.9466C143.457 21.7238 144.267 22.422 144.987 23.2456C148.022 26.4126 150.507 30.0645 152.338 34.0506C154.155 38.0645 155.38 42.3207 155.976 46.686L155.985 46.7093Z" fill="#A278E7"/>
</svg>
