<svg width="170" height="163" viewBox="0 0 170 163" fill="none" xmlns="http://www.w3.org/2000/svg">
<path d="M152.124 24.605C147.617 18.1749 141.534 13.012 134.458 9.61246C131.577 8.23121 128.552 7.17359 125.438 6.45933C124.655 6.30669 123.877 6.09818 123.083 5.98415L120.706 5.65376C119.111 5.48909 117.508 5.42233 115.905 5.45403C112.782 5.48656 109.676 5.93186 106.669 6.77856L106.349 6.57784C103.539 4.9132 100.473 3.72664 97.2756 3.06636C94.0464 2.4627 90.7329 2.46826 87.5063 3.08251L87.2261 3.14371C86.8898 2.96545 86.5478 2.79402 86.1992 2.62987C81.389 0.374912 76.0291 -0.43623 70.7685 0.294678C65.4855 0.969554 60.5885 3.41863 56.8794 7.24121C53.3215 11.0593 51.2089 16.0013 50.9063 21.2134C50.8681 21.467 50.8732 22.0218 50.8703 22.2947C50.8681 22.7168 50.8546 23.0961 50.8715 23.4492C50.888 23.8024 50.9311 24.1039 50.9601 24.4044C50.9891 24.7049 51.0219 24.9495 51.0503 25.1823C51.0784 25.4153 51.1482 25.6175 51.1911 25.8036C51.2698 26.2699 51.4278 26.7194 51.658 27.1325C52.0222 27.4841 52.3133 27.9043 52.5142 28.369C52.8783 29.1525 53.3332 29.8904 53.8696 30.5676C54.2582 31.0322 54.5254 31.2685 54.6818 31.2854C54.8383 31.3024 54.8756 31.0968 54.8127 30.6812C54.7498 30.2656 54.5356 29.6476 54.3626 28.7679C53.7018 26.0369 53.6032 23.2001 54.0726 20.4301C54.4454 18.27 55.1469 16.1798 56.1523 14.2325C57.4138 11.8194 59.1595 9.69302 61.2806 7.98626C63.4121 6.3466 65.8517 5.153 68.4545 4.47624C71.1078 3.79068 73.8604 3.57453 76.5887 3.83728C78.2702 3.99118 79.9311 4.32137 81.5437 4.82255L81.6431 4.84939C80.5274 5.32089 79.4422 5.86178 78.394 6.46861C75.5381 8.1072 73.0264 10.283 70.9969 12.8764C68.9222 15.5128 67.5131 18.6108 66.889 21.908C66.3047 25.2252 66.5637 28.6364 67.6418 31.8279C68.7101 35.0745 70.6992 37.9406 73.3669 40.0766C74.0509 40.6088 74.7795 41.081 75.5446 41.4876L76.7324 42.0301C76.9273 42.1271 77.1279 42.2122 77.3333 42.2849L77.9554 42.4768C78.1763 42.5349 78.394 42.6015 78.6114 42.668C79.1763 48.9906 81.6526 54.9922 85.7104 59.8736C86.7736 61.1283 87.9498 62.2826 89.2242 63.3219C89.7509 63.7432 90.2997 64.1348 90.8634 64.5135C90.5756 65.913 90.3682 67.3277 90.2421 68.7506C90.0845 70.7318 90.0949 72.7227 90.274 74.7021C90.6141 78.7149 91.7729 82.6153 93.679 86.1632C95.6434 89.7265 98.4303 92.769 101.807 95.037C103.471 96.1655 105.247 97.1175 107.107 97.8774C108.961 98.6208 110.879 99.1937 112.837 99.5892C116.743 100.344 120.749 100.418 124.678 99.8052C128.6 99.1998 132.391 97.932 135.888 96.0565C139.347 94.1809 142.524 91.8253 145.323 89.059C150.889 83.5414 155.085 76.7962 157.577 69.3637C158.234 67.4313 158.782 65.4635 159.218 63.4694C163.641 71.7866 165.45 81.4201 165.072 90.9029C164.882 95.6907 164.158 100.442 162.913 105.068C162.604 106.228 162.233 107.386 161.888 108.507C161.542 109.628 161.058 110.758 160.648 111.885C160.237 113.013 159.736 114.103 159.239 115.184C158.741 116.266 158.278 117.381 157.685 118.427C148.712 135.689 133.372 148.775 114.916 154.911C113.794 155.333 112.623 155.606 111.469 155.919C110.315 156.232 109.159 156.573 107.977 156.769C106.795 156.964 105.627 157.242 104.445 157.438L100.877 157.891C96.0965 158.362 91.2823 158.383 86.4974 157.955C81.7096 157.464 76.9735 156.556 72.3432 155.242C67.7382 153.863 63.2673 152.07 58.9853 149.885C54.2191 147.443 49.7506 144.458 45.6685 140.991C45.1448 140.528 44.6405 140.145 44.1379 139.7L42.6844 138.316L41.2333 136.939C40.7385 136.463 40.3018 135.964 39.8302 135.479C38.2046 133.728 36.6953 131.873 35.3118 129.925C36.0237 130.005 36.7945 130.047 37.5443 130.071C40.6683 130.163 43.7878 129.779 46.7955 128.93C49.9017 128.053 52.8175 126.606 55.3946 124.662L57.2608 123.097L58.1471 122.202C58.4363 121.899 58.6938 121.569 58.9702 121.251C60.0104 119.956 60.8922 118.541 61.5964 117.036C62.9493 114.082 63.6833 110.883 63.7527 107.634C63.8463 104.464 63.3332 101.304 62.2406 98.3263C61.1638 95.3461 59.3921 92.6656 57.0727 90.5069C56.248 89.7648 55.3493 89.1089 54.3914 88.5495C54.6644 88.0428 54.9349 87.5305 55.2017 86.9924C57.1597 83.1249 58.6083 79.02 59.5113 74.7798C60.3873 70.6546 60.6588 66.4237 60.3169 62.2197C60.1875 60.7115 59.9764 59.2109 59.6845 57.7254C59.3626 56.244 58.965 54.7802 58.4928 53.3396C57.4735 50.461 56.0559 47.7396 54.281 45.2546C50.7412 40.2538 45.9257 36.2938 40.337 33.7872C38.9302 33.1618 37.4754 32.6512 35.9865 32.2604C34.487 31.8455 32.9527 31.5689 31.4027 31.4344C28.2744 31.1513 25.121 31.4766 22.1169 32.3923C19.1248 33.3115 16.326 34.7702 13.8586 36.6964C13.232 37.1519 12.6643 37.685 12.073 38.1939C11.482 38.7027 10.952 39.261 10.4372 39.8402C9.39232 40.969 8.43574 42.1768 7.57612 43.4527C4.1202 48.5197 2.10836 54.3225 0.999208 60.174C-0.0816218 66.0597 -0.274968 72.0746 0.425572 78.0185C0.810836 81.6119 1.51104 85.1644 2.51817 88.6352C1.91951 91.2447 1.6909 93.9254 1.83906 96.5985C2.01203 99.6995 2.64883 102.757 3.72831 105.669C5.89589 111.424 9.43321 116.563 14.0337 120.642L15.5561 121.929C16.0897 122.334 16.5841 122.775 17.1699 123.159L18.8868 124.325C19.4635 124.719 20.0883 125.032 20.6867 125.397C23.2016 126.811 25.8767 127.92 28.6547 128.698C28.9634 128.788 29.2823 128.854 29.6002 128.933C29.6289 129.003 29.6601 129.078 29.6888 129.148C30.2533 130.022 30.776 130.927 31.3879 131.769C33.7441 135.198 36.4688 138.359 39.5132 141.194C40.2728 141.9 40.9917 142.622 41.7909 143.325L44.1883 145.318C44.5894 145.648 44.9812 145.989 45.3973 146.307L46.6593 147.226L49.1971 149.066C52.6809 151.398 56.3415 153.454 60.1453 155.214C75.6856 162.479 93.1783 164.438 109.935 160.79C114.118 159.817 118.209 158.486 122.163 156.812C124.167 156.039 126.061 155.02 127.989 154.082C128.955 153.609 129.857 153.032 130.796 152.509C131.734 151.986 132.675 151.469 133.555 150.855C144.45 143.911 153.507 134.437 159.955 123.238L161.468 120.405C161.711 119.925 161.983 119.466 162.233 118.969L162.893 117.508C163.329 116.526 163.779 115.559 164.202 114.576L165.322 111.567C168.247 103.523 169.616 94.9959 169.354 86.4395C169.17 77.3491 166.784 68.4382 162.401 60.4714L160.624 57.5634L160.212 56.9929C160.537 53.4559 160.508 49.8953 160.124 46.3639C159.309 38.5587 156.56 31.0792 152.124 24.605ZM7.27435 90.7014C7.054 90.1674 6.87425 89.6166 6.68872 89.0681C7.21367 86.8993 8.02211 84.809 9.09341 82.8519C10.3254 80.6242 11.9209 78.6184 13.8138 76.9169C14.2777 76.4945 14.7911 76.1262 15.2843 75.7257C15.7776 75.3251 16.3392 74.9914 16.8954 74.6941C17.4516 74.3969 18.003 74.0876 18.5711 73.8193L20.3115 73.1012C25.2075 71.594 30.4814 71.8875 35.1814 73.929C37.5162 74.9197 39.6389 76.35 41.4343 78.142C43.2181 79.9011 44.5697 82.0505 45.3828 84.4202C45.5719 85.0128 45.7277 85.6153 45.8489 86.2251C43.9768 86.2458 42.1187 86.5541 40.3402 87.1394C37.866 87.9775 35.5612 89.2506 33.5342 90.8988C30.1334 93.6691 27.4913 97.2579 25.8551 101.329C25.2047 102.954 24.7325 104.646 24.4468 106.373C24.389 106.743 24.3323 107.1 24.3002 107.466C23.2281 107.174 22.1825 106.792 21.1745 106.324C17.9468 104.817 15.0756 102.642 12.7506 99.9426C10.424 97.1882 8.5733 94.0651 7.27435 90.7014ZM45.4433 94.653C44.5311 98.0224 42.7575 101.096 40.2964 103.57C37.8843 106.038 34.7087 107.619 31.285 108.056C30.3468 108.167 29.4013 108.203 28.4573 108.162C28.4823 107.894 28.5097 107.631 28.5395 107.375C28.9177 104.885 29.757 102.489 31.0141 100.307C33.5022 95.9387 37.5718 92.3099 42.2825 90.9912C43.5267 90.641 44.8144 90.4711 46.1069 90.4864C46.0345 91.8952 45.8121 93.292 45.4433 94.653ZM52.6147 92.4207C53.6158 93.0755 54.5219 93.8654 55.3073 94.7675C61.6819 102.171 60.8831 115.686 52.6889 121.445C48.5253 124.43 43.5049 125.982 38.3825 125.866C36.3747 125.856 34.3719 125.662 32.3992 125.285C30.6211 122.086 29.3762 118.619 28.7136 115.02C28.5425 114.046 28.4292 113.063 28.3746 112.076C30.9252 112.205 33.4761 111.827 35.879 110.963C38.9249 109.823 41.6517 107.966 43.8291 105.549C45.9719 103.192 47.6255 100.432 48.6931 97.4288C48.807 97.0964 48.9188 96.7582 49.0247 96.4224C49.2849 96.1317 49.5517 95.8245 49.8344 95.4564C50.6915 94.4125 51.4874 93.3201 52.2181 92.1839C52.3495 92.2723 52.4994 92.3393 52.6147 92.4207ZM3.89899 69.0449C4.01649 65.3729 4.51776 61.7238 5.39434 58.1565C6.23326 54.6172 7.5492 51.2084 9.30611 48.024C11.0234 44.8854 13.3405 42.1152 16.1256 39.8708C18.8835 37.6872 22.1299 36.2056 25.5866 35.5529C29.0531 34.9622 32.6112 35.2082 35.9643 36.2707C39.3631 37.3438 42.5299 39.0467 45.2998 41.2907C48.0884 43.5194 50.4702 46.2139 52.3404 49.2549C53.2695 50.7664 54.0553 52.3618 54.6865 54.0203C55.2942 55.6926 55.7631 57.4124 56.0882 59.1617C56.6125 61.9515 56.8095 64.7929 56.676 67.628C56.6429 68.3211 56.6619 68.9927 56.5627 69.6244L56.3546 71.5715C56.2799 72.2137 56.1506 72.8379 56.0582 73.4534C55.9662 74.0689 55.8807 74.668 55.7076 75.269C54.8163 79.4025 53.4981 83.4314 51.7746 87.2921C51.1665 87.0549 50.5433 86.858 49.9092 86.7031C49.5401 83.8972 48.5636 81.2053 47.0484 78.8149C45.3101 76.1073 42.9989 73.8141 40.278 72.0979C37.6039 70.3998 34.6376 69.2144 31.5306 68.6015C28.4244 67.973 25.2278 67.9343 22.1082 68.4878C21.3234 68.619 20.5478 68.8009 19.7865 69.0314C19.0125 69.2396 18.2544 69.5027 17.5176 69.8181C16.7672 70.1052 16.0403 70.4507 15.3436 70.8509C14.9915 71.0507 14.6168 71.212 14.2906 71.4416L13.3002 72.1017C10.7014 73.9124 8.46817 76.1984 6.71808 78.8392C6.05093 79.8278 5.44902 80.8588 4.91631 81.926C4.7987 81.2954 4.68677 80.6621 4.60331 80.0649C4.03138 76.4247 3.79721 72.7394 3.90379 69.0565L3.89899 69.0449ZM23.4304 122.125C18.8279 119.649 14.8469 116.161 11.7871 111.923C8.68393 107.749 6.72303 102.837 6.09822 97.674C6.07995 97.4981 6.06998 97.3258 6.05752 97.1475C7.19969 99.2383 8.57902 101.19 10.1684 102.964C12.246 105.292 14.6866 107.267 17.3953 108.814C18.7608 109.594 20.1943 110.248 21.6781 110.769C22.412 111.051 23.1892 111.24 23.9503 111.455L24.0835 111.482C24.2254 114.583 24.8047 117.649 25.8041 120.588C26.1478 121.635 26.5321 122.666 26.9629 123.677C25.7576 123.225 24.5783 122.707 23.4304 122.125ZM95.5621 6.53142C96.467 6.66235 97.3626 6.85335 98.2421 7.10355L99.564 7.54309L100.224 7.75989L100.866 8.03177L101.799 8.43465C100.332 9.0388 98.9062 9.73821 97.5305 10.5287C97.1424 10.7568 96.7619 11.0022 96.3822 11.2335C95.0962 9.40575 93.586 7.7466 91.8868 6.29519C93.1163 6.2722 94.3456 6.35127 95.5621 6.53142ZM96.8053 27.5119C96.462 29.2609 95.7814 30.9259 94.8019 32.4143C93.8716 33.7412 92.7657 34.9355 91.5145 35.9649C89.0035 37.9734 85.9278 39.1475 82.7169 39.3234C82.7505 38.4121 82.8407 37.5035 82.9863 36.6034C83.0467 36.1575 83.1574 35.7177 83.2398 35.276C83.3222 34.8344 83.4925 34.3907 83.6086 33.9487L83.995 32.6141C84.1473 32.1775 84.3188 31.7538 84.4911 31.3159C85.8563 27.8438 87.8122 24.6348 90.2726 21.8313C91.8298 20.0497 93.5589 18.4261 95.435 16.9841C96.9715 20.2669 97.4503 23.9461 96.8053 27.5119ZM72.5159 33.5055C70.6085 30.2699 69.8839 26.4722 70.4662 22.762C70.762 20.9785 71.3438 19.2544 72.1885 17.6563C73.0197 16.1062 74.0625 14.6791 75.2863 13.4162C78.3863 10.2907 82.2908 8.08483 86.5673 7.04295L86.6376 7.08198C89.2475 8.69966 91.508 10.8225 93.2873 13.3256C92.0775 14.2243 90.9147 15.1849 89.8037 16.2032C87.478 18.417 85.4234 20.8997 83.6833 23.5991L82.445 25.6657L81.3791 27.8377L81.1147 28.3814L80.8937 28.9484L80.4574 30.0793L80.0269 31.2079L79.6866 32.3743C79.1971 33.9345 78.856 35.5377 78.6684 37.1622C78.6144 37.6736 78.5805 38.1836 78.5548 38.6969C78.1696 38.5366 77.7872 38.3342 77.4152 38.189C77.2085 38.1 77.01 37.9935 76.8219 37.8699C76.6305 37.7519 76.43 37.6442 76.2421 37.5181C74.7272 36.4627 73.4566 35.0943 72.5159 33.5055ZM82.864 43.1348L83.0887 43.1371C86.4604 42.9021 89.7126 41.7928 92.5246 39.9176C95.3365 38.0428 97.6117 35.467 99.1253 32.4443C99.5025 31.6814 99.813 30.8871 100.054 30.071C100.17 29.6627 100.331 29.2776 100.402 28.8406L100.632 27.6045C100.713 27.19 100.767 26.7706 100.793 26.3492L100.882 25.1028L100.861 23.8485L100.847 23.2223C100.828 23.0127 100.798 22.8076 100.781 22.604C100.502 19.9099 99.7461 17.2866 98.5492 14.8568C101.052 13.3111 103.737 12.0804 106.542 11.1923L106.923 11.4903L108.037 12.3484L109.096 13.2699C109.454 13.5744 109.794 13.899 110.115 14.2422L111.099 15.2624C111.433 15.5936 111.712 15.9744 112.022 16.3289C112.331 16.6837 112.643 17.0442 112.916 17.4271L113.756 18.5752C115.949 21.6783 117.65 25.1008 118.798 28.7225C119.377 30.5277 119.827 32.3715 120.145 34.2399C120.324 35.4252 120.436 36.6197 120.48 37.8174C119.5 37.9093 118.529 38.0247 117.56 38.1937C113.227 38.925 109.077 40.4872 105.338 42.7948C101.609 45.1537 98.4365 48.2936 96.0391 51.9984C94.9399 53.6562 93.9936 55.4109 93.2122 57.2405C92.7916 58.2291 92.4043 59.2315 92.06 60.2567C89.4763 58.151 87.3559 55.5332 85.8328 52.5683C84.2761 49.6286 83.2693 46.4298 82.8615 43.1288L82.864 43.1348ZM120.332 42.0493C120.057 45.0595 119.356 48.0153 118.252 50.8286C117.58 52.5536 116.723 54.2009 115.697 55.7415C114.709 57.261 113.518 58.6388 112.159 59.837C109.526 62.2121 106.168 63.6285 102.629 63.8572C100.201 63.9789 97.7797 63.5012 95.5785 62.4661C96.704 58.6614 98.5574 55.112 101.036 52.0152C102.389 50.3399 103.941 48.8371 105.659 47.54C107.395 46.2556 109.277 45.183 111.265 44.3437C114.157 43.1329 117.213 42.3596 120.332 42.0493ZM152.207 71.7492C150.469 75.8228 148.149 79.622 145.319 83.0281C142.532 86.4244 139.191 89.3257 135.438 91.6092C131.724 93.8679 127.581 95.3297 123.272 95.902C118.974 96.4594 114.607 96.0757 110.472 94.7774C108.437 94.1164 106.492 93.2052 104.682 92.0646C102.878 90.936 101.25 89.5474 99.8516 87.9436C97.0838 84.675 95.2664 80.7083 94.598 76.4775C94.0501 73.1701 94.057 69.7947 94.6185 66.49C97.3712 67.6188 100.353 68.0767 103.316 67.8263C106.689 67.5285 109.926 66.361 112.713 64.4383C115.424 62.5272 117.714 60.0797 119.441 57.2468C122.247 52.5663 123.898 47.2834 124.257 41.8365L124.87 41.8417C129.575 42.0033 134.214 43.0011 138.571 44.7887C142.944 46.5592 146.981 49.0658 150.509 52.1995C152.265 53.7571 153.867 55.4803 155.293 57.3449C155.481 57.6203 155.666 57.8702 155.873 58.1584C155.836 58.4317 155.812 58.7001 155.775 58.9734C155.177 63.3759 153.976 67.6746 152.207 71.7492ZM155.831 45.7985C156.1 47.8602 156.236 49.9372 156.238 52.0163C155.516 51.2319 154.763 50.478 153.981 49.7546C150.686 46.7233 146.965 44.1916 142.937 42.2399C139.028 40.3086 134.858 38.9602 130.559 38.2375C128.506 37.9084 126.432 37.7314 124.352 37.7074C124.303 36.474 124.183 35.2441 123.994 34.0241C123.739 32.4445 123.397 30.8803 122.97 29.3382C122.109 26.2624 120.903 23.2939 119.373 20.4896C117.267 16.5833 114.495 13.0739 111.184 10.1194C114.808 9.55971 118.497 9.5686 122.118 10.1456C126.432 10.8465 130.596 12.2783 134.429 14.3797C136.361 15.4189 138.212 16.6037 139.965 17.9239C140.8 18.6323 141.669 19.2587 142.486 20.0359C143.302 20.8131 144.113 21.5112 144.833 22.3348C147.868 25.5018 150.352 29.1538 152.183 33.1399C154 37.1537 155.226 41.4099 155.821 45.7753L155.831 45.7985Z" fill="#A278E7"/>
</svg>
