<svg width="166" height="165" viewBox="0 0 166 165" fill="none" xmlns="http://www.w3.org/2000/svg">
<path d="M133.136 38.2533C129.729 33.3926 125.13 29.4899 119.782 26.92C117.604 25.8759 115.317 25.0765 112.963 24.5365C112.372 24.4211 111.783 24.2635 111.183 24.1773L109.386 23.9276C108.181 23.8031 106.969 23.7526 105.757 23.7766C103.396 23.8012 101.048 24.1378 98.7754 24.7778L98.5333 24.6261C96.4096 23.3678 94.0919 22.4708 91.6748 21.9717C89.2337 21.5154 86.729 21.5196 84.29 21.9839L84.0782 22.0302C83.8239 21.8954 83.5654 21.7659 83.3019 21.6418C79.6658 19.9372 75.6141 19.324 71.6376 19.8765C67.644 20.3867 63.9423 22.238 61.1384 25.1276C58.449 28.0137 56.852 31.7495 56.6233 35.6895C56.5944 35.8811 56.5983 36.3005 56.596 36.5068C56.5944 36.8259 56.5842 37.1126 56.5969 37.3795C56.6095 37.6465 56.642 37.8744 56.6639 38.1016C56.6859 38.3288 56.7107 38.5136 56.7321 38.6896C56.7533 38.8658 56.8061 39.0186 56.8385 39.1592C56.8981 39.5118 57.0174 39.8516 57.1915 40.1638C57.4668 40.4296 57.6868 40.7472 57.8387 41.0985C58.114 41.6908 58.4578 42.2486 58.8633 42.7605C59.1571 43.1117 59.359 43.2903 59.4773 43.3031C59.5955 43.316 59.6237 43.1605 59.5762 42.8463C59.5286 42.5322 59.3668 42.065 59.236 41.4001C58.7364 39.3356 58.6619 37.1912 59.0168 35.0973C59.2986 33.4645 59.8288 31.8845 60.5888 30.4125C61.5424 28.5884 62.862 26.9809 64.4654 25.6908C66.0766 24.4513 67.9208 23.5491 69.8883 23.0375C71.894 22.5192 73.9748 22.3558 76.0372 22.5545C77.3082 22.6708 78.5637 22.9204 79.7827 23.2993L79.8579 23.3195C79.0145 23.676 78.1941 24.0848 77.4018 24.5435C75.243 25.7822 73.3443 27.4269 71.8102 29.3873C70.2419 31.3802 69.1767 33.7221 68.7049 36.2145C68.2633 38.722 68.459 41.3006 69.274 43.7132C70.0815 46.1674 71.5852 48.3339 73.6017 49.9485C74.1188 50.3508 74.6695 50.7078 75.2479 51.0151L76.1458 51.4253C76.2931 51.4986 76.4448 51.5629 76.6 51.6179L77.0702 51.7629C77.2372 51.8068 77.4018 51.8572 77.5661 51.9074C77.9932 56.6868 79.865 61.2235 82.9325 64.9135C83.7361 65.862 84.6252 66.7345 85.5886 67.5202C85.9868 67.8386 86.4016 68.1346 86.8277 68.4209C86.6101 69.4788 86.4534 70.5482 86.358 71.6239C86.2389 73.1214 86.2468 74.6265 86.3822 76.1227C86.6392 79.156 87.5152 82.1045 88.9561 84.7864C90.441 87.48 92.5477 89.7798 95.1005 91.4943C96.3578 92.3474 97.7005 93.067 99.1067 93.6414C100.508 94.2034 101.958 94.6364 103.438 94.9354C106.39 95.5063 109.419 95.5616 112.389 95.0986C115.354 94.641 118.219 93.6827 120.863 92.2649C123.478 90.8472 125.879 89.0664 127.995 86.9754C132.202 82.8045 135.374 77.7056 137.258 72.0873C137.755 70.6266 138.169 69.139 138.499 67.6316C141.842 73.9188 143.21 81.201 142.924 88.3692C142.78 91.9884 142.232 95.5798 141.291 99.0769C141.058 99.9538 140.778 100.829 140.517 101.677C140.255 102.524 139.889 103.378 139.579 104.23C139.269 105.083 138.89 105.906 138.514 106.724C138.138 107.542 137.788 108.384 137.339 109.175C130.557 122.224 118.961 132.116 105.009 136.754C104.161 137.074 103.276 137.279 102.404 137.516C101.532 137.753 100.658 138.011 99.7643 138.159C98.8707 138.306 97.9876 138.517 97.094 138.664L94.3973 139.007C90.7835 139.363 87.1443 139.379 83.5273 139.055C79.9082 138.684 76.328 137.998 72.8278 137.005C69.3469 135.962 65.9672 134.607 62.7303 132.955C59.1275 131.109 55.7497 128.853 52.6639 126.232C52.268 125.882 51.8868 125.592 51.5069 125.256L50.4082 124.21L49.3112 123.169C48.9372 122.809 48.6071 122.432 48.2506 122.066C47.0218 120.742 45.8809 119.34 44.835 117.867C45.3732 117.928 45.9559 117.959 46.5226 117.977C48.8841 118.047 51.2423 117.756 53.5159 117.115C55.8638 116.452 58.068 115.358 60.016 113.889L61.4268 112.706L62.0967 112.029C62.3153 111.8 62.51 111.55 62.7189 111.31C63.5052 110.331 64.1718 109.261 64.7041 108.124C65.7268 105.891 66.2817 103.472 66.3341 101.017C66.4049 98.6202 66.0171 96.232 65.1911 93.9807C64.3771 91.7279 63.0379 89.7017 61.2846 88.0698C60.6612 87.5089 59.9819 87.0131 59.2577 86.5902C59.4641 86.2072 59.6685 85.8199 59.8702 85.4132C61.3504 82.4897 62.4454 79.3867 63.1279 76.1814C63.7902 73.0631 63.9954 69.8648 63.7369 66.687C63.6391 65.5469 63.4795 64.4126 63.2589 63.2897C63.0155 62.1698 62.715 61.0633 62.3581 59.9743C61.5876 57.7984 60.516 55.7412 59.1742 53.8627C56.4984 50.0825 52.8584 47.089 48.6337 45.1942C47.5703 44.7215 46.4705 44.3355 45.3451 44.0401C44.2115 43.7265 43.0518 43.5174 41.8801 43.4157C39.5153 43.2017 37.1316 43.4476 34.8608 44.1398C32.5989 44.8347 30.4833 45.9373 28.6181 47.3934C28.1444 47.7377 27.7153 48.1407 27.2684 48.5254C26.8216 48.91 26.421 49.332 26.0318 49.7698C25.242 50.6231 24.5189 51.5361 23.8691 52.5006C21.2567 56.3309 19.7359 60.7173 18.8974 65.1406C18.0804 69.5897 17.9343 74.1365 18.4638 78.6297C18.755 81.346 19.2843 84.0314 20.0457 86.6551C19.5931 88.6276 19.4203 90.654 19.5323 92.6747C19.663 95.0188 20.1444 97.3301 20.9604 99.5315C22.5989 103.881 25.2729 107.766 28.7505 110.85L29.9013 111.823C30.3047 112.129 30.6784 112.462 31.1212 112.752L32.4191 113.634C32.855 113.932 33.3273 114.168 33.7796 114.444C35.6807 115.513 37.7029 116.351 39.8028 116.94C40.0361 117.008 40.2772 117.057 40.5175 117.117C40.5392 117.17 40.5628 117.227 40.5845 117.279C41.0112 117.94 41.4064 118.625 41.8689 119.261C43.65 121.853 45.7096 124.242 48.011 126.385C48.5851 126.919 49.1286 127.465 49.7328 127.996L51.5449 129.503C51.8482 129.753 52.1443 130.01 52.4589 130.25L53.4129 130.945L55.3313 132.336C57.9647 134.099 60.7318 135.653 63.6072 136.983C75.3544 142.475 88.5776 143.956 101.244 141.199C104.406 140.463 107.499 139.457 110.488 138.191C112.002 137.607 113.434 136.837 114.892 136.128C115.622 135.77 116.304 135.334 117.013 134.939C117.723 134.543 118.434 134.153 119.099 133.688C127.335 128.439 134.181 121.277 139.055 112.812L140.199 110.671C140.383 110.307 140.588 109.961 140.777 109.585L141.276 108.48C141.606 107.738 141.946 107.007 142.266 106.265L143.113 103.989C145.324 97.9092 146.358 91.4632 146.161 84.9953C146.021 78.1236 144.218 71.3877 140.905 65.3654L139.561 63.1671L139.25 62.736C139.496 60.0623 139.473 57.3707 139.183 54.7012C138.568 48.8011 136.489 43.1472 133.136 38.2533ZM23.6409 88.2169C23.4744 87.8132 23.3385 87.3968 23.1983 86.9823C23.5951 85.3428 24.2062 83.7627 25.016 82.2833C25.9473 80.5993 27.1534 79.0831 28.5842 77.7969C28.9349 77.4776 29.323 77.1992 29.6958 76.8964C30.0687 76.5937 30.4932 76.3414 30.9137 76.1167C31.3342 75.892 31.7509 75.6582 32.1804 75.4554L33.496 74.9126C37.197 73.7732 41.1836 73.995 44.7365 75.5383C46.5014 76.2872 48.106 77.3684 49.4632 78.723C50.8116 80.0528 51.8333 81.6775 52.4479 83.4688C52.5909 83.9167 52.7087 84.3722 52.8003 84.8332C51.3851 84.8489 49.9806 85.0819 48.6361 85.5243C46.7658 86.1578 45.0236 87.1202 43.4914 88.3661C40.9206 90.4603 38.9233 93.1731 37.6865 96.2505C37.1949 97.4792 36.8379 98.7576 36.622 100.064C36.5783 100.343 36.5354 100.613 36.5112 100.89C35.7007 100.669 34.9103 100.38 34.1484 100.026C31.7085 98.8873 29.5381 97.2433 27.7805 95.2025C26.0218 93.1204 24.6229 90.7596 23.6409 88.2169ZM52.4936 91.204C51.8041 93.751 50.4634 96.0742 48.603 97.9444C46.7797 99.8105 44.3791 101.005 41.7911 101.335C41.0819 101.42 40.3671 101.447 39.6536 101.416C39.6725 101.213 39.6932 101.015 39.7158 100.82C40.0016 98.9387 40.636 97.127 41.5863 95.4783C43.4671 92.1759 46.5434 89.4328 50.1043 88.436C51.0449 88.1712 52.0183 88.0428 52.9953 88.0544C52.9406 89.1193 52.7725 90.1752 52.4936 91.204ZM57.9146 89.5166C58.6714 90.0115 59.3564 90.6086 59.9501 91.2906C64.7688 96.8871 64.1649 107.103 57.9707 111.456C54.8234 113.713 51.0284 114.886 47.1563 114.799C45.6385 114.791 44.1245 114.644 42.6334 114.359C41.2893 111.942 40.3482 109.32 39.8473 106.6C39.718 105.864 39.6323 105.12 39.5911 104.374C41.5191 104.472 43.4474 104.186 45.2638 103.533C47.5663 102.671 49.6275 101.268 51.2734 99.4409C52.8933 97.6586 54.1433 95.5721 54.9502 93.3023C55.0363 93.051 55.1209 92.7953 55.2009 92.5416C55.3976 92.3218 55.5993 92.0896 55.813 91.8113C56.4609 91.0222 57.0625 90.1964 57.6149 89.3376C57.7142 89.4043 57.8275 89.4551 57.9146 89.5166ZM21.0894 71.8463C21.1783 69.0706 21.5572 66.3121 22.2198 63.6155C22.854 60.9401 23.8487 58.3633 25.1768 55.9561C26.475 53.5836 28.2265 51.4895 30.3318 49.793C32.4166 48.1423 34.8706 47.0224 37.4836 46.5289C40.104 46.0825 42.7936 46.2684 45.3283 47.0716C47.8975 47.8827 50.2914 49.17 52.3852 50.8663C54.4931 52.551 56.2936 54.5879 57.7073 56.8866C58.4097 58.0292 59.0037 59.2352 59.4808 60.4889C59.9401 61.753 60.2946 63.053 60.5404 64.3754C60.9367 66.4842 61.0857 68.6321 60.9847 70.7752C60.9596 71.2992 60.9741 71.8068 60.899 72.2843L60.7418 73.7562C60.6853 74.2417 60.5875 74.7135 60.5177 75.1788C60.4481 75.644 60.3835 76.0969 60.2527 76.5513C59.5789 79.6758 58.5825 82.7213 57.2797 85.6397C56.8199 85.4604 56.3489 85.3116 55.8696 85.1945C55.5905 83.0735 54.8524 81.0386 53.707 79.2317C52.393 77.1849 50.6459 75.4514 48.5891 74.1541C46.5677 72.8705 44.3254 71.9744 41.9767 71.5111C39.6287 71.036 37.2124 71.0067 34.8542 71.4252C34.2609 71.5244 33.6747 71.6619 33.0991 71.8361C32.5141 71.9935 31.941 72.1923 31.3841 72.4307C30.8168 72.6478 30.2673 72.909 29.7407 73.2115C29.4745 73.3625 29.1913 73.4844 28.9447 73.658L28.196 74.157C26.2315 75.5257 24.5434 77.2538 23.2205 79.25C22.7161 79.9973 22.2611 80.7767 21.8585 81.5834C21.7696 81.1067 21.6849 80.628 21.6218 80.1765C21.1895 77.4248 21.0125 74.6391 21.0931 71.8551L21.0894 71.8463ZM35.8536 111.97C32.3745 110.099 29.3652 107.462 27.0522 104.258C24.7065 101.103 23.2242 97.3907 22.7519 93.4876C22.7381 93.3547 22.7305 93.2244 22.7211 93.0897C23.5845 94.6701 24.6272 96.1454 25.8286 97.4868C27.3991 99.2462 29.244 100.739 31.2916 101.909C32.3238 102.498 33.4074 102.993 34.529 103.387C35.0838 103.599 35.6713 103.742 36.2466 103.905L36.3473 103.925C36.4546 106.27 36.8925 108.587 37.648 110.809C37.9078 111.6 38.1983 112.379 38.5239 113.144C37.6128 112.802 36.7214 112.41 35.8536 111.97ZM90.3795 24.591C91.0636 24.69 91.7406 24.8344 92.4054 25.0235L93.4047 25.3558L93.9035 25.5197L94.3886 25.7252L95.0941 26.0297C93.9851 26.4864 92.9074 27.0151 91.8675 27.6127C91.5741 27.785 91.2865 27.9705 90.9994 28.1455C90.0273 26.7638 88.8858 25.5096 87.6013 24.4125C88.5307 24.3951 89.4599 24.4548 90.3795 24.591ZM91.3193 40.4507C91.0597 41.7727 90.5453 43.0313 89.8049 44.1565C89.1017 45.1595 88.2657 46.0623 87.3199 46.8404C85.4217 48.3587 83.0967 49.2462 80.6696 49.3792C80.695 48.6903 80.7631 48.0035 80.8732 47.3231C80.9188 46.986 81.0026 46.6536 81.0649 46.3197C81.1272 45.9858 81.2558 45.6504 81.3436 45.3163L81.6357 44.3075C81.7508 43.9774 81.8805 43.6572 82.0107 43.3262C83.0427 40.7015 84.5212 38.2757 86.3811 36.1566C87.5582 34.8098 88.8652 33.5825 90.2834 32.4924C91.4449 34.9739 91.8068 37.7552 91.3193 40.4507ZM72.9584 44.9813C71.5166 42.5354 70.9689 39.6647 71.409 36.8601C71.6326 35.5119 72.0724 34.2086 72.7109 33.0005C73.3392 31.8288 74.1275 30.75 75.0526 29.7954C77.3959 27.4328 80.3475 25.7653 83.5802 24.9777L83.6333 25.0072C85.6062 26.23 87.315 27.8347 88.66 29.7269C87.7455 30.4063 86.8665 31.1324 86.0266 31.9022C84.2685 33.5756 82.7154 35.4523 81.4001 37.4929L80.464 39.055L79.6583 40.6969L79.4584 41.1079L79.2914 41.5365L78.9616 42.3914L78.6361 43.2445L78.3789 44.1262C78.0089 45.3056 77.751 46.5175 77.6092 47.7455C77.5684 48.1321 77.5427 48.5176 77.5234 48.9056C77.2321 48.7844 76.9431 48.6314 76.6619 48.5217C76.5056 48.4544 76.3556 48.3739 76.2135 48.2805C76.0687 48.1912 75.9172 48.1099 75.7752 48.0145C74.63 47.2167 73.6695 46.1823 72.9584 44.9813ZM80.7807 52.2603L80.9507 52.262C83.4994 52.0844 85.9578 51.2458 88.0834 49.8283C90.209 48.4111 91.9289 46.4641 93.073 44.1791C93.3582 43.6024 93.5929 43.002 93.7748 42.3851C93.8631 42.0764 93.9842 41.7853 94.0379 41.455L94.2116 40.5206C94.2733 40.2073 94.3141 39.8902 94.3334 39.5717L94.4012 38.6295L94.3848 37.6814L94.3742 37.208C94.3601 37.0496 94.3372 36.8945 94.3249 36.7406C94.1138 34.7041 93.5423 32.7211 92.6375 30.8844C94.5298 29.7159 96.5591 28.7856 98.6794 28.1143L98.9671 28.3396L99.8095 28.9882L100.61 29.6848C100.881 29.915 101.138 30.1603 101.38 30.4198L102.125 31.191C102.377 31.4413 102.588 31.7292 102.822 31.9972C103.056 32.2653 103.291 32.5379 103.498 32.8273L104.133 33.6952C105.79 36.0409 107.076 38.628 107.944 41.3657C108.381 42.7304 108.722 44.1241 108.962 45.5365C109.098 46.4324 109.182 47.3354 109.216 48.2408C108.475 48.3103 107.741 48.3975 107.008 48.5252C103.733 49.078 100.596 50.2589 97.7692 52.0033C94.9505 53.7864 92.5524 56.1599 90.7401 58.9605C89.9092 60.2137 89.1939 61.5401 88.6032 62.9231C88.2853 63.6704 87.9925 64.4281 87.7322 65.2031C85.7791 63.6113 84.1763 61.6325 83.025 59.3913C81.8482 57.1691 81.0872 54.751 80.7789 52.2558L80.7807 52.2603ZM109.104 51.4398C108.896 53.7152 108.366 55.9496 107.531 58.0762C107.023 59.3802 106.375 60.6254 105.6 61.79C104.853 62.9386 103.953 63.9801 102.925 64.8858C100.935 66.6812 98.3968 67.7519 95.7219 67.9248C93.8861 68.0168 92.0558 67.6557 90.3919 66.8732C91.2427 63.9972 92.6438 61.3142 94.5174 58.9732C95.5398 57.7068 96.7134 56.5708 98.0122 55.5903C99.3241 54.6194 100.747 53.8085 102.25 53.1741C104.436 52.2589 106.746 51.6743 109.104 51.4398ZM133.199 73.8905C131.885 76.9698 130.131 79.8417 127.992 82.4165C125.885 84.9838 123.36 87.177 120.522 88.9031C117.715 90.6105 114.583 91.7155 111.326 92.1482C108.077 92.5695 104.776 92.2795 101.65 91.298C100.112 90.7984 98.6418 90.1095 97.2731 89.2474C95.9098 88.3943 94.6794 87.3446 93.6221 86.1322C91.5298 83.6614 90.156 80.6629 89.6508 77.4647C89.2366 74.9646 89.2418 72.4131 89.6663 69.915C91.7471 70.7683 94.0007 71.1144 96.2412 70.9251C98.7907 70.7 101.238 69.8175 103.344 68.364C105.394 66.9194 107.124 65.0693 108.43 62.9279C110.551 59.3898 111.799 55.3963 112.07 51.2789L112.534 51.2828C116.091 51.405 119.598 52.1593 122.891 53.5105C126.196 54.8489 129.248 56.7437 131.915 59.1125C133.242 60.2899 134.453 61.5925 135.531 63.002C135.674 63.2102 135.813 63.3991 135.97 63.617C135.942 63.8236 135.923 64.0264 135.896 64.233C135.443 67.561 134.536 70.8104 133.199 73.8905ZM135.938 54.2739C136.142 55.8323 136.244 57.4024 136.246 58.974C135.7 58.3811 135.131 57.8112 134.539 57.2644C132.049 54.9729 129.236 53.0592 126.191 51.5838C123.236 50.1239 120.084 49.1046 116.834 48.5584C115.282 48.3096 113.714 48.1757 112.143 48.1576C112.105 47.2253 112.015 46.2956 111.872 45.3734C111.679 44.1793 111.421 42.9969 111.098 41.8311C110.447 39.5061 109.535 37.2621 108.379 35.1423C106.786 32.1894 104.691 29.5366 102.188 27.3032C104.928 26.8802 107.716 26.8869 110.454 27.323C113.715 27.8529 116.862 28.9352 119.76 30.5237C121.22 31.3093 122.62 32.2049 123.944 33.2029C124.576 33.7383 125.233 34.2118 125.85 34.7993C126.467 35.3868 127.08 35.9146 127.624 36.5372C129.919 38.9312 131.796 41.6917 133.181 44.7049C134.554 47.739 135.481 50.9564 135.931 54.2563L135.938 54.2739Z" fill="#A278E7"/>
</svg>
