<svg width="24" height="24" viewBox="0 0 24 24" fill="none" xmlns="http://www.w3.org/2000/svg">
<path d="M15 12V15M12 3V6M18 12V15M12 18H21M18 21H21M6 12H9M6 6.011L6.01 6M12 12.011L12.01 12M3 12.011L3.01 12M12 9.011L12.01 9M12 15.011L12.01 15M15 21.011L15.01 21M12 21.011L12.01 21M21 12.011L21.01 12M21 15.011L21.01 15M18 6.011L18.01 6M6 18.011L6.01 18M9 3.6V8.4C9 8.55913 8.93679 8.71174 8.82426 8.82426C8.71174 8.93679 8.55913 9 8.4 9H3.6C3.44087 9 3.28826 8.93679 3.17574 8.82426C3.06321 8.71174 3 8.55913 3 8.4V3.6C3 3.44087 3.06321 3.28826 3.17574 3.17574C3.28826 3.06321 3.44087 3 3.6 3H8.4C8.55913 3 8.71174 3.06321 8.82426 3.17574C8.93679 3.28826 9 3.44087 9 3.6ZM21 3.6V8.4C21 8.55913 20.9368 8.71174 20.8243 8.82426C20.7117 8.93679 20.5591 9 20.4 9H15.6C15.4409 9 15.2883 8.93679 15.1757 8.82426C15.0632 8.71174 15 8.55913 15 8.4V3.6C15 3.44087 15.0632 3.28826 15.1757 3.17574C15.2883 3.06321 15.4409 3 15.6 3H20.4C20.5591 3 20.7117 3.06321 20.8243 3.17574C20.9368 3.28826 21 3.44087 21 3.6ZM9 15.6V20.4C9 20.5591 8.93679 20.7117 8.82426 20.8243C8.71174 20.9368 8.55913 21 8.4 21H3.6C3.44087 21 3.28826 20.9368 3.17574 20.8243C3.06321 20.7117 3 20.5591 3 20.4V15.6C3 15.4409 3.06321 15.2883 3.17574 15.1757C3.28826 15.0632 3.44087 15 3.6 15H8.4C8.55913 15 8.71174 15.0632 8.82426 15.1757C8.93679 15.2883 9 15.4409 9 15.6Z" stroke="#0FAF62" stroke-width="1.5" stroke-linecap="round" stroke-linejoin="round"/>
</svg>
