<svg width="60" height="60" viewBox="0 0 60 60" fill="none" xmlns="http://www.w3.org/2000/svg">
<path d="M52.7525 9.02734C53.78 9.02734 54.5 9.80984 54.5 10.6848C54.5 11.3048 54.1375 11.9723 53.2575 12.4398C48.7875 14.8098 43.6125 23.0048 43.6125 28.0598C51.1525 27.8298 54.4275 34.5148 54.4275 38.7048C54.4275 43.7223 50.0825 49.0273 43.6575 49.0273C35.5575 49.0273 31.5825 42.6598 31.5825 35.7598C31.5825 20.8098 48.6675 9.02734 52.7525 9.02734ZM25.67 9.02734C26.695 9.02734 27.4175 9.80984 27.4175 10.6848C27.4175 11.3048 27.055 11.9723 26.175 12.4398C21.705 14.8098 16.53 23.0048 16.53 28.0598C24.07 27.8298 27.345 34.5148 27.345 38.7048C27.345 43.7223 22.9975 49.0273 16.575 49.0273C8.4725 49.0273 4.5 42.6598 4.5 35.7598C4.5 20.8098 21.5825 9.02734 25.67 9.02734Z" fill="#184463"/>
</svg>
