<svg width="24" height="24" viewBox="0 0 24 24" fill="none" xmlns="http://www.w3.org/2000/svg">
<path d="M8.70189 10.0002C8.88925 10.1864 9.14271 10.291 9.40689 10.291C9.67108 10.291 9.92453 10.1864 10.1119 10.0002C10.2981 9.81282 10.4027 9.55937 10.4027 9.29519C10.4027 9.031 10.2981 8.77755 10.1119 8.59019L3.84189 2.29019C3.65359 2.10188 3.39819 1.99609 3.13189 1.99609C2.86559 1.99609 2.6102 2.10188 2.42189 2.29019C2.23359 2.47849 2.1278 2.73388 2.1278 3.00019C2.1278 3.26649 2.23359 3.52188 2.42189 3.71019L8.70189 10.0002ZM21.0019 14.0002C20.7367 14.0002 20.4823 14.1055 20.2948 14.2931C20.1072 14.4806 20.0019 14.735 20.0019 15.0002V18.5902L15.4419 14.0002C15.2509 13.8092 14.9919 13.702 14.7219 13.702C14.4518 13.702 14.1928 13.8092 14.0019 14.0002C13.8109 14.1911 13.7037 14.4501 13.7037 14.7202C13.7037 14.9902 13.8109 15.2492 14.0019 15.4402L18.5919 20.0002H15.0019C14.7367 20.0002 14.4823 20.1055 14.2948 20.2931C14.1072 20.4806 14.0019 20.735 14.0019 21.0002C14.0019 21.2654 14.1072 21.5198 14.2948 21.7073C14.4823 21.8948 14.7367 22.0002 15.0019 22.0002H21.0019C21.1326 21.9986 21.2617 21.9714 21.3819 21.9202C21.6262 21.8187 21.8204 21.6245 21.9219 21.3802C21.9731 21.26 22.0003 21.1309 22.0019 21.0002V15.0002C22.0019 14.735 21.8965 14.4806 21.709 14.2931C21.5215 14.1055 21.2671 14.0002 21.0019 14.0002ZM21.9219 2.62019C21.8204 2.37584 21.6262 2.18166 21.3819 2.08019C21.2617 2.02894 21.1326 2.00177 21.0019 2.00019H15.0019C14.7367 2.00019 14.4823 2.10554 14.2948 2.29308C14.1072 2.48061 14.0019 2.73497 14.0019 3.00019C14.0019 3.2654 14.1072 3.51976 14.2948 3.70729C14.4823 3.89483 14.7367 4.00019 15.0019 4.00019H18.5919L2.29189 20.2902C2.19816 20.3831 2.12377 20.4937 2.073 20.6156C2.02223 20.7375 1.99609 20.8682 1.99609 21.0002C1.99609 21.1322 2.02223 21.2629 2.073 21.3848C2.12377 21.5066 2.19816 21.6172 2.29189 21.7102C2.38486 21.8039 2.49546 21.8783 2.61732 21.9291C2.73917 21.9798 2.86988 22.006 3.00189 22.006C3.1339 22.006 3.26461 21.9798 3.38647 21.9291C3.50833 21.8783 3.61893 21.8039 3.71189 21.7102L20.0019 5.41019V9.00019C20.0019 9.2654 20.1072 9.51976 20.2948 9.70729C20.4823 9.89483 20.7367 10.0002 21.0019 10.0002C21.2671 10.0002 21.5215 9.89483 21.709 9.70729C21.8965 9.51976 22.0019 9.2654 22.0019 9.00019V3.00019C22.0003 2.86951 21.9731 2.74041 21.9219 2.62019Z" fill="#FF7919"/>
</svg>
