<svg width="121" height="120" viewBox="0 0 121 120" fill="none" xmlns="http://www.w3.org/2000/svg">
<path d="M91.7946 7.19995H37.6011C35.2246 7.19995 33.3 9.12076 33.3 11.4926V108.507C33.3 110.879 35.2246 112.8 37.6011 112.8H108.999C111.375 112.8 113.3 110.879 113.3 108.507V28.6634L91.7946 7.19995Z" fill="white"/>
<path d="M113.3 28.8H91.7V7.19995L113.3 28.8Z" fill="#BADEFF"/>
<path d="M99.3 64.8C101.731 64.8 103.7 66.5899 103.7 68.8C103.7 71.0102 101.731 72.8 99.3 72.8C96.8688 72.8 94.9 71.0102 94.9 68.8C94.9 66.5899 96.8688 64.8 99.3 64.8Z" fill="white"/>
<path d="M77.3 89.6001C79.5102 89.6001 81.3 91.5689 81.3 94.0001C81.3 96.4313 79.5102 98.4001 77.3 98.4001C75.0898 98.4001 73.3 96.4313 73.3 94.0001C73.3 91.5715 75.0922 89.6001 77.3 89.6001Z" fill="white"/>
<path d="M62.9 72.8C65.1101 72.8 66.9 74.5899 66.9 76.8C66.9 79.0079 65.1078 80.8 62.9 80.8C60.6922 80.8 58.9 79.0079 58.9 76.8C58.9 74.5899 60.6898 72.8 62.9 72.8Z" fill="#BADEFF"/>
<path d="M50.9 41.6H29.3V20C30.7799 20 32.2244 20.1493 33.62 20.432C43.4784 22.4325 50.9 31.1502 50.9 41.6Z" fill="white"/>
<path d="M29.3 41.2H50.9C50.9 52.8757 41.261 62.4 29.3 62.4C17.3702 62.4 7.7 52.9089 7.7 41.2C7.7 29.4911 17.3702 20 29.3 20V41.2Z" fill="#BADEFF"/>
<path d="M50.9 94.0001C50.9 96.4313 48.9312 98.4001 46.5 98.4001C44.0688 98.4001 42.1 96.4313 42.1 94.0001C42.1 91.5689 44.0688 89.6001 46.5 89.6001C48.9286 89.6001 50.9 91.5715 50.9 94.0001Z" fill="#BADEFF"/>
<path d="M58.9 44C60.2247 44 61.3 43.1039 61.3 42C61.3 40.8961 60.2247 40 58.9 40C57.5753 40 56.5 40.8961 56.5 42C56.5 43.1039 57.5753 44 58.9 44Z" fill="#184463"/>
<path d="M58.9 52.8C60.2247 52.8 61.3 51.7247 61.3 50.4C61.3 49.0753 60.2247 48 58.9 48C57.5753 48 56.5 49.0753 56.5 50.4C56.5 51.7247 57.5753 52.8 58.9 52.8Z" fill="#184463"/>
<path d="M114.277 27.4727L93.0274 6.22266C92.6514 5.8458 92.1052 5.6001 91.525 5.6001H37.975C34.4596 5.6001 31.6 8.45972 31.6 11.9751V18.448C30.8944 18.3841 30.1847 18.3501 29.475 18.3501C16.5864 18.3501 6.1 28.8365 6.1 41.7251C6.1 54.6137 16.5864 65.1001 29.475 65.1001C30.1847 65.1001 30.8944 65.0661 31.6 65.0022V108.025C31.6 111.54 34.4596 114.4 37.975 114.4H108.525C112.04 114.4 114.9 111.54 114.9 108.025V28.9751C114.9 28.3949 114.658 27.8537 114.277 27.4727ZM93.65 12.855L107.645 26.8501H93.65V12.855ZM31.6 22.7188C40.5731 23.7091 47.496 30.8635 48.4771 39.6001H31.6V22.7188ZM10.35 41.7251C10.35 31.8978 17.8008 23.7796 27.35 22.7188V41.7251C27.35 42.8988 28.3013 43.8476 29.475 43.8476H48.4771C47.4097 53.3537 39.367 60.8501 29.475 60.8501C18.9297 60.8501 10.35 52.2704 10.35 41.7251ZM108.525 110.15H37.975C36.8029 110.15 35.85 109.197 35.85 108.025V64.2152C45.7977 61.3996 52.85 52.2106 52.85 41.7251C52.85 31.2396 45.7977 22.0506 35.85 19.235V11.9751C35.85 10.803 36.8029 9.8501 37.975 9.8501H89.4V28.9751C89.4 30.1488 90.3513 31.1001 91.525 31.1001H110.65V108.025C110.65 109.197 109.697 110.15 108.525 110.15Z" fill="#184463"/>
<path d="M60.9952 23.1999H83.2048C84.362 23.1999 85.3 22.1255 85.3 20.7999C85.3 19.4743 84.362 18.3999 83.2048 18.3999H60.9952C59.8379 18.3999 58.9 19.4743 58.9 20.7999C58.9 22.1255 59.8379 23.1999 60.9952 23.1999Z" fill="#184463"/>
<path d="M60.9952 31.1999H83.2048C84.362 31.1999 85.3 30.1255 85.3 28.7999C85.3 27.4743 84.362 26.3999 83.2048 26.3999H60.9952C59.8379 26.3999 58.9 27.4743 58.9 28.7999C58.9 30.1255 59.8379 31.1999 60.9952 31.1999Z" fill="#184463"/>
<path d="M29.5 52C23.4345 52 18.5 47.5141 18.5 42C18.5 40.8953 17.5152 40 16.3 40C15.0848 40 14.1 40.8953 14.1 42C14.1 49.7195 21.0085 56 29.5 56C30.7152 56 31.7 55.1047 31.7 54C31.7 52.8953 30.7152 52 29.5 52Z" fill="#184463"/>
<path d="M99.7311 61.6001C96.219 61.6001 93.3621 64.5307 93.3621 68.1334C93.3621 69.4835 93.7635 70.74 94.4502 71.7821L79.7079 88.0133C79.1241 87.8321 78.5054 87.7334 77.8644 87.7334C76.9688 87.7334 76.1022 87.924 75.306 88.2821L68.6659 79.8381C69.127 78.9236 69.3725 77.9037 69.3725 76.8445C69.3725 73.2419 66.5156 70.3112 63.0036 70.3112C59.4915 70.3112 56.6346 73.2419 56.6346 76.8445C56.6346 77.862 56.8619 78.8428 57.2881 79.7292L49.5467 88.3366C48.7182 87.9419 47.8093 87.7334 46.8689 87.7334C43.3569 87.7334 40.5 90.6641 40.5 94.2668C40.5 97.8695 43.3569 100.8 46.8689 100.8C50.381 100.8 53.2379 97.8695 53.2379 94.2668C53.2379 93.2493 53.0115 92.2685 52.5844 91.3821L60.3258 82.7747C61.1542 83.1695 62.0631 83.3779 63.0036 83.3779C63.8992 83.3779 64.7658 83.1873 65.5619 82.8292L72.202 91.2732C71.7409 92.1877 71.4955 93.2077 71.4955 94.2668C71.4955 97.8695 74.3524 100.8 77.8644 100.8C81.3764 100.8 84.2333 97.8695 84.2333 94.2668C84.2333 92.9167 83.832 91.6602 83.1453 90.6181L97.8876 74.3869C98.4714 74.5681 99.09 74.6668 99.7311 74.6668C103.243 74.6668 106.1 71.7361 106.1 68.1334C106.1 64.5307 103.243 61.6001 99.7311 61.6001ZM46.8689 96.4445C45.698 96.4445 44.746 95.4679 44.746 94.2668C44.746 93.0656 45.698 92.089 46.8689 92.089C48.0407 92.089 48.9919 93.0639 48.9919 94.2668C48.9919 95.4679 48.0399 96.4445 46.8689 96.4445ZM60.8806 76.8445C60.8806 75.6434 61.8326 74.6668 63.0036 74.6668C64.1745 74.6668 65.1265 75.6434 65.1265 76.8445C65.1265 78.0466 64.1762 79.0223 63.0036 79.0223C61.8309 79.0223 60.8806 78.0466 60.8806 76.8445ZM77.8644 96.4445C76.6934 96.4445 75.7414 95.4679 75.7414 94.2668C75.7414 93.0647 76.6918 92.089 77.8644 92.089C79.0354 92.089 79.9874 93.0656 79.9874 94.2668C79.9874 95.4679 79.0354 96.4445 77.8644 96.4445ZM99.7311 70.3112C98.5601 70.3112 97.6081 69.3346 97.6081 68.1334C97.6081 66.9323 98.5601 65.9557 99.7311 65.9557C100.902 65.9557 101.854 66.9323 101.854 68.1334C101.854 69.3346 100.902 70.3112 99.7311 70.3112Z" fill="#184463"/>
<path d="M66.1 42C66.1 43.1047 67.037 44 68.193 44H100.007C101.163 44 102.1 43.1047 102.1 42C102.1 40.8953 101.163 40 100.007 40H68.193C67.037 40 66.1 40.8953 66.1 42Z" fill="#184463"/>
<path d="M100.007 48H68.193C67.037 48 66.1 49.0744 66.1 50.4C66.1 51.7256 67.037 52.8 68.193 52.8H100.007C101.163 52.8 102.1 51.7256 102.1 50.4C102.1 49.0744 101.163 48 100.007 48Z" fill="#184463"/>
</svg>
