<svg width="24" height="24" viewBox="0 0 24 24" fill="none" xmlns="http://www.w3.org/2000/svg">
<path d="M17.0112 13.9998H16.2112L15.9412 13.7298C16.538 13.0361 16.9811 12.2238 17.2414 11.3465C17.5017 10.4692 17.5732 9.54673 17.4512 8.63979C17.1112 5.99979 15.1012 3.77979 12.5012 3.17979C8.26118 2.19979 4.51118 5.52979 4.51118 9.49979H2.41118C2.30788 9.50038 2.2073 9.53296 2.12326 9.59304C2.03923 9.65312 1.97587 9.73776 1.94189 9.83531C1.90791 9.93287 1.90498 10.0386 1.9335 10.1378C1.96203 10.2371 2.0206 10.3251 2.10118 10.3898L5.50118 13.1398C5.69118 13.3398 6.01118 13.3498 6.21118 13.1498L9.11118 10.3598C9.43118 10.0498 9.21118 9.49979 8.76118 9.49979H6.51118C6.51118 7.00979 8.51118 5.01979 10.9712 4.99979C13.4112 4.97979 15.5112 7.04979 15.5112 9.48979C15.5112 11.9698 13.4912 13.9998 11.0112 13.9998C10.5612 13.9998 10.1212 13.9298 9.71118 13.8098C9.37118 13.7098 9.00118 13.8098 8.75118 14.0698C8.22118 14.5998 8.43118 15.5198 9.14118 15.7298C9.73118 15.8998 10.3612 15.9998 11.0112 15.9998C12.6212 15.9998 14.0912 15.4098 15.2312 14.4298L15.5012 14.6998V15.4898L19.7712 19.7398C20.1812 20.1498 20.8412 20.1498 21.2512 19.7398C21.6612 19.3298 21.6612 18.6598 21.2512 18.2498L17.0112 13.9998Z" fill="#FF7919"/>
</svg>
