<svg width="25" height="25" viewBox="0 0 25 25" fill="none" xmlns="http://www.w3.org/2000/svg">
<path d="M23.8074 22.0162L19.3948 17.6392C21.1076 15.5035 21.9371 12.7928 21.7127 10.0643C21.4882 7.33585 20.2269 4.79706 18.1881 2.96999C16.1493 1.14292 13.488 0.166429 10.7513 0.241314C8.01469 0.316199 5.41073 1.43676 3.47489 3.3726C1.53906 5.30843 0.418494 7.91239 0.343609 10.649C0.268724 13.3857 1.24521 16.0471 3.07229 18.0859C4.89936 20.1247 7.43814 21.3859 10.1666 21.6104C12.8951 21.8348 15.6058 21.0053 17.7415 19.2925L22.1185 23.6694C22.229 23.7809 22.3606 23.8694 22.5055 23.9298C22.6505 23.9902 22.8059 24.0213 22.9629 24.0213C23.12 24.0213 23.2754 23.9902 23.4204 23.9298C23.5653 23.8694 23.6968 23.7809 23.8074 23.6694C24.0218 23.4477 24.1416 23.1513 24.1416 22.8428C24.1416 22.5344 24.0218 22.238 23.8074 22.0162ZM11.069 19.2925C9.42232 19.2925 7.81262 18.8042 6.44346 17.8893C5.0743 16.9745 4.00716 15.6742 3.37701 14.1528C2.74685 12.6315 2.58197 10.9575 2.90322 9.34243C3.22447 7.7274 4.01743 6.24389 5.1818 5.07951C6.34618 3.91513 7.82969 3.12218 9.44473 2.80093C11.0598 2.47968 12.7338 2.64456 14.2551 3.27471C15.7765 3.90487 17.0768 4.972 17.9916 6.34117C18.9065 7.71033 19.3948 9.32003 19.3948 10.9667C19.3948 13.1748 18.5176 15.2925 16.9562 16.8539C15.3948 18.4153 13.2771 19.2925 11.069 19.2925Z" fill="white"/>
</svg>
