<svg width="121" height="120" viewBox="0 0 121 120" fill="none" xmlns="http://www.w3.org/2000/svg">
<path d="M6.125 30.9363V89.0613C6.125 94.2389 10.3224 98.4363 15.5 98.4363H105.5C110.678 98.4363 114.875 94.2389 114.875 89.0613V30.9363H6.125Z" fill="white"/>
<path d="M114.875 27.1863C114.875 22.0086 110.678 17.8113 105.5 17.8113H15.5C10.3224 17.8113 6.125 22.0086 6.125 27.1863V30.9363H114.875V27.1863Z" fill="#BADEFF" stroke="#184463" stroke-width="4"/>
<path d="M105.5 100.311H15.5C9.29639 100.311 4.25 95.2649 4.25 89.0613V27.1863C4.25 20.9827 9.29639 15.9363 15.5 15.9363H105.5C111.704 15.9363 116.75 20.9827 116.75 27.1863V89.0613C116.75 95.2649 111.704 100.311 105.5 100.311ZM15.5 19.6863C11.3637 19.6863 8 23.0499 8 27.1863V89.0613C8 93.1976 11.3637 96.5613 15.5 96.5613H105.5C109.636 96.5613 113 93.1976 113 89.0613V27.1863C113 23.0499 109.636 19.6863 105.5 19.6863H15.5Z" fill="#184463"/>
<path d="M23 27.1863H15.5C13.0374 27.1462 13.0337 23.4769 15.5001 23.4363H23C25.4626 23.4763 25.4663 27.1456 23 27.1863Z" fill="white"/>
<path d="M38 27.1863H30.5C28.0374 27.1462 28.0337 23.4769 30.5001 23.4363H38C40.4626 23.4763 40.4663 27.1456 38 27.1863Z" fill="white"/>
<path d="M97.0625 66.5613H23.9375C10.3066 66.0991 10.2714 46.4119 23.9377 45.9363C23.9375 45.9363 97.0625 45.9363 97.0625 45.9363C102.758 45.9363 107.375 50.5533 107.375 56.2488C107.375 61.9442 102.758 66.5613 97.0625 66.5613Z" fill="#BADEFF"/>
<path d="M98 74.0613C98 84.4167 89.6053 92.8113 79.25 92.8113C54.3785 91.8237 54.3856 56.2952 79.2501 55.3113C89.6053 55.3113 98 63.706 98 74.0613Z" fill="white"/>
<path d="M79.25 94.6864C67.8773 94.6864 58.625 85.4341 58.625 74.0614C59.7579 46.6995 98.7463 46.7075 99.875 74.0615C99.875 85.4341 90.6227 94.6864 79.25 94.6864ZM79.25 57.1864C69.9446 57.1864 62.375 64.756 62.375 74.0614C63.3012 96.4485 95.2022 96.442 96.125 74.0612C96.125 64.756 88.5554 57.1864 79.25 57.1864Z" fill="#184463"/>
<path d="M106.276 95.7848L94.8878 84.3962C93.4942 86.5005 91.6893 88.3054 89.5851 89.699L100.974 101.088C104.517 104.515 109.704 99.3273 106.276 95.7848Z" fill="#BADEFF"/>
<path d="M103.625 104.061C102.124 104.061 100.71 103.475 99.6479 102.413L88.2588 91.024C87.4257 90.2308 87.5739 88.7475 88.55 88.1347C90.456 86.8731 92.0619 85.2672 93.3235 83.3611C93.9339 82.3841 95.4271 82.2423 96.2129 83.07C96.2129 83.07 107.602 94.4591 107.602 94.4591C111.157 97.8038 108.489 104.208 103.625 104.061ZM92.4446 89.9071L102.299 99.7619C103.01 100.469 104.24 100.469 104.951 99.7619C105.681 99.0313 105.681 97.8411 104.951 97.1105L95.0959 87.2557C94.2939 88.2189 93.4077 89.1051 92.4446 89.9071Z" fill="#184463"/>
<path d="M47.375 77.8113H17.375C14.9196 77.7734 14.9028 74.1026 17.3751 74.0613H47.375C49.8305 74.0991 49.8473 77.7699 47.375 77.8113Z" fill="#BADEFF"/>
<path d="M38 87.1863H17.375C14.9165 87.1475 14.9053 83.4773 17.3751 83.4363H38C40.4585 83.4751 40.4697 87.1452 38 87.1863Z" fill="#BADEFF"/>
</svg>
