<svg width="29" height="28" viewBox="0 0 29 28" fill="none" xmlns="http://www.w3.org/2000/svg">
<path d="M3.74992 8.16634H24.7499C25.0593 8.16634 25.3561 8.04342 25.5749 7.82463C25.7937 7.60584 25.9166 7.30909 25.9166 6.99967C25.9166 6.69026 25.7937 6.39351 25.5749 6.17472C25.3561 5.95592 25.0593 5.83301 24.7499 5.83301H3.74992C3.4405 5.83301 3.14375 5.95592 2.92496 6.17472C2.70617 6.39351 2.58325 6.69026 2.58325 6.99967C2.58325 7.30909 2.70617 7.60584 2.92496 7.82463C3.14375 8.04342 3.4405 8.16634 3.74992 8.16634ZM3.74992 12.833H20.0833C20.3927 12.833 20.6894 12.7101 20.9082 12.4913C21.127 12.2725 21.2499 11.9758 21.2499 11.6663C21.2499 11.3569 21.127 11.0602 20.9082 10.8414C20.6894 10.6226 20.3927 10.4997 20.0833 10.4997H3.74992C3.4405 10.4997 3.14375 10.6226 2.92496 10.8414C2.70617 11.0602 2.58325 11.3569 2.58325 11.6663C2.58325 11.9758 2.70617 12.2725 2.92496 12.4913C3.14375 12.7101 3.4405 12.833 3.74992 12.833ZM24.7499 15.1663H3.74992C3.4405 15.1663 3.14375 15.2893 2.92496 15.508C2.70617 15.7268 2.58325 16.0236 2.58325 16.333C2.58325 16.6424 2.70617 16.9392 2.92496 17.158C3.14375 17.3768 3.4405 17.4997 3.74992 17.4997H24.7499C25.0593 17.4997 25.3561 17.3768 25.5749 17.158C25.7937 16.9392 25.9166 16.6424 25.9166 16.333C25.9166 16.0236 25.7937 15.7268 25.5749 15.508C25.3561 15.2893 25.0593 15.1663 24.7499 15.1663ZM20.0833 19.833H3.74992C3.4405 19.833 3.14375 19.9559 2.92496 20.1747C2.70617 20.3935 2.58325 20.6903 2.58325 20.9997C2.58325 21.3091 2.70617 21.6058 2.92496 21.8246C3.14375 22.0434 3.4405 22.1663 3.74992 22.1663H20.0833C20.3927 22.1663 20.6894 22.0434 20.9082 21.8246C21.127 21.6058 21.2499 21.3091 21.2499 20.9997C21.2499 20.6903 21.127 20.3935 20.9082 20.1747C20.6894 19.9559 20.3927 19.833 20.0833 19.833Z" fill="#FF7919"/>
</svg>
