<?xml version="1.0" encoding="UTF-8"?>
<!DOCTYPE svg PUBLIC "-//W3C//DTD SVG 1.1//EN" "http://www.w3.org/Graphics/SVG/1.1/DTD/svg11.dtd">
<svg xmlns="http://www.w3.org/2000/svg" version="1.1" width="163px" height="163px" style="shape-rendering:geometricPrecision; text-rendering:geometricPrecision; image-rendering:optimizeQuality; fill-rule:evenodd; clip-rule:evenodd" xmlns:xlink="http://www.w3.org/1999/xlink">
<g><path style="opacity:0.949" fill="#174362" d="M 76.5,-0.5 C 79.1667,-0.5 81.8333,-0.5 84.5,-0.5C 113.157,5.43821 126.323,23.1049 124,52.5C 121.597,61.9721 117.097,70.3054 110.5,77.5C 115.652,83.152 120.985,88.652 126.5,94C 137.461,92.9599 142.294,97.7932 141,108.5C 137.723,114.109 132.89,115.942 126.5,114C 121.168,110.501 119.334,105.667 121,99.5C 115.5,94 110,88.5 104.5,83C 98.0199,84.9854 91.3532,86.4854 84.5,87.5C 83.4427,92.1156 84.9427,95.449 89,97.5C 93.4392,106.954 90.6058,112.954 80.5,115.5C 72.2647,113.694 69.098,108.694 71,100.5C 72.3333,97.8333 74.3333,95.8333 77,94.5C 77.6667,92.5 77.6667,90.5 77,88.5C 71.5486,87.3022 66.2153,85.6355 61,83.5C 55.0434,88.4545 49.3768,93.7878 44,99.5C 45.8265,111.007 40.9932,115.84 29.5,114C 23.9752,111.081 22.1419,106.581 24,100.5C 27.4156,95.0329 32.2489,92.8662 38.5,94C 43.5,89 48.5,84 53.5,79C 35.242,61.6175 32.0753,41.7842 44,19.5C 52.1411,8.35117 62.9745,1.6845 76.5,-0.5 Z M 79.5,7.5 C 84.8489,9.18811 88.1822,12.8548 89.5,18.5C 83.5276,19.6636 77.5276,19.8303 71.5,19C 73.2539,14.4324 75.9206,10.5991 79.5,7.5 Z M 65.5,10.5 C 66.0431,10.56 66.3764,10.8933 66.5,11.5C 65.3052,13.7513 64.3052,16.0846 63.5,18.5C 60.5541,19.6548 57.5541,19.8214 54.5,19C 57.8745,15.6625 61.5411,12.8292 65.5,10.5 Z M 94.5,11.5 C 99.3774,12.2935 103.711,14.7935 107.5,19C 104.5,19.6667 101.5,19.6667 98.5,19C 97.5343,16.2315 96.201,13.7315 94.5,11.5 Z M 48.5,27.5 C 52.8333,27.5 57.1667,27.5 61.5,27.5C 60.7051,31.7853 60.3718,36.1186 60.5,40.5C 55.1667,40.5 49.8333,40.5 44.5,40.5C 45.0636,35.9074 46.397,31.5741 48.5,27.5 Z M 69.5,27.5 C 77.1667,27.5 84.8333,27.5 92.5,27.5C 92.9272,31.8244 93.2605,36.1578 93.5,40.5C 84.8269,40.6664 76.1603,40.4998 67.5,40C 68.3466,35.895 69.0132,31.7283 69.5,27.5 Z M 100.5,27.5 C 104.884,27.1744 109.217,27.5078 113.5,28.5C 115.066,32.2712 116.399,36.1046 117.5,40C 112.177,40.4994 106.844,40.666 101.5,40.5C 101.073,36.1756 100.739,31.8422 100.5,27.5 Z M 44.5,47.5 C 49.8333,47.5 55.1667,47.5 60.5,47.5C 60.4672,51.8689 60.8005,56.2022 61.5,60.5C 57.1539,60.6657 52.8206,60.499 48.5,60C 46.3196,56.1141 44.9862,51.9474 44.5,47.5 Z M 68.5,47.5 C 76.8333,47.5 85.1667,47.5 93.5,47.5C 93.2605,51.8422 92.9272,56.1756 92.5,60.5C 84.8333,60.5 77.1667,60.5 69.5,60.5C 68.7051,56.2147 68.3718,51.8814 68.5,47.5 Z M 101.5,47.5 C 106.844,47.334 112.177,47.5006 117.5,48C 116.399,51.8954 115.066,55.7288 113.5,59.5C 109.217,60.4922 104.884,60.8256 100.5,60.5C 100.739,56.1578 101.073,51.8244 101.5,47.5 Z M 54.5,67.5 C 57.5,67.5 60.5,67.5 63.5,67.5C 64.2693,70.9509 65.1027,74.2842 66,77.5C 60.9519,75.4179 57.1186,72.0846 54.5,67.5 Z M 71.5,67.5 C 77.8421,67.3338 84.1754,67.5005 90.5,68C 83.7165,84.6828 77.3831,84.5161 71.5,67.5 Z M 95.5,76.5 C 96.4866,73.8544 97.4866,71.1878 98.5,68.5C 101.5,67.1667 104.5,67.1667 107.5,68.5C 104.303,72.3618 100.303,75.0284 95.5,76.5 Z M 32.5,101.5 C 37.394,102.54 37.7274,104.54 33.5,107.5C 30.025,105.916 29.6917,103.916 32.5,101.5 Z M 79.5,101.5 C 81.9477,101.085 83.2811,102.085 83.5,104.5C 81.5841,108.327 79.9174,108.327 78.5,104.5C 78.685,103.416 79.0183,102.416 79.5,101.5 Z M 130.5,101.5 C 132.484,101.484 133.484,102.484 133.5,104.5C 132.083,108.327 130.416,108.327 128.5,104.5C 128.942,103.261 129.609,102.261 130.5,101.5 Z"/></g>
<g><path style="opacity:0.924" fill="#174362" d="M 162.5,50.5 C 162.5,64.8333 162.5,79.1667 162.5,93.5C 161.67,102.991 161.17,112.658 161,122.5C 159.749,125.381 157.583,127.214 154.5,128C 139.17,128.5 123.837,128.667 108.5,128.5C 108.334,132.846 108.501,137.179 109,141.5C 118.142,144.959 121.975,151.459 120.5,161C 114.984,161.173 109.651,161.673 104.5,162.5C 88.5,162.5 72.5,162.5 56.5,162.5C 51.6835,161.674 46.6835,161.174 41.5,161C 39.5081,151.496 43.1747,144.996 52.5,141.5C 53.4922,137.217 53.8256,132.884 53.5,128.5C 37.8298,128.667 22.1631,128.5 6.5,128C 3.22804,126.233 0.894709,123.733 -0.5,120.5C -0.5,89.8333 -0.5,59.1667 -0.5,28.5C 0.409574,25.2074 2.40957,22.7074 5.5,21C 15.1213,19.7142 24.788,19.2142 34.5,19.5C 34.5,22.1667 34.5,24.8333 34.5,27.5C 25.5822,27.1828 16.7489,27.5161 8,28.5C 7.17148,59.0718 7.33815,89.5718 8.5,120C 56.8322,120.5 105.166,120.667 153.5,120.5C 154.643,90.5297 154.81,60.5297 154,30.5C 153.626,29.5838 153.126,28.7504 152.5,28C 144.173,27.5003 135.84,27.3336 127.5,27.5C 127.5,24.8333 127.5,22.1667 127.5,19.5C 135.174,19.3336 142.841,19.5003 150.5,20C 155.374,20.0173 158.874,22.184 161,26.5C 161.171,34.6772 161.671,42.6772 162.5,50.5 Z M 48.5,27.5 C 46.397,31.5741 45.0636,35.9074 44.5,40.5C 49.8333,40.5 55.1667,40.5 60.5,40.5C 60.3718,36.1186 60.7051,31.7853 61.5,27.5C 57.1667,27.5 52.8333,27.5 48.5,27.5 Z M 69.5,27.5 C 69.0132,31.7283 68.3466,35.895 67.5,40C 76.1603,40.4998 84.8269,40.6664 93.5,40.5C 93.2605,36.1578 92.9272,31.8244 92.5,27.5C 84.8333,27.5 77.1667,27.5 69.5,27.5 Z M 100.5,27.5 C 100.739,31.8422 101.073,36.1756 101.5,40.5C 106.844,40.666 112.177,40.4994 117.5,40C 116.399,36.1046 115.066,32.2712 113.5,28.5C 109.217,27.5078 104.884,27.1744 100.5,27.5 Z M 44.5,47.5 C 44.9862,51.9474 46.3196,56.1141 48.5,60C 52.8206,60.499 57.1539,60.6657 61.5,60.5C 60.8005,56.2022 60.4672,51.8689 60.5,47.5C 55.1667,47.5 49.8333,47.5 44.5,47.5 Z M 68.5,47.5 C 68.3718,51.8814 68.7051,56.2147 69.5,60.5C 77.1667,60.5 84.8333,60.5 92.5,60.5C 92.9272,56.1756 93.2605,51.8422 93.5,47.5C 85.1667,47.5 76.8333,47.5 68.5,47.5 Z M 101.5,47.5 C 101.073,51.8244 100.739,56.1578 100.5,60.5C 104.884,60.8256 109.217,60.4922 113.5,59.5C 115.066,55.7288 116.399,51.8954 117.5,48C 112.177,47.5006 106.844,47.334 101.5,47.5 Z M 54.5,67.5 C 57.1186,72.0846 60.9519,75.4179 66,77.5C 65.1027,74.2842 64.2693,70.9509 63.5,67.5C 60.5,67.5 57.5,67.5 54.5,67.5 Z M 71.5,67.5 C 77.3831,84.5161 83.7165,84.6828 90.5,68C 84.1754,67.5005 77.8421,67.3338 71.5,67.5 Z M 95.5,76.5 C 100.303,75.0284 104.303,72.3618 107.5,68.5C 104.5,67.1667 101.5,67.1667 98.5,68.5C 97.4866,71.1878 96.4866,73.8544 95.5,76.5 Z M 32.5,101.5 C 29.6917,103.916 30.025,105.916 33.5,107.5C 37.7274,104.54 37.394,102.54 32.5,101.5 Z M 79.5,101.5 C 79.0183,102.416 78.685,103.416 78.5,104.5C 79.9174,108.327 81.5841,108.327 83.5,104.5C 83.2811,102.085 81.9477,101.085 79.5,101.5 Z M 130.5,101.5 C 129.609,102.261 128.942,103.261 128.5,104.5C 130.416,108.327 132.083,108.327 133.5,104.5C 133.484,102.484 132.484,101.484 130.5,101.5 Z M 61.5,128.5 C 74.5,128.5 87.5,128.5 100.5,128.5C 100.5,132.5 100.5,136.5 100.5,140.5C 87.5,140.5 74.5,140.5 61.5,140.5C 61.5,136.5 61.5,132.5 61.5,128.5 Z M 55.5,148.5 C 72.5033,148.333 89.5033,148.5 106.5,149C 109.076,149.782 111.076,151.282 112.5,153.5C 91.1745,154.666 69.8411,154.833 48.5,154C 50.4691,151.511 52.8025,149.678 55.5,148.5 Z"/></g>
</svg>
