<svg width="121" height="120" viewBox="0 0 121 120" fill="none" xmlns="http://www.w3.org/2000/svg">
<g clip-path="url(#clip0_88_172)">
<path d="M95.5314 99.9722L102.802 92.7013L104.262 94.161L96.9911 101.432L95.5314 99.9722Z" fill="#BADEFF"/>
<path fill-rule="evenodd" clip-rule="evenodd" d="M54.1498 51.2998C57.8768 47.5726 62.6254 45.0343 67.795 44.0058C72.9646 42.9774 78.3231 43.5051 83.1928 45.5221C88.0625 47.5391 92.2247 50.9549 95.1531 55.3375C98.0815 59.7201 99.6445 64.8726 99.6445 70.1435C99.6445 75.4144 98.0815 80.5669 95.1531 84.9495C92.2247 89.3321 88.0625 92.7479 83.1928 94.7649C78.3231 96.7819 72.9646 97.3096 67.795 96.2812C62.6254 95.2528 57.8768 92.7145 54.1498 88.9873C51.666 86.5179 49.6948 83.5818 48.3497 80.3479C47.0046 77.114 46.3121 73.646 46.3121 70.1435C46.3121 66.641 47.0046 63.1731 48.3497 59.9391C49.6948 56.7052 51.666 53.7691 54.1498 51.2998Z" fill="#BADEFF"/>
<path fill-rule="evenodd" clip-rule="evenodd" d="M3.78125 7.71105C3.78168 7.16047 4.00052 6.63253 4.38973 6.2431C4.77895 5.85366 5.30675 5.63453 5.85734 5.63379H106.883C107.433 5.6346 107.961 5.85373 108.351 6.24314C108.74 6.63255 108.959 7.16044 108.959 7.71105V22.0447H3.78125V7.71105Z" fill="#BADEFF"/>
<path fill-rule="evenodd" clip-rule="evenodd" d="M90.8778 71.7458C90.3805 71.7458 89.9036 71.5482 89.552 71.1966C89.2004 70.8449 89.0028 70.368 89.0028 69.8708V65.9272L79.0482 75.6219C78.6955 75.9656 78.2215 76.1565 77.729 76.1532C77.2366 76.1499 76.7652 75.9527 76.4171 75.6043L68.6891 67.8783L56.4383 80.1293C56.0835 80.4651 55.6118 80.6492 55.1234 80.6424C54.635 80.6356 54.1686 80.4386 53.8233 80.0931C53.478 79.7477 53.2811 79.2811 53.2746 78.7927C53.268 78.3044 53.4523 77.8327 53.7882 77.4781L67.3646 63.9017C67.5386 63.7275 67.7452 63.5892 67.9727 63.4949C68.2002 63.4006 68.444 63.352 68.6902 63.352C68.9365 63.352 69.1803 63.4006 69.4078 63.4949C69.6352 63.5892 69.8419 63.7275 70.0159 63.9017L77.7591 71.644L86.2656 63.3577H82.4898C81.9925 63.3577 81.5156 63.1602 81.1639 62.8085C80.8123 62.4569 80.6148 61.98 80.6148 61.4827C80.6148 60.9854 80.8123 60.5085 81.1639 60.1569C81.5156 59.8053 81.9925 59.6077 82.4898 59.6077H90.8778C91.375 59.6081 91.8517 59.8057 92.2032 60.1573C92.5548 60.5088 92.7524 60.9855 92.7528 61.4827V69.8708C92.7521 70.3678 92.5544 70.8443 92.2029 71.1958C91.8514 71.5473 91.3749 71.7451 90.8778 71.7458ZM70.3086 13.8392C70.3086 13.3419 70.5061 12.865 70.8578 12.5134C71.2094 12.1617 71.6863 11.9642 72.1836 11.9642H95.3729C95.8702 11.9642 96.3471 12.1617 96.6987 12.5134C97.0504 12.865 97.2479 13.3419 97.2479 13.8392C97.2479 14.3365 97.0504 14.8134 96.6987 15.165C96.3471 15.5167 95.8702 15.7142 95.3729 15.7142H72.1836C71.6863 15.7142 71.2094 15.5167 70.8578 15.165C70.5061 14.8134 70.3086 14.3365 70.3086 13.8392ZM33.4648 13.8392C33.4642 13.5932 33.512 13.3496 33.6057 13.1221C33.6993 12.8947 33.8369 12.6879 34.0106 12.5138C34.1843 12.3396 34.3906 12.2014 34.6178 12.1071C34.8449 12.0128 35.0885 11.9642 35.3345 11.9642H35.3443C35.715 11.9651 36.077 12.0758 36.3848 12.2824C36.6925 12.4889 36.9322 12.7821 37.0734 13.1247C37.2146 13.4674 37.2511 13.8443 37.1783 14.2077C37.1054 14.5711 36.9265 14.9048 36.6641 15.1666C36.4017 15.4284 36.0676 15.6065 35.704 15.6785C35.3404 15.7505 34.9636 15.7131 34.6213 15.571C34.2789 15.429 33.9864 15.1887 33.7805 14.8804C33.5747 14.5722 33.4648 14.2098 33.4648 13.8392ZM23.0061 13.8392C23.0057 13.5932 23.0538 13.3496 23.1477 13.1222C23.2415 12.8948 23.3792 12.6882 23.553 12.514C23.7267 12.3399 23.933 12.2017 24.1602 12.1074C24.3874 12.013 24.6309 11.9644 24.8769 11.9642H24.8867C25.2573 11.9653 25.6193 12.0762 25.9269 12.2829C26.2345 12.4896 26.4739 12.7828 26.615 13.1256C26.756 13.4683 26.7924 13.8451 26.7194 14.2084C26.6464 14.5718 26.4674 14.9053 26.2049 15.167C25.9425 15.4287 25.6084 15.6067 25.2448 15.6786C24.8813 15.7505 24.5046 15.713 24.1623 15.5709C23.82 15.4289 23.5275 15.1885 23.3217 14.8803C23.1159 14.5721 23.0061 14.2098 23.0061 13.8392ZM12.5506 13.8392C12.5501 13.5932 12.5981 13.3494 12.6918 13.122C12.7856 12.8945 12.9233 12.6878 13.0971 12.5136C13.2708 12.3395 13.4773 12.2013 13.7045 12.107C13.9318 12.0127 14.1754 11.9642 14.4214 11.9642H14.4315C14.8021 11.9654 15.164 12.0763 15.4716 12.283C15.7791 12.4898 16.0186 12.783 16.1596 13.1257C16.3006 13.4684 16.3369 13.8452 16.2639 14.2086C16.1909 14.5719 16.0118 14.9054 15.7494 15.1671C15.4869 15.4287 15.1528 15.6067 14.7893 15.6786C14.4257 15.7505 14.049 15.713 13.7067 15.5709C13.3645 15.4288 13.072 15.1885 12.8662 14.8803C12.6604 14.5721 12.5506 14.2098 12.5506 13.8392ZM5.85805 6.10131C5.43144 6.1018 5.02246 6.27161 4.72095 6.57342C4.41945 6.87524 4.25006 7.28438 4.25 7.711V21.5759H108.491V7.711C108.49 7.28472 108.321 6.87606 108.019 6.57455C107.718 6.27304 107.309 6.10329 106.883 6.10248L5.85805 6.10131ZM106.883 78.9818C107.309 78.9813 107.718 78.8117 108.019 78.5104C108.32 78.209 108.49 77.8005 108.49 77.3743V25.3262H4.25V77.3743C4.25043 77.8005 4.41994 78.2091 4.72133 78.5105C5.02271 78.8119 5.43136 78.9814 5.85758 78.9818H44.405C43.0198 74.5043 42.7056 69.7639 43.4878 65.1427C44.2701 60.5214 46.1268 56.1485 48.9084 52.3763C51.6901 48.604 55.3189 45.5378 59.5025 43.4247C63.6861 41.3116 68.3076 40.2108 72.9945 40.2108C77.6815 40.2108 82.3029 41.3116 86.4866 43.4247C90.6702 45.5378 94.299 48.604 97.0806 52.3763C99.8623 56.1485 101.719 60.5214 102.501 65.1427C103.283 69.7639 102.969 74.5043 101.584 78.9818H106.883ZM98.5182 92.3658L95.218 95.6658L92.4453 92.8932C93.0314 92.3911 93.6027 91.8626 94.1591 91.3076C94.7155 90.7526 95.2443 90.1811 95.7456 89.5929L98.5184 92.3658H98.5182ZM103.62 94.1602L102.823 93.3633L96.2141 99.9727L97.0109 100.77L103.62 94.1602ZM116.75 109.234C116.748 110.156 116.473 111.058 115.96 111.824C115.446 112.591 114.718 113.188 113.866 113.542C113.013 113.895 112.076 113.988 111.17 113.81C110.265 113.631 109.433 113.189 108.779 112.538L99.6636 103.421L106.273 96.8117L115.389 105.929C115.823 106.362 116.167 106.878 116.401 107.445C116.634 108.012 116.753 108.62 116.75 109.234H116.75ZM54.481 88.6554C58.1417 92.3128 62.8045 94.8028 67.88 95.8106C72.9556 96.8184 78.216 96.2988 82.9962 94.3174C87.7765 92.3361 91.8621 88.982 94.7365 84.6792C97.6108 80.3763 99.145 75.3178 99.145 70.1432C99.145 64.9686 97.6108 59.9101 94.7365 55.6073C91.8621 51.3044 87.7765 47.9503 82.9962 45.969C78.216 43.9877 72.9556 43.4681 67.88 44.4759C62.8045 45.4837 58.1417 47.9736 54.481 51.631C49.5792 56.545 46.8264 63.2024 46.8264 70.1432C46.8264 77.084 49.5792 83.7415 54.481 88.6554ZM5.85805 82.7328H45.8401C47.6532 86.6303 50.2836 90.0921 53.5527 92.8832C56.8218 95.6743 60.6532 97.7294 64.7868 98.909C68.9203 100.089 73.2593 100.365 77.5091 99.7197C81.759 99.0743 85.8202 97.5221 89.4172 95.1685L92.5648 98.3171L92.2367 98.6466C91.8857 98.9985 91.6886 99.4751 91.6886 99.9721C91.6886 100.469 91.8857 100.946 92.2367 101.298L106.128 115.189C107.709 116.763 109.85 117.644 112.08 117.642C114.311 117.639 116.449 116.752 118.026 115.175C119.603 113.598 120.491 111.459 120.494 109.229C120.497 106.999 119.615 104.858 118.042 103.277L104.15 89.3853C103.798 89.034 103.321 88.8368 102.824 88.8368C102.326 88.8368 101.849 89.034 101.497 89.3853L101.169 89.7134L98.0213 86.5648C98.8251 85.3414 99.5373 84.0602 100.152 82.7316H106.883C108.303 82.7296 109.665 82.1646 110.669 81.1603C111.673 80.1561 112.239 78.7946 112.241 77.3743V7.711C112.239 6.2902 111.675 4.92793 110.67 3.92307C109.666 2.91822 108.304 2.35287 106.883 2.35107H5.85805C4.43731 2.35312 3.07537 2.91854 2.07093 3.92333C1.06649 4.92812 0.50155 6.29026 0.5 7.711L0.5 77.3743C0.502293 78.7947 1.06752 80.1562 2.07184 81.1606C3.07616 82.165 4.43767 82.7304 5.85805 82.7328Z" fill="#184463"/>
</g>
<defs>
<clipPath id="clip0_88_172">
<rect width="120" height="120" fill="white" transform="translate(0.5)"/>
</clipPath>
</defs>
</svg>
