<svg width="148" height="521" viewBox="0 0 148 521" fill="none" xmlns="http://www.w3.org/2000/svg">
<path fill-rule="evenodd" clip-rule="evenodd" d="M-167.287 432.829C-211.376 420.225 -262.911 419.332 -292.361 384.212C-323.546 347.006 -334.586 293.153 -324.073 245.836C-313.969 200.36 -277.941 164.208 -238.105 140.01C-204.398 119.538 -162.53 131.137 -123.697 124.128C-85.9072 117.316 -51.6782 91.8748 -14.0429 99.5856C28.5178 108.29 78.3041 127.56 92.8773 168.46C107.574 209.713 63.6435 247.77 53.9863 290.45C45.8227 326.27 61.9506 367.035 40.9597 397.19C18.9555 428.772 -20.0087 444.689 -58.0006 451.187C-95.3037 457.563 -130.873 443.23 -167.287 432.829Z" fill="#BADEFF"/>
<g opacity="0.5">
<mask id="mask0_2304_1639" style="mask-type:luminance" maskUnits="userSpaceOnUse" x="-291" y="45" width="438" height="431">
<path d="M-15.4189 45.0293L146.822 300.094L-128.722 475.361L-290.963 220.296L-15.4189 45.0293Z" fill="white"/>
</mask>
<g mask="url(#mask0_2304_1639)">
<path d="M-79.8718 416.839C-78.372 415.885 -76.8593 414.961 -75.3323 414.081C-74.3889 413.455 -73.4487 412.844 -72.5028 412.242C-32.7577 386.961 -0.907266 387.43 19.046 374.738C52.986 353.15 28.173 329.129 5.6316 288.698C-28.318 227.815 93.298 226.331 62.361 177.694C44.3535 149.383 -6.02209 125.211 -64.1747 160.652C-112.055 189.824 -147.718 135.948 -217.716 180.472C-260.368 207.602 -268.916 242.077 -272.765 244.525C-273.867 245.226 -275.183 244.197 -275.562 243.601C-278.273 239.33 -257.764 199.224 -222.569 176.838C-148.593 129.783 -109.937 182.669 -68.7107 156.751C2.46356 111.997 54.0397 154.228 67.5739 175.506C71.2811 181.334 82.5157 199.343 59.9014 216.125C8.57396 254.205 -12.9825 252.393 26.3082 314.163L26.6105 314.639C30.1768 320.245 33.4201 326.058 36.7648 331.805C52.0698 358.088 26.5396 376.492 21.8604 379.468C-1.94142 394.608 -25.1782 388.738 -75.5736 420.794C-109.763 442.541 -121.925 467.9 -127.471 471.428C-127.66 471.548 -127.85 471.668 -128.053 471.766C-128.502 471.876 -128.949 471.856 -129.383 471.704C-129.824 471.55 -130.182 471.292 -130.471 470.931C-132.285 468.079 -109.34 435.583 -79.8718 416.839Z" fill="#184463"/>
</g>
<mask id="mask1_2304_1639" style="mask-type:luminance" maskUnits="userSpaceOnUse" x="-275" y="99" width="351" height="336">
<path d="M-44.0925 99.7725L75.382 287.603L-154.958 434.117L-274.432 246.286L-44.0925 99.7725Z" fill="white"/>
</mask>
<g mask="url(#mask1_2304_1639)">
<path d="M-115.483 392.473C-114.473 391.83 -113.514 391.188 -112.632 390.627C-80.8028 371.029 -81.9623 373.731 -77.0588 370.761C-61.0225 361.021 -39.2347 353.689 -28.8013 347.053C-4.34415 331.496 -19.209 312.62 -19.4438 312.251C-28.0469 298.726 -39.9618 292.894 -48.6148 279.291C-75.014 237.787 13.7609 204.614 3.39671 188.321C-5.83451 173.808 -40.8107 185.646 -59.5112 192.634C-144.319 224.34 -162.907 183.093 -215.232 216.375C-245.969 235.927 -251.711 270.665 -255.112 272.828C-255.355 272.956 -255.61 273.034 -255.882 273.065C-256.154 273.095 -256.419 273.076 -256.685 273.005C-256.95 272.934 -257.189 272.814 -257.41 272.65C-257.626 272.483 -257.804 272.285 -257.946 272.051C-259.106 270.228 -250.537 232.149 -218.189 211.574C-189.491 193.319 -154.855 196.599 -141.475 198.323C-92.1766 204.681 -102.029 201.349 -39.6425 179.789C-23.2065 174.111 1.93938 174.729 8.85766 185.605C23.5337 208.678 -68.2374 237.956 -43.7519 276.45C-34.9228 290.331 -24.3292 294.177 -14.3348 309.889C-13.419 311.329 3.03273 333.454 -27.4371 352.835C-34.9312 357.602 -73.9851 372.954 -99.1482 388.96C-99.785 389.365 -100.177 389.614 -101.534 390.477C-106.804 393.829 -112.138 397.08 -117.413 400.435C-138.801 414.039 -146.165 423.759 -154.688 429.181C-155.243 429.307 -155.788 429.284 -156.331 429.124C-156.877 428.959 -157.344 428.673 -157.736 428.261C-159.931 424.809 -132.335 403.05 -121.159 395.941C-118.15 394.027 -117.458 393.729 -115.483 392.473Z" fill="#184463"/>
</g>
<mask id="mask2_2304_1639" style="mask-type:luminance" maskUnits="userSpaceOnUse" x="-255" y="154" width="276" height="253">
<path d="M-62.3577 154.531L20.2977 284.477L-172.24 406.945L-254.895 277L-62.3577 154.531Z" fill="white"/>
</mask>
<g mask="url(#mask2_2304_1639)">
<path d="M-37.2888 220.111C-43.3292 223.953 -49.4456 227.656 -54.7946 230.954C-57.7181 232.574 -60.5443 234.255 -63.2669 235.987C-97.0961 257.505 -99.9443 270.38 -93.5397 280.449C-82.3301 298.072 -57.1107 302.046 -50.2218 312.876C-43.3182 323.73 -53.6452 330.778 -55.468 331.938C-66.9259 339.226 -120.586 354.898 -148.274 372.51C-157.535 378.4 -172.86 393.029 -176.409 395.286C-176.916 395.609 -178.836 394.996 -179.326 394.225C-181.037 391.535 -162.22 374.866 -150.688 367.531C-129.189 353.856 -63.2971 330.339 -59.1486 327.7C-57.5104 326.658 -51.5172 321.835 -55.148 316.126C-61.6759 305.864 -85.5617 302.876 -97.1734 284.621C-103.064 275.36 -111.42 259.869 -65.9856 230.969C-59.7236 226.986 -47.2176 220.418 -42.4416 217.38C-37.7024 214.366 -35.6628 210.806 -36.2175 209.934C-36.6712 209.16 -37.2894 208.555 -38.072 208.119C-41.2214 206.907 -49.7919 210.797 -52.9772 212.667C-115.247 249.197 -163.494 226.536 -199.995 249.754C-223.013 264.394 -234.803 298.754 -237.406 300.409C-237.652 300.521 -237.912 300.582 -238.185 300.6C-238.459 300.619 -238.72 300.584 -238.98 300.503C-239.239 300.421 -239.476 300.293 -239.692 300.127C-239.904 299.957 -240.08 299.751 -240.218 299.514C-242.754 295.527 -223.799 258.083 -203.675 245.282C-170.146 223.955 -101.768 236.495 -70.1125 216.359C-69.8218 216.174 -69.6787 216.083 -69.1157 215.725C-59.416 209.556 -36.6629 195.426 -30.2319 205.537C-26.9696 210.676 -30.8376 216.007 -37.2888 220.111Z" fill="#184463"/>
</g>
</g>
</svg>
