<svg width="166" height="334" viewBox="0 0 166 334" fill="none" xmlns="http://www.w3.org/2000/svg">
<path d="M248.18 252.874L248.185 252.871C260.724 246.256 270.446 234.117 281.366 220.48L281.719 220.039C281.72 220.038 281.72 220.038 281.72 220.038C282.484 219.071 283.255 218.098 284.033 217.117C294.292 204.174 305.786 189.673 318.322 166.936L318.325 166.932C332.122 142.549 346.902 109.035 341.932 79.1456C339.411 64.1106 331.954 49.966 321.599 40.0785C311.247 30.1933 298.028 24.5867 283.956 26.5392L283.952 26.5397C269.794 28.401 254.686 37.8185 238.834 48.4751C237.006 49.7045 235.167 50.9501 233.32 52.2018C219.202 61.7683 204.563 71.6884 189.651 77.4374L189.648 77.4384C172.731 83.8464 155.515 84.8375 140.415 85.6392L139.744 85.6747C132.438 86.0621 125.651 86.4218 119.621 87.3458C113.408 88.2977 108.045 89.8424 103.782 92.598C95.2988 98.2038 91.078 108.687 88.329 121.562C86.9569 127.988 85.9579 134.975 84.9684 142.199C84.8676 142.935 84.767 143.673 84.666 144.413C83.7765 150.936 82.8649 157.62 81.6693 164.207C79.6999 175.058 76.9478 185.626 74.1858 196.231C73.2148 199.96 72.2425 203.693 71.3026 207.445C67.686 221.883 64.5402 236.624 63.7399 252.547L63.7397 252.55C62.8328 268.523 64.2758 285.656 69.0356 299.104C73.7992 312.563 81.826 322.194 94.0168 323.484C100.126 324.082 107.359 322.581 115.26 319.697C123.156 316.815 131.676 312.57 140.343 307.727C149.009 302.884 157.809 297.451 166.267 292.197C166.863 291.826 167.458 291.457 168.05 291.089C175.861 286.234 183.349 281.581 190.116 277.757C204.755 269.384 216.067 264.909 225.334 261.649C227.497 260.888 229.544 260.194 231.492 259.534C237.91 257.361 243.26 255.548 248.18 252.874Z" stroke="#184463"/>
<path d="M92.0518 314.743C116.926 317.184 159.372 285.385 188.449 268.954C217.663 252.244 233.584 251.099 246.506 244.075C259.291 237.33 269.153 224.902 280.199 211.111C291.032 197.401 303.337 182.442 316.847 157.94C330.646 133.553 345.514 99.9019 340.512 69.8249C335.435 39.5502 310.488 12.8498 281.974 16.8059C253.385 20.5644 221.152 54.7817 187.558 67.7328C153.888 80.4863 118.994 71.6939 101.595 82.9415C84.2722 94.3866 84.5802 125.592 79.2645 154.88C73.9488 184.168 62.9332 211.34 61.3277 243.283C59.5095 275.309 67.1013 312.105 92.0518 314.743Z" fill="#B7DBFC"/>
<mask id="mask0_13_2921" style="mask-type:alpha" maskUnits="userSpaceOnUse" x="61" y="16" width="281" height="299">
<path d="M92.0518 314.743C116.926 317.184 159.372 285.385 188.449 268.954C217.663 252.244 233.584 251.099 246.506 244.075C259.291 237.33 269.153 224.902 280.199 211.111C291.032 197.401 303.337 182.442 316.847 157.94C330.646 133.553 345.514 99.9019 340.512 69.8249C335.435 39.5502 310.488 12.8498 281.974 16.8059C253.385 20.5644 221.152 54.7817 187.558 67.7328C153.888 80.4863 118.994 71.6939 101.595 82.9415C84.2722 94.3866 84.5802 125.592 79.2645 154.88C73.9488 184.168 62.9332 211.34 61.3276 243.283C59.5095 275.309 67.1013 312.105 92.0518 314.743Z" fill="#DCC075"/>
</mask>
<g mask="url(#mask0_13_2921)">
<path d="M119.235 248.908C119.349 247.312 119.656 245.84 120.01 244.238C120.361 242.647 120.849 241.009 121.338 239.366C121.827 237.722 122.314 236.083 122.884 234.543C123.568 233.017 124.091 231.603 125.156 230.013C126.333 228.12 128.148 226.754 130.171 226.116C132.197 225.467 134.422 225.565 136.481 226.438C138.439 227.261 140.021 228.78 140.981 230.694C142.048 232.635 142.29 234.877 141.712 237.084C140.333 242.741 138.85 248.358 137.471 254.015C135.032 263.826 117.364 259.436 119.802 249.629C121.179 243.977 122.556 238.325 123.934 232.671C129.487 235.042 135.041 237.412 140.595 239.782C140.607 239.749 140.612 239.735 140.612 239.735C140.612 239.735 140.606 239.751 140.596 239.779C140.576 239.832 140.538 239.934 140.489 240.068C140.39 240.336 140.138 240.693 139.967 241.155C139.623 242.083 139.288 243.314 138.841 244.522C138.499 245.768 138.25 247.08 137.971 248.157C137.695 249.224 137.582 250.177 137.595 250.462C137.265 255.537 132.773 259.309 127.693 258.877C122.613 258.446 118.783 253.991 119.235 248.908Z" fill="#184463"/>
<path d="M156.604 151.783C158.167 152.064 159.73 152.346 161.397 152.667C166.192 153.546 169.205 158.279 168.512 163.047C167.715 167.776 163.405 171.378 158.522 170.737C156.929 170.536 155.231 170.296 153.639 170.094C148.635 169.456 145.203 164.569 146.005 159.506C146.807 154.444 151.588 150.856 156.604 151.783Z" fill="#184463"/>
<path d="M91.6685 150.269C92.9695 151.902 94.3754 153.574 95.7816 155.245C97.3516 157.116 96.0135 160.088 94.4303 161.47C92.7429 162.812 89.6784 163.694 88.0945 161.86C86.6765 160.221 85.2577 158.582 83.8397 156.944C81.9038 154.773 82.2667 151.54 84.384 149.68C86.5013 147.82 89.8535 148.094 91.6685 150.269Z" fill="#184463"/>
<path d="M75.3879 252.508C75.3639 251.285 75.2354 250.023 75.1071 248.76C74.6806 243.154 84.7573 242.312 85.2967 247.934C85.3213 249.155 85.4511 250.415 85.5809 251.673C85.8466 254.494 83.7413 256.965 80.9185 257.192C78.0951 257.42 75.6497 255.34 75.3879 252.508Z" fill="#184463"/>
<path d="M153.427 311.955C153.588 309.588 153.645 307.183 153.806 304.816C154.223 299.183 164.357 299.793 164.046 305.462C163.885 307.828 163.724 310.194 163.563 312.561C163.458 315.419 160.997 317.563 158.201 317.396C155.299 317.191 153.217 314.777 153.427 311.955Z" fill="#184463"/>
<path d="M133.502 99.3257C134.456 103.827 135.41 108.33 136.364 112.831C137.538 118.35 127.67 120.558 126.372 115.055C125.402 110.594 124.328 106.097 123.253 101.6C122.624 98.7934 124.487 96.0109 127.232 95.352C130.081 94.7318 132.882 96.4939 133.502 99.3257Z" fill="#184463"/>
<path d="M59.3903 200.169C62.627 201.399 65.7528 201.641 70.0932 201.819C72.7837 201.95 74.557 204.559 74.4501 207.1C74.3432 209.642 72.353 212.124 69.6528 212.019C65.2999 211.875 60.8223 211.746 55.7841 209.914C53.055 208.922 51.671 205.903 52.6668 203.213C53.6626 200.522 56.6756 199.138 59.3903 200.169Z" fill="#184463"/>
<path d="M117.364 305.452C117.335 306.817 117.202 308.143 117.068 309.469C113.914 308.659 110.655 307.812 107.501 307.003C108.756 304.257 109.69 301.09 110.831 297.684C111.705 294.999 114.617 293.569 117.367 294.503C120.013 295.398 121.441 298.297 120.461 300.943C119.388 304.167 118.32 307.696 116.63 311.297C115.576 313.502 112.991 314.697 110.725 314.061C108.533 313.549 106.776 311.217 106.959 308.792C107.092 307.467 107.12 306.103 107.254 304.777C107.66 299.175 117.768 299.854 117.364 305.452Z" fill="#184463"/>
<path d="M88.0237 100.261C92.0257 104.894 94.554 109.645 96.8876 113.638C102.072 122.475 86.1959 131.912 80.9935 123.122C78.4003 118.866 76.2888 115.239 73.9143 112.645C70.4511 108.809 70.9757 102.887 74.8626 99.4629C78.6442 96.0017 84.7037 96.3608 88.0237 100.261Z" fill="#184463"/>
<path d="M43.3569 257.338C41.5782 256.352 39.5799 254.995 37.9213 252.398C37.1923 251.149 36.5811 249.581 36.4271 248.066C36.168 246.514 36.3441 245.072 36.5565 243.854C37.0979 241.426 38.1017 240.003 38.7704 238.839C39.542 237.72 40.2026 236.898 40.8087 236.226C43.963 232.207 49.7934 231.578 53.7353 234.764C57.7823 237.987 58.3667 243.809 55.219 247.81C54.6042 248.506 54.176 249.019 54.1114 249.194C54.1036 249.215 54.0985 249.229 54.0962 249.235C54.0985 249.229 54.0947 249.239 54.0985 249.229C54.1064 249.207 54.127 249.152 54.1636 249.053C54.2364 248.856 54.3757 248.479 54.5921 247.895C54.7011 247.278 54.788 246.399 54.6668 245.439C54.546 244.479 54.196 243.495 53.7466 242.779C53.3011 242.052 52.7649 241.57 52.4958 241.331C52.3092 241.192 52.2163 241.122 52.2226 241.105C52.121 241.058 52.1219 241.053 52.1227 241.051C52.1234 241.049 52.1235 241.049 52.1227 241.051C56.4427 243.537 57.9143 249.214 55.5785 253.595C53.2426 257.976 47.8127 259.779 43.3569 257.338Z" fill="#184463"/>
<path d="M41.7496 165.779C41.6563 164.422 41.5631 163.065 41.4703 161.706C40.9024 151.656 58.0489 149.729 59.6013 159.694C59.818 161.039 60.0341 162.385 60.2508 163.731C60.9943 168.801 57.0201 173.427 51.9265 173.998C46.8324 174.569 41.9996 170.896 41.7496 165.779Z" fill="#184463"/>
<path d="M111.797 182.445C113.547 181.899 115.296 181.352 117.047 180.805C126.626 177.769 132.18 194.944 122.64 198.197C120.877 198.776 119.22 199.395 117.457 199.974C112.68 201.621 107.486 198.92 105.836 194.047C104.29 189.213 106.947 183.964 111.797 182.445Z" fill="#184463"/>
<path d="M156.063 102.401C155.245 102.038 154.531 101.713 153.712 101.351C149.117 99.2895 147.245 93.7287 149.514 89.2046C151.679 84.6431 157.091 82.5681 161.605 84.8507C162.41 85.2499 163.11 85.6103 163.81 85.972C168.327 88.248 170.165 93.5786 168.034 98.0497C165.903 102.521 160.555 104.422 156.063 102.401Z" fill="#184463"/>
</g>
</svg>
