<svg width="176" height="284" viewBox="0 0 176 284" fill="none" xmlns="http://www.w3.org/2000/svg">
<path d="M140.609 115.81C148.422 143.496 140.427 176.958 120.743 205.477C101.127 233.857 69.7518 257.087 39.9687 255.578C10.2552 254.275 -18.0044 228.164 -40.3317 198.445C-62.7277 168.864 -79.3297 135.605 -73.6049 106.018C-67.7417 76.5001 -39.5517 50.6531 -9.24554 41.0374C20.9222 31.3529 53.0677 37.8309 81.088 51.9202C109.04 66.1478 132.797 88.125 140.609 115.81Z" fill="#BADEFF"/>
<mask id="mask0_16_791" style="mask-type:alpha" maskUnits="userSpaceOnUse" x="-75" y="36" width="219" height="220">
<path d="M140.609 115.81C148.422 143.496 140.427 176.958 120.743 205.477C101.127 233.857 69.7518 257.087 39.9687 255.578C10.2552 254.275 -18.0044 228.164 -40.3317 198.445C-62.7277 168.864 -79.3297 135.605 -73.6049 106.018C-67.7417 76.5001 -39.5517 50.6531 -9.24554 41.0374C20.9222 31.3529 53.0677 37.8309 81.088 51.9202C109.04 66.1478 132.797 88.125 140.609 115.81Z" fill="#FF0066"/>
</mask>
<g mask="url(#mask0_16_791)">
<path d="M141.123 47.2343L-113.294 56.2833C-118.022 56.4515 -121.987 59.9071 -122.8 64.5682L-136.545 143.374C-137.907 151.188 -130.076 157.408 -122.774 154.311L-19.1589 110.374C-18.1427 109.943 -17.2048 109.347 -16.3831 108.61L11.4719 83.6286C13.4177 81.8836 15.9078 80.9661 18.5192 81.0759C45.1983 82.1982 196.403 88.5119 213.089 88.1527C231.342 87.7597 -72.9945 188.066 -157.924 176.1C-158.468 176.023 -159.039 175.992 -159.588 176.008C-201.351 177.279 -123.555 224.487 -98.7689 238.904C-94.5856 241.337 -89.3067 240.327 -86.2305 236.591L-58.5621 202.987C-57.3863 201.559 -55.8726 200.497 -54.1226 199.898C-27.4671 190.769 192.021 115.902 194.877 124.82C197.918 134.316 -36.3598 221.369 -24.7473 231.889C-13.1348 242.409 100.101 209.712 164.081 235.451" stroke="#184463" stroke-width="2.50281"/>
</g>
</svg>
