<svg width="104" height="200" viewBox="0 0 104 200" fill="none" xmlns="http://www.w3.org/2000/svg">
<path d="M185.506 59.315C196.805 79.3337 196.924 106.826 187.031 132.689C177.166 158.433 157.197 182.4 133.787 186.857C110.471 191.463 83.5937 176.532 60.6404 157.678C37.66 138.944 18.483 116.259 17.335 92.2053C16.3074 68.1783 33.3088 42.7815 55.0215 29.5868C76.6137 16.365 102.797 15.3182 127.215 20.9606C151.607 26.7236 174.207 39.2962 185.506 59.315Z" fill="#BADEFF"/>
<mask id="mask0_13_44" style="mask-type:alpha" maskUnits="userSpaceOnUse" x="17" y="17" width="178" height="171">
<path d="M185.506 59.315C196.805 79.3337 196.924 106.826 187.031 132.689C177.166 158.433 157.197 182.4 133.787 186.857C110.471 191.463 83.5937 176.532 60.6404 157.678C37.66 138.944 18.483 116.259 17.335 92.2053C16.3074 68.1783 33.3088 42.7815 55.0215 29.5868C76.6137 16.365 102.797 15.3182 127.215 20.9606C151.607 26.7236 174.207 39.2962 185.506 59.315Z" fill="#FF0066"/>
</mask>
<g mask="url(#mask0_13_44)">
<path d="M172.942 5.97421L-22.8815 61.0925C-26.521 62.1169 -28.9464 65.5494 -28.6965 69.3221L-24.4713 133.107C-24.0524 139.431 -16.7961 142.78 -11.712 138.996L60.4314 85.2954C61.1389 84.7688 61.7545 84.1287 62.2532 83.4012L79.1581 58.7395C80.339 57.0168 82.0989 55.8337 84.1472 55.4254C105.074 51.2536 223.666 27.5733 236.553 24.1403C250.651 20.3848 33.3185 155.794 -34.8844 162.557C-35.3211 162.601 -35.771 162.684 -36.194 162.801C-68.379 171.682 0.946693 193.629 22.9166 200.137C26.6246 201.236 30.5323 199.454 32.2145 195.971L47.3447 164.651C47.9877 163.32 48.9622 162.209 50.2076 161.413C69.1779 149.286 225.441 49.6678 229.344 56.0524C233.5 62.8499 68.0577 174.726 79.0625 180.699C90.0673 186.672 171.805 139.88 226.346 147.77" stroke="#184463" stroke-width="2"/>
</g>
</svg>
