<svg width="82" height="55" viewBox="0 0 82 55" fill="none" xmlns="http://www.w3.org/2000/svg">
<path d="M55.5289 19.415C56.1608 17.3122 56.6324 17.4678 56.9344 17.4678C58.7622 17.4239 60.5856 17.6735 62.3394 18.2077C63.094 18.3829 64.3109 18.4999 64.6502 18.5388C64.7162 18.5388 64.7728 18.6558 64.8202 18.6558C65.2651 18.6707 65.709 18.7096 66.15 18.7725C66.2067 18.2662 66.235 17.7988 66.2917 17.2537C66.499 15.5012 66.65 13.7488 66.9426 12.0063C66.9989 11.6556 66.3483 11.2467 67.8858 11.0327H67.9518C68.4856 10.9891 69.0216 10.9891 69.5553 11.0327C71.9984 11.0327 72.7626 11.2567 72.385 11.6948C72.3003 11.7919 72.385 11.9089 72.4606 12.0256C72.5881 12.3121 72.6464 12.6262 72.6303 12.941C72.6303 13.2329 72.2247 13.5347 72.2437 13.8073C72.5022 14.9604 72.6757 16.1321 72.7623 17.3122C72.6631 18.2167 72.47 19.1075 72.187 19.9698C72.8663 20.0187 73.5452 20.0187 74.2244 20.0379C76.1582 20.0964 78.092 20.0379 80.0445 19.9505C80.4501 19.9505 80.7424 19.191 81.318 20.6512V20.7197C81.4822 21.2482 81.5929 21.7931 81.648 22.3452C82.1576 24.818 82.1196 25.6264 81.497 25.3246C81.365 25.2564 81.252 25.3827 81.1293 25.4801C80.8065 25.6779 80.4459 25.8006 80.0728 25.8405C79.7142 25.9086 79.2899 25.5386 78.9693 25.6164C77.6181 26.0735 76.2284 26.3993 74.8187 26.5901C73.6518 26.5728 72.4906 26.4192 71.3571 26.1323C71.3777 27.5112 71.1604 28.8823 70.7155 30.1824C70.2532 31.2242 70.7155 32.3633 70.8005 33.4633C70.8475 33.921 69.5363 34.1058 67.3199 33.9403C65.1031 33.7747 65.2161 33.3466 65.1315 33.0837C64.6775 31.4608 64.5903 29.7523 64.8768 28.0892C64.9521 27.3785 64.9332 26.259 64.9521 25.9379C64.9521 25.8697 65.0558 25.8209 65.0558 25.7723C65.0558 25.7235 65.0558 25.4509 65.0558 25.2953H64.8578C62.9714 24.9057 61.0849 24.8572 59.3021 23.8447C58.1322 23.1436 56.7364 23.3188 55.4159 23.1244C54.8216 22.9881 54.8686 21.6052 55.5289 19.415Z" fill="#6C6CFF"/>
<path d="M25.8102 43.9083C26.5921 41.904 26.9313 41.9995 27.1576 41.9995C28.516 41.9053 29.8798 42.0673 31.1799 42.4766C31.7426 42.5835 32.3129 42.6441 32.8852 42.6578C32.9321 42.6578 32.9698 42.7631 33.0077 42.7631C33.8163 42.753 34.6249 42.7943 35.4286 42.8872C35.4286 42.5721 35.4286 42.2573 35.4286 41.9327C35.5418 40.558 35.6077 39.1932 35.8148 37.8283C35.8148 37.5517 35.1743 37.2557 36.6629 37.0266H36.7288C37.2618 36.9911 37.7968 36.9911 38.3302 37.0266C40.7701 37.0266 41.533 37.1029 41.1562 37.4562C41.0717 37.5324 41.1562 37.6185 41.2504 37.7042C41.3903 37.9121 41.4626 38.1591 41.4578 38.4107C41.4578 38.6493 41.081 38.8878 41.1279 39.0977C41.4395 39.978 41.6697 40.8853 41.8156 41.8085C41.7967 42.2097 41.7301 42.607 41.6179 42.9922C42.475 42.8299 43.3325 42.6389 44.1896 42.4385C44.4912 42.3622 44.5005 41.6175 45.3107 42.9061L45.358 42.9635C45.6181 43.4399 45.8447 43.9343 46.036 44.4431C47.0819 46.6764 47.2513 47.4494 46.6674 47.3064C46.545 47.3064 46.4787 47.4019 46.4035 47.5162C46.1964 47.762 45.9257 47.9438 45.6216 48.0413C45.3483 48.1654 44.9153 47.8884 44.6796 48.0413C43.6749 48.7152 42.5847 49.2481 41.4388 49.6258C41.2559 49.6659 41.0701 49.6913 40.8829 49.702C40.9206 50.4754 40.7784 51.2471 40.4685 51.9546C40.0541 52.785 40.5441 53.6535 40.7228 54.5031C40.7984 54.8561 39.4982 55.0471 37.275 54.99C35.0518 54.9327 35.146 54.5888 35.0425 54.3884C34.5149 53.1715 34.3419 51.8269 34.5432 50.5135C34.5618 50.1606 34.5618 49.807 34.5432 49.454C34.0445 49.443 33.5472 49.3983 33.0546 49.3204C31.5002 49.0626 29.8518 49.1008 28.4388 48.1557C27.4965 47.5163 26.3191 47.7072 25.2167 47.5068C24.7929 47.3158 24.9907 45.9986 25.8102 43.9083Z" fill="#6C6CFF"/>
<path d="M0.0233612 16.4294C0.1308 14.219 0.648972 14.2387 0.952267 14.1409C2.86747 13.6506 4.85974 13.5378 6.81832 13.8082C7.65881 13.8767 8.96909 13.8082 9.34045 13.8082C9.41886 13.8082 9.48726 13.9061 9.53598 13.9061C10.0535 13.867 10.573 13.867 11.0905 13.9061C11.1689 13.5832 11.3154 13.2606 11.4228 12.928C11.2763 12.5269 11.6477 12.2043 11.7748 11.8423C12.1442 10.5282 12.3897 9.18243 12.5082 7.8226C12.8602 5.62189 13.1435 3.42118 13.5836 1.24018C13.6717 0.790349 13.0264 0.262042 14.5612 0.0175932H14.6296C15.1878 -0.0201428 15.7484 0.00289503 16.3016 0.0860477C18.8337 0.193579 19.6061 0.448048 19.1564 0.986036C19.0586 1.11294 19.1564 1.25988 19.2151 1.39679C19.3289 1.77349 19.3622 2.17021 19.3125 2.56059C19.3125 2.93228 18.8531 3.29428 18.8531 3.63657C19.0329 5.10327 19.121 6.57965 19.117 8.05736C18.9411 9.73945 18.2371 11.3434 17.9145 13.0061C17.7873 13.6516 17.6996 14.3072 17.6212 14.9624C18.2665 14.9624 18.9215 15.0405 19.5768 15.0993C21.6394 15.285 23.7024 15.4122 25.7555 15.6957C26.1759 15.6957 26.6353 15.0602 26.958 16.6154C26.958 16.6154 26.958 16.6642 26.958 16.6839C27.014 17.2366 27.014 17.7936 26.958 18.3466C27.0167 20.8796 26.8212 21.672 26.2933 21.2806C26.1759 21.1925 26.0391 21.2806 25.9119 21.3688C25.5736 21.5051 25.2106 21.5685 24.8462 21.5545C24.4942 21.5545 24.1325 21.1437 23.8099 21.1731C22.4592 21.4596 21.0906 21.6527 19.7136 21.7502C18.7019 21.6734 17.7003 21.4997 16.722 21.2316C16.6206 22.2654 16.3736 23.2796 15.9886 24.2441C15.4214 25.5448 15.7834 26.9828 15.8224 28.3717C15.8224 28.9487 14.4634 29.1538 12.1856 28.8799C9.90767 28.6061 10.0348 28.0781 9.96606 27.7358C9.62306 25.653 9.66276 23.5251 10.0835 21.4566C10.0835 21.1828 10.1616 20.8699 10.191 20.547H10.0445C8.18699 20.3222 6.31951 20.547 4.48138 19.8624C3.23984 19.3928 1.92022 19.8624 0.629625 19.9993C0.189529 20.0874 -0.0840759 18.7767 0.0233612 16.4294Z" fill="#6C6CFF"/>
</svg>
