<svg width="121" height="120" viewBox="0 0 121 120" fill="none" xmlns="http://www.w3.org/2000/svg">
<g clip-path="url(#clip0_88_348)">
<path d="M76.5 36H20.5C17.1863 36 14.5 38.6863 14.5 42V112C14.5 115.314 17.1863 118 20.5 118H76.5C79.8137 118 82.5 115.314 82.5 112V42C82.5 38.6863 79.8137 36 76.5 36Z" fill="white"/>
<path d="M70.5 36H20.5C17.1863 36 14.5 38.6863 14.5 42V112C14.5 115.314 17.1863 118 20.5 118H70.5C73.8137 118 76.5 115.314 76.5 112V42C76.5 38.6863 73.8137 36 70.5 36Z" fill="white"/>
<path d="M56.5 44V52H40.5C40.5 44.966 40.514 44.242 40.48 44H56.5Z" fill="white"/>
<path d="M59.24 36.98C57.5249 38.9221 56.554 41.4095 56.5 44H40.48C40.3265 41.3511 39.3156 38.824 37.6 36.8C32.9664 31.0595 33.5824 22.7083 39.0083 17.7099C44.4341 12.7115 52.8076 12.7811 58.1495 17.8691C63.4915 22.9571 63.9685 31.3173 59.24 36.98Z" fill="#BADEFF"/>
<path d="M56.5 52V56C56.4934 58.2064 54.7064 59.9934 52.5 60H44.5C42.2936 59.9934 40.5066 58.2064 40.5 56V52H56.5Z" fill="#FFF3E9"/>
<path d="M52.5 60V64C52.5 66.2091 50.7091 68 48.5 68C46.2909 68 44.5 66.2091 44.5 64V60H52.5Z" fill="white"/>
<path d="M59.24 36.98C57.5249 38.9221 56.554 41.4095 56.5 44H50.5C50.554 41.4095 51.5249 38.9221 53.24 36.98C56.3688 33.2187 57.3108 28.0986 55.7257 23.4701C54.1406 18.8415 50.2577 15.3737 45.48 14.32C51.325 13.0553 57.329 15.6362 60.433 20.7478C63.5369 25.8595 63.0579 32.3771 59.24 36.98Z" fill="#BADEFF"/>
<path d="M95.68 68.9799L63.14 101.52L51.84 90.1999L84.36 57.6799L95.68 68.9799Z" fill="#BADEFF"/>
<path d="M63.14 101.52C46.94 108.46 43.7 109.76 43.36 109.98L51.84 90.2L63.14 101.52Z" fill="white"/>
<path d="M104.16 60.5001L95.68 68.9801L84.36 57.6801L92.84 49.1801C94.8621 47.158 97.8094 46.3682 100.572 47.1084C103.334 47.8485 105.492 50.0061 106.232 52.7684C106.972 55.5306 106.182 58.478 104.16 60.5001Z" fill="#BADEFF"/>
<path d="M95.68 68.98L63.14 101.52L59.16 97.52L91.68 65L95.68 68.98Z" fill="#BADEFF"/>
<path d="M63.14 101.52C46.94 108.46 43.7 109.76 43.36 109.98L46.36 103C49.3 101.74 53.4 99.98 59.14 97.54L63.14 101.52Z" fill="#FFF3E9"/>
<path d="M104.16 60.5001L95.68 68.9801L91.68 65.0001L100.16 56.5201C102.513 54.1619 103.158 50.5927 101.78 47.5601C104.174 48.639 105.886 50.8239 106.361 53.4064C106.836 55.9888 106.013 58.64 104.16 60.5001Z" fill="#BADEFF"/>
<path d="M33.682 33.9999H20.5C16.0817 33.9999 12.5 37.5816 12.5 41.9999V112C12.5 116.418 16.0817 120 20.5 120H76.5C80.9183 120 84.5 116.418 84.5 112V93.4599C84.5 92.3554 83.6046 91.4599 82.5 91.4599C81.3954 91.4599 80.5 92.3554 80.5 93.4599V112C80.5 114.209 78.7091 116 76.5 116H20.5C18.2909 116 16.5 114.209 16.5 112V41.9999C16.5 39.7908 18.2909 37.9999 20.5 37.9999H36.01C37.5534 39.7822 38.4331 42.0432 38.5 44.3999V55.9999C38.5105 58.5335 40.1113 60.7874 42.5 61.6319C42.5 64.1859 42.238 66.2579 44.248 68.2159C45.9597 69.9352 48.5383 70.4545 50.782 69.5318C53.0258 68.6091 54.493 66.426 54.5 63.9999V61.6319C56.8887 60.7874 58.4895 58.5335 58.5 55.9999V44.0199C58.5707 41.78 59.4503 39.6414 60.976 37.9999H76.5C78.7091 37.9999 80.5 39.7908 80.5 41.9999C80.5 43.1045 81.3954 43.9999 82.5 43.9999C86.684 43.9999 84.128 33.9999 76.5 33.9999H63.334C66.046 27.3162 63.9506 19.6442 58.2175 15.267C52.4845 10.8898 44.5315 10.8898 38.7985 15.267C33.0654 19.6442 30.97 27.3162 33.682 33.9999ZM54.5 45.9999V49.9999H42.5V45.9999H54.5ZM48.5 65.9999C47.3991 65.9912 46.5087 65.1009 46.5 63.9999V61.9999H50.5V63.9999C50.5 65.1045 49.6046 65.9999 48.5 65.9999ZM54.5 55.9999C54.5 57.1045 53.6046 57.9999 52.5 57.9999H44.5C43.3954 57.9999 42.5 57.1045 42.5 55.9999V53.9999H54.5V55.9999ZM40.5 19.0499C45.1863 14.829 52.3404 14.9561 56.8738 19.3409C61.4072 23.7257 61.7725 30.8716 57.71 35.6959C56.1653 37.4931 55.1265 39.6688 54.7 41.9999H50.5V31.9999C50.5 30.8954 49.6046 29.9999 48.5 29.9999C47.3954 29.9999 46.5 30.8954 46.5 31.9999V41.9999H42.26C41.01 35.5379 36.5 34.9239 36.5 27.9999C36.5007 24.5837 37.9552 21.3291 40.5 19.0499Z" fill="#184463"/>
<path d="M50.5 6V2C50.5 0.89543 49.6046 0 48.5 0C47.3954 0 46.5 0.89543 46.5 2V6C46.5 7.10457 47.3954 8 48.5 8C49.6046 8 50.5 7.10457 50.5 6Z" fill="#184463"/>
<path d="M70.5 30H74.5C75.6046 30 76.5 29.1046 76.5 28C76.5 26.8954 75.6046 26 74.5 26H70.5C69.3954 26 68.5 26.8954 68.5 28C68.5 29.1046 69.3954 30 70.5 30Z" fill="#184463"/>
<path d="M26.5 26H22.5C21.3954 26 20.5 26.8954 20.5 28C20.5 29.1046 21.3954 30 22.5 30H26.5C27.6046 30 28.5 29.1046 28.5 28C28.5 26.8954 27.6046 26 26.5 26Z" fill="#184463"/>
<path d="M68.3 44.9701L65.472 42.1421C64.9699 41.6222 64.2263 41.4137 63.527 41.5967C62.8277 41.7798 62.2816 42.3258 62.0986 43.0251C61.9156 43.7244 62.1241 44.468 62.644 44.9701L65.47 47.8001C66.2515 48.5816 67.5185 48.5816 68.3 47.8001C69.0815 47.0186 69.0815 45.7516 68.3 44.9701Z" fill="#184463"/>
<path d="M31.53 13.8579C32.0321 14.3778 32.7757 14.5864 33.475 14.4033C34.1743 14.2203 34.7204 13.6742 34.9034 12.9749C35.0864 12.2757 34.8779 11.5321 34.358 11.0299L31.53 8.19993C31.0245 7.6944 30.2876 7.49696 29.5971 7.682C28.9065 7.86704 28.3671 8.40643 28.1821 9.097C27.997 9.78757 28.1945 10.5244 28.7 11.0299L31.53 13.8579Z" fill="#184463"/>
<path d="M31.53 47.8001L34.358 44.9721C34.8779 44.4699 35.0864 43.7263 34.9034 43.0271C34.7204 42.3278 34.1743 41.7817 33.475 41.5987C32.7757 41.4156 32.0321 41.6242 31.53 42.1441L28.7 44.9701C28.1945 45.4756 27.997 46.2124 28.1821 46.903C28.3671 47.5936 28.9065 48.133 29.5971 48.318C30.2876 48.503 31.0245 48.3056 31.53 47.8001Z" fill="#184463"/>
<path d="M65.47 8.19993L62.642 11.0299C61.884 11.8147 61.8949 13.0621 62.6664 13.8336C63.4378 14.605 64.6852 14.6159 65.47 13.8579L68.3 11.0299C68.8055 10.5244 69.003 9.78757 68.8179 9.097C68.6329 8.40643 68.0935 7.86704 67.4029 7.682C66.7124 7.49696 65.9755 7.6944 65.47 8.19993Z" fill="#184463"/>
<path d="M22.5 54C22.5 55.1046 23.3954 56 24.5 56H32.5C33.6046 56 34.5 55.1046 34.5 54C34.5 52.8954 33.6046 52 32.5 52H24.5C23.3954 52 22.5 52.8954 22.5 54Z" fill="#184463"/>
<path d="M66.5 52H64.5C63.3954 52 62.5 52.8954 62.5 54C62.5 55.1046 63.3954 56 64.5 56H66.5C67.6046 56 68.5 55.1046 68.5 54C68.5 52.8954 67.6046 52 66.5 52Z" fill="#184463"/>
<path d="M24.5 66H32.5C33.6046 66 34.5 65.1046 34.5 64C34.5 62.8954 33.6046 62 32.5 62H24.5C23.3954 62 22.5 62.8954 22.5 64C22.5 65.1046 23.3954 66 24.5 66Z" fill="#184463"/>
<path d="M24.5 86H46.72C47.8246 86 48.72 85.1046 48.72 84C48.72 82.8954 47.8246 82 46.72 82H24.5C23.3954 82 22.5 82.8954 22.5 84C22.5 85.1046 23.3954 86 24.5 86Z" fill="#184463"/>
<path d="M43.5 94C43.5 92.8954 42.6046 92 41.5 92H24.5C23.3954 92 22.5 92.8954 22.5 94C22.5 95.1046 23.3954 96 24.5 96H41.5C42.6046 96 43.5 95.1046 43.5 94Z" fill="#184463"/>
<path d="M24.5 102C23.3954 102 22.5 102.895 22.5 104C22.5 105.105 23.3954 106 24.5 106H37.22C38.3246 106 39.22 105.105 39.22 104C39.22 102.895 38.3246 102 37.22 102H24.5Z" fill="#184463"/>
<path d="M24.5 76H56.72C57.8246 76 58.72 75.1046 58.72 74C58.72 72.8954 57.8246 72 56.72 72H24.5C23.3954 72 22.5 72.8954 22.5 74C22.5 75.1046 23.3954 76 24.5 76Z" fill="#184463"/>
<path d="M98.5 44.8459C93.722 44.8459 91.628 47.5759 88.6 50.6039L87.186 49.1899C84.843 46.8477 81.045 46.8477 78.702 49.1899L65.974 61.9159C65.1925 62.6969 65.1921 63.9635 65.973 64.7449C66.7539 65.5264 68.0205 65.5269 68.802 64.7459L81.53 52.0179C82.311 51.2372 83.577 51.2372 84.358 52.0179L85.772 53.4319C48.114 91.0859 50.238 88.8319 49.972 89.4479C49.172 91.0579 52.834 82.7679 41.502 109.212C41.2367 109.831 41.3006 110.542 41.6721 111.103C42.0435 111.665 42.6727 112.002 43.346 112C43.932 112 42.396 112.576 63.932 103.352C64.744 103.004 64.39 103.106 105.57 61.9159C108.413 59.0504 109.258 54.7584 107.713 51.0292C106.169 47.3 102.536 44.8623 98.5 44.8459ZM47.154 106.2L52.5 93.7039L59.636 100.84L47.154 106.2ZM63.154 98.6939L54.66 90.1999L84.358 60.4999L92.844 68.9859L63.154 98.6939ZM102.754 59.0939L95.672 66.16L87.186 57.6739L94.258 50.5999C96.6321 48.334 100.368 48.334 102.742 50.5999C103.868 51.7253 104.501 53.252 104.501 54.8439C104.501 56.4359 103.868 57.9626 102.742 59.0879L102.754 59.0939Z" fill="#184463"/>
</g>
<defs>
<clipPath id="clip0_88_348">
<rect width="120" height="120" fill="white" transform="translate(0.5)"/>
</clipPath>
</defs>
</svg>
