<svg width="21" height="20" viewBox="0 0 21 20" fill="none" xmlns="http://www.w3.org/2000/svg">
<g clip-path="url(#clip0_2024_87)">
<path d="M1.20884 0.704189L1.20872 0.703918L1.21599 0.701315C1.22755 0.697172 1.23864 0.69561 1.24217 0.695114L1.24245 0.695074C1.2481 0.694275 1.2542 0.693645 1.26017 0.693123C1.27223 0.692062 1.28769 0.691099 1.30587 0.690193C1.34244 0.688374 1.39352 0.686621 1.45792 0.684925C1.58692 0.681528 1.77173 0.678299 2.00595 0.675276C2.47451 0.669226 3.14218 0.663977 3.9594 0.65987C5.59393 0.651657 7.82748 0.648008 10.2647 0.651657L19.1388 0.666256L19.1806 0.666325L19.2099 0.696115L19.4458 0.935871L19.6892 1.16841L19.7201 1.19795V1.24071V10.0728V18.9049V18.9477L19.6892 18.9772L19.4458 19.2098L19.2099 19.4495L19.1805 19.4794H19.1386H10.1756H1.21268H1.17079L1.14141 19.4495L0.905448 19.2098L0.662116 18.9772L0.631201 18.9477V18.9049V10.0801V1.25531V1.21569L0.658326 1.18683L0.84351 0.98975L0.843783 0.989462C0.899364 0.930779 0.965989 0.870985 1.02948 0.820936C1.09138 0.772135 1.15658 0.7276 1.20884 0.704189ZM18.9645 2.2772C18.9645 2.01932 18.9571 1.81881 18.9428 1.67684C18.9356 1.60563 18.927 1.55191 18.9175 1.5142C18.915 1.50429 18.9127 1.49638 18.9107 1.49016C18.9087 1.48995 18.9067 1.48974 18.9045 1.48953C18.8705 1.48614 18.8201 1.48272 18.7536 1.47935C18.6209 1.47264 18.4291 1.46636 18.186 1.46055C17.7001 1.44893 17.0122 1.43924 16.1893 1.43149C14.5436 1.41598 12.3597 1.40823 10.1756 1.40823C7.99156 1.40823 5.80764 1.41598 4.162 1.43149C3.33911 1.43924 2.6512 1.44893 2.16527 1.46055C1.92218 1.46636 1.73037 1.47264 1.59773 1.47935C1.5312 1.48272 1.48083 1.48614 1.44676 1.48953C1.44462 1.48974 1.44257 1.48995 1.44061 1.49016C1.43857 1.49638 1.43624 1.50429 1.43376 1.5142C1.42432 1.55191 1.41566 1.60563 1.40847 1.67684C1.39416 1.81881 1.38676 2.01932 1.38676 2.2772V2.96553H10.1756H18.9645V2.2772ZM18.7536 18.6663C18.8143 18.6632 18.8616 18.6601 18.8953 18.657C18.8965 18.6476 18.8978 18.6367 18.8992 18.6242C18.9058 18.5609 18.912 18.4657 18.9178 18.333C18.9291 18.0681 18.9382 17.6604 18.9451 17.0744C18.959 15.9026 18.9645 14.0218 18.9645 11.1531V3.74947H10.1756H1.38676V11.1531C1.38676 14.0218 1.39231 15.9026 1.40619 17.0744C1.41314 17.6604 1.42215 18.0681 1.43354 18.333C1.43924 18.4657 1.44548 18.5609 1.45214 18.6242C1.45345 18.6367 1.45475 18.6476 1.45601 18.657C1.4897 18.6601 1.53698 18.6632 1.59773 18.6663C1.73037 18.673 1.92218 18.6793 2.16527 18.6851C2.6512 18.6967 3.33911 18.7064 4.162 18.7142C5.80764 18.7297 7.99156 18.7374 10.1756 18.7374C12.3597 18.7374 14.5436 18.7297 16.1893 18.7142C17.0122 18.7064 17.7001 18.6967 18.186 18.6851C18.4291 18.6793 18.6209 18.673 18.7536 18.6663Z" fill="#184463" stroke="#184463" stroke-width="0.2"/>
<path d="M1.87939 2.58145H1.77939V2.48145V2.18947V1.8975V1.7975H1.87939H2.17569H2.47199H2.57199V1.8975V2.18947V2.48145V2.58145H2.47199H2.17569H1.87939Z" fill="#184463" stroke="#184463" stroke-width="0.2"/>
<path d="M3.06445 2.58145H2.96445V2.48145V2.18947V1.8975V1.7975H3.06445H3.36075H3.65705H3.75705V1.8975V2.18947V2.48145V2.58145H3.65705H3.36075H3.06445Z" fill="#184463" stroke="#184463" stroke-width="0.2"/>
<path d="M17.8794 2.58145H17.7794V2.48145V2.18947V1.8975V1.7975H17.8794H18.1757H18.472H18.572V1.8975V2.18947V2.48145V2.58145H18.472H18.1757H17.8794Z" fill="#184463" stroke="#184463" stroke-width="0.2"/>
<path d="M9.58301 6.08535H9.48301V5.98535V5.58389C9.48301 5.41627 9.48992 5.2928 9.52183 5.19088C9.55542 5.08359 9.61398 5.00781 9.69808 4.92862C9.74038 4.88516 9.78291 4.84362 9.83831 4.81121C9.89574 4.77762 9.96069 4.75728 10.0455 4.74419C10.2089 4.71898 10.4725 4.71747 10.9534 4.71747H11.9534H12.0534V4.81747V5.10944V5.40141V5.50141H11.9534H11.0645H10.2756V5.69338V5.98535V6.08535H10.1756H9.8793H9.58301Z" fill="#184463" stroke="#184463" stroke-width="0.2"/>
<path d="M12.4459 5.69332C12.4459 5.46913 12.4533 5.2825 12.4687 5.14311C12.4764 5.07362 12.4863 5.01317 12.4992 4.96454C12.5108 4.921 12.5291 4.86877 12.5646 4.83377C12.5799 4.81874 12.5966 4.81092 12.6052 4.80728C12.6154 4.80292 12.6259 4.79966 12.6352 4.79715C12.654 4.79211 12.6764 4.78794 12.7005 4.7843C12.7492 4.77697 12.8144 4.77045 12.8925 4.76457C13.0492 4.75276 13.2649 4.74302 13.519 4.73525C14.0275 4.71969 14.6944 4.71193 15.3607 4.71193C16.027 4.71193 16.6939 4.71969 17.2024 4.73525C17.4565 4.74302 17.6722 4.75276 17.8289 4.76457C17.907 4.77045 17.9723 4.77697 18.0209 4.7843C18.0451 4.78794 18.0674 4.79211 18.0862 4.79715C18.0956 4.79966 18.106 4.80292 18.1163 4.80728C18.1248 4.81092 18.1416 4.81874 18.1568 4.83377C18.179 4.85563 18.1922 4.88305 18.2004 4.90368C18.2094 4.92635 18.2168 4.95213 18.223 4.97899C18.2354 5.03286 18.2452 5.09995 18.2528 5.17397C18.2681 5.32255 18.2755 5.50864 18.2755 5.69332C18.2755 5.878 18.2681 6.06409 18.2528 6.21267C18.2452 6.28669 18.2354 6.35378 18.223 6.40765C18.2168 6.43451 18.2094 6.46029 18.2004 6.48296C18.1922 6.50359 18.179 6.53101 18.1568 6.55287L18.0866 6.48164L18.1568 6.55287C18.1416 6.5679 18.1248 6.57572 18.1163 6.57936C18.106 6.58372 18.0956 6.58698 18.0862 6.58949C18.0674 6.59453 18.0451 6.5987 18.0209 6.60234C17.9723 6.60967 17.907 6.61619 17.8289 6.62208C17.6722 6.63388 17.4565 6.64362 17.2024 6.65139C16.6939 6.66695 16.027 6.67471 15.3607 6.67471C14.6944 6.67471 14.0275 6.66695 13.519 6.65139C13.2649 6.64362 13.0492 6.63388 12.8925 6.62208C12.8144 6.61619 12.7492 6.60967 12.7005 6.60234C12.6764 6.5987 12.654 6.59453 12.6352 6.58949C12.6259 6.58698 12.6154 6.58372 12.6052 6.57936C12.5966 6.57572 12.5799 6.5679 12.5646 6.55287C12.5291 6.51787 12.5108 6.46564 12.4992 6.4221C12.4863 6.37347 12.4764 6.31302 12.4687 6.24353C12.4533 6.10414 12.4459 5.91751 12.4459 5.69332ZM15.3607 5.88529H17.4829V5.69332V5.50135H15.3607H13.2385V5.69332V5.88529H15.3607Z" fill="#184463" stroke="#184463" stroke-width="0.2"/>
<path d="M2.17554 6.08523H2.07554V5.98523V5.69326V5.40129V5.30129H2.17554H2.88665C3.27921 5.30129 3.55215 5.32261 3.75604 5.39458C3.96894 5.46973 4.10016 5.59747 4.21634 5.78697L4.21639 5.78695L4.21803 5.78984C4.25416 5.8534 4.27632 5.93592 4.29273 6.08146C4.30924 6.22784 4.32087 6.4488 4.32921 6.7967C4.34591 7.49344 4.34961 8.71201 4.34961 10.8903C4.34961 12.7262 4.35517 13.9425 4.36904 14.7079C4.37598 15.0908 4.38498 15.3594 4.39628 15.5359C4.40195 15.6244 4.40807 15.6875 4.41442 15.7294C4.4163 15.7418 4.41807 15.7515 4.41963 15.7589C4.42396 15.7609 4.42966 15.7633 4.43703 15.766C4.45955 15.7742 4.48993 15.7823 4.52685 15.7894C4.60055 15.8036 4.69232 15.8122 4.78294 15.8122H5.0385V13.6641C5.0385 12.8393 5.04405 12.2701 5.05802 11.8984C5.06499 11.713 5.07413 11.5743 5.08612 11.4768C5.09209 11.4283 5.09909 11.3871 5.10774 11.3543C5.1149 11.3272 5.12776 11.2861 5.1572 11.2571C5.19332 11.2215 5.248 11.2039 5.29369 11.1928C5.34521 11.1803 5.41038 11.1706 5.48709 11.1631C5.64095 11.148 5.85211 11.1407 6.11628 11.1407H6.81628V10.4524C6.81628 10.192 6.82369 9.98377 6.839 9.83195C6.84664 9.75626 6.85649 9.69182 6.86927 9.64079C6.88062 9.5955 6.89863 9.54106 6.93498 9.50524C6.97109 9.46965 7.02578 9.45209 7.07147 9.44098C7.12298 9.42845 7.18816 9.41877 7.26487 9.41125C7.41873 9.39619 7.62989 9.38888 7.89406 9.38888H8.59406V8.11662C8.59406 7.63076 8.60146 7.27784 8.61647 7.03828C8.62396 6.9188 8.6335 6.82492 8.64554 6.75581C8.65154 6.72138 8.6586 6.69049 8.66733 6.66454C8.67506 6.64158 8.68806 6.60987 8.71276 6.58554C8.73464 6.56396 8.76171 6.55111 8.78344 6.54281C8.80685 6.53387 8.83382 6.52665 8.86292 6.52056C8.9212 6.50837 8.99725 6.49883 9.08974 6.49139C9.27526 6.47647 9.53768 6.46917 9.87924 6.46917C10.2208 6.46917 10.4832 6.47647 10.6687 6.49139C10.7612 6.49883 10.8373 6.50837 10.8956 6.52056C10.9247 6.52665 10.9516 6.53387 10.975 6.54281C10.9968 6.55111 11.0238 6.56396 11.0457 6.58553C11.0649 6.60446 11.0751 6.627 11.0808 6.64151C11.0871 6.65795 11.0921 6.67624 11.0962 6.69499C11.1044 6.7326 11.1112 6.78165 11.1171 6.84171C11.1289 6.96239 11.138 7.13831 11.1449 7.37924C11.1589 7.8617 11.1644 8.61304 11.1644 9.72246V12.6006H11.657H12.1496V11.1823C12.1496 10.6421 12.1552 10.2547 12.1692 9.99355C12.1762 9.86328 12.1855 9.76155 12.1978 9.68685C12.204 9.64961 12.2114 9.61634 12.2207 9.58841C12.2291 9.5631 12.2428 9.53036 12.2683 9.50524C12.2942 9.47973 12.3291 9.46677 12.352 9.45944C12.3791 9.45074 12.4113 9.44351 12.4462 9.4373C12.5163 9.42483 12.6066 9.41483 12.7088 9.40697C12.9138 9.3912 13.1749 9.38341 13.4348 9.38341C13.6947 9.38341 13.9558 9.3912 14.1608 9.40697C14.263 9.41483 14.3533 9.42483 14.4234 9.4373C14.4583 9.44351 14.4905 9.45074 14.5176 9.45944C14.5405 9.46677 14.5754 9.47973 14.6013 9.50524C14.6209 9.5246 14.6311 9.54782 14.6366 9.56233C14.6429 9.579 14.6478 9.59763 14.6519 9.61682C14.66 9.65534 14.6668 9.70589 14.6727 9.76817C14.6844 9.89329 14.6935 10.0764 14.7005 10.3283C14.7144 10.8326 14.72 11.6203 14.72 12.7882V15.8122H15.0348C15.4341 15.8122 15.7366 15.8942 15.9344 16.1157C16.1294 16.3341 16.2015 16.6654 16.2015 17.1093V17.6641V17.7641H16.1015H15.8052H15.5089H15.4089V17.6641V17.1677C15.4089 17.0254 15.3998 16.8974 15.385 16.8005C15.3776 16.7518 15.369 16.7132 15.3603 16.6854C15.3577 16.6771 15.3554 16.6706 15.3534 16.6658C15.3447 16.6641 15.3332 16.6622 15.3186 16.6603C15.271 16.6539 15.1996 16.6478 15.0998 16.6422C14.9008 16.631 14.5969 16.6222 14.1629 16.6153C13.2952 16.6017 11.9126 16.5962 9.81998 16.5962C7.33524 16.5962 5.95067 16.5925 5.16419 16.5761C4.77141 16.5679 4.5249 16.5564 4.36414 16.5402C4.2051 16.5243 4.1181 16.5028 4.05315 16.4669L4.05312 16.467L4.05037 16.4654C4.03461 16.456 4.01858 16.4469 4.00245 16.4377C3.91199 16.3861 3.81842 16.3328 3.75065 16.2258C3.67274 16.1027 3.63098 15.9169 3.60458 15.5956C3.55625 15.0074 3.55648 13.8976 3.55693 11.7061C3.55697 11.4844 3.55702 11.2516 3.55702 11.0071C3.55702 9.1713 3.55146 7.95499 3.53759 7.1896C3.53065 6.80666 3.52165 6.53803 3.51035 6.36161C3.50468 6.2731 3.49856 6.20998 3.49221 6.16807C3.49047 6.15656 3.48883 6.14741 3.48735 6.14028C3.48094 6.13778 3.47162 6.13457 3.45852 6.13102C3.42487 6.1219 3.3778 6.11348 3.31688 6.10647C3.19544 6.0925 3.02934 6.08523 2.82739 6.08523H2.17554ZM4.42429 15.776C4.42431 15.7759 4.42406 15.7752 4.42346 15.7738C4.42397 15.7754 4.42427 15.7761 4.42429 15.776ZM3.48234 6.12147C3.48232 6.12153 3.48258 6.12231 3.48317 6.12364C3.48266 6.12207 3.48236 6.12141 3.48234 6.12147ZM9.87924 15.8122H10.3718V11.5327V7.25311H9.87924H9.38665V11.5327V15.8122H9.87924ZM8.10146 15.8122H8.59406V12.9925V10.1728H8.10146H7.60887V12.9925V15.8122H8.10146ZM13.4348 15.8122H13.9274V12.9925V10.1728H13.4348H12.9422V12.9925V15.8122H13.4348ZM6.32369 15.8122H6.81628V13.8684V11.9246H6.32369H5.83109V13.8684V15.8122H6.32369ZM11.657 15.8122H12.1496V14.5984V13.3845H11.657H11.1644V14.5984V15.8122H11.657Z" fill="#184463" stroke="#184463" stroke-width="0.2"/>
<path d="M12.5459 7.83682H12.4459V7.73682V7.44485V7.15287V7.05287H12.5459H14.1755H15.8052H15.9052V7.15287V7.44485V7.73682V7.83682H15.8052H14.1755H12.5459Z" fill="#184463" stroke="#184463" stroke-width="0.2"/>
<path d="M16.3979 7.83682H16.2979V7.73682V7.44485V7.15287V7.05287H16.3979H16.6942H16.9905H17.0905V7.15287V7.44485V7.73682V7.83682H16.9905H16.6942H16.3979Z" fill="#184463" stroke="#184463" stroke-width="0.2"/>
<path d="M17.583 7.83682H17.483V7.73682V7.44485V7.15287V7.05287H17.583H17.8793H18.1756H18.2756V7.15287V7.44485V7.73682V7.83682H18.1756H17.8793H17.583Z" fill="#184463" stroke="#184463" stroke-width="0.2"/>
</g>
<defs>
<clipPath id="clip0_2024_87">
<rect width="20" height="20" fill="white" transform="translate(0.249756)"/>
</clipPath>
</defs>
</svg>
