<svg width="24" height="24" viewBox="0 0 24 24" fill="none" xmlns="http://www.w3.org/2000/svg">
<path d="M12.25 2C12.4489 2 12.6397 2.07902 12.7803 2.21967C12.921 2.36032 13 2.55109 13 2.75V21.25C13 21.4489 12.921 21.6397 12.7803 21.7803C12.6397 21.921 12.4489 22 12.25 22C12.0511 22 11.8603 21.921 11.7197 21.7803C11.579 21.6397 11.5 21.4489 11.5 21.25V2.75C11.5 2.55109 11.579 2.36032 11.7197 2.21967C11.8603 2.07902 12.0511 2 12.25 2ZM10 5H2.75C2.55109 5 2.36032 5.07902 2.21967 5.21967C2.07902 5.36032 2 5.55109 2 5.75C2 5.94891 2.07902 6.13968 2.21967 6.28033C2.36032 6.42098 2.55109 6.5 2.75 6.5H10V5ZM10 9H2.75C2.55109 9 2.36032 9.07902 2.21967 9.21967C2.07902 9.36032 2 9.55109 2 9.75C2 9.94891 2.07902 10.1397 2.21967 10.2803C2.36032 10.421 2.55109 10.5 2.75 10.5H10V9ZM10 13H2.75C2.55109 13 2.36032 13.079 2.21967 13.2197C2.07902 13.3603 2 13.5511 2 13.75C2 13.9489 2.07902 14.1397 2.21967 14.2803C2.36032 14.421 2.55109 14.5 2.75 14.5H10V13ZM10 17H2.75C2.55109 17 2.36032 17.079 2.21967 17.2197C2.07902 17.3603 2 17.5511 2 17.75C2 17.9489 2.07902 18.1397 2.21967 18.2803C2.36032 18.421 2.55109 18.5 2.75 18.5H10V17ZM19.75 18H14.5V16.5H19.75C19.9489 16.5 20.1397 16.421 20.2803 16.2803C20.421 16.1397 20.5 15.9489 20.5 15.75C20.5 15.5511 20.421 15.3603 20.2803 15.2197C20.1397 15.079 19.9489 15 19.75 15H14.5V13.5H19.75C20.3467 13.5 20.919 13.7371 21.341 14.159C21.7629 14.581 22 15.1533 22 15.75C22 16.3467 21.7629 16.919 21.341 17.341C20.919 17.7629 20.3467 18 19.75 18ZM19.75 10.5H14.5V9H19.75C19.9489 9 20.1397 8.92098 20.2803 8.78033C20.421 8.63968 20.5 8.44891 20.5 8.25C20.5 8.05109 20.421 7.86032 20.2803 7.71967C20.1397 7.57902 19.9489 7.5 19.75 7.5H14.5V6H19.75C20.3467 6 20.919 6.23705 21.341 6.65901C21.7629 7.08097 22 7.65326 22 8.25C22 8.84674 21.7629 9.41903 21.341 9.84099C20.919 10.2629 20.3467 10.5 19.75 10.5Z" fill="#0FAF62"/>
</svg>
