<svg width="24" height="24" viewBox="0 0 24 24" fill="none" xmlns="http://www.w3.org/2000/svg">
<path d="M5.16479 4.17C5.34009 4.25783 5.54282 4.27352 5.72954 4.21371C5.91627 4.1539 6.07215 4.02334 6.16379 3.85L6.16579 3.846L6.20179 3.794C6.26109 3.71664 6.3296 3.64679 6.40579 3.586C6.59579 3.434 6.93179 3.25 7.49979 3.25C7.99179 3.25 8.27979 3.487 8.39179 3.71C8.49479 3.917 8.49479 4.194 8.21979 4.47C8.02479 4.664 7.77379 4.833 7.45379 5.018C7.36513 5.06933 7.26846 5.124 7.16379 5.182C6.92379 5.317 6.65179 5.469 6.41079 5.627C5.65379 6.121 4.91679 6.838 4.75579 8.159C4.74292 8.26435 4.75254 8.37123 4.78404 8.47259C4.81554 8.57394 4.86819 8.66745 4.93852 8.74695C5.00884 8.82644 5.09524 8.8901 5.19199 8.93372C5.28875 8.97734 5.39366 8.99994 5.49979 9H9.24979C9.4487 9 9.63947 8.92098 9.78012 8.78033C9.92077 8.63968 9.99979 8.44891 9.99979 8.25C9.99979 8.05109 9.92077 7.86032 9.78012 7.71967C9.63947 7.57902 9.4487 7.5 9.24979 7.5H6.54779C6.71779 7.257 6.94979 7.066 7.23079 6.882C7.42979 6.752 7.62279 6.645 7.83779 6.524C7.95246 6.46067 8.07546 6.39133 8.20679 6.316C8.55579 6.113 8.94479 5.866 9.27979 5.53C10.0048 4.806 10.1298 3.833 9.73279 3.04C9.34479 2.263 8.50779 1.75 7.49979 1.75C6.56779 1.75 5.90479 2.066 5.46979 2.414C5.23972 2.59848 5.04143 2.81941 4.88279 3.068L4.84879 3.128L4.83679 3.148L4.83279 3.158L4.83079 3.161V3.163L4.82879 3.165C4.73995 3.34296 4.72544 3.54892 4.78845 3.73758C4.85146 3.92624 4.98684 4.08115 5.16479 4.17ZM14.3748 4.485C14.2398 4.611 13.9748 4.751 13.4998 4.751C13.3009 4.751 13.1101 4.83002 12.9695 4.97067C12.8288 5.11132 12.7498 5.30209 12.7498 5.501C12.7498 5.69991 12.8288 5.89068 12.9695 6.03133C13.1101 6.17198 13.3009 6.251 13.4998 6.251C13.9738 6.251 14.2398 6.391 14.3748 6.517C14.5098 6.643 14.5648 6.8 14.5548 6.957C14.5398 7.22 14.2728 7.751 13.2498 7.751C12.7848 7.751 12.4898 7.614 12.3218 7.502C12.2444 7.45125 12.1744 7.39 12.1138 7.32C12.0013 7.15974 11.8306 7.04983 11.6381 7.01377C11.4456 6.97771 11.2467 7.01835 11.0838 7.127C10.4998 7.502 10.8758 8.167 10.8758 8.167L10.8768 8.168L10.8778 8.17L10.8798 8.173L10.8848 8.181L10.8978 8.199L10.9338 8.247C10.9631 8.28433 11.0028 8.32967 11.0528 8.383C11.1528 8.489 11.2958 8.621 11.4898 8.75C11.8838 9.013 12.4648 9.251 13.2498 9.251C14.8718 9.251 15.9798 8.282 16.0528 7.045C16.07 6.76179 16.0279 6.4781 15.9292 6.21207C15.8306 5.94604 15.6775 5.70352 15.4798 5.5C15.8908 5.073 16.0858 4.514 16.0528 3.956C15.9788 2.719 14.8718 1.75 13.2498 1.75C12.4648 1.75 11.8838 1.988 11.4898 2.251C11.2802 2.38976 11.0928 2.55934 10.9338 2.754L10.8978 2.802L10.8848 2.82L10.8798 2.828L10.8778 2.831L10.8768 2.833L10.8758 2.834C10.7635 2.99817 10.721 3.20023 10.7576 3.39574C10.7943 3.59125 10.9071 3.76418 11.0713 3.8765C11.2355 3.98882 11.4375 4.03132 11.633 3.99466C11.8285 3.958 12.0015 3.84517 12.1138 3.681L12.1428 3.648C12.1758 3.613 12.2348 3.558 12.3228 3.499C12.4908 3.387 12.7848 3.25 13.2498 3.25C14.2728 3.25 14.5398 3.781 14.5558 4.044C14.5605 4.12621 14.5467 4.20843 14.5153 4.28458C14.484 4.36074 14.436 4.42989 14.3748 4.485ZM12.1238 7.334L12.1168 7.323V7.325L12.1208 7.329L12.1218 7.331L12.1238 7.334ZM12.1238 3.667L12.1168 3.677V3.675L12.1208 3.671L12.1218 3.669L12.1238 3.667ZM3.49479 2.649L3.50179 2.749V8.246C3.50374 8.43738 3.43245 8.62226 3.30252 8.76278C3.17259 8.90331 2.99386 8.98885 2.80292 9.00189C2.61197 9.01492 2.42327 8.95447 2.27545 8.8329C2.12763 8.71134 2.03187 8.53786 2.00779 8.348L2.00179 8.246V3.792L1.48879 3.965C1.31704 4.0225 1.13027 4.0159 0.963005 3.94641C0.795736 3.87693 0.659262 3.74927 0.578792 3.587L0.538792 3.492C0.481295 3.32024 0.487897 3.13348 0.557378 2.96621C0.626858 2.79894 0.754524 2.66247 0.916792 2.582L1.01179 2.542L2.51279 2.039C2.61748 2.00383 2.72864 1.99222 2.83834 2.00499C2.94803 2.01776 3.05356 2.0546 3.14737 2.11287C3.24118 2.17114 3.32096 2.24941 3.38102 2.34209C3.44108 2.43477 3.47993 2.53957 3.49479 2.649ZM17.0268 6.5H19.7448C19.9437 6.5 20.1345 6.57902 20.2751 6.71967C20.4158 6.86032 20.4948 7.05109 20.4948 7.25V16.755C20.4948 16.9539 20.4158 17.1447 20.2751 17.2853C20.1345 17.426 19.9437 17.505 19.7448 17.505H4.24979C4.05088 17.505 3.86011 17.426 3.71946 17.2853C3.57881 17.1447 3.49979 16.9539 3.49979 16.755V9.804C3.26904 9.92311 3.01456 9.98907 2.75501 9.99702C2.49545 10.005 2.23741 9.95475 1.99979 9.85V16.755C1.99979 17.3517 2.23685 17.924 2.6588 18.346C3.08076 18.7679 3.65306 19.005 4.24979 19.005H19.7448C20.3415 19.005 20.9138 18.7679 21.3358 18.346C21.7577 17.924 21.9948 17.3517 21.9948 16.755V7.25C21.9948 6.65326 21.7577 6.08097 21.3358 5.65901C20.9138 5.23705 20.3415 5 19.7448 5H16.9128C16.858 5.17266 16.7877 5.34001 16.7028 5.5C16.8698 5.815 16.9788 6.153 17.0268 6.5ZM17.2498 14.5H6.74979L6.64779 14.507C6.45954 14.5329 6.28814 14.6293 6.16823 14.7767C6.04831 14.9241 5.98881 15.1115 6.00177 15.3011C6.01472 15.4907 6.09915 15.6683 6.238 15.798C6.37685 15.9278 6.55977 15.9999 6.74979 16H17.2498L17.3518 15.993C17.54 15.9671 17.7114 15.8707 17.8314 15.7233C17.9513 15.5759 18.0108 15.3885 17.9978 15.1989C17.9849 15.0093 17.9004 14.8317 17.7616 14.702C17.6227 14.5722 17.4398 14.5001 17.2498 14.5ZM17.4998 12C17.4998 11.7348 17.3944 11.4804 17.2069 11.2929C17.0194 11.1054 16.765 11 16.4998 11C16.2346 11 15.9802 11.1054 15.7927 11.2929C15.6051 11.4804 15.4998 11.7348 15.4998 12C15.4998 12.2652 15.6051 12.5196 15.7927 12.7071C15.9802 12.8946 16.2346 13 16.4998 13C16.765 13 17.0194 12.8946 17.2069 12.7071C17.3944 12.5196 17.4998 12.2652 17.4998 12ZM11.5048 12C11.5048 11.7348 11.3994 11.4804 11.2119 11.2929C11.0244 11.1054 10.77 11 10.5048 11C10.2396 11 9.98522 11.1054 9.79769 11.2929C9.61015 11.4804 9.50479 11.7348 9.50479 12C9.50479 12.2652 9.61015 12.5196 9.79769 12.7071C9.98522 12.8946 10.2396 13 10.5048 13C10.77 13 11.0244 12.8946 11.2119 12.7071C11.3994 12.5196 11.5048 12.2652 11.5048 12ZM8.50479 12C8.50479 11.7348 8.39944 11.4804 8.2119 11.2929C8.02436 11.1054 7.77001 11 7.50479 11C7.23958 11 6.98522 11.1054 6.79769 11.2929C6.61015 11.4804 6.50479 11.7348 6.50479 12C6.50479 12.2652 6.61015 12.5196 6.79769 12.7071C6.98522 12.8946 7.23958 13 7.50479 13C7.77001 13 8.02436 12.8946 8.2119 12.7071C8.39944 12.5196 8.50479 12.2652 8.50479 12ZM14.5048 12C14.5048 11.7348 14.3994 11.4804 14.2119 11.2929C14.0244 11.1054 13.77 11 13.5048 11C13.2396 11 12.9852 11.1054 12.7977 11.2929C12.6101 11.4804 12.5048 11.7348 12.5048 12C12.5048 12.2652 12.6101 12.5196 12.7977 12.7071C12.9852 12.8946 13.2396 13 13.5048 13C13.77 13 14.0244 12.8946 14.2119 12.7071C14.3994 12.5196 14.5048 12.2652 14.5048 12ZM18.9948 9C18.9948 8.73478 18.8894 8.48043 18.7019 8.29289C18.5144 8.10536 18.26 8 17.9948 8C17.7296 8 17.4752 8.10536 17.2877 8.29289C17.1001 8.48043 16.9948 8.73478 16.9948 9C16.9948 9.26522 17.1001 9.51957 17.2877 9.70711C17.4752 9.89464 17.7296 10 17.9948 10C18.26 10 18.5144 9.89464 18.7019 9.70711C18.8894 9.51957 18.9948 9.26522 18.9948 9Z" fill="#0FAF62"/>
</svg>
