<svg width="28" height="28" viewBox="0 0 28 28" fill="none" xmlns="http://www.w3.org/2000/svg">
<path fill-rule="evenodd" clip-rule="evenodd" d="M5.83317 2.33398C5.18884 2.33398 4.6665 2.85632 4.6665 3.50065V22.1673C4.6665 24.1003 6.23351 25.6673 8.1665 25.6673H19.8332C21.7662 25.6673 23.3332 24.1003 23.3332 22.1673V9.33398C23.3332 9.02457 23.2103 8.72782 22.9915 8.50903L17.1581 2.67569C16.9393 2.4569 16.6426 2.33398 16.3332 2.33398H5.83317ZM16.3332 5.15057L20.5166 9.33398H16.3332V5.15057ZM9.33325 15.167C9.33325 14.5227 9.85559 14.0003 10.4999 14.0003H17.4999C18.1443 14.0003 18.6666 14.5227 18.6666 15.167C18.6666 15.8113 18.1443 16.3337 17.4999 16.3337H10.4999C9.85559 16.3337 9.33325 15.8113 9.33325 15.167ZM9.33325 19.8337C9.33325 19.1893 9.85559 18.667 10.4999 18.667H17.4999C18.1443 18.667 18.6666 19.1893 18.6666 19.8337C18.6666 20.478 18.1443 21.0003 17.4999 21.0003H10.4999C9.85559 21.0003 9.33325 20.478 9.33325 19.8337Z" fill="#FF7919"/>
</svg>
