<svg width="54" height="54" viewBox="0 0 54 54" fill="none" xmlns="http://www.w3.org/2000/svg">
<circle cx="27" cy="27" r="27" fill="#FF7919"/>
<mask id="mask0_10_51" style="mask-type:alpha" maskUnits="userSpaceOnUse" x="0" y="0" width="54" height="54">
<circle cx="27" cy="27" r="27" fill="#EA552B"/>
</mask>
<g mask="url(#mask0_10_51)">
<path d="M35.4544 -2C21.213 2.36762 -5.79663 13.3203 0.0963741 22.1899C7.46262 33.2769 37.6643 1.52769 50.187 6.0633C62.7096 10.5989 69.3393 22.6939 52.3968 25.2136C35.4544 27.7334 -5.79646 24.2057 -2.85004 33.7809C0.0963742 43.3561 39.5059 48.8996 54.6067 38.3165C69.7075 27.7334 96.226 47.8917 69.7075 48.8996C43.189 49.9075 11.146 42.8521 5.62117 48.8996" stroke="black"/>
</g>
<path d="M35.5 26.134C36.1667 26.5189 36.1667 27.4811 35.5 27.866L23.5 34.7942C22.8333 35.1791 22 34.698 22 33.9282L22 20.0718C22 19.302 22.8333 18.8209 23.5 19.2058L35.5 26.134Z" fill="white"/>
</svg>
