<svg width="29" height="28" viewBox="0 0 29 28" fill="none" xmlns="http://www.w3.org/2000/svg">
<path d="M24.375 3.9375H5.125C4.54484 3.9375 3.98844 4.16797 3.5782 4.5782C3.16797 4.98844 2.9375 5.54484 2.9375 6.125V17.5C2.9375 18.0802 3.16797 18.6366 3.5782 19.0468C3.98844 19.457 4.54484 19.6875 5.125 19.6875H24.375C24.9552 19.6875 25.5116 19.457 25.9218 19.0468C26.332 18.6366 26.5625 18.0802 26.5625 17.5V6.125C26.5625 5.54484 26.332 4.98844 25.9218 4.5782C25.5116 4.16797 24.9552 3.9375 24.375 3.9375ZM23.9375 17.0625H5.5625V6.5625H23.9375V17.0625ZM26.5625 22.75C26.5625 23.0981 26.4242 23.4319 26.1781 23.6781C25.9319 23.9242 25.5981 24.0625 25.25 24.0625H4.25C3.9019 24.0625 3.56806 23.9242 3.32192 23.6781C3.07578 23.4319 2.9375 23.0981 2.9375 22.75C2.9375 22.4019 3.07578 22.0681 3.32192 21.8219C3.56806 21.5758 3.9019 21.4375 4.25 21.4375H25.25C25.5981 21.4375 25.9319 21.5758 26.1781 21.8219C26.4242 22.0681 26.5625 22.4019 26.5625 22.75ZM12.125 14V9.625C12.1249 9.39068 12.1876 9.1606 12.3065 8.95867C12.4253 8.75674 12.5961 8.59033 12.801 8.4767C13.006 8.36307 13.2376 8.30638 13.4718 8.31251C13.7061 8.31864 13.9344 8.38737 14.1331 8.51156L17.6331 10.6991C17.8221 10.817 17.9779 10.9811 18.086 11.1759C18.194 11.3707 18.2507 11.5898 18.2507 11.8125C18.2507 12.0352 18.194 12.2543 18.086 12.4491C17.9779 12.6439 17.8221 12.808 17.6331 12.9259L14.1331 15.1134C13.9344 15.2376 13.7061 15.3064 13.4718 15.3125C13.2376 15.3186 13.006 15.2619 12.801 15.1483C12.5961 15.0347 12.4253 14.8683 12.3065 14.6663C12.1876 14.4644 12.1249 14.2343 12.125 14Z" fill="#FF7919"/>
</svg>
